<svg width="124" height="44" viewBox="0 0 124 44" fill="none" xmlns="http://www.w3.org/2000/svg">
<path d="M1.20356 35.8579C1.50692 35.5545 1.8103 35.2512 2.11366 34.9478C3.63049 33.7344 5.75404 33.431 7.72592 33.1276C11.6697 32.5209 15.7651 31.4591 18.6471 28.7288C21.529 25.8469 22.5908 21.7514 24.1077 17.9593C26.3829 11.892 30.3266 5.97641 36.0906 2.79107C41.8545 -0.394263 49.5904 -0.545943 54.5959 3.70117C60.5115 8.7067 60.9666 17.3526 63.5452 24.4817C64.0002 25.6952 65.062 27.212 66.2755 26.7569C66.8822 26.6053 67.3372 25.9985 67.4889 25.5435C68.7024 23.2682 68.8541 20.6896 70.3709 18.7178C73.5562 14.4706 80.837 15.6841 84.4774 19.6279C88.1178 23.5716 89.4829 29.0322 91.4548 34.0377C92.2132 35.7062 92.9716 37.5264 94.6401 38.5882C96.1569 39.4983 98.1288 39.65 99.949 39.4983C104.044 39.3466 108.292 39.1949 112.387 38.7399C117.241 38.2848 119.061 42.8353 123.005 42.8353C92.3649 42.8353 61.8766 42.8353 31.2367 42.8353C22.5908 42.8353 13.7932 43.442 5.29901 42.3803C3.6305 42.2286 1.65862 41.7735 0.748527 40.2567C-0.161569 38.7399 0.293461 37.0714 1.20356 35.8579Z" fill="url(#paint0_linear_317_163)"/>
<defs>
<linearGradient id="paint0_linear_317_163" x1="61.6158" y1="42.8188" x2="61.6158" y2="0.358084" gradientUnits="userSpaceOnUse">
<stop stop-color="#FFFFDD" stop-opacity="0.5"/>
<stop offset="1" stop-color="white" stop-opacity="0.5"/>
</linearGradient>
</defs>
</svg>
