<svg width="316" height="87" viewBox="0 0 316 87" fill="none" xmlns="http://www.w3.org/2000/svg">
<path d="M-0.366342 48.6541C0.0887064 42.7385 1.15049 36.6712 3.42573 31.2106C11.1615 11.4918 34.0656 -3.37306 55.4529 1.93584C68.6493 5.27286 80.1772 14.3738 86.3962 26.5084C90.0366 33.4858 92.6152 42.2834 100.048 45.0137C113.396 50.1709 125.075 31.0589 139.333 31.8173C148.586 32.4241 154.957 41.07 160.721 48.3507C166.485 55.6315 174.827 61.5471 183.473 58.2101C186.203 57.1483 188.479 55.1765 190.906 53.8113C199.248 49.2608 213.355 50.3226 221.09 55.6315C228.978 61.0921 233.832 75.957 242.023 78.839C250.972 82.0243 263.562 77.4738 271.297 77.6255C288.286 77.7772 300.724 79.5974 315.437 86.8782C315.437 86.8782 65.464 86.8782 45.4418 86.8782C16.1671 86.8782 6.15602 76.7154 1.30217 64.2774C-0.821389 59.4236 -0.669707 53.963 -0.366342 48.6541Z" fill="url(#paint0_linear_317_161)"/>
<defs>
<linearGradient id="paint0_linear_317_161" x1="157.423" y1="86.9953" x2="157.423" y2="0.831587" gradientUnits="userSpaceOnUse">
<stop stop-color="#FFFFDD" stop-opacity="0.5"/>
<stop offset="1" stop-color="white"/>
</linearGradient>
</defs>
</svg>
