<svg width="177" height="44" viewBox="0 0 177 44" fill="none" xmlns="http://www.w3.org/2000/svg">
<path d="M27.9598 34.5425C42.9764 34.9975 58.2963 30.5988 70.5826 21.9528C83.7791 12.7002 97.8856 -1.86134 113.054 3.59924C118.211 5.57112 122.458 9.66654 127.615 11.7901C144.604 18.9192 162.047 2.53745 180.401 0.413894C184.951 -0.0411538 190.412 0.868942 192.536 4.96438C195.721 11.0317 191.019 25.1382 202.092 25.7449C204.822 25.8966 207.4 24.6831 209.979 23.9247C212.558 23.1663 215.743 23.0146 217.715 24.8348C219.08 26.0483 219.535 28.0201 220.445 29.8403C222.417 33.7841 226.209 36.5144 230.305 38.1829C234.4 39.8514 241.681 42.8851 246.08 43.3401C175.547 42.2783 71.3411 44.4019 0.808594 43.3401C8.08937 37.4245 18.5555 34.2391 27.9598 34.5425Z" fill="url(#paint0_linear_317_159)"/>
<defs>
<linearGradient id="paint0_linear_317_159" x1="123.417" y1="43.545" x2="123.417" y2="0.416169" gradientUnits="userSpaceOnUse">
<stop stop-color="#FFFFDD" stop-opacity="0.5"/>
<stop offset="1" stop-color="white"/>
</linearGradient>
</defs>
</svg>
