<svg width="293" height="172" viewBox="0 0 293 172" fill="none" xmlns="http://www.w3.org/2000/svg">
<path d="M275.34 158.624C275.34 158.47 275.418 158.315 275.34 158.237C275.031 157.928 274.644 157.618 274.334 157.308C271.162 154.598 268.455 151.501 266.288 147.939C264.664 145.152 263.503 142.287 262.807 139.113C262.343 137.1 262.033 135.086 261.646 133.073C260.95 129.047 259.557 125.408 257.314 122.001C255.689 119.601 253.987 117.356 252.362 115.033C251.511 113.794 250.66 112.633 249.887 111.316C248.339 108.839 247.334 106.206 246.869 103.341C246.56 101.56 246.328 99.7021 246.096 97.9213C245.632 93.9725 244.703 90.1012 243.311 86.3072C242.769 84.7587 242.15 83.2875 241.609 81.739C240.603 78.8742 239.674 75.9319 238.746 72.9897C238.669 72.68 238.591 72.4477 238.514 72.0605C239.055 71.9831 239.21 72.3703 239.365 72.6025C240.912 74.306 242.692 75.7771 244.626 77.0159C245.864 77.8676 247.256 78.487 248.726 78.9516C251.279 79.7259 253.91 80.0356 256.54 80.3453C259.403 80.655 261.956 81.6615 264.354 83.2875C267.758 85.6878 269.847 89.0172 270.698 93.0434C270.93 94.1274 271.085 95.2888 271.162 96.3728C271.394 99.315 272.168 102.102 273.483 104.735C274.18 106.129 274.721 107.522 275.185 108.993C276.114 111.703 276.191 114.491 275.65 117.278C275.34 119.059 274.566 120.685 273.715 122.234C272.555 124.324 271.162 126.26 269.77 128.195C268.687 129.744 267.526 131.215 266.443 132.764C265.824 133.693 265.283 134.699 264.741 135.706C263.967 137.1 263.89 138.648 264.354 140.197C265.747 144.765 267.99 148.791 271.24 152.353C273.948 155.295 277.042 157.85 280.292 160.096C280.988 160.56 281.684 160.87 282.535 161.102C290.04 163.193 297.622 163.967 305.436 163.812C306.364 163.812 307.292 163.812 308.221 163.735C308.53 163.735 308.84 163.735 309.149 163.735C309.613 163.735 309.923 164.044 309.845 164.354C309.845 164.664 309.536 164.973 309.149 164.973C308.84 165.051 308.53 165.051 308.221 165.051C305.59 165.051 302.882 165.051 300.252 165.051C293.212 164.896 286.326 163.657 279.673 161.567C275.727 160.328 272.013 158.547 268.455 156.456C266.675 155.372 264.896 154.288 263.116 153.127C262.497 152.74 261.801 152.353 261.027 152.12C259.325 151.579 257.623 151.114 255.844 150.804C251.666 150.107 247.72 150.804 243.93 152.585C241.067 153.979 238.514 155.682 236.193 157.773C234.8 158.934 233.485 160.25 232.093 161.489C230.313 163.115 228.534 164.664 226.522 166.057C224.511 167.451 222.422 168.69 220.101 169.619C216.851 170.935 213.525 171.632 210.043 171.322C207.722 171.09 205.401 170.471 203.235 169.619C201.61 169 199.986 168.303 198.438 167.529C194.183 165.283 189.541 164.586 184.822 164.819C181.186 164.973 177.627 165.361 173.991 165.903C170.432 166.522 166.873 166.677 163.314 166.367C162.076 166.29 160.761 166.135 159.523 165.825C156.429 165.206 153.411 164.819 150.317 164.509C148.305 164.354 146.371 163.967 144.437 163.735C143.354 163.58 142.193 163.425 141.11 163.347C140.955 163.347 140.723 163.27 140.568 163.193C140.723 162.728 141.11 162.805 141.342 162.805C146.139 161.489 150.703 159.554 154.881 156.766C156.661 155.605 158.44 154.521 160.142 153.359C162.154 152.043 164.32 150.959 166.563 150.107C172.753 147.707 179.097 147.475 185.441 149.256C186.447 149.565 187.375 149.798 188.381 150.107C189.154 150.34 189.928 150.262 190.547 149.798C191.321 149.333 192.094 148.791 192.791 148.249C194.57 146.933 196.272 145.617 198.051 144.3C199.908 142.907 201.92 141.745 204.009 140.816C208.264 138.88 212.674 138.184 217.316 138.803C219.637 139.113 221.88 139.964 223.969 141.126C225.362 141.9 226.754 142.829 228.147 143.681C229.385 144.455 230.623 145.307 231.86 146.159C234.259 147.785 236.812 148.636 239.674 149.101C242.305 149.488 244.935 149.798 247.566 149.798C247.953 149.798 248.417 149.798 248.804 149.72C251.589 149.178 254.374 149.256 257.159 149.798C257.314 149.798 257.469 149.798 257.778 149.875C257.701 149.643 257.623 149.488 257.546 149.333C254.297 146.855 251.047 144.378 247.643 142.21C244.935 140.506 241.995 139.268 238.901 138.261C236.967 137.642 235.032 136.945 233.176 136.17C231.087 135.319 229.23 134.08 227.451 132.609C225.13 130.673 222.886 128.737 220.642 126.724C219.018 125.331 217.47 123.859 215.846 122.466C214.144 120.917 212.287 119.756 210.121 118.982C206.949 117.898 203.777 117.046 200.45 117.046C197.897 117.046 195.421 117.588 193.023 118.594C190.779 119.524 188.768 120.84 186.833 122.234C184.745 123.782 182.656 125.408 180.567 126.957C178.014 128.815 175.306 130.286 172.366 131.37C168.73 132.764 164.939 133.306 161.07 133.151C157.898 133.073 154.649 132.841 151.477 132.609C147.686 132.299 143.818 132.376 140.027 132.454C137.319 132.531 134.611 132.454 131.904 132.531C131.826 132.531 131.749 132.454 131.594 132.377C131.903 132.144 132.213 131.989 132.522 131.835C135.385 130.518 138.17 129.125 141.033 127.963C144.05 126.724 146.758 125.021 149.079 122.775C150.317 121.614 151.554 120.53 152.87 119.446C155.345 117.356 158.208 116.272 161.457 116.349C164.939 116.426 168.343 116.039 171.824 115.497C174.223 115.11 176.698 114.955 179.174 115.11C182.037 115.265 184.744 116.117 187.452 117.278C188.381 117.665 189.232 118.052 190.238 118.517C192.017 117.665 193.951 116.736 195.963 116.272C197.974 115.807 199.986 115.73 202.075 115.807C204.163 115.884 206.175 116.349 208.186 116.891C208.264 116.426 207.954 116.349 207.8 116.194C201.378 111.471 194.647 107.29 187.22 104.27C183.893 102.877 180.489 101.638 177.24 100.012C174.842 98.8504 174.842 98.8504 172.289 99.1601C168.42 99.5473 164.939 100.941 162.076 103.651C160.838 104.812 159.678 105.974 158.44 107.135C157.047 108.451 155.655 109.845 154.185 111.161C148.46 116.039 141.884 118.285 134.379 117.82C131.362 117.665 128.422 117.278 125.405 116.891C122.233 116.504 119.138 115.884 115.966 115.807C111.711 115.652 107.533 116.117 103.433 117.278C100.802 118.052 98.2493 118.827 95.6962 119.601C90.8995 121.072 86.0254 121.614 81.074 121.924C79.0625 122.001 75.5036 121.614 73.9563 121.15C73.879 120.762 74.1884 120.762 74.4205 120.685C75.3489 120.298 76.2 119.911 77.1284 119.601C80.9193 117.975 84.0139 115.497 86.567 112.245C88.1917 110.232 89.8937 108.219 91.7505 106.438C92.2921 105.896 92.8336 105.354 93.4526 104.89C95.6962 102.954 98.1719 101.483 101.034 100.786C101.189 100.786 101.344 100.709 101.499 100.631C105.057 99.857 108.075 98.1536 110.705 95.7533C112.485 94.1274 114.341 92.5788 116.198 91.1077C119.215 88.63 122.542 86.8492 126.256 85.6878C130.201 84.5264 134.07 84.6038 138.015 85.7652C140.723 86.6169 143.276 87.7783 145.829 88.9397C149.233 90.4883 152.56 92.1143 155.964 93.5854C159.368 95.0565 162.927 96.2953 166.563 96.9922C168.033 97.3019 169.581 97.3793 171.128 97.5342C171.438 97.5342 171.747 97.4567 172.211 97.3793C171.902 97.0696 171.747 96.9147 171.515 96.8373C168.111 94.6693 164.939 92.1917 161.922 89.4817C158.208 86.0749 154.185 82.9778 150.239 79.8033C148.847 78.7193 147.299 77.7127 145.829 76.7062C145.443 76.3965 144.978 76.1642 144.437 76.0094C141.497 75.1576 138.48 74.6157 135.385 74.7705C133.992 74.8479 132.6 75.0028 131.285 75.4674C128.422 76.4739 125.714 77.7902 123.393 79.8033C122.31 80.8098 121.15 81.739 120.067 82.7455C119.215 83.4424 118.364 84.2167 117.436 84.9135C113.258 88.2429 108.384 90.256 103.123 91.1851C99.9513 91.8045 96.702 91.6497 93.53 90.9529C91.5184 90.4883 89.5069 89.8689 87.4954 89.3269C84.0139 88.3203 80.5324 87.2363 76.9736 86.6169C72.5638 85.8426 68.0765 85.7652 63.5893 85.9975C62.6609 86.0749 61.7325 86.0749 60.8041 86.0749C60.572 86.0749 60.4173 85.9975 60.1078 85.9201C60.2626 85.6878 60.4173 85.4555 60.572 85.3006C61.5004 84.4489 62.3514 83.6747 63.2798 82.823C65.2913 81.0421 67.3802 79.3387 69.3917 77.5579C71.2485 75.9319 73.2601 74.3834 75.3489 72.9897C79.2172 70.2797 83.4724 68.8086 88.1143 68.2666C92.5242 67.7246 96.8567 67.9569 101.189 68.7312C105.444 69.5055 109.622 70.5894 113.8 72.0605C116.276 72.9122 118.829 73.764 121.382 74.5382C122.774 75.0028 124.09 75.3125 125.559 75.4674C126.72 75.5448 127.803 75.4674 128.886 75.0028C131.981 73.6865 135.153 73.2994 138.48 73.6865C138.866 73.764 139.253 73.764 139.795 73.764C139.563 73.2994 139.176 73.1445 138.866 72.9897C135.927 71.5186 132.987 70.2023 129.892 69.1957C128.732 68.8086 127.571 68.4215 126.411 68.0343C125.405 67.7246 124.399 67.6472 123.393 67.7246C121.382 67.8795 119.448 68.0343 117.436 68.1892C114.264 68.4215 111.015 68.4215 107.765 68.2666C103.588 68.1118 99.7192 66.8729 96.3925 64.3178C95.4641 63.621 94.4584 62.9241 93.53 62.2273C92.6016 61.5304 91.5958 60.911 90.4353 60.5239C87.8822 59.5947 85.3291 58.743 82.6213 58.3559C80.3003 58.0462 77.9794 57.5816 75.6584 57.3494C71.4033 56.9622 67.2255 57.3493 63.1251 58.8205C60.2625 59.827 57.5547 61.0659 54.9243 62.537C52.2938 64.0855 49.6634 65.7115 47.0329 67.2601C44.093 69.0409 41.0758 70.5894 37.8264 71.8283C35.9696 72.5251 34.0355 73.1446 32.1013 73.5317C29.4709 74.0737 26.8404 74.1511 24.21 73.6865C22.3532 73.3768 20.4964 72.9897 18.6396 72.6025C17.0149 72.2928 15.4676 71.9057 13.8429 71.4411C9.97464 70.3572 6.02896 69.5829 1.92856 69.2732C1.54173 69.2732 1.23226 69.1957 0.768066 69.1183C1.00016 68.8086 1.15489 68.5763 1.38699 68.344C4.01743 65.7889 6.64787 63.2338 9.35568 60.7562C11.4446 58.8205 13.6108 57.1171 16.0865 55.7234C19.9548 53.5554 24.0553 52.3166 28.5425 52.5489C30.4766 52.7037 32.4108 53.0134 34.2676 53.6328C38.368 54.9491 42.1589 56.9622 45.9499 58.9753C47.2651 59.6722 48.5803 60.2916 49.8955 60.911C50.5144 61.2207 51.2881 61.3756 51.9844 61.5304C53.1449 61.7627 54.1506 61.6079 55.1564 60.911C58.1737 59.0527 61.5004 57.8139 64.9045 56.8848C66.8387 56.3428 68.7728 56.0331 70.7843 55.9557C71.2485 55.9557 71.7901 55.8782 72.5637 55.8782C71.9448 55.4137 71.4033 55.4137 70.9391 55.2588C68.6955 54.7168 66.6839 53.8651 64.7498 52.7037C62.1193 51.1552 60.1078 49.0646 58.4058 46.5869C56.9358 44.419 55.6979 42.1736 54.6148 39.7733C53.6091 37.5279 52.6033 35.2825 51.5976 33.0371C49.0445 26.9978 45.3309 21.8102 40.6889 17.242C39.9153 16.4677 39.1416 15.616 38.3679 14.8417C38.2906 14.7643 38.2132 14.6094 38.0585 14.2997C38.368 14.3771 38.5227 14.3771 38.6774 14.4546C40.07 15.074 41.3852 15.616 42.7005 16.2354C46.8009 18.1711 51.056 19.4873 55.6206 19.8745C57.1679 20.0293 58.7926 19.9519 60.3399 19.8745C62.9704 19.7971 65.6008 19.5648 68.3086 19.7196C70.707 19.8745 73.1053 20.2616 75.3489 20.9585C76.3547 21.2682 77.3605 21.7327 78.2888 22.2747C80.9193 23.8233 82.4666 26.0687 83.1629 29.0109C83.4724 30.482 83.5497 32.0306 83.5497 33.5791C83.5497 34.5083 83.5497 35.4374 83.5497 36.3665C83.5497 37.5279 83.7818 38.6894 84.1686 39.7733C84.5555 40.7025 85.0197 41.4767 85.7934 42.1736C86.9538 43.2576 88.3464 43.6447 89.8938 43.1027C90.5127 42.8704 91.1316 42.5607 91.7505 42.3284C93.0657 41.8639 94.3036 41.2445 95.6188 40.8573C97.7077 40.2379 99.7192 40.3927 101.731 41.167C103.123 41.709 104.129 42.6381 105.057 43.7996C106.373 45.3481 107.378 47.0515 108.152 48.9098C108.926 50.6906 109.622 52.5488 110.241 54.3297C111.247 56.9622 112.717 59.3625 114.496 61.5304C116.043 63.3887 118.055 64.5501 120.299 65.3244C121.227 65.6341 122.31 65.7889 123.316 65.8664C125.173 66.0986 127.029 66.6406 128.809 67.2601C131.981 68.344 135.153 69.5055 138.17 71.054C141.033 72.5251 143.973 73.9962 146.835 75.6222C150.162 77.5579 153.102 79.9581 155.964 82.5132C158.827 84.9909 161.612 87.546 164.397 90.0237C167.028 92.3465 169.89 94.4371 172.908 96.2179C173.294 96.4502 173.758 96.6825 174.532 97.0696C174.223 96.5276 174.068 96.2179 173.913 96.063C171.979 93.7402 170.896 91.1077 170.354 88.1655C169.813 85.5329 169.349 82.9778 168.807 80.3453C168.652 79.4936 168.42 78.6419 168.188 77.7902C167.569 75.2351 166.254 73.0671 164.475 71.2089C162.773 69.428 160.761 68.0343 158.595 66.8729C155.81 65.4792 153.024 64.0081 150.394 62.4596C148.228 61.1433 145.907 60.0593 143.431 59.3625C140.414 58.5108 137.319 58.1236 134.224 58.1236C132.213 58.1236 130.279 58.2011 128.267 58.1236C123.161 57.8913 119.061 55.6459 116.121 51.4649C115.115 50.0712 114.419 48.6001 113.645 47.0515C112.871 45.503 112.175 43.877 111.479 42.3284C110.086 39.3088 108.462 36.444 106.063 34.0437C105.831 33.8114 105.676 33.5791 105.522 33.3469C105.599 32.9597 105.909 33.0372 106.141 32.9597C108.152 32.5726 110.086 32.8049 112.098 33.0371C113.955 33.2694 115.734 33.5791 117.513 33.9663C123.084 35.2825 127.648 38.1474 131.362 42.4833C133.451 44.961 135.23 47.5935 137.087 50.3035C138.015 51.6971 139.021 53.0908 140.027 54.4071C141.187 55.9557 142.657 57.1171 144.359 57.9688C144.669 58.1236 144.978 58.1236 145.597 58.2785C145.21 57.7365 144.978 57.4268 144.746 57.1171C143.74 55.7234 142.889 54.3297 142.271 52.7037C141.11 49.9938 140.646 47.2064 140.878 44.3415C141.033 42.4833 141.187 40.5476 141.342 38.6893C141.574 35.902 141.42 33.1146 141.033 30.3272C140.491 26.5332 139.021 23.2039 136.932 20.0294C135.849 18.4808 134.766 16.9322 133.606 15.4611C132.445 13.9126 131.285 12.364 130.124 10.8155C128.19 8.10552 126.952 5.00843 126.101 1.75648C126.024 1.44677 125.946 1.05963 125.869 0.749921C126.178 0.595066 126.256 0.82735 126.333 0.982205C129.505 6.86669 134.457 10.8155 140.104 14.1449C142.503 15.5386 145.133 16.5451 147.764 17.6291C150.703 18.7905 153.566 20.1068 156.196 21.965C158.208 23.3587 159.987 24.9073 161.457 26.843C163.005 28.9335 164.088 31.2563 164.32 33.8114C164.552 36.0568 164.629 38.3022 164.861 40.5476C165.016 42.251 165.171 44.0318 165.403 45.7352C165.79 48.2903 166.641 50.6906 168.033 52.8586C168.266 53.3231 168.575 53.7103 168.807 54.1748C171.515 58.5108 171.902 63.1564 170.2 67.9569C169.89 68.886 169.503 69.8926 169.117 70.8217C168.73 71.8283 168.343 72.8348 168.498 73.9188C168.575 74.3834 168.575 74.8479 168.807 75.2351C169.426 76.8611 169.89 78.5645 170.2 80.2679C170.587 82.3584 171.051 84.3715 171.438 86.4621C172.134 90.7206 174.377 94.2822 177.163 97.4567C178.4 98.9279 179.948 100.012 181.727 100.709C183.893 101.56 185.982 102.412 188.071 103.341C194.183 105.819 199.831 109.071 205.169 112.865C210.972 116.891 216.465 121.304 221.571 126.105C222.344 126.879 223.195 127.653 224.124 128.35C224.201 128.118 224.279 128.041 224.201 127.963C223.35 126.027 222.576 124.092 221.725 122.234C221.493 121.614 221.107 121.072 220.797 120.453C219.714 118.517 218.321 116.814 216.465 115.575C215.227 114.646 213.989 113.794 212.674 113.02C210.043 111.394 207.49 109.845 205.014 107.987C203.08 106.516 201.146 104.967 199.444 103.186C197.2 100.864 195.498 98.3084 194.183 95.3662C192.636 91.882 192.094 88.2429 192.481 84.4489C192.713 82.0487 193.023 79.6484 193.177 77.2482C193.41 72.5251 192.945 67.8795 192.172 63.2338C191.63 59.9819 190.934 56.7299 189.928 53.5554C189.077 50.8454 188.458 48.0581 187.917 45.1933C187.762 44.1867 187.53 43.2576 187.452 42.1736C187.607 42.5607 187.839 42.8704 187.994 43.1801C188.535 44.1093 189 45.0384 189.619 45.9675C191.707 49.3743 194.647 51.9294 198.206 53.8651C200.295 55.0265 202.461 56.1105 204.473 57.3494C206.252 58.3559 207.877 59.5947 209.347 61.0659C212.442 64.0855 213.911 67.802 213.757 72.138C213.679 73.764 213.602 75.3899 213.525 77.0159C213.447 78.2548 213.525 79.571 213.834 80.8099C214.144 82.3584 214.917 83.5198 216.31 84.2941C216.929 84.6038 217.47 84.9135 218.012 85.3006C218.863 85.9201 219.791 86.5395 220.642 87.1589C222.654 88.7849 223.814 90.8754 224.279 93.3531C224.82 96.063 224.743 98.8504 224.201 101.56C223.737 103.883 222.963 106.206 222.19 108.451C221.571 110.31 221.107 112.245 220.565 114.181C220.255 115.265 220.333 116.272 220.797 117.356C221.029 117.898 221.261 118.362 221.493 118.904C222.731 120.995 223.66 123.163 224.588 125.408C225.207 126.879 225.981 128.35 226.677 129.821C227.218 130.905 228.147 131.757 229.153 132.531C231.551 134.312 234.259 135.628 237.121 136.403C241.763 137.642 246.018 139.655 249.964 142.365C250.274 142.597 250.583 142.752 250.815 142.907C251.125 142.597 250.892 142.442 250.815 142.21C250.274 140.971 249.732 139.81 249.19 138.571C248.804 137.719 248.339 136.945 247.875 136.093C247.102 134.777 246.018 133.693 244.703 132.841C243.388 132.067 242.073 131.37 240.68 130.596C239.055 129.667 237.508 128.583 236.116 127.266C234.491 125.718 233.176 123.859 232.402 121.692C232.015 120.608 231.628 119.601 231.396 118.517C230.545 115.265 229.772 112.013 228.921 108.684C228.534 107.213 228.302 105.819 228.302 104.348C228.611 104.115 228.766 104.425 228.921 104.58C230.545 106.361 232.557 107.522 234.723 108.451C235.806 108.916 236.967 109.535 237.972 110.155C240.061 111.471 241.376 113.329 241.918 115.73C242.15 116.814 242.382 117.898 242.46 119.059C242.769 121.227 243.543 123.24 244.781 124.943C245.09 125.331 245.322 125.718 245.554 126.105C246.715 127.808 247.643 129.589 248.107 131.602C248.726 134.699 250.119 137.487 251.357 140.352C252.749 143.526 254.838 146.081 257.701 148.017C262.497 151.269 267.449 154.366 272.478 157.308C273.561 157.85 274.489 158.237 275.34 158.624C275.418 158.624 275.417 158.624 275.495 158.624C275.417 158.624 275.418 158.624 275.34 158.624ZM93.1431 79.1064C93.2979 78.8742 93.2205 78.7193 93.0657 78.5645C92.3694 77.5579 91.7505 76.5514 91.0542 75.4674C90.7448 74.9254 90.4353 74.3834 90.1258 73.9188C89.1974 72.5251 87.9596 71.5186 86.4896 70.7443C85.5612 70.2797 84.6329 70.2023 83.5497 70.512C80.6872 71.3637 78.0567 72.68 75.6584 74.4608C75.4263 74.6157 75.2716 74.7705 74.9621 75.1576C75.4263 75.1576 75.6584 75.1577 75.8905 75.0802C76.9736 74.9254 77.9794 74.7705 79.0625 74.6931C81.2288 74.5382 83.4723 74.6931 85.5612 75.3899C88.1917 76.2416 90.7448 77.4805 93.1431 79.1064C93.2205 79.1064 93.2205 79.1064 93.2978 79.1064H93.3752C93.2205 79.1064 93.1431 79.1064 93.1431 79.1064ZM139.021 130.518C138.944 130.518 138.789 130.518 138.712 130.518L138.789 130.596C138.866 130.596 138.944 130.518 139.021 130.518C139.253 130.441 139.485 130.518 139.717 130.441C142.193 129.899 144.746 129.667 147.299 129.589C148.305 129.589 149.233 129.512 150.162 129.434C152.87 129.279 155.5 128.66 158.053 127.653C160.297 126.724 162.463 125.795 164.629 124.789C164.861 124.711 165.016 124.556 165.326 124.324C165.016 124.092 164.784 123.937 164.552 123.859C163.933 123.705 163.391 123.55 162.773 123.472C161.303 123.395 159.833 123.705 158.44 124.247C157.202 124.711 155.964 125.253 154.726 125.64C152.483 126.337 150.239 126.647 147.918 126.027C147.764 125.95 147.531 126.027 147.299 125.95C145.288 127.499 143.044 128.583 140.723 129.434C140.259 129.589 139.795 129.821 139.331 129.976C139.253 130.209 139.176 130.363 139.021 130.518ZM79.3719 120.143C79.2172 120.143 79.1398 120.143 78.9851 120.143C78.9851 120.22 79.0625 120.22 79.0625 120.298C79.2172 120.22 79.2946 120.143 79.3719 120.143C79.9135 120.375 80.3777 120.066 80.8419 119.911C83.8592 119.059 86.6444 117.743 89.3522 116.117C91.5184 114.8 93.6073 113.484 95.6962 112.091C97.3983 111.007 99.1776 109.923 101.034 109.071C101.189 108.993 101.344 108.839 101.499 108.761C101.344 108.606 101.267 108.529 101.189 108.529C99.7192 108.219 98.1719 107.832 96.702 107.677C95.4641 107.522 94.2262 107.677 93.0657 108.064C92.1373 108.297 91.2863 108.761 90.59 109.535C89.6616 110.697 88.6559 111.781 87.7275 112.942C85.5613 115.652 83.0082 118.052 79.9135 119.678C79.6814 119.756 79.604 119.988 79.3719 120.143ZM82.8534 120.375C82.776 120.375 82.6987 120.375 82.6213 120.375C82.6213 120.453 82.6987 120.453 82.6987 120.53C82.6987 120.453 82.776 120.375 82.8534 120.375C83.3176 120.685 83.8592 120.453 84.3234 120.453C88.2691 120.066 92.1374 119.446 95.8509 118.285C97.1662 117.898 98.4814 117.51 99.7966 117.046C100.338 116.891 100.88 116.736 101.344 116.504C104.361 115.188 107.301 113.562 110.009 111.626C111.402 110.619 112.639 109.535 113.8 108.297C113.955 108.142 114.187 107.909 114.032 107.6C113.877 107.6 113.645 107.522 113.49 107.522C111.943 107.445 110.318 107.522 108.771 107.755C104.825 108.374 101.112 109.768 97.7077 111.936C96.0056 113.02 94.3036 114.181 92.6016 115.265C89.739 117.123 86.7991 118.827 83.5497 120.066C83.1629 119.988 83.0081 120.22 82.8534 120.375ZM102.582 59.2076C102.35 57.1945 102.118 55.4911 101.885 53.8651C101.808 53.3231 101.731 52.7811 101.576 52.2391C100.57 48.4452 98.2493 45.7352 94.9225 43.877C94.0715 43.4124 93.2205 43.1801 92.3695 43.7996C91.8279 44.1093 91.2863 44.3415 90.6674 44.4964C90.0485 44.6513 89.3522 44.8061 88.7333 44.8061C86.7991 44.8061 85.3291 43.877 84.1686 42.4059C82.9308 40.7799 82.4666 38.9216 82.3119 36.9859C82.2345 36.0568 82.3119 35.1277 82.3119 34.1986C82.3119 32.65 82.3119 31.024 81.9251 29.4755C81.3061 26.7655 79.8361 24.7524 77.4378 23.3587C76.1999 22.6619 74.8848 22.1199 73.4148 21.8102C71.0938 21.2682 68.6955 21.0359 66.2971 21.0359C66.065 21.0359 65.7555 21.1908 65.3687 21.2682C65.9103 21.5779 66.2197 21.7328 66.6065 21.965C68.3086 22.7393 69.7012 23.8233 71.0164 25.1396C73.5695 27.6947 75.1168 30.7918 75.8905 34.3534C76.1226 35.5148 76.3547 36.7537 76.5094 37.9925C76.8189 39.6959 77.3604 41.2444 78.1341 42.7156C79.372 44.8835 81.074 46.4321 83.7045 46.8192C84.7876 46.9741 85.8707 47.2838 86.9538 47.5935C91.3637 48.8323 95.232 51.0777 98.1719 54.6394C99.1003 55.8008 100.106 56.8848 101.112 57.9688C101.576 58.2785 101.963 58.5882 102.582 59.2076ZM112.949 95.9082C113.336 95.8308 113.568 95.8308 113.877 95.7533C117.591 94.9016 121.15 95.2113 124.708 96.5276C126.488 97.2245 128.267 97.9987 130.047 98.8504C132.368 100.012 134.689 101.251 136.932 102.412C138.402 103.186 140.027 103.728 141.652 104.038C143.354 104.348 144.978 104.27 146.603 103.574C147.454 103.186 148.382 102.877 149.311 102.49C149.543 102.412 149.852 102.412 149.852 101.948C149.62 101.87 149.388 101.793 149.156 101.715C146.448 101.173 144.127 99.857 142.038 98.0762C140.801 96.9922 139.563 95.8308 138.325 94.6694C136.545 92.966 134.611 91.34 132.522 89.9463C130.975 88.9397 129.35 88.1655 127.494 87.7783C126.101 87.4686 124.786 87.546 123.471 88.2429C123.006 88.4752 122.542 88.7075 122.078 88.9397C118.674 90.6431 115.811 93.1208 113.026 95.6759C113.026 95.5985 113.026 95.6759 112.949 95.9082ZM197.046 147.243C197.355 147.32 197.433 147.397 197.587 147.397C200.063 147.552 202.384 148.172 204.782 148.869C209.192 150.262 212.906 152.585 215.923 156.147C216.232 156.534 216.619 156.921 217.006 157.308C220.023 156.302 223.041 155.372 226.058 154.443C226.135 154.443 226.135 154.366 226.135 154.366C226.135 154.288 226.135 154.288 226.213 154.134C226.058 153.901 225.903 153.592 225.748 153.282C223.582 149.875 220.874 146.933 217.702 144.378C216 143.061 214.298 141.823 212.287 140.894C211.436 140.506 210.585 140.429 209.656 140.584C208.186 140.893 206.794 141.358 205.479 141.977C202.616 143.216 199.986 144.92 197.51 146.855C197.278 146.855 197.2 147.01 197.046 147.243ZM204.782 94.2822C204.86 93.5854 204.937 93.1982 204.937 92.8885C204.86 91.882 204.782 90.8754 204.628 89.8689C204.473 88.7849 204.163 87.7009 204.009 86.5395C203.622 83.5972 203.777 80.655 205.014 77.8676C205.479 76.861 205.943 75.8545 206.484 74.8479C207.722 72.68 208.186 70.2797 208.186 67.802C208.109 65.4792 207.722 63.2338 206.794 61.1433C206.407 60.369 205.943 59.6722 205.092 59.2076C203.08 58.1236 201.146 56.9622 199.135 55.8008C198.98 55.7234 198.902 55.7234 198.748 55.7234C198.67 55.8782 198.593 55.9557 198.593 56.0331C198.748 58.1236 198.516 60.2142 198.129 62.2273C198.051 62.537 198.129 62.9241 198.206 63.3113C199.057 66.2535 199.289 69.1957 199.367 72.2154C199.444 74.9254 199.521 77.6353 199.676 80.2679C199.908 85.0684 201.61 89.4043 204.163 93.4305C204.163 93.5854 204.395 93.8177 204.782 94.2822ZM56.0074 38.9991C56.0848 39.2313 56.0074 39.4636 56.0848 39.5411C57.4774 42.4833 59.0247 45.3481 61.1909 47.9032C63.0477 50.1486 65.3687 51.6972 68.0765 52.8586C68.4633 53.0134 68.9276 53.1683 69.3917 53.2457C71.8675 53.5554 74.2658 53.478 76.6641 52.7037C77.902 52.3166 79.0625 51.852 80.3003 51.3874C83.8592 50.0712 87.418 49.7615 91.1316 50.4583C91.3637 50.4583 91.5958 50.6906 91.8279 50.3035C91.5184 50.0712 91.209 49.9163 90.8995 49.7615C89.1201 48.9098 87.3407 48.3678 85.4065 47.9806C83.4724 47.5935 81.5382 47.2064 79.5267 46.8192C75.3489 45.9675 71.4806 44.4964 68.2313 41.709C67.2255 40.9347 66.2197 40.625 64.9819 40.7025C63.8988 40.7799 62.8156 40.7799 61.8099 40.7799C60.1852 40.7799 58.5605 40.3928 57.1679 39.5411C56.7037 39.3088 56.3943 39.1539 56.0074 38.9991ZM127.416 86.9266C127.88 87.1589 128.035 87.2363 128.113 87.2363C130.124 87.7783 131.904 88.7074 133.606 89.8689C135.54 91.1851 137.319 92.7337 138.944 94.4371C140.491 95.9082 142.038 97.3793 143.74 98.6956C145.52 100.012 147.454 100.864 149.62 101.173C150.703 101.328 151.864 101.483 152.947 101.173C155.5 100.322 158.208 99.9344 160.838 99.6247C162.54 99.3924 164.242 99.2376 166.022 99.0053C166.254 99.0053 166.564 99.0053 166.641 98.6182C166.409 98.5407 166.177 98.4633 165.945 98.4633C161.922 97.6116 157.976 96.2953 154.185 94.5919C150.394 92.8885 146.68 91.1077 142.967 89.4043C140.491 88.2429 137.938 87.2363 135.23 86.6943C132.909 86.2298 130.588 86.2298 128.267 86.7718C128.035 86.6943 127.88 86.7718 127.416 86.9266ZM173.217 150.262C173.449 150.34 173.681 150.417 173.913 150.495C174.842 150.649 175.693 150.959 176.466 151.424C178.555 152.585 180.644 153.824 182.656 155.063C184.28 156.069 185.905 156.998 187.684 157.618C189.386 158.237 191.011 158.857 192.713 159.399C193.719 159.708 194.802 160.018 195.808 160.173C198.67 160.637 201.456 160.715 204.318 160.328C207.645 159.941 210.894 159.089 214.144 158.082C214.298 158.005 214.453 157.85 214.608 157.773C214.376 157.54 214.221 157.386 214.066 157.308C212.209 156.224 210.198 155.45 208.032 155.218C206.407 155.063 204.782 154.985 203.158 154.985C198.593 154.985 194.26 154.134 190.005 152.43C187.916 151.578 185.828 150.882 183.584 150.34C180.412 149.643 177.163 149.411 173.836 149.798C173.759 149.953 173.449 149.875 173.217 150.262ZM137.783 106.593C137.474 106.438 137.319 106.438 137.242 106.438C133.992 106.516 130.82 106.283 127.648 105.741C124.708 105.277 121.846 104.657 119.061 103.574C117.204 102.877 115.425 102.025 113.568 101.328C111.556 100.554 109.545 100.244 107.456 100.399C106.992 100.476 106.45 100.554 105.986 100.709C104.516 101.173 103.123 101.715 101.653 102.102C98.4814 102.954 95.8509 104.503 93.53 106.748C93.3752 106.903 93.2978 107.058 93.0657 107.367C93.5299 107.29 93.762 107.29 93.9941 107.29C95.3094 107.058 96.6246 106.98 97.9398 107.29C99.0229 107.522 100.106 107.755 101.267 107.987C102.504 108.297 103.665 108.297 104.825 107.909C108.229 106.825 111.788 106.438 115.425 106.903C117.591 107.213 119.757 107.677 121.923 107.987C123.316 108.219 124.631 108.374 126.024 108.451C129.815 108.684 133.528 107.909 137.164 106.903C137.242 106.825 137.396 106.748 137.783 106.593ZM70.8617 42.5607C70.5522 41.3219 70.2428 40.3153 70.0107 39.3088C69.7786 38.3796 69.7012 37.3731 69.5465 36.444C69.0823 33.6566 68.386 30.9466 67.1481 28.3915C65.9103 25.759 64.0535 23.591 61.6551 21.965C61.0362 21.5005 60.4173 21.3456 59.6436 21.3456C58.6378 21.423 57.6321 21.423 56.6264 21.3456C53.8412 21.1908 51.056 20.5713 48.3482 19.7971C48.1161 19.7196 47.884 19.7196 47.4972 19.5648C47.7293 19.8745 47.8066 20.0294 47.884 20.0294C50.7465 21.6553 52.9128 23.9007 54.9243 26.5332C56.3942 28.4689 58.0189 30.3272 59.5663 32.1854C62.3514 35.5148 65.4461 38.5345 68.9275 41.167C69.3917 41.709 69.9333 42.1736 70.8617 42.5607ZM248.03 100.786C247.953 100.864 247.875 100.941 247.875 101.018C248.185 103.341 248.571 105.664 249.577 107.832C249.732 108.219 249.964 108.684 250.274 108.993C251.589 110.387 253.059 111.549 254.915 112.168C256.54 112.71 258.087 113.329 259.635 113.949C261.492 114.723 263.271 115.807 264.664 117.356C264.741 117.51 264.973 117.588 265.205 117.665C265.283 117.356 265.36 117.046 265.437 116.814C265.592 115.11 265.824 113.484 265.901 111.781C265.979 110.542 265.901 109.226 265.901 107.987C265.901 107.213 265.592 106.516 265.05 105.896C264.664 105.432 264.199 105.045 263.658 104.735C262.343 103.806 260.795 103.341 259.248 103.109C258.32 102.954 257.314 102.877 256.385 102.799C253.6 102.567 250.892 102.102 248.417 100.709C248.262 100.786 248.107 100.786 248.03 100.786ZM108.23 99.5473C108.771 99.6247 109.081 99.7021 109.467 99.7796C110.396 99.9344 111.324 100.012 112.175 100.244C113.413 100.631 114.651 101.096 115.889 101.638C118.442 102.799 121.072 103.728 123.78 104.425C127.107 105.199 130.511 105.664 133.915 105.819C136.545 105.974 139.099 105.819 141.652 105.354C141.961 105.277 142.271 105.354 142.348 104.89C142.193 104.812 141.961 104.735 141.806 104.735C139.485 104.348 137.319 103.419 135.23 102.335C133.296 101.328 131.439 100.322 129.583 99.315C127.416 98.231 125.25 97.3019 122.929 96.605C119.37 95.6759 115.889 95.6759 112.407 96.8373C110.783 97.2244 109.622 98.3859 108.23 99.5473ZM212.287 78.6419C211.358 79.9581 210.585 81.3519 210.043 82.823C209.347 84.9909 209.115 87.2363 209.502 89.4817C209.656 90.5657 209.811 91.7271 209.966 92.8111C210.121 94.9016 209.734 96.8373 208.341 98.5407C208.264 98.6182 208.341 98.773 208.341 98.8504C209.424 100.322 212.132 103.341 212.983 103.883C213.37 103.496 213.834 103.186 214.144 102.722C214.995 101.638 215.923 100.554 216.619 99.3924C218.708 95.9856 219.172 92.2691 218.244 88.3977C217.935 87.2363 217.47 86.1523 216.232 85.7652C216.155 85.7652 216.078 85.6878 216 85.6103C214.221 84.6038 213.138 83.0552 212.751 81.0421C212.519 80.1904 212.364 79.4162 212.287 78.6419ZM165.945 70.8217C166.022 70.5894 166.099 70.4346 166.022 70.2797C165.48 67.6472 164.707 65.1695 163.546 62.6919C163.237 61.995 162.695 61.6079 161.999 61.3756C158.672 60.2142 155.732 58.4333 153.179 56.0331C152.096 55.0265 151.09 53.9425 150.085 52.8586C148.769 51.3874 147.454 49.9163 146.061 48.4452C145.21 47.5161 144.205 46.7418 143.044 46.1998C142.812 46.1224 142.58 45.8901 142.348 46.1224C142.348 46.2772 142.271 46.3547 142.271 46.5095C142.271 46.8967 142.271 47.2064 142.271 47.5935C142.425 49.9937 143.276 52.1617 144.359 54.2523C145.984 57.2719 148.382 59.5948 151.168 61.5304C153.334 63.079 155.732 64.2404 158.053 65.4018C160.761 66.7181 163.237 68.2666 165.326 70.4346C165.635 70.512 165.79 70.6669 165.945 70.8217ZM117.359 65.6341C116.894 65.3244 116.585 65.0921 116.353 64.8598C115.734 64.3952 115.115 63.9307 114.573 63.3887C112.562 61.2982 110.86 58.8979 109.699 56.1879C109.235 55.0265 108.848 53.8651 108.384 52.7811C107.843 51.4649 107.378 50.1486 106.76 48.8323C106.063 47.2838 105.135 45.8901 104.052 44.5738C102.427 42.6381 100.338 41.7864 97.7851 41.9413C96.9341 42.0187 96.083 42.251 95.232 42.4833C94.9999 42.5607 94.8452 42.7156 94.6905 42.8704C94.9226 43.0253 95.0773 43.1027 95.1546 43.1801C95.3094 43.2576 95.5415 43.4124 95.6962 43.4898C99.5645 45.8901 101.963 49.2195 102.504 53.7877C102.582 54.4071 102.659 55.104 102.736 55.7234C102.814 56.4976 102.969 57.3494 103.123 58.1236C103.355 59.5173 103.974 60.6013 105.212 61.2981C105.599 61.5304 105.909 61.7627 106.218 61.995C109.235 64.0855 112.717 64.9372 116.198 65.4792C116.585 65.7889 116.817 65.7115 117.359 65.6341ZM115.502 66.7181C115.579 66.6406 115.657 66.5632 115.657 66.5632C115.657 66.4858 115.579 66.4858 115.579 66.4858C115.038 66.4084 114.496 66.2535 113.955 66.1761C109.39 65.3244 105.444 63.2338 102.118 59.9045C100.88 58.6656 99.6419 57.3493 98.4814 55.9557C97.7851 55.1814 97.0114 54.6394 96.083 54.1748C94.4583 53.4006 92.6789 53.1683 90.8995 53.0908C87.3407 52.8586 84.0139 53.6328 80.7646 54.9491C80.6872 54.9491 80.6872 55.104 80.6098 55.1814L80.6872 55.2588C81.074 55.3362 81.4608 55.4911 81.8477 55.5685C84.7876 56.1879 87.6501 57.1171 90.2806 58.5882C92.2921 59.6722 94.3036 60.8336 96.1604 62.2273C97.2435 63.0016 98.404 63.7758 99.5645 64.5501C101.576 65.7889 103.82 66.5632 106.141 66.7955C106.45 66.7955 106.76 66.8729 107.069 66.8729C109.932 67.0278 112.717 66.9503 115.502 66.7181ZM207.722 98.0762C207.954 97.7664 208.264 97.5342 208.419 97.2244C209.192 95.9082 209.424 94.4371 209.347 92.9659C209.27 91.8045 209.037 90.6431 208.883 89.4817C208.419 86.462 208.883 83.5973 210.198 80.8873C210.817 79.6485 211.358 78.4096 211.977 77.1708C212.209 76.7062 212.364 76.2416 212.442 75.6996C212.519 74.306 212.596 72.9897 212.596 71.596C212.674 67.6472 211.049 64.3952 208.186 61.7627C208.032 61.6079 207.877 61.5304 207.49 61.2981C207.645 61.9176 207.722 62.3047 207.877 62.6919C208.341 64.163 208.573 65.6341 208.728 67.1826C208.883 69.97 208.418 72.68 207.026 75.1576C206.639 75.8545 206.252 76.6288 205.943 77.3256C205.247 78.8742 204.628 80.5001 204.473 82.281C204.241 84.3715 204.473 86.4621 204.937 88.4752C205.401 90.6431 205.865 92.8885 205.246 95.0565C206.02 96.1405 206.639 97.2245 207.722 98.0762ZM156.661 49.2969C156.351 47.2064 156.042 45.2707 155.732 43.335C155.5 41.9413 155.345 40.625 155.191 39.2313C155.113 38.3022 154.649 37.6054 153.953 37.0634C153.179 36.5214 152.406 36.0568 151.632 35.6697C150.239 35.0503 148.769 34.5083 147.377 33.9663C145.907 33.3469 144.514 32.65 143.354 31.4886C143.199 31.3337 143.122 31.024 142.735 31.1789C142.812 32.9597 142.967 34.7405 142.889 36.5214C142.889 38.3796 142.735 40.1605 142.58 42.0187C142.812 42.0962 142.967 42.251 143.122 42.3284C145.365 43.1027 147.377 44.2641 149.234 45.7352C150.085 46.4321 151.013 47.0515 151.941 47.6709C153.024 48.3678 154.185 48.9098 155.423 49.142C155.887 49.2969 156.196 49.2969 156.661 49.2969ZM201.223 167.374C201.378 167.529 201.533 167.683 201.61 167.683C203.08 168.225 204.55 168.767 206.02 169.387C207.8 170.084 209.656 169.929 211.436 169.387C214.066 168.535 216.31 167.064 218.089 164.896C218.863 163.967 219.482 162.883 220.178 161.876C221.339 159.941 222.499 158.082 223.969 156.302C224.046 156.224 224.046 156.069 224.124 155.837C223.428 155.837 222.886 156.069 222.344 156.302C218.321 157.695 214.221 159.012 210.043 160.018C209.424 160.173 209.037 160.483 208.728 160.947C207.026 163.657 204.705 165.67 201.765 166.909C201.61 167.141 201.456 167.219 201.223 167.374ZM125.018 115.42C125.173 115.497 125.25 115.575 125.405 115.575C127.648 115.807 129.892 116.117 132.058 116.349C134.224 116.581 136.391 116.581 138.634 116.426C139.485 116.349 140.182 116.117 140.955 115.73C142.503 114.878 143.818 113.794 144.978 112.478C145.984 111.316 146.99 110.077 147.996 108.839C149.93 106.283 152.019 103.961 154.572 102.025C154.726 101.948 154.959 101.87 154.726 101.483C154.34 101.56 153.953 101.638 153.643 101.715C151.4 102.49 149.156 103.341 146.913 104.193C145.21 104.812 143.586 105.509 141.884 106.051C141.187 106.283 140.646 106.671 140.104 107.213C138.712 108.839 137.01 110.155 135.153 111.239C132.368 112.942 129.428 114.181 126.256 114.878C125.869 115.033 125.327 114.955 125.018 115.42ZM266.753 111.626C267.604 111.084 267.99 110.387 268.377 109.69C269.383 107.832 269.847 105.819 270.002 103.728C270.157 102.025 269.924 100.399 269.77 98.6956C269.615 97.3019 269.46 95.9856 269.538 94.5919C269.538 94.0499 269.46 93.4305 269.383 92.9659C268.455 89.4043 266.598 86.5395 263.503 84.5264C263.348 84.4489 263.194 84.3715 262.807 84.2167C262.884 84.8361 262.962 85.3781 263.039 85.8426C263.348 87.6235 262.962 89.3269 262.033 90.798C261.569 91.4948 261.027 92.1917 260.563 92.9659C260.408 93.1982 260.254 93.4305 260.099 93.6628C261.105 94.9791 262.111 96.2953 263.039 97.6116C263.967 98.9279 264.664 100.476 265.205 101.948C265.747 103.496 266.288 105.045 266.443 106.671C266.598 108.219 266.675 109.845 266.753 111.626ZM83.9366 86.7718C84.0913 86.8492 84.1687 86.9266 84.3234 87.0041C87.1086 87.8558 89.8937 88.63 92.6789 89.4817C94.2262 89.9463 95.6962 89.8689 97.1661 89.3269C98.8682 88.7075 100.416 87.8558 101.731 86.6943C102.814 85.7652 103.82 84.8361 104.825 83.9844C106.373 82.6681 107.843 81.2744 109.622 80.2679C109.699 80.1904 109.777 80.0356 110.009 79.8033C109.39 79.8033 108.848 79.8033 108.384 79.8807C104.903 80.0356 101.344 80.2679 97.8624 80.3453C96.3925 80.3453 95.0773 80.8099 93.8394 81.6616C92.911 82.281 92.06 82.9778 91.209 83.7521C89.3522 85.3006 87.2633 86.3072 84.865 86.6169C84.5555 86.5395 84.1687 86.3846 83.9366 86.7718ZM242.305 151.269C242.305 151.191 242.305 151.037 242.305 150.959C241.841 150.882 241.299 150.804 240.835 150.727C237.121 150.262 233.562 149.178 230.468 146.933C229.462 146.236 228.456 145.539 227.451 144.842C226.058 143.913 224.588 142.984 223.118 142.21C220.101 140.661 216.929 139.887 213.525 140.042C213.293 140.042 213.06 140.197 212.674 140.274C213.679 140.894 214.53 141.358 215.381 141.9C219.714 144.765 223.273 148.404 226.058 152.662C226.367 153.127 226.6 153.669 227.064 153.979C229.617 153.437 232.093 152.972 234.568 152.43C237.199 152.12 239.752 151.888 242.305 151.269ZM183.893 157.54C182.191 157.076 180.567 156.921 178.942 156.921C174.61 156.921 170.432 157.695 166.331 159.089C164.475 159.786 162.618 160.483 160.761 161.179C158.208 162.109 155.655 162.96 152.947 163.27C152.792 163.27 152.56 163.425 152.328 163.58C154.494 163.889 156.506 164.199 158.517 164.586C161.225 165.051 163.933 165.515 166.718 165.515C167.724 165.515 168.73 165.361 169.736 165.051C171.979 164.354 173.913 163.193 175.847 161.954C178.323 160.405 180.876 158.857 183.739 157.928C183.739 157.85 183.739 157.773 183.893 157.54ZM79.6814 45.9675C79.6041 45.4255 79.604 45.4255 79.3719 45.1933C78.1341 43.9544 77.3604 42.4833 76.8189 40.8573C76.5094 39.7733 76.2 38.6894 75.9679 37.6054C75.7358 36.5214 75.581 35.36 75.3489 34.276C74.5753 30.7918 73.0279 27.7721 70.4748 25.217C68.6181 23.3587 66.2971 22.1199 63.8987 21.1908C63.2798 20.9585 62.7383 20.9585 62.042 21.2682C62.3514 21.5779 62.5835 21.8102 62.893 22.0425C65.3687 24.0556 67.1481 26.5332 68.3086 29.4755C69.0823 31.566 69.6238 33.6566 70.0107 35.8245C70.2428 37.0634 70.3975 38.2248 70.6296 39.4636C70.7843 40.3153 71.0938 41.0896 71.4033 41.9413C71.7901 43.0253 72.5638 43.7221 73.6469 44.1093C75.581 44.961 77.5925 45.5804 79.6814 45.9675ZM23.5137 72.138C23.9005 72.2928 24.0552 72.3703 24.21 72.3703C26.9951 72.8348 29.7803 72.8348 32.5655 72.138C34.8865 71.596 37.0527 70.8217 39.219 69.8926C43.1647 68.1892 46.8008 65.9438 50.5144 63.6984C50.5918 63.621 50.6692 63.4661 50.8239 63.2338C50.2823 63.2338 49.8955 63.3113 49.5087 63.3113C47.7293 63.3113 45.9498 63.3887 44.1704 63.3887C41.6947 63.3887 39.1416 63.3887 36.6659 63.3887C35.4281 63.3887 34.3449 63.6984 33.3391 64.3178C32.5655 64.8598 31.7918 65.4018 31.0182 66.0987C29.935 67.1052 28.9293 68.1892 27.8462 69.1957C26.7631 70.2797 25.6026 71.1314 24.21 71.6734C23.9779 71.7508 23.8232 71.9057 23.5137 72.138ZM139.099 107.445C139.021 107.367 139.021 107.29 138.944 107.213C138.48 107.367 137.938 107.522 137.474 107.677C134.843 108.451 132.213 108.916 129.505 109.226C126.488 109.535 123.471 109.226 120.531 108.606C119.602 108.451 118.751 108.064 117.823 108.142C117.281 108.761 116.74 109.381 116.121 109.923C114.496 111.626 112.562 112.942 110.473 114.026C110.164 114.181 109.854 114.258 109.699 114.723C110.009 114.723 110.241 114.723 110.396 114.723C113.49 114.491 116.585 114.413 119.68 114.878C121.536 115.188 123.316 114.955 125.095 114.568C126.024 114.413 126.875 114.181 127.803 113.949C131.594 112.865 134.998 111.007 137.938 108.451C138.402 108.142 138.712 107.755 139.099 107.445ZM242.305 78.9516C242.305 79.6485 242.537 80.113 242.692 80.5776C243.697 83.4424 244.781 86.3072 245.709 89.2494C246.096 90.4109 246.637 91.4174 247.488 92.1917C248.262 92.8885 249.036 93.5079 249.887 94.1274C251.357 95.1339 252.981 95.9082 254.606 96.5276C257.855 97.8439 261.027 99.4699 263.735 101.715C263.89 101.793 264.045 102.025 264.277 101.715C264.199 101.483 264.122 101.173 263.967 100.864C262.652 97.7664 260.641 95.1339 258.087 92.9659C256.463 91.6497 254.838 90.3334 253.059 89.172C249.655 86.9266 246.637 84.2167 244.084 80.9647C243.697 80.4227 243.233 79.9581 242.846 79.4162C242.769 79.3387 242.614 79.2613 242.305 78.9516ZM204.241 161.567C204.241 161.489 204.163 161.334 204.163 161.257C203.777 161.257 203.39 161.334 203.003 161.334C199.057 161.644 195.189 161.179 191.398 159.786C190.16 159.321 188.845 158.934 187.684 158.47C186.601 158.082 185.596 158.082 184.512 158.315C184.048 158.47 183.507 158.624 183.042 158.779C181.418 159.321 179.948 160.096 178.478 161.025C176.389 162.263 174.223 163.502 172.134 164.741C172.056 164.819 171.979 164.896 171.747 165.206C172.598 165.051 173.294 164.973 173.913 164.896C177.472 164.277 180.954 163.967 184.59 163.812C187.53 163.657 190.392 163.735 193.255 164.509C194.57 164.819 195.885 164.819 197.2 164.664C199.212 164.354 201.146 163.657 202.926 162.573C203.39 162.186 203.777 161.876 204.241 161.567ZM217.935 114.568C216.232 110 212.751 104.58 210.121 102.335C209.966 102.335 209.734 102.412 209.579 102.412C205.865 102.877 202.848 101.638 200.527 98.773C199.444 97.4567 198.516 96.063 197.819 94.5145C197.433 93.5854 197.046 92.6563 196.659 91.7271C196.117 90.4109 195.498 89.2494 194.57 88.1655C194.493 88.0106 194.261 87.9332 194.028 87.7009C194.028 88.088 193.951 88.3203 194.028 88.63C194.261 90.8754 194.879 93.0434 195.808 95.0565C197.278 98.231 199.289 101.018 201.92 103.419C204.086 105.432 206.407 107.213 208.883 108.839C211.823 110.774 214.763 112.633 217.78 114.491C217.702 114.568 217.702 114.568 217.935 114.568ZM100.106 70.2023C101.267 71.596 101.885 73.222 102.582 74.8479C102.814 75.4674 103.123 76.0868 103.51 76.6288C103.897 77.2482 104.439 77.8676 104.903 78.4096C105.444 79.029 106.141 79.1839 106.992 79.1839C110.783 78.9516 114.496 78.7193 118.21 78.1773C119.834 77.9451 121.382 77.4805 123.006 77.1708C123.239 77.0933 123.393 76.9385 123.857 76.7836C123.471 76.6288 123.316 76.5513 123.084 76.4739C120.144 75.5448 117.281 74.6931 114.341 73.6865C110.86 72.5251 107.378 71.4411 103.742 70.6669C102.582 70.3572 101.421 70.1249 100.106 70.2023ZM86.4896 69.97C86.6444 70.2023 86.6443 70.2797 86.7217 70.2797C86.8764 70.3572 86.9538 70.512 87.1085 70.512C88.9653 71.4411 90.3579 72.9897 91.3637 74.7705C91.7505 75.4674 92.1373 76.0868 92.5242 76.7836C92.9884 77.5579 93.5299 78.1773 94.2262 78.7193C94.9225 79.2613 95.6962 79.571 96.6246 79.571C99.1003 79.4936 101.499 79.4162 103.974 79.2613C104.206 79.2613 104.516 79.3387 104.593 79.029C104.593 78.9516 104.516 78.7967 104.516 78.7193C103.278 77.403 102.427 75.8545 101.731 74.1511C101.421 73.4543 101.112 72.7574 100.725 72.0605C99.7966 70.3571 98.404 69.428 96.4699 69.3506C93.6847 69.2732 90.9768 69.2732 88.269 69.5829C87.6501 69.7377 87.1086 69.8152 86.4896 69.97ZM160.297 55.5685C160.684 53.6328 161.612 52.394 162.463 51.1552C163.082 50.226 163.701 49.2969 164.165 48.2904C164.397 47.8258 164.397 47.2838 164.32 46.8192C163.856 44.4964 163.701 42.0962 163.546 39.6959C163.469 37.8376 163.237 36.0568 163.082 34.1986C162.927 33.0371 162.695 31.8757 162.231 30.7918C162.154 30.5595 162.076 30.2498 161.689 30.3272C161.612 30.7917 161.535 31.3337 161.535 31.7983C161.38 33.6566 160.838 35.36 159.987 37.0634C159.446 38.0699 158.827 39.0765 158.285 40.083C157.898 40.7799 157.512 41.3993 157.125 42.0962C156.738 42.8704 156.583 43.7221 156.738 44.5738C157.047 46.5869 157.434 48.6001 158.053 50.5357C158.517 51.9294 159.136 53.2457 159.678 54.6394C159.755 54.8717 159.91 55.104 160.297 55.5685ZM64.6724 83.8295C73.8016 81.1196 82.8534 79.8807 92.2921 79.571C91.9826 79.2613 91.8279 79.029 91.6732 78.9516C90.4353 78.2548 89.2748 77.5579 88.0369 77.0159C83.7818 75.0028 79.2946 74.8479 74.73 76.0094C73.4148 76.3965 72.1769 76.9385 71.0938 77.945C69.0823 79.7259 67.0708 81.5067 64.9819 83.2875C64.9819 83.365 64.9045 83.4424 64.6724 83.8295ZM137.319 18.0937C137.551 18.4808 137.629 18.7131 137.861 18.9454C139.872 21.965 141.42 25.1396 142.193 28.6238C142.271 28.9335 142.425 29.3206 142.58 29.6303C143.276 30.6369 144.05 31.566 145.133 32.1854C145.984 32.65 146.912 33.1146 147.841 33.5017C150.007 34.4308 152.251 35.0503 154.185 36.444C154.262 36.5214 154.34 36.444 154.572 36.444C154.572 36.2117 154.572 35.9794 154.494 35.7471C153.798 32.7274 152.483 30.0949 150.471 27.7721C149.156 26.301 147.764 24.9847 146.216 23.9007C143.431 21.8876 140.568 19.9519 137.706 18.0162C137.706 18.0937 137.629 18.0937 137.319 18.0937ZM139.795 56.8074C139.872 56.7299 139.872 56.6525 139.95 56.4976C139.408 55.8008 138.789 55.104 138.248 54.3297C136.7 52.0843 135.153 49.8389 133.606 47.6709C132.445 46.045 131.207 44.4964 129.892 42.9479C127.803 40.5476 125.25 38.6119 122.387 37.2957C122.155 37.1408 121.846 37.1408 121.536 37.0634C121.769 38.5345 122.001 39.8508 122.233 41.2445C122.387 42.1736 122.697 43.0253 123.393 43.7221C125.327 45.8127 127.184 47.9032 129.118 49.9163C131.671 52.6263 134.766 54.6394 138.093 56.1879C138.634 56.4977 139.176 56.6525 139.795 56.8074ZM45.0215 19.6422C45.3309 20.0294 45.6404 20.4165 45.9499 20.8036C48.6577 24.0556 50.8239 27.5398 52.526 31.4112C53.2223 33.0372 53.9959 34.6631 54.6922 36.2891C54.9243 36.8311 55.1564 37.2957 55.6206 37.6828C56.7811 38.6893 58.0963 39.4636 59.6436 39.7733C61.6551 40.2379 63.6666 40.0056 65.8329 39.8508C65.6008 39.541 65.4461 39.3088 65.2914 39.1539C61.1136 35.4374 57.6321 31.1789 54.1506 26.7655C53.6091 26.0687 52.9901 25.2944 52.4486 24.5976C50.3597 22.4296 47.8066 20.8811 45.0215 19.6422ZM215.768 157.618C215.846 157.463 215.923 157.463 215.923 157.386C215.923 157.231 215.846 157.076 215.768 156.998C214.453 155.45 213.06 153.979 211.358 152.817C209.656 151.578 207.8 150.649 205.788 149.953C203.003 148.946 200.14 148.249 197.2 148.017C196.349 147.939 195.576 148.094 194.957 148.714C194.802 148.869 194.57 149.023 194.338 149.178C193.177 150.107 192.017 150.959 190.702 151.656C190.624 151.656 190.624 151.811 190.547 152.043C191.166 152.353 191.862 152.508 192.481 152.74C195.112 153.746 197.742 154.211 200.527 154.366C202.384 154.443 204.318 154.521 206.175 154.598C209.347 154.753 212.287 155.45 214.995 157.231C215.227 157.308 215.536 157.463 215.768 157.618ZM263.194 133.615C263.271 133.615 263.348 133.615 263.426 133.615C263.503 133.383 263.581 133.151 263.581 132.918C264.045 128.583 264.509 124.169 264.973 119.833C265.05 119.291 264.896 118.827 264.586 118.362C263.813 117.201 262.807 116.349 261.724 115.652C260.254 114.723 258.629 114.026 257.004 113.484C255.302 112.865 253.523 112.323 251.976 111.316C251.898 111.316 251.821 111.394 251.666 111.394C251.821 111.626 251.898 111.858 252.053 112.091C252.827 113.252 253.678 114.336 254.451 115.497C255.767 117.356 257.159 119.214 258.397 121.15C260.718 124.556 262.265 128.35 262.962 132.454C263.039 132.841 263.116 133.228 263.194 133.615ZM127.494 49.3743C127.339 49.142 127.184 48.8323 126.952 48.6775C125.637 47.2838 124.322 45.8127 123.006 44.419C119.37 40.3153 114.806 37.6054 109.777 35.6697C109.622 35.5923 109.39 35.4374 109.235 35.7471C109.313 35.902 109.39 36.0568 109.467 36.2117C110.318 37.6828 111.247 39.1539 112.098 40.7025C112.717 41.9413 113.258 43.1801 113.8 44.419C114.109 45.1158 114.496 45.6578 115.115 46.0449C116.894 47.4386 118.983 48.2903 121.304 48.4452C123.316 48.6001 125.25 48.7549 127.184 49.3743C127.184 49.5292 127.262 49.4518 127.494 49.3743ZM12.5277 69.5055C12.7598 69.6603 12.9146 69.7377 13.0693 69.8152C15.6224 70.4346 18.2528 71.054 20.8059 71.596C21.2701 71.6734 21.7343 71.6734 22.1985 71.596C23.9779 71.3637 25.4478 70.512 26.763 69.3506C27.7688 68.4215 28.6198 67.4923 29.6256 66.5632C30.554 65.6341 31.4824 64.7049 32.6429 64.0081C32.7202 63.9307 32.7976 63.7758 32.875 63.5435C32.4108 63.5435 32.1013 63.5435 31.7145 63.5435C28.6198 63.7758 25.5252 64.0855 22.4306 64.2404C19.9548 64.3953 17.7886 65.3244 16.0092 67.0278C15.0808 67.9569 14.075 68.6538 12.8371 69.1183C12.7598 69.1957 12.6824 69.3506 12.5277 69.5055ZM142.425 45.1158C142.657 45.2707 142.812 45.3481 142.967 45.4255C144.592 46.1224 145.907 47.2064 147.145 48.4452C148.537 49.9938 149.93 51.5423 151.322 53.0908C154.03 56.1879 157.28 58.6656 161.07 60.2916C161.457 60.4465 161.767 60.5239 162.386 60.7562C161.999 59.9045 161.612 59.4399 161.225 58.8979C160.838 58.3559 160.529 57.8139 160.142 57.1945C159.755 56.6525 159.446 56.0331 159.136 55.4911C158.827 54.8717 158.517 54.3297 158.285 53.7103C158.053 53.0909 157.821 52.4714 157.512 51.852C157.28 51.2326 157.202 50.5357 156.738 49.9938C155.113 49.9163 153.643 49.4518 152.251 48.6001C151.013 47.8258 149.852 47.0515 148.692 46.1998C147.454 45.2707 146.139 44.3416 144.669 43.6447C143.973 43.335 143.276 43.0253 142.58 42.8704C142.348 43.7996 142.348 43.7996 142.425 45.1158ZM164.165 100.244C164.088 100.167 164.088 100.089 164.01 100.012C162.386 100.244 160.761 100.399 159.214 100.554C157.976 100.709 156.893 101.173 155.81 101.87C153.643 103.341 151.787 105.122 150.085 107.135C149.156 108.297 148.228 109.458 147.299 110.619C145.984 112.323 144.592 113.949 142.889 115.265C142.812 115.342 142.735 115.497 142.657 115.652C143.354 115.73 143.818 115.42 144.359 115.265C148.073 114.026 151.322 111.936 154.262 109.303C155.578 108.064 156.815 106.825 158.053 105.587C159.833 103.806 161.689 102.025 163.856 100.631C164.01 100.476 164.088 100.322 164.165 100.244ZM234.413 153.746C234.336 153.669 234.336 153.592 234.259 153.514C233.949 153.514 233.64 153.592 233.408 153.669C231.628 154.056 229.926 154.443 228.147 154.753C226.677 154.985 225.516 155.76 224.511 156.844C224.046 157.308 223.66 157.85 223.273 158.392C222.19 160.018 221.184 161.644 220.178 163.27C218.321 166.29 215.768 168.458 212.442 169.774C212.209 169.851 211.977 170.006 211.513 170.238C212.055 170.316 212.287 170.393 212.519 170.316C213.602 170.161 214.763 170.006 215.846 169.851C218.553 169.464 220.642 167.993 222.422 165.98C222.886 165.438 223.35 164.896 223.737 164.277C224.124 163.812 224.433 163.27 224.82 162.805C226.445 160.483 228.379 158.47 230.7 156.844C231.551 156.224 232.402 155.605 233.253 154.908C233.64 154.598 234.027 154.134 234.413 153.746ZM156.042 39.1539C156.196 39.0765 156.351 39.0765 156.351 38.9991C156.893 38.0699 157.28 37.0634 157.434 35.9794C157.589 34.276 157.28 32.65 156.661 31.024C156.196 29.6303 155.577 28.2366 155.113 26.843C154.726 25.6815 154.34 24.5201 154.185 23.2813C154.108 22.3522 153.721 21.8876 153.024 21.5005C152.87 21.423 152.715 21.3456 152.638 21.2682C150.007 19.8745 147.145 18.7905 144.359 17.6291C144.127 17.5517 143.895 17.4742 143.586 17.3968C143.586 17.8614 143.818 18.1711 144.05 18.4034C144.824 19.2551 145.597 20.0293 146.371 20.881C147.222 21.8102 148.073 22.8167 148.537 24.0556C148.769 24.8298 149.233 25.3718 149.775 25.9138C152.792 28.7012 154.649 32.1854 155.5 36.2117C155.655 36.9085 155.732 37.6054 155.887 38.3022C155.887 38.6893 155.964 38.9216 156.042 39.1539ZM5.33268 66.9504C5.41005 66.9504 5.41003 67.0278 5.41003 67.0278C5.64213 66.9503 5.87424 66.9504 6.10634 66.8729C8.19522 66.0987 10.2841 65.5566 12.4503 65.0921C17.0149 64.0855 21.5795 63.4661 26.1441 63.079C26.5309 63.079 26.9952 62.9241 27.4593 62.9241C27.382 62.6918 27.382 62.6144 27.3046 62.537C26.0668 61.7627 24.8289 60.9884 23.5137 60.2916C22.5853 59.827 21.5795 59.4399 20.4964 59.3625C17.7112 59.0527 15.1581 59.5173 12.6051 60.4464C11.754 60.7561 10.9804 61.2207 10.2841 61.9176C8.73676 63.4661 7.11209 64.9372 5.56477 66.4858C5.41004 66.6406 5.17795 66.7181 5.33268 66.9504ZM201.146 89.714C199.521 89.7914 198.438 88.9397 197.433 88.0106C196.349 87.004 195.498 85.7652 194.802 84.4489C194.647 84.1392 194.415 83.9069 194.106 83.365C194.028 84.2941 194.028 84.8361 193.874 85.4555C193.719 86.1524 193.951 86.6943 194.415 87.2363C195.73 88.5526 196.581 90.1786 197.278 91.882C197.587 92.6562 197.897 93.5079 198.284 94.2822C199.135 96.063 200.14 97.689 201.533 99.0827C203.003 100.631 204.86 101.56 207.026 101.87C207.8 101.948 208.573 102.025 209.502 101.638C207.877 99.7021 206.33 97.8439 204.86 95.9856C203.467 94.1274 202.307 92.0368 201.146 89.714ZM38.1359 62.4596C37.2075 60.8336 36.2791 59.3625 35.3507 57.8139C35.196 57.5816 35.0412 57.2719 34.8091 57.0396C34.1902 56.3428 33.4939 55.6459 32.7976 54.9491C32.3334 54.4845 31.7145 54.2523 31.0182 54.0974C28.233 53.5554 25.4478 53.6328 22.6626 54.4071C22.5079 54.4845 22.3532 54.562 22.0437 54.7168C22.6627 54.9491 23.1269 55.1814 23.591 55.3362C24.5194 55.7234 25.3704 56.1879 25.9894 56.8848C26.6857 57.5816 27.2273 58.3559 27.8462 59.1302C28.3104 59.7496 28.7746 60.369 29.1614 60.9884C30.0124 62.2273 31.2503 62.6919 32.7202 62.6919C34.1902 62.6144 35.6601 62.6144 37.1301 62.537C37.5169 62.6144 37.8264 62.537 38.1359 62.4596ZM169.271 157.308C169.117 156.611 168.575 156.379 168.111 156.069C166.718 155.14 165.248 154.598 163.546 154.288C162.54 154.134 161.689 154.288 160.838 154.83C158.672 156.302 156.506 157.618 154.262 159.012C152.251 160.25 150.085 161.412 147.841 162.186C147.609 162.263 147.299 162.418 146.99 162.573C147.222 162.651 147.299 162.728 147.377 162.728C151.168 162.805 154.881 162.418 158.517 161.102C159.291 160.792 160.065 160.56 160.838 160.25C163.469 159.321 166.099 158.392 168.73 157.463C168.884 157.463 169.039 157.386 169.271 157.308ZM265.205 105.199C265.205 104.348 264.818 103.883 264.509 103.496C263.735 102.412 262.652 101.638 261.569 100.864C259.325 99.315 256.927 98.1536 254.374 97.147C251.743 96.0631 249.19 94.8242 247.102 92.7337C247.024 92.6562 246.947 92.6562 246.792 92.5788C246.792 92.7337 246.637 92.8885 246.715 92.9659C247.024 94.9016 247.334 96.9147 247.643 98.8504C247.72 99.3924 247.953 99.7796 248.417 100.089C248.726 100.244 249.036 100.476 249.345 100.631C250.892 101.406 252.517 101.793 254.219 101.948C255.612 102.102 257.082 102.257 258.474 102.412C260.873 102.644 263.116 103.419 265.205 105.199ZM165.712 65.3244C166.563 64.0855 167.415 62.8467 168.111 61.6078C168.498 60.911 168.807 60.1367 169.039 59.3625C169.349 58.5882 169.271 57.7365 168.807 57.0396C168.343 56.2654 167.956 55.4137 167.492 54.6394C166.486 53.0134 165.558 51.3874 165.016 49.6066C164.939 49.4518 164.861 49.2969 164.707 49.0646C163.701 50.6132 162.695 52.0843 161.767 53.5554C161.535 53.9425 161.38 54.3297 161.148 54.7942C160.684 55.8782 160.761 56.8848 161.457 57.9688C163.082 60.2142 164.552 62.6144 165.48 65.3244C165.558 65.1695 165.558 65.1695 165.712 65.3244ZM183.507 156.611C183.275 156.224 183.197 156.147 183.12 156.069C180.644 154.288 178.014 152.817 175.306 151.501C173.526 150.649 171.515 150.649 169.581 150.727C169.349 150.727 169.117 150.804 168.807 150.959C167.182 151.579 165.635 152.275 164.01 152.972C163.778 153.05 163.624 153.204 163.314 153.437C164.707 153.901 165.867 154.288 167.028 154.753C168.266 155.218 169.271 156.069 170.122 157.153C174.532 156.224 178.865 155.76 183.507 156.611ZM265.592 121.692C266.288 122.079 266.83 121.846 267.449 121.692C269.692 121.15 271.627 120.066 273.483 118.749C274.102 118.362 274.412 117.82 274.566 117.123C275.108 114.568 274.876 112.013 274.18 109.535C274.102 109.303 273.948 109.148 273.793 108.761C273.097 110.387 272.246 111.549 271.008 112.555C269.77 113.562 268.145 113.871 266.598 114.491C266.134 116.968 265.824 119.291 265.592 121.692ZM166.486 124.014C166.254 123.627 166.254 123.472 166.099 123.395C164.629 121.769 162.927 120.53 160.993 119.601C160.065 119.136 159.059 118.749 157.976 118.672C157.357 118.594 156.738 118.672 156.196 118.982C155.423 119.446 154.649 119.833 154.03 120.375C152.173 121.924 150.394 123.55 148.615 125.098C148.537 125.176 148.46 125.331 148.46 125.485C149.001 125.795 149.543 125.873 150.085 125.873C151.013 125.795 152.019 125.795 152.947 125.563C154.34 125.253 155.655 124.711 157.047 124.247C157.976 123.937 158.827 123.55 159.755 123.24C161.767 122.698 163.778 122.621 165.712 123.705C165.867 123.859 166.099 123.859 166.486 124.014ZM119.68 53.478C119.757 53.6328 119.834 53.7103 119.912 53.7877C122.155 55.6459 124.708 56.8848 127.648 57.0396C128.577 57.1171 129.583 57.1171 130.511 57.1171C132.677 57.1171 134.766 57.1171 136.932 57.1171C137.396 57.1171 137.783 57.1945 138.325 57.1945C138.17 57.0396 138.17 56.9622 138.093 56.8848C137.861 56.7299 137.551 56.5751 137.319 56.4202C134.921 55.3362 132.755 53.9425 130.82 52.2391C129.969 51.4649 129.041 51.2326 128.035 51.4649C127.107 51.6197 126.256 51.852 125.405 52.1617C123.703 52.7811 122.001 53.2457 120.221 53.1683C119.912 53.2457 119.834 53.4006 119.68 53.478ZM168.343 131.138C169.194 131.293 169.658 131.06 170.122 130.905C173.991 129.744 177.549 127.808 180.721 125.331C182.888 123.705 185.131 122.001 187.298 120.375C187.452 120.298 187.53 120.143 187.684 119.833C185.286 119.756 183.12 120.066 181.031 120.375C180.567 120.453 180.18 120.685 179.793 120.917C178.478 121.614 177.317 122.543 176.312 123.627C175.306 124.711 174.3 125.795 173.372 126.879C172.134 128.273 170.819 129.512 169.271 130.518C168.962 130.673 168.807 130.751 168.343 131.138ZM215.923 108.451C216.155 108.219 216.387 108.142 216.542 107.909C217.857 106.438 218.863 104.812 219.559 103.032C220.333 101.096 220.72 99.1601 220.952 97.0696C221.339 94.2048 220.874 91.4948 220.023 88.7849C219.791 88.088 219.327 87.6235 218.476 87.3912C218.631 87.9332 218.708 88.3977 218.786 88.7849C219.327 91.34 219.327 93.8177 218.553 96.2953C217.625 99.0827 216.078 101.406 214.066 103.496C213.757 103.806 213.525 104.038 213.215 104.348C214.144 105.819 214.995 107.135 215.923 108.451ZM105.676 89.3269C105.986 89.2494 106.373 89.172 106.682 89.0946C110.164 88.088 113.336 86.5395 116.198 84.2941C118.597 82.3584 120.918 80.2679 123.316 78.2547C123.393 78.1773 123.393 78.0999 123.471 77.8676C123.161 77.945 122.852 77.945 122.542 78.0225C121.072 78.3322 119.68 78.6419 118.21 78.8742C115.192 79.3387 112.717 80.655 110.937 83.1327C110.55 83.5972 110.241 84.1392 109.854 84.6038C108.539 86.3072 107.301 87.9332 105.676 89.3269ZM259.48 93.0434C260.176 92.424 260.641 91.6497 261.182 90.9529C262.652 89.0172 262.807 86.8492 262.343 84.5264C262.111 83.6747 261.724 83.2101 260.873 82.9004C260.022 82.5907 259.171 82.281 258.242 82.1261C256.54 81.8164 254.838 81.5841 253.136 81.3518C253.059 81.3518 252.981 81.4293 252.827 81.5841C252.981 81.8164 253.136 82.1261 253.291 82.281C253.832 82.9004 254.374 83.5198 254.838 84.1392C256.54 86.2298 257.855 88.4752 258.242 91.1851C258.397 92.1143 258.706 92.6562 259.48 93.0434ZM194.879 72.4477C194.725 72.7574 194.725 72.8348 194.725 72.9123C194.802 75.6222 194.647 78.3322 194.415 80.9647C194.338 81.4293 194.493 81.8938 194.57 82.281C195.189 84.2167 196.195 85.8426 197.665 87.3138C198.284 87.9332 198.98 88.4752 199.754 88.7849C199.986 88.8623 200.295 88.8623 200.759 88.9397C200.605 88.0106 200.218 87.3912 199.986 86.6169C199.754 85.9201 199.521 85.1458 199.367 84.3715C199.212 83.5973 199.057 82.9004 198.98 82.1261C198.902 81.3518 198.825 80.5776 198.748 79.8807C198.67 79.1064 198.67 78.3322 198.593 77.5579C198.516 76.7836 198.516 76.0093 198.438 75.1576C197.123 74.7705 195.963 73.8414 194.879 72.4477ZM242.46 77.0933C242.537 77.3256 242.537 77.4805 242.537 77.5579C242.692 77.7902 242.769 78.0225 242.924 78.1773C245.477 81.6616 248.262 84.9135 251.821 87.3912C253.523 88.5526 255.225 89.7914 256.927 91.0303C257.082 91.1077 257.236 91.1851 257.469 91.2626C257.546 91.1077 257.546 90.9529 257.546 90.8754C257.469 90.5657 257.391 90.256 257.314 90.0237C256.695 88.1655 255.767 86.4621 254.529 84.9135C253.6 83.6747 252.594 82.5132 251.666 81.3518C246.792 79.8033 247.179 80.1904 242.46 77.0933ZM219.25 114.646C219.637 113.252 219.869 112.013 220.178 110.852C220.333 110.077 220.565 109.381 220.797 108.606C221.261 107.135 221.803 105.587 222.267 104.116C223.273 100.786 223.737 97.3793 223.118 93.8951C222.886 92.5788 222.499 91.34 221.725 90.1786C221.571 89.9463 221.416 89.7914 221.029 89.4043C222.577 96.9148 221.416 103.496 216.387 109.071C217.084 110.929 218.476 113.639 219.25 114.646ZM177.859 121.304C177.782 121.227 177.782 121.15 177.704 120.995C177.395 121.072 177.163 121.072 176.853 121.15C175.228 121.692 173.526 122.156 171.902 122.698C171.051 122.93 170.509 123.395 169.968 124.092C167.492 127.266 164.397 129.744 160.684 131.37C160.452 131.447 160.297 131.602 159.833 131.912C160.838 131.912 161.457 131.989 162.154 131.989C164.552 132.144 166.641 131.37 168.652 130.131C169.968 129.357 171.128 128.35 172.211 127.266C173.991 125.253 175.693 123.085 177.859 121.304ZM169.117 123.937C168.498 123.859 168.111 124.169 167.647 124.401C164.707 125.64 161.767 126.957 158.827 128.195C155.964 129.434 152.947 130.131 149.775 130.286C148.692 130.363 147.609 130.363 146.603 130.441C145.288 130.518 143.973 130.596 142.657 130.751C142.193 130.828 141.652 130.905 141.187 131.06C141.574 131.215 141.961 131.292 142.348 131.292C145.365 131.215 148.382 131.293 151.322 131.525C153.179 131.68 154.959 131.835 156.815 131.912C157.28 131.912 157.744 131.912 158.131 131.757C162.386 130.286 166.022 127.963 168.884 124.479C169.039 124.324 169.039 124.169 169.117 123.937ZM222.422 167.064C222.422 167.141 222.499 167.219 222.499 167.296C222.809 167.141 223.041 167.064 223.273 166.909C224.588 166.057 225.981 165.206 227.218 164.199C229.075 162.728 230.777 161.179 232.557 159.553C235.264 157.076 237.972 154.753 241.144 152.895C241.299 152.817 241.609 152.74 241.531 152.353C240.758 152.353 236.425 152.895 235.961 153.127C235.729 153.204 235.497 153.359 235.342 153.514C234.027 155.14 232.325 156.379 230.623 157.618C229.075 158.702 227.76 159.863 226.6 161.334C225.207 163.27 223.814 165.128 222.422 167.064ZM264.509 133.538C264.586 133.46 264.741 133.46 264.741 133.383C266.675 130.751 268.532 128.118 270.466 125.408C271.627 123.705 272.71 122.001 273.561 120.143C273.638 119.988 273.638 119.833 273.715 119.446C272.71 119.988 271.859 120.53 271.008 120.917C270.157 121.304 269.228 121.692 268.3 122.001C267.371 122.311 266.443 122.388 265.515 122.621C265.36 123.24 264.277 132.454 264.277 133.151C264.354 133.306 264.432 133.46 264.509 133.538ZM154.881 22.9716C154.881 24.0556 155.113 24.8298 155.423 25.6815C155.81 26.7655 156.274 27.8495 156.661 29.0109C157.125 30.2498 157.512 31.4886 157.898 32.8049C158.595 35.36 158.131 37.7602 156.661 39.9282C156.196 40.625 156.196 40.625 156.583 41.6316C156.661 41.5542 156.815 41.5542 156.815 41.4767C157.589 40.2379 158.285 39.0765 158.982 37.7602C160.452 35.1277 161.225 32.4177 161.07 29.3981C161.07 28.7012 160.838 28.0818 160.452 27.5398C159.059 25.759 157.434 24.2879 155.5 23.049C155.268 23.049 155.113 23.049 154.881 22.9716ZM49.6634 62.3821C49.3539 62.1498 49.1992 62.0724 49.0445 61.995C46.8009 60.8336 44.4799 59.6722 42.3136 58.4333C39.9153 57.1171 37.4396 56.1105 34.9639 55.1814C34.7318 55.104 34.4996 54.8717 34.2676 55.3362C35.428 56.4976 36.2791 57.9688 37.0528 59.4399C37.3622 60.0593 37.8264 60.6787 38.2132 61.2207C38.4453 61.6078 38.8321 61.9176 39.1416 62.2273C39.3737 62.4596 39.7605 62.6144 40.07 62.6144C42.9325 62.6144 45.8725 62.6144 48.735 62.6144C49.0445 62.6144 49.2766 62.537 49.6634 62.3821ZM167.337 123.627C169.194 122.93 170.973 122.233 172.675 121.614C172.753 121.537 172.83 121.382 172.985 121.304C172.056 119.911 171.051 118.672 169.581 117.82C169.117 117.588 168.652 117.433 168.111 117.51C165.945 117.82 163.778 117.82 161.535 117.82C160.838 117.82 160.142 117.743 159.368 118.13C160.219 118.904 161.38 118.982 162.231 119.601C163.082 120.22 164.01 120.762 164.861 121.459C165.79 122.079 166.486 122.853 167.337 123.627ZM173.836 121.227C174.377 121.072 174.842 120.995 175.228 120.84C177.395 120.22 179.561 119.756 181.805 119.524C183.275 119.369 184.745 119.291 186.214 119.136C186.524 119.136 186.756 118.982 187.22 118.904C181.65 116.194 176.079 116.117 170.2 117.356C170.896 118.052 171.592 118.594 172.134 119.214C172.753 119.756 173.217 120.453 173.836 121.227ZM65.9876 84.6038C66.2197 84.6038 66.4518 84.6038 66.7613 84.6038C69.3144 84.6038 71.8675 84.6812 74.4205 84.9909C76.6642 85.3006 78.753 84.8361 80.8419 84.1392C82.6213 83.5198 84.3234 82.6681 85.7934 81.4293C85.9481 81.2744 86.2575 81.1196 86.1028 80.8099C82.3892 80.655 69.0049 83.0553 65.9876 84.6038ZM97.1661 90.1786C99.1003 90.3334 100.725 90.3334 102.35 90.0237C102.504 90.0237 102.659 89.9463 102.814 89.8689C104.825 88.9397 106.682 87.7783 107.997 85.9975C108.771 84.9909 109.545 83.9844 110.318 82.9778C111.169 81.8938 112.098 80.8873 113.258 80.113C113.413 80.0356 113.568 79.8807 113.722 79.8033C113.413 79.4936 113.181 79.571 112.949 79.6484C111.169 80.0356 109.622 80.8873 108.23 81.9713C106.527 83.365 104.903 84.8361 103.278 86.3072C101.653 87.7009 99.9513 89.0172 97.9398 89.7914C97.7077 89.7914 97.6303 89.8689 97.1661 90.1786ZM29.703 62.6144C29.2388 62.0724 28.852 61.6078 28.5425 61.2207C28.1557 60.7561 27.8462 60.2142 27.4593 59.7496C27.1499 59.285 26.8404 58.8205 26.4536 58.4333C25.9894 57.8913 25.4478 57.3494 24.9063 56.9622C23.8232 56.1105 22.5079 55.5685 21.1153 55.4137C20.3417 55.3362 19.7227 55.4137 19.0264 55.7234C17.247 56.5751 15.545 57.5816 13.9203 58.8205C13.7656 58.8979 13.5335 59.0527 13.7656 59.3625C14.1524 59.285 14.6166 59.2076 15.0808 59.0528C16.3186 58.743 17.5565 58.6656 18.8717 58.6656C20.7285 58.6656 22.4306 59.0528 23.9779 59.9045C24.9063 60.4465 25.8346 60.9884 26.763 61.5304C27.4593 61.9176 28.233 62.3047 28.9293 62.6144C29.1614 62.6144 29.3162 62.6144 29.703 62.6144ZM78.6757 85.4555C79.0625 85.6878 79.1399 85.7652 79.2946 85.7652C80.9966 86.3072 82.6987 86.1524 84.4781 85.9201C86.7991 85.6878 88.888 84.7586 90.7448 83.2875C91.7505 82.5132 92.7563 81.739 93.7621 80.9647C93.8394 80.8873 93.9168 80.7324 93.9941 80.5776C93.8394 80.5001 93.6847 80.4227 93.53 80.4227C91.8279 80.5002 90.2032 80.5776 88.5012 80.5776C87.8049 80.5776 87.3407 80.8873 86.8765 81.3518C84.9423 83.2875 82.6214 84.449 79.9909 85.1458C79.6041 85.1458 79.2946 85.2232 78.6757 85.4555ZM238.282 122.621C237.431 120.143 236.734 117.975 235.961 115.807C235.651 114.955 235.187 114.104 234.646 113.407C233.562 111.858 232.325 110.465 231.164 108.993C231.009 108.839 230.855 108.529 230.545 108.684C230.545 108.839 230.468 108.993 230.545 109.071C231.319 111.936 232.015 114.8 232.789 117.588C232.944 117.975 233.176 118.44 233.408 118.749C234.491 120.066 235.806 121.227 237.276 122.156C237.508 122.388 237.74 122.388 238.282 122.621ZM95.6188 53.0908C95.3093 52.7811 95.1546 52.5489 94.9999 52.4714C94.1489 52.0843 93.2205 51.6197 92.2921 51.3874C88.8106 50.4583 85.2518 50.4583 81.7703 51.5423C80.9193 51.852 80.0682 52.1617 79.1399 52.4714C77.3604 53.0908 75.581 53.7103 73.7242 54.02C73.5695 54.02 73.4921 54.0974 73.1827 54.2523C73.8016 54.4071 74.1884 54.562 74.6526 54.562C75.4263 54.7168 76.2773 54.7168 77.051 54.8717C77.902 55.0265 78.7531 54.8717 79.6041 54.6394C80.9193 54.1748 82.2345 53.7103 83.5497 53.3231C87.2633 52.2391 91.0542 52.1617 94.8451 53.0908C94.9999 53.0134 95.232 53.0134 95.6188 53.0908ZM131.749 9.96379C131.671 10.0412 131.594 10.1186 131.517 10.1961C131.904 10.7381 132.213 11.28 132.6 11.822C134.843 14.8417 137.706 17.3194 140.878 19.4099C142.889 20.8036 144.901 22.1973 146.913 23.591C147.067 23.6684 147.299 23.7459 147.454 23.8233C147.222 23.1264 146.835 22.5844 146.448 22.0425C145.984 21.5005 145.443 21.0359 144.978 20.4939C144.05 19.4874 143.044 18.5582 142.425 17.242C142.193 16.7774 141.806 16.5451 141.42 16.3903C138.17 14.7643 135.153 12.7512 132.445 10.4283C132.29 10.3509 131.981 10.1961 131.749 9.96379ZM191.398 52.7811C191.475 53.2457 191.63 53.6328 191.707 54.0974C192.172 56.1879 192.791 58.2785 193.177 60.369C193.796 63.5436 195.344 66.1761 197.51 68.4989C197.665 68.6538 197.897 68.8086 198.051 68.9635C198.361 68.6537 198.284 68.344 198.206 68.0343C197.974 65.6341 197.355 63.3113 196.427 61.0659C195.189 58.0462 193.332 55.4137 191.398 52.7811ZM115.27 47.2064C115.734 48.5226 116.74 50.3035 117.591 51.4649C118.132 52.2391 118.906 52.5489 119.757 52.6263C120.918 52.7037 122.001 52.6263 123.084 52.3166C124.708 51.852 126.256 51.31 127.88 50.8454C127.88 50.8454 127.958 50.768 127.958 50.6906C127.88 50.6132 127.803 50.4583 127.726 50.3809C126.875 50.0712 126.101 49.7615 125.25 49.6066C124.012 49.3743 122.852 49.2195 121.614 49.142C119.602 49.0646 117.668 48.5226 115.966 47.4386C115.811 47.3612 115.579 47.2838 115.27 47.2064ZM266.675 113.794C267.139 113.639 267.604 113.562 268.068 113.407C268.609 113.175 269.228 113.02 269.77 112.71C271.317 111.858 272.4 110.542 273.097 108.839C273.406 108.142 273.483 107.367 273.097 106.671C272.632 105.819 272.246 104.89 271.859 104.038C271.549 103.341 271.24 102.644 270.853 101.638C270.776 102.567 270.776 103.186 270.776 103.728C270.621 105.587 270.234 107.367 269.538 109.071C268.996 110.31 268.3 111.394 267.294 112.323C266.753 112.632 266.443 113.02 266.675 113.794ZM121.691 42.0187C121.536 40.2379 121.459 38.8442 120.918 37.5279C120.685 36.8311 120.221 36.444 119.525 36.2117C117.359 35.5148 115.115 35.0503 112.794 34.7406C111.634 34.5857 110.396 34.3534 109.003 34.4308C111.324 35.5148 113.49 36.5214 115.579 37.6054C117.668 38.7668 119.602 40.2379 121.691 42.0187ZM233.64 120.22C233.717 120.53 233.717 120.685 233.795 120.917C234.491 122.93 235.574 124.711 237.121 126.182C239.133 128.195 241.531 129.589 244.084 130.905C244.162 130.983 244.316 130.905 244.703 130.905C244.316 130.441 244.007 130.131 243.697 129.821C242.382 128.35 240.99 126.879 239.906 125.253C239.288 124.247 238.514 123.627 237.508 123.008C236.116 122.234 234.955 121.227 233.64 120.22ZM169.658 60.0593C169.117 60.9884 168.73 61.6853 168.343 62.3047C167.879 63.0016 167.415 63.7758 166.873 64.4727C166.796 64.6275 166.718 64.705 166.641 64.8598C166.177 65.8664 165.945 66.8729 166.331 67.9569C166.641 68.886 166.796 69.8152 167.028 70.7443C167.105 71.054 167.182 71.2863 167.337 71.596C169.117 68.7312 170.664 62.8467 169.658 60.0593ZM208.032 160.638C206.949 160.715 205.865 160.792 205.014 161.644C204.473 162.186 203.699 162.651 203.003 163.038C201.301 164.044 199.444 164.741 197.433 165.051C197.2 165.128 196.891 165.128 196.891 165.515C197.587 165.825 198.284 166.057 198.98 166.445C199.831 166.909 200.605 166.832 201.456 166.445C204.241 165.283 206.33 163.347 208.032 160.947C208.032 160.947 208.032 160.87 208.032 160.638ZM16.9376 65.4018C16.6281 65.0147 16.3186 65.1695 16.0092 65.2469C13.9203 65.7115 11.8314 66.0987 9.74251 66.5632C8.42729 66.8729 7.18946 67.3375 5.9516 67.7246C5.7195 67.8021 5.41003 67.8795 5.41003 68.1892C6.80262 68.4215 8.19522 68.7312 9.58781 69.0409C10.2841 69.1957 10.9804 69.1183 11.6767 68.9635C13.9203 68.344 15.3903 66.8729 16.9376 65.4018ZM194.26 65.2469C194.183 65.3244 194.106 65.3244 194.028 65.4018C194.183 67.1052 194.338 68.7312 194.57 70.4346C194.647 70.7443 194.725 71.1314 194.879 71.4411C195.576 72.6025 196.427 73.6091 197.587 74.306C197.819 74.4608 198.129 74.6157 198.516 74.3834C198.516 72.9897 198.516 71.5186 198.361 70.2023C197.742 69.5829 197.2 69.1183 196.736 68.5763C196.272 68.1117 195.885 67.5698 195.498 67.0278C195.034 66.4083 194.647 65.7889 194.26 65.2469ZM238.359 120.375C238.978 122.776 240.448 125.253 241.841 126.337C242.073 126.027 242.305 125.64 242.537 125.331C242.924 124.789 242.924 124.247 242.614 123.627C241.995 122.466 241.609 121.15 241.376 119.833C241.299 119.214 241.144 118.517 241.067 117.898C240.99 117.665 240.912 117.433 240.835 117.201C239.984 118.362 239.21 119.369 238.359 120.375ZM191.707 50.5357C191.63 50.6132 191.553 50.6132 191.475 50.6906C191.707 51.0777 191.862 51.4649 192.094 51.852C192.326 52.2391 192.558 52.6263 192.791 53.0134C193.023 53.3231 193.255 53.7103 193.41 54.02C193.642 54.4071 193.874 54.7942 194.183 55.1814C194.415 55.5685 194.647 55.9557 194.879 56.3428C195.112 56.7299 195.344 57.1171 195.576 57.5042C195.808 57.8913 195.963 58.201 196.117 58.5882C196.349 58.9753 196.504 59.4399 196.736 59.827C196.968 60.2142 197.046 60.6787 197.355 60.9884C197.433 60.911 197.587 60.8336 197.587 60.7562C197.897 59.1302 197.974 57.5042 197.742 55.8782C197.665 55.2588 197.433 54.8717 196.891 54.562C195.421 53.7103 194.106 52.7037 192.868 51.6197C192.481 51.31 192.094 50.9229 191.707 50.5357ZM105.676 115.188C106.76 115.265 107.301 115.033 110.009 113.562C112.639 112.168 115.038 110.542 116.894 108.064C116.276 107.677 115.734 107.677 115.115 107.677C113.8 109.148 112.407 110.697 110.705 111.858C109.158 112.942 107.456 114.026 105.676 115.188ZM237.044 116.272C237.199 116.194 237.276 116.194 237.276 116.117C237.353 115.962 237.431 115.884 237.508 115.73C237.818 114.491 237.74 113.252 237.431 111.936C237.276 111.316 236.889 110.852 236.348 110.619C235.187 110.077 233.949 109.458 232.789 108.916C232.634 108.839 232.479 108.839 232.015 108.684C232.789 109.613 233.408 110.387 233.949 111.161C234.568 111.936 235.187 112.787 235.651 113.639C236.193 114.491 236.58 115.342 237.044 116.272ZM238.05 119.601C239.365 118.594 240.139 117.433 240.525 115.962C240.603 115.807 240.603 115.575 240.525 115.342C240.216 113.949 239.52 112.865 238.282 112.091C238.204 112.168 238.127 112.245 238.127 112.245C238.127 112.4 238.127 112.555 238.127 112.71C238.282 114.258 238.282 115.73 237.585 117.201C237.431 117.51 237.431 117.898 237.585 118.207C237.74 118.594 237.895 119.059 238.05 119.601ZM246.792 131.757C246.56 129.667 245.245 127.189 243.543 125.331C243.388 125.408 243.233 125.485 243.156 125.563C242.846 126.027 242.614 126.492 242.305 127.034C243.62 128.815 245.167 130.286 246.792 131.757Z" fill="url(#paint0_linear_318_1088)"/>
<defs>
<linearGradient id="paint0_linear_318_1088" x1="300.305" y1="181.106" x2="29.5649" y2="20.8165" gradientUnits="userSpaceOnUse">
<stop stop-color="#A5845A"/>
<stop offset="0.0093143" stop-color="#A38358"/>
<stop offset="0.107" stop-color="#967744"/>
<stop offset="0.2053" stop-color="#8E6F38"/>
<stop offset="0.3043" stop-color="#8B6D34"/>
<stop offset="0.3738" stop-color="#967941"/>
<stop offset="0.5025" stop-color="#B39864"/>
<stop offset="0.6752" stop-color="#E1CA9B"/>
<stop offset="0.6813" stop-color="#E3CC9D"/>
<stop offset="0.761" stop-color="#D8BF91"/>
<stop offset="0.9081" stop-color="#BA9D71"/>
<stop offset="1" stop-color="#A5845A"/>
</linearGradient>
</defs>
</svg>
