<svg width="161" height="156" viewBox="0 0 161 156" fill="none" xmlns="http://www.w3.org/2000/svg">
<path d="M158.828 0.841431C158.287 1.6157 158.132 2.00284 157.822 2.31255C154.805 6.4162 152.716 10.9844 151.401 15.8623C150.086 20.508 150.163 25.0762 152.02 29.567C152.716 31.3478 153.49 33.0512 154.341 34.7546C155.501 37.2323 156.662 39.6326 157.745 42.1102C158.519 43.8136 159.138 45.6719 159.757 47.4527C161.691 53.3372 160.994 58.912 157.9 64.3319C156.198 67.2742 154.496 70.2938 152.948 73.3135C150.782 77.4172 150.008 81.8305 150.705 86.4762C150.859 87.7924 151.092 89.1087 151.246 90.3475C152.097 95.6126 151.092 100.491 148.229 104.981C146.604 107.536 144.902 110.092 143.2 112.647C141.034 115.899 138.945 119.305 137.243 122.867C134.845 127.977 133.762 133.397 134.458 139.049C134.69 140.753 134.922 142.534 135.231 144.237C136.701 152.057 136.469 159.955 134.922 167.698C133.762 173.892 130.744 179.157 126.412 183.725C123.394 186.977 119.836 189.532 115.813 191.39C112.718 192.861 109.546 194.178 106.374 195.494C102.66 197.042 98.9468 198.591 95.3106 200.14C93.918 200.759 92.5254 201.456 91.2102 202.153C87.4193 204.166 84.7888 207.185 83.1641 211.057C82.3131 213.07 81.6942 215.161 80.8432 217.174C79.9921 219.187 79.1411 221.2 78.1353 223.136C76.7428 225.846 74.4991 227.859 71.7913 229.252C70.0119 230.181 68.2325 231.188 66.4531 232.272C62.3527 234.75 59.9543 238.466 58.7165 242.957C57.0918 248.764 56.9371 254.571 58.1749 260.456C58.5617 262.236 58.9486 264.017 59.4128 265.798C60.2638 268.973 61.4243 272.07 63.2037 274.857C64.3642 276.793 65.5247 278.728 66.7625 280.664C67.4588 281.671 68.0778 282.755 69.2383 283.374C69.6251 283.529 69.7798 283.993 69.5477 284.303C69.393 284.535 69.0061 284.845 68.6967 284.845C68.3099 284.845 67.8457 284.768 67.4588 284.535C66.9173 284.148 66.4531 283.684 66.1436 283.142C64.2095 280.2 62.2753 277.335 60.5732 274.238C58.7165 270.831 57.6333 267.114 56.7823 263.32C56.1634 260.301 55.6992 257.281 55.1576 254.261C54.6934 251.629 54.3066 248.919 53.6877 246.286C52.8367 242.415 51.2893 238.776 49.2778 235.369C48.1173 233.433 46.7247 231.653 44.9453 230.181C43.2433 228.71 41.3865 227.394 39.6071 226C36.5898 223.832 33.1857 222.903 29.5495 222.903C27.6927 222.903 25.7585 223.058 23.9018 223.136C21.6581 223.213 19.4145 223.445 17.1709 223.445C15.6236 223.445 14.0763 223.29 12.6063 222.981C10.1306 222.439 8.19645 221.045 7.11333 218.722C6.4944 217.328 6.0302 215.857 5.72074 214.386C4.79235 209.818 4.94708 205.25 5.72074 200.682C6.41703 197.12 7.11333 193.481 7.73226 189.919C8.42855 185.816 7.88699 181.944 6.18494 178.15C5.33391 176.292 4.40553 174.434 3.5545 172.653C1.15615 167.62 -0.00434476 162.355 0.150387 156.78C0.227753 152.599 1.23351 148.573 3.01293 144.779C5.41127 139.669 8.58328 135.023 12.2969 130.765C15.082 127.513 18.4861 125.035 22.3544 123.177C25.4491 121.706 28.6985 120.544 31.9478 119.538C33.6499 118.996 35.4293 118.454 37.1313 117.834C38.6013 117.292 39.9939 116.75 41.3865 116.053C44.3264 114.582 46.4926 112.182 47.8079 109.162C49.1231 106.143 50.0515 102.968 50.8251 99.7937C51.9083 95.4577 53.765 91.5863 56.4729 88.1021C58.9486 84.9276 61.9658 82.5273 65.602 80.7465C68.774 79.198 72.1008 78.1914 75.5049 77.4171C78.7543 76.7203 82.081 76.0235 85.3304 75.1718C87.1098 74.7846 88.8892 74.2426 90.5913 73.7006C91.8291 73.3135 93.067 72.8489 94.2275 72.3069C100.339 69.597 103.743 64.7965 105.213 58.4474C105.91 55.5052 106.142 52.4081 106.606 49.3884C107.999 40.4843 111.557 32.6641 117.747 26.0828C120.764 22.9082 124.013 19.966 127.572 17.4109C134.845 12.3007 142.581 8.11959 150.473 4.09337C152.716 2.93196 154.882 1.92541 157.281 1.15114C157.668 1.15114 157.977 1.07371 158.828 0.841431ZM51.3667 217.716C51.5988 217.328 51.8309 217.019 51.9856 216.709C53.8424 212.915 56.5502 209.818 59.877 207.263C64.751 203.546 70.0893 200.759 75.9691 199.133C78.8316 198.359 81.7715 197.739 84.7115 197.275C89.4308 196.501 94.2275 195.959 99.0242 195.262C101.655 194.875 104.208 194.333 106.683 193.403C110.165 192.087 113.646 190.693 116.896 188.913C124.323 184.732 129.584 178.692 132.292 170.64C133.529 166.923 133.916 163.129 134.071 159.258C134.071 159.103 133.994 159.026 133.916 158.793C133.684 158.948 133.375 159.026 133.22 159.258C131.827 160.497 130.28 161.426 128.655 162.278C125.019 164.213 121.306 165.762 117.437 167.078C111.944 168.859 106.297 170.098 100.571 170.795C95.0011 171.491 89.4308 171.956 83.8604 172.498C79.76 172.885 75.5823 173.427 71.5592 174.279C66.4531 175.363 61.6564 177.299 57.1691 180.008C55.1576 181.247 53.3008 182.641 51.7535 184.344C48.3494 188.061 46.57 192.319 47.0342 197.507C47.6531 204.243 49.2004 210.747 50.9799 217.174C50.9799 217.251 51.1346 217.406 51.3667 217.716ZM48.6589 178.77C49.1231 178.692 49.2005 178.692 49.2005 178.692C49.4326 178.537 49.6646 178.305 49.8967 178.15C56.0087 172.343 63.2037 168.549 71.2498 166.149C75.4275 164.91 79.76 164.058 84.0152 163.284C89.5082 162.278 95.0785 161.194 100.571 160.11C104.904 159.18 109.159 157.942 113.337 156.393C116.432 155.232 119.371 153.915 122.234 152.289C125.87 150.199 128.965 147.489 131.518 144.082C132.524 142.766 132.91 141.372 132.678 139.591C131.982 134.791 132.601 130.145 134.303 125.577C135.231 122.944 136.392 120.467 137.785 118.067C138.326 117.137 138.326 117.137 138.403 116.208C138.249 116.363 138.017 116.441 137.862 116.595C129.042 124.338 118.753 129.061 107.225 131.074C103.047 131.849 98.8694 132.236 94.6143 132.623C91.2876 132.933 87.9608 133.32 84.6341 133.784C81.9263 134.171 79.3732 135.023 76.8975 136.107C75.4275 136.727 74.0349 137.578 72.9518 138.74C70.3214 141.527 67.5362 144.237 64.9831 147.179C57.6333 155.619 52.4498 165.22 49.2778 175.905C49.0457 176.757 48.891 177.686 48.6589 178.77ZM104.362 65.9579C103.821 66.6547 103.511 66.9644 103.279 67.2741C101.423 69.9841 98.9468 71.9972 96.0069 73.4683C94.3048 74.32 92.5254 75.0169 90.746 75.5589C87.6514 76.488 84.5567 77.3397 81.4621 77.9591C79.8374 78.2689 78.909 79.1205 78.1353 80.5142C76.7428 83.2242 75.8144 86.0116 75.4275 89.0313C74.8086 93.2898 74.9633 97.4708 75.9691 101.652C76.6654 104.672 77.5164 107.614 78.2127 110.556C78.909 113.576 79.6827 116.673 80.3016 119.693C80.8431 122.557 80.9979 125.5 80.6884 128.364C80.6884 128.674 80.6884 128.906 80.6884 129.371C81.23 129.061 81.5394 128.906 81.9263 128.674C84.2473 127.126 86.4909 125.577 88.8118 124.028C92.6028 121.396 96.3164 118.763 100.107 116.131C100.958 115.511 101.655 114.892 102.196 113.963C104.517 110.169 106.451 106.143 107.534 101.807C109.314 94.9157 109.623 88.0247 107.921 81.0562C106.683 76.2557 105.059 71.4552 104.362 65.9579ZM44.5585 193.481C44.6359 193.481 44.7906 193.403 44.868 193.403C44.868 193.016 44.868 192.707 44.9453 192.319C45.1001 190.074 45.1774 187.829 45.4095 185.583C45.9511 180.783 47.1889 176.137 48.6589 171.569C49.0457 170.407 49.1231 169.324 49.0457 168.162C48.8136 164.755 48.1947 161.503 47.1116 158.329C46.4153 156.238 45.6416 154.225 44.9453 152.135C42.8564 146.482 41.077 140.675 40.0713 134.713C39.2202 129.99 38.8334 125.345 39.4523 120.544C39.5297 120.157 39.375 119.693 39.375 119.305C39.1429 119.305 38.9881 119.228 38.8334 119.305C34.9651 120.622 31.0968 121.783 27.2285 123.254C24.7528 124.183 22.4318 125.422 20.1108 126.584C18.4861 127.358 17.5577 128.674 16.9388 130.3C15.1594 135.255 14.7726 140.366 15.5462 145.631C16.3973 151.128 18.5635 156.083 21.5808 160.729C24.598 165.452 28.2343 169.788 31.8705 174.047C33.8046 176.215 35.6614 178.46 37.4408 180.783C40.0713 184.112 42.1601 187.829 43.7075 191.777C44.0169 192.319 44.249 192.939 44.5585 193.481ZM77.9033 79.1206C77.5164 79.0431 77.3617 78.9657 77.2069 78.9657C73.8028 79.6625 70.5535 80.5142 67.3815 81.9079C65.1379 82.9145 63.049 84.0759 61.2696 85.7019C60.5733 86.3213 59.877 87.0181 59.4128 87.7924C58.6391 89.0312 58.0202 90.3475 57.4786 91.6638C54.2292 99.0968 52.914 106.84 52.8366 114.892C52.7593 122.48 53.533 130.068 54.6934 137.578C55.4671 142.998 56.3181 148.418 56.4729 153.915C56.4729 154.148 56.5502 154.303 56.6276 154.69C56.9371 154.38 57.2465 154.148 57.4786 153.915C58.8712 151.98 60.2638 149.967 61.7337 148.108C66.4531 142.224 71.6366 136.804 77.5938 132.158C78.9864 131.074 79.6827 129.836 79.8374 128.132C79.9148 126.738 79.9921 125.345 79.9148 123.951C79.76 120.622 79.0637 117.292 78.2127 114.04C77.3617 110.711 76.4333 107.382 75.5823 104.13C74.886 101.342 74.3444 98.5548 74.267 95.69C74.0349 90.3475 74.8086 85.2373 77.3617 80.4368C77.5164 80.0497 77.6712 79.6625 77.9033 79.1206ZM148.771 7.2679C148.229 7.50018 147.765 7.65505 147.378 7.88733C145.289 8.97131 143.278 10.1327 141.266 11.2167C136.701 13.7718 132.137 16.4818 127.959 19.5789C124.942 21.7468 122.234 24.3019 119.604 26.9345C117.592 28.9476 116.354 31.193 115.58 33.8255C115.116 35.5289 114.729 37.2323 114.42 38.9357C113.414 45.2073 113.646 51.4015 114.652 57.6731C115.271 61.3122 115.89 65.0288 116.509 68.6679C117.283 73.1586 117.824 77.7268 118.211 82.3725C118.52 86.2439 118.443 90.1152 117.824 93.9092C117.592 95.3029 117.283 96.774 117.05 98.1677C117.592 97.858 117.979 97.4708 118.288 97.0063C121.847 90.8121 124.168 84.1533 125.561 77.1849C126.566 71.9972 127.031 66.6547 127.418 61.3122C127.727 56.8215 127.804 52.2532 128.114 47.7625C128.423 43.1942 129.042 38.626 130.357 34.2127C131.905 28.7927 134.767 24.0696 138.017 19.5789C140.879 15.6301 144.206 12.0684 147.842 8.73901C148.152 8.27445 148.771 8.04217 148.771 7.2679ZM47.9626 214.928C48.1173 214.696 48.1947 214.541 48.1947 214.464C47.7305 212.605 47.3437 210.747 46.7247 208.966C45.0227 204.321 42.8564 199.985 39.9165 196.036C36.3577 191.081 32.4894 186.512 27.9248 182.409C25.3717 180.086 22.7413 177.686 20.3429 175.208C12.3742 167.156 7.11333 157.632 5.33391 146.405C5.25654 146.095 5.17918 145.786 5.02445 145.398C4.79235 145.553 4.63761 145.553 4.56025 145.708C3.47712 148.108 2.54874 150.586 2.16191 153.219C1.15615 159.49 2.16191 165.607 4.71499 171.337C5.48865 173.04 6.41704 174.743 7.1907 176.447C8.27382 178.847 9.20221 181.325 9.58904 183.957C9.74377 184.809 10.0532 185.661 10.3627 186.435C12.0648 190.229 14.8499 193.249 18.0993 195.726C20.7297 197.817 23.6697 199.52 26.6096 201.069C30.1684 202.927 33.7272 204.785 37.2087 206.721C40.7676 208.657 44.1717 210.979 46.8795 214.154C47.3437 214.309 47.6531 214.618 47.9626 214.928ZM56.6276 242.183C56.7823 242.183 56.9371 242.183 57.0144 242.183C57.1692 241.873 57.2465 241.486 57.4013 241.176C58.9486 236.608 61.8111 232.969 65.9889 230.569C67.6136 229.639 69.2383 228.71 70.9403 227.781C73.4934 226.465 75.4275 224.607 76.7428 222.052C77.3617 220.89 77.9032 219.729 78.3674 218.49C79.1411 216.554 79.76 214.619 80.4563 212.76C81.0753 211.134 81.7715 209.508 82.6226 208.037C84.402 204.863 86.9551 202.385 90.2044 200.682C92.4481 199.52 94.8464 198.514 97.09 197.43C97.6316 197.197 98.1731 196.888 98.7147 196.578C98.1731 196.346 97.6316 196.346 97.1674 196.423C93.067 196.965 88.9666 197.507 84.8662 198.127C83.3189 198.359 81.6942 198.668 80.1469 198.978C72.9518 200.449 66.4531 203.314 60.5732 207.727C58.6391 209.199 56.8597 210.825 55.3897 212.76C53.9972 214.619 52.6819 216.554 51.9083 218.8C51.6762 219.574 51.5988 220.348 51.8309 221.122C52.3725 222.981 52.914 224.916 53.4556 226.775C54.8482 231.343 55.7766 235.989 56.1634 240.712C56.3955 241.176 56.5502 241.718 56.6276 242.183ZM133.065 143.54C132.756 143.695 132.678 143.695 132.601 143.695C132.446 143.927 132.214 144.16 132.059 144.392C129.429 148.186 125.948 151.051 121.925 153.219C119.139 154.767 116.354 156.006 113.337 157.09C109.236 158.561 105.059 159.877 100.726 160.729C95.1559 161.89 89.5855 162.897 84.0152 163.981C80.4563 164.678 76.8975 165.375 73.3386 166.226C69.2382 167.233 65.2926 168.781 61.5016 170.717C57.0144 173.04 52.914 175.982 49.3552 179.621C48.1947 180.783 47.5758 182.099 47.421 183.648C47.2663 185.041 47.0342 186.358 46.8795 187.751C46.8795 188.138 46.9568 188.525 47.1116 189.222C49.2778 184.577 52.5272 181.402 56.5502 178.924C61.0375 176.215 65.9115 174.201 71.095 173.117C74.6539 172.343 78.2901 171.801 81.9263 171.491C86.6456 171.027 91.3649 170.562 96.0843 170.175C101.577 169.633 107.07 168.782 112.408 167.388C118.211 165.917 123.781 163.671 129.042 160.806C130.435 160.032 131.827 159.18 132.91 158.019C133.762 157.167 134.226 156.161 134.226 154.922C134.226 151.593 133.916 148.341 133.375 145.089C133.375 144.702 133.22 144.16 133.065 143.54ZM126.412 81.7531C126.799 81.6757 127.031 81.6756 127.108 81.5982C129.506 79.5077 132.214 78.0366 134.922 76.3332C137.243 74.9395 139.487 73.5458 141.73 71.9198C146.527 68.4356 150.395 64.0996 152.948 58.7571C155.269 53.9566 156.275 48.8464 155.733 43.5039C155.656 42.2651 155.347 41.1037 154.728 39.9423C153.645 37.8517 152.716 35.7612 151.633 33.6707C151.478 33.3609 151.401 32.9738 150.782 33.0512C150.627 33.361 150.473 33.7481 150.318 34.1352C149.622 36.1483 148.616 38.0066 147.455 39.7874C143.123 46.2913 137.63 51.6338 131.054 55.8923C130.59 56.202 130.125 56.5117 129.661 56.8989C128.965 65.1836 128.423 73.4683 126.412 81.7531ZM149.467 94.8383C148.848 95.6126 148.538 96.1546 148.152 96.5417C146.991 98.0128 145.908 99.5614 144.515 100.955C135.386 110.092 124.555 116.286 111.867 119.073C109.159 119.693 106.451 120.08 103.666 120.467C100.804 120.931 97.941 121.396 95.1559 122.402C94.3048 122.712 93.3765 123.099 92.6028 123.641C89.5855 125.654 86.5682 127.668 83.551 129.758C81.9263 130.919 80.379 132.158 78.8316 133.32C78.5995 133.475 78.2127 133.707 78.5222 134.171C78.6769 134.171 78.8316 134.171 78.9864 134.171C83.1641 132.778 87.4966 132.158 91.8291 131.849C94.4596 131.616 97.09 131.384 99.6431 131.152C108.385 130.3 116.896 128.287 124.787 124.183C133.994 119.46 141.653 113.111 146.682 103.82C147.378 102.504 147.997 101.265 148.538 99.8711C149.157 98.4 149.622 96.9288 149.467 94.8383ZM8.19646 197.739C7.887 199.598 7.57752 201.224 7.26806 202.85C6.64913 206.721 6.7265 210.592 7.50016 214.386C7.73226 215.625 8.19645 216.786 8.66065 217.948C9.27958 219.496 10.5174 220.503 12.1421 221.122C13.9989 221.819 15.8557 221.974 17.7125 221.897C20.0335 221.819 22.3544 221.587 24.6754 221.51C26.5322 221.432 28.4664 221.277 30.3231 221.355C33.7272 221.432 36.8993 222.439 39.8392 224.219C45.8737 227.936 50.6704 232.814 53.4556 239.395C53.533 239.628 53.6877 239.937 53.8424 240.17C53.9198 240.247 54.0745 240.324 54.1519 240.402C54.2292 240.247 54.3066 240.17 54.3066 240.015C54.0745 236.453 53.3009 232.969 51.5214 229.794C49.5873 226.31 47.421 223.058 44.3264 220.503C42.2375 218.722 39.9165 217.174 37.5956 215.625C33.1857 212.76 28.2343 210.902 23.4376 208.734C21.0392 207.65 18.6409 206.566 16.3973 205.25C13.38 203.546 10.6722 201.456 8.81538 198.514C8.81538 198.204 8.58329 198.049 8.19646 197.739ZM105.291 114.737C105.6 114.737 105.832 114.815 105.987 114.737C109.933 113.576 113.801 112.492 117.747 111.33C124.4 109.395 130.203 106.065 135.464 101.652C140.647 97.2385 144.825 92.1284 147.842 86.0116C148.229 85.2373 148.461 84.3856 148.461 83.5339C148.384 81.2885 148.771 79.0431 149.389 76.8751C149.389 76.7977 149.312 76.6429 149.235 76.488C149.157 76.488 149.08 76.4106 149.08 76.4106C148.771 76.6429 148.461 76.7977 148.229 77.03C144.902 80.1271 141.266 82.8371 137.32 85.005C135.618 86.0116 133.839 86.8633 132.214 87.9473C130.048 89.341 127.882 90.6572 125.87 92.2058C122.776 94.5286 120.145 97.3934 118.056 100.645C116.973 102.271 115.813 103.82 114.575 105.368C112.254 108.233 109.546 110.866 106.683 113.266C106.219 113.731 105.678 114.04 105.291 114.737ZM49.9741 166.923C50.1288 166.923 50.2062 166.923 50.3609 166.923C51.2893 164.988 52.1404 163.052 53.1461 161.271C53.6877 160.264 53.8424 159.258 53.6103 158.174C53.3782 157.013 53.1461 155.851 52.9914 154.767C51.5988 147.102 50.2062 139.437 48.891 131.694C47.8852 125.654 47.4984 119.538 48.5042 113.421C48.5042 113.189 48.4268 112.956 48.3494 112.647C47.1116 113.885 46.0284 115.124 44.7906 116.131C43.4754 117.137 42.0054 117.989 40.5354 118.918C40.4581 119.228 40.3807 119.615 40.3034 119.925C39.9165 123.564 39.8392 127.203 40.3034 130.842C41.077 137.114 42.6243 143.153 44.7132 149.115C45.719 151.902 46.7247 154.767 47.7305 157.555C48.6589 160.342 49.4326 163.129 49.742 166.072C49.8194 166.304 49.8968 166.614 49.9741 166.923ZM129.893 51.3241C130.59 50.8595 130.976 50.5498 131.363 50.2401C134.69 47.2979 137.32 43.8911 139.719 40.252C142.349 36.2258 144.283 31.8124 145.599 27.1668C146.991 22.134 148.848 17.3335 150.473 12.4555C150.937 11.1393 151.556 9.90044 152.02 8.58417C152.175 8.27446 152.252 7.96474 152.329 7.65503C152.097 7.65503 152.02 7.5776 151.943 7.5776C151.71 7.73246 151.401 7.88732 151.246 8.04217C145.134 13.1524 139.951 18.9594 135.928 25.8505C134.303 28.6379 132.91 31.5027 132.059 34.5998C131.131 38.084 130.435 41.5682 130.125 45.1299C129.971 47.0656 129.661 49.0013 129.893 51.3241ZM114.42 33.9804C114.343 33.9029 114.265 33.9029 114.111 33.8255C113.646 34.5998 113.105 35.4515 112.718 36.2257C110.939 39.5551 109.855 43.0394 109.004 46.6784C107.844 51.7887 107.534 56.8989 108.54 62.0865C109.159 65.3385 109.855 68.513 110.629 71.6875C111.557 75.6363 112.408 79.6625 112.873 83.7662C113.337 87.3279 113.337 90.8895 113.027 94.4512C112.641 98.2451 111.79 101.962 110.32 105.446C110.01 106.22 109.546 106.917 109.469 108.156C111.016 106.84 112.022 105.523 113.105 104.362C114.497 102.968 115.271 101.265 115.735 99.4065C117.205 93.7543 117.824 88.1021 117.36 82.2951C116.973 77.3397 116.354 72.4618 115.426 67.5064C114.652 63.3254 114.033 59.1443 113.414 54.9632C112.641 49.6207 112.718 44.2008 113.492 38.8583C113.724 37.2323 114.111 35.6063 114.42 33.9804ZM51.2893 227.162C51.3667 227.162 51.5214 227.084 51.5988 227.084C51.5214 226.697 51.4441 226.31 51.3667 225.846C50.8251 223.91 50.2836 222.052 49.8194 220.116C49.4325 218.645 48.7363 217.406 47.8079 216.244C45.719 213.612 43.2433 211.367 40.3807 209.508C36.6671 207.031 32.6441 205.172 28.6985 203.082C24.9849 201.069 21.2713 199.133 17.8672 196.501C15.0047 194.333 12.4516 191.855 10.6722 188.68C10.5174 188.371 10.2853 188.138 9.89851 187.596C9.74378 188.371 9.66641 188.99 9.58904 189.532C9.35694 191.081 9.12484 192.707 8.81538 194.255C8.58328 195.339 8.73801 196.268 9.20221 197.197C9.97587 198.591 10.9816 199.83 12.2195 200.914C14.3857 202.927 16.7841 204.553 19.4145 205.792C22.6639 207.34 25.9133 208.734 29.24 210.128C33.031 211.676 36.5898 213.689 39.9939 215.857C44.249 218.645 47.9626 221.974 50.6704 226.31C50.9025 226.697 51.0572 226.93 51.2893 227.162ZM43.7848 195.262C42.4696 190.306 40.3807 185.893 37.2861 181.944C35.4293 179.544 33.4178 177.221 31.4836 174.821C29.0079 171.801 26.4548 168.781 23.9791 165.684C21.5034 162.432 19.2598 159.026 17.5577 155.232C13.9989 147.257 13.0705 139.127 15.8557 130.765C15.9331 130.532 16.1652 130.223 15.701 129.99C15.4689 130.223 15.1594 130.378 14.9273 130.61C13.9215 131.694 12.9931 132.778 11.9874 133.862C10.9043 135.023 10.4401 136.417 10.2853 138.043C9.89851 141.759 10.0532 145.476 10.9043 149.115C12.0648 154.303 14.3084 159.026 17.3256 163.362C19.724 166.846 22.5092 170.098 25.3717 173.117C27.8474 175.75 30.4005 178.382 32.9536 181.015C36.8993 185.041 40.226 189.532 43.0885 194.41C43.398 194.72 43.6301 195.029 43.7848 195.262ZM97.8637 120.544C100.107 120.157 102.351 119.847 104.517 119.46C106.683 119.073 108.85 118.763 110.939 118.299C123.627 115.666 134.458 109.55 143.742 100.491C145.753 98.5548 147.378 96.3094 148.925 93.9866C149.389 93.2898 149.622 92.5929 149.467 91.7412C149.235 90.4249 149.08 89.1087 148.925 87.8698C148.848 87.6376 148.693 87.4053 148.461 87.0956C147.301 88.9538 146.372 90.7346 145.134 92.4381C138.481 101.807 129.816 108.543 118.753 112.027C115.503 113.034 112.176 113.885 108.85 114.892C106.529 115.666 104.208 116.518 101.887 117.447C100.339 117.989 99.0242 119.228 97.8637 120.544ZM44.3264 201.069C44.4038 200.991 44.5585 200.991 44.6358 200.914C44.5585 200.604 44.5585 200.217 44.4811 199.907C43.7848 197.43 42.7791 195.107 41.3091 192.939C38.5239 188.68 35.3519 184.654 31.7931 180.938C28.0795 177.066 24.366 173.117 20.7298 169.091C18.0219 166.072 15.6236 162.665 13.7668 159.026C10.5948 152.986 8.97012 146.56 9.35695 139.669C9.35695 139.204 9.35694 138.74 9.43431 137.965C9.04748 138.353 8.73802 138.507 8.66065 138.662C8.11909 139.514 7.6549 140.443 7.03597 141.217C6.26231 142.301 6.03021 143.463 6.18494 144.702C6.26231 145.321 6.33967 146.018 6.41704 146.637C7.34543 151.902 9.04748 156.935 11.6006 161.658C14.231 166.536 17.4804 170.872 21.426 174.743C23.9018 177.221 26.5322 179.544 29.0853 181.944C34.8104 187.287 39.8392 193.249 43.7848 200.062C43.8622 200.449 44.0943 200.759 44.3264 201.069ZM156.817 45.9042C156.817 46.2913 156.739 46.7559 156.739 47.143C156.352 54.6535 153.567 61.1574 148.693 66.8096C145.831 70.139 142.427 72.8489 138.636 75.1718C136.315 76.5654 133.994 77.9591 131.75 79.3528C129.971 80.4368 128.346 81.6756 126.953 83.0693C126.025 83.921 125.329 84.9276 125.019 86.1664C124.864 86.7084 124.632 87.2504 124.478 87.7924C124.4 88.0247 124.478 88.257 124.4 88.799C128.423 86.3213 132.214 83.9985 135.928 81.5982C137.862 80.3594 139.719 78.9657 141.575 77.4946C145.831 74.1652 149.544 70.2938 152.716 65.8805C154.96 62.7059 156.971 59.454 158.364 55.8149C158.673 55.0406 158.983 54.2663 158.905 53.4921C158.828 50.8595 158.209 48.3044 156.817 45.9042ZM54.5387 157.942C55.4671 157.322 55.4671 156.703 55.4671 156.006C55.3897 153.606 55.3897 151.205 55.1576 148.805C54.7708 144.934 54.2292 141.14 53.6877 137.269C52.6819 130.223 51.9083 123.254 51.9083 116.131C51.9083 109.317 52.6819 102.581 54.8482 96.0772C55.3124 94.6835 55.7766 93.3672 56.4729 91.5863C55.8539 92.438 55.3897 92.8252 55.1576 93.3672C54.4613 94.9932 53.6877 96.5417 53.2235 98.2451C52.4498 100.645 51.9083 103.2 51.1346 105.601C49.8968 109.317 49.3552 113.111 48.9684 116.983C48.5042 121.86 48.9684 126.738 49.742 131.616C51.1346 139.901 52.6819 148.108 54.1519 156.393C54.2292 156.858 54.384 157.322 54.5387 157.942ZM129.661 55.5826C130.512 55.0406 131.054 54.8083 131.518 54.4986C137.088 50.6273 141.885 46.059 145.831 40.5617C147.61 38.084 149.08 35.3741 150.086 32.4318C150.395 31.5027 150.395 30.651 150.086 29.7218C149.235 27.399 148.693 24.9988 148.693 22.4437C148.693 22.2114 148.538 21.9791 148.306 21.3597C147.765 23.1405 147.378 24.6117 146.914 26.0828C145.599 30.2639 144.206 34.3675 142.04 38.2389C138.945 43.6588 135.154 48.5367 130.28 52.4081C130.125 52.563 129.971 52.7178 129.738 52.9501C129.661 53.6469 129.661 54.4212 129.661 55.5826ZM103.976 112.801C105.446 111.95 106.142 111.021 106.761 110.092C109.082 106.84 110.397 103.123 111.248 99.2517C112.486 93.9092 112.563 88.5667 111.79 83.1468C111.325 79.6625 110.552 76.2557 109.855 72.8489C109.082 68.8227 108.153 64.8739 107.302 60.8477C107.225 60.538 107.148 60.2283 106.916 59.6088C106.297 60.6154 106.219 61.4671 105.832 62.2414C104.981 63.7899 104.981 65.4933 105.291 67.1193C105.678 69.2873 106.219 71.3778 106.683 73.5458C107.457 76.5654 108.308 79.5851 108.927 82.6822C110.784 91.6638 109.469 100.258 105.832 108.543C105.446 109.859 104.827 111.098 103.976 112.801ZM122.002 94.2963C122.311 94.064 122.543 93.9866 122.698 93.9092C125.793 91.0444 129.197 88.7215 132.833 86.7084C134.69 85.7019 136.547 84.6179 138.326 83.5339C142.504 80.9788 146.372 78.0366 149.699 74.3975C150.395 73.6232 150.937 72.7715 151.478 71.9198C152.871 69.5195 154.264 67.1193 155.579 64.7191C156.352 63.3254 157.281 62.0091 157.59 60.3057C157.436 60.538 157.281 60.6154 157.203 60.6928C154.109 66.1902 150.318 71.1455 145.599 75.404C141.498 79.198 136.934 82.2951 132.214 85.2373C130.203 86.4762 128.269 87.6376 126.257 88.8764C124.246 90.1152 122.621 91.5863 122.002 93.9092C122.002 93.8317 122.002 93.9092 122.002 94.2963Z" fill="#0A4156"/>
</svg>
