<svg width="211" height="249" viewBox="0 0 211 249" fill="none" xmlns="http://www.w3.org/2000/svg">
<path d="M7.20977 236.308C7.3645 236.385 7.51924 236.463 7.5966 236.463C7.98343 236.23 8.37026 235.998 8.75709 235.766C12.2386 233.52 15.8748 231.74 19.8978 230.733C22.9924 229.959 26.0871 229.649 29.2591 229.881C31.2706 230.036 33.2821 230.191 35.2936 230.501C39.2393 230.965 43.185 230.656 46.9759 229.417C49.6837 228.565 52.3142 227.559 55.022 226.629C56.4146 226.165 57.8072 225.7 59.1997 225.313C61.9849 224.539 64.7701 224.307 67.6326 224.616C69.4121 224.849 71.2688 225.081 73.0483 225.391C76.9939 226.01 80.8622 226.242 84.8079 226.01C86.4326 225.933 88.0573 225.778 89.682 225.7C92.6992 225.545 95.7165 225.468 98.8111 225.391C99.1206 225.391 99.4301 225.391 99.7395 225.391C99.6622 225.933 99.2754 225.933 98.9659 226.087C96.877 227.094 95.0202 228.41 93.3182 229.804C92.1577 230.811 91.1519 231.895 90.3009 233.211C88.9083 235.456 87.8252 237.856 86.8194 240.257C85.7363 242.889 84.0342 245.057 81.868 246.838C78.6186 249.393 74.905 250.477 70.8046 250.167C69.7215 250.09 68.561 249.935 67.4779 249.703C64.6154 249.161 61.7528 249.083 58.8903 249.548C57.4203 249.78 55.873 249.935 54.403 250.012C51.5405 250.09 48.9101 249.471 46.357 248.154C44.7323 247.303 43.4171 246.219 42.1792 244.902C40.4772 243.199 39.0072 241.341 37.6146 239.482C36.4541 238.011 35.371 236.463 34.1332 235.069C33.4369 234.217 32.6632 233.443 31.8122 232.669C30.6517 231.585 29.2591 231.043 27.7118 231.12C22.9924 231.12 18.5052 232.204 14.2501 234.295C10.6912 235.998 7.44187 238.244 4.42459 240.799C3.80567 241.341 3.2641 241.96 2.87727 242.657C-1.14576 249.238 -4.08567 256.284 -6.01982 263.717C-6.25192 264.569 -6.48402 265.498 -6.71611 266.35C-6.79348 266.659 -6.87085 266.969 -6.94821 267.201C-7.10294 267.589 -7.41241 267.821 -7.72187 267.743C-8.03134 267.666 -8.18607 267.279 -8.1087 266.892C-8.03134 266.582 -8.03134 266.272 -7.95397 266.04C-7.18031 263.485 -6.48402 261.007 -5.71036 258.452C-3.62147 251.793 -0.526832 245.599 3.34147 239.792C5.58508 236.385 8.37026 233.366 11.3875 230.501C12.8575 229.107 14.4822 227.713 16.0295 226.32C16.5711 225.778 17.1126 225.236 17.4995 224.616C18.4278 223.145 19.4336 221.674 20.2073 220.048C21.9867 216.254 22.4509 212.305 21.832 208.202C21.3678 205.105 20.362 202.24 19.0468 199.375C18.2731 197.749 17.4995 196.123 16.6484 194.42C15.6427 192.252 14.6369 190.161 13.8632 187.838C13.0896 185.515 12.4707 183.193 12.2386 180.715C11.9291 177.308 12.1612 173.901 13.3991 170.727C14.2501 168.559 15.4879 166.546 16.8805 164.688C17.9637 163.294 18.9694 161.978 20.2073 160.739C23.534 157.254 25.4682 153.151 26.6286 148.505C27.4797 145.021 28.176 141.459 28.5628 137.898C28.9496 134.336 29.8007 130.929 31.1159 127.6C31.5801 126.438 32.0443 125.277 32.6632 124.116C34.0558 121.406 35.2936 118.541 36.4541 115.676C37.1504 113.818 38.0788 112.037 38.8525 110.256C39.3167 109.249 39.7035 108.243 40.1677 107.159C40.2451 107.004 40.3224 106.849 40.4772 106.694C40.864 107.004 40.6319 107.314 40.6319 107.546C40.4772 112.501 41.1735 117.379 42.566 122.102C43.185 124.116 43.7265 126.051 44.3455 128.064C45.0418 130.387 45.4286 132.71 45.6607 135.033C46.2796 141.614 44.7323 147.653 41.2508 153.306C40.7093 154.157 40.1677 155.009 39.6261 155.861C39.1619 156.558 39.0846 157.254 39.3167 158.029C39.5488 158.88 39.8582 159.732 40.1677 160.584C40.9414 162.597 41.715 164.688 42.4887 166.701C43.2623 168.869 43.8039 171.037 44.1907 173.282C44.887 177.85 44.3455 182.264 42.4113 186.522C41.4829 188.69 40.013 190.548 38.3883 192.174C37.2278 193.336 35.9899 194.342 34.8294 195.426C33.7463 196.355 32.5858 197.284 31.4253 198.214C29.2591 199.994 27.6344 202.24 26.4739 204.872C25.3908 207.273 24.3077 209.673 23.6114 212.228C23.534 212.615 23.3793 213.002 23.3793 213.389C23.1472 216.177 22.2188 218.809 20.9809 221.287C20.9036 221.442 20.9036 221.597 20.7488 221.829C20.9809 221.751 21.213 221.829 21.2904 221.751C24.5398 219.351 27.7891 216.951 30.8064 214.241C33.2048 212.073 35.2163 209.673 36.9957 206.963C38.1562 205.259 39.3167 203.633 40.5545 202.085C41.9471 200.304 43.6492 198.91 45.506 197.672C47.9817 196.046 50.4574 194.42 53.0105 192.794C54.7899 191.632 56.6467 190.548 58.4261 189.464C60.3602 188.303 61.9849 186.832 63.3001 184.973C65.2343 182.264 66.9363 179.476 67.7874 176.302C68.4837 173.824 68.7158 171.346 68.4063 168.791C68.0968 166.391 67.4779 164.146 66.6269 161.9C65.6985 159.5 64.7701 157.1 63.9191 154.622C62.836 151.68 62.217 148.66 61.9849 145.563C61.6755 141.692 62.217 137.975 63.3775 134.336C64.3833 131.316 65.4664 128.297 66.5495 125.354C67.8647 121.793 68.9479 118.154 69.8763 114.515C70.5725 111.959 71.3462 109.327 72.1199 106.772C72.1199 106.694 72.2746 106.617 72.352 106.54C72.4293 106.927 72.5841 107.236 72.5841 107.623C73.0483 110.643 73.5898 113.74 73.8993 116.76C74.2861 119.934 75.0598 123.032 76.6071 125.896C77.3808 127.367 78.0771 128.916 78.7734 130.465C80.0886 133.407 80.3207 136.426 79.3149 139.524C78.3092 142.853 77.6902 146.182 77.3034 149.589C76.9939 151.989 76.4524 154.39 75.6013 156.635C74.5956 159.345 73.0483 161.668 71.2688 163.913C70.6499 164.688 70.031 165.384 69.3347 166.236C69.6442 168.172 69.9536 170.262 69.7989 172.353C69.6442 174.366 69.18 176.379 68.561 178.237C67.9421 180.173 66.9363 182.031 65.8532 183.812C66.2401 184.044 66.3948 183.735 66.6269 183.657C72.9709 178.857 78.7734 173.592 83.6474 167.32C85.891 164.533 88.0573 161.668 90.533 159.035C92.3124 157.1 92.3124 157.1 92.7766 154.545C93.4729 150.751 93.1634 147.111 91.384 143.627C90.6104 142.156 89.8367 140.685 89.063 139.214C88.212 137.51 87.2062 135.807 86.4326 134.104C83.4153 127.29 83.1059 120.399 85.5816 113.431C86.5873 110.643 87.8252 107.856 88.9857 105.146C90.2235 102.281 91.6935 99.4936 92.6219 96.4739C93.9371 92.4477 94.7108 88.3441 94.7108 84.0856C94.7108 81.3756 94.7108 78.7431 94.6334 76.0331C94.556 71.0778 95.407 66.2773 96.4902 61.4768C96.9544 59.5411 98.347 56.2117 99.198 54.8954C99.5848 54.9729 99.5074 55.2051 99.5074 55.4374C99.5848 56.3666 99.7395 57.3731 99.8169 58.3022C100.281 62.4059 101.828 66.045 104.149 69.3744C105.619 71.4649 107.012 73.6329 108.172 75.9557C108.482 76.6525 108.869 77.272 109.178 77.9688C110.416 80.6013 111.035 83.3887 110.958 86.331C110.958 86.4858 110.958 86.6407 110.958 86.7955C110.726 90.3572 111.499 93.6866 113.047 96.9385C114.052 99.1065 115.058 101.274 115.986 103.442C117.456 107.004 118.307 110.643 118.307 114.515C118.307 118.618 117.147 122.257 114.981 125.664C113.433 127.987 111.654 130.077 109.797 132.168C107.399 134.955 104.923 137.665 102.525 140.53C100.126 143.395 98.0375 146.415 96.3354 149.744C95.6391 151.06 95.0976 152.531 94.556 153.925C94.4787 154.157 94.4787 154.467 94.4013 155.009C94.7881 154.777 94.9429 154.622 95.0976 154.467C98.1149 151.835 101.364 149.512 104.768 147.421C109.101 144.866 113.124 141.924 117.224 138.982C118.694 137.975 120.009 136.814 121.325 135.652C121.712 135.343 122.098 134.955 122.33 134.568C123.955 132.013 125.27 129.226 126.044 126.284C126.353 124.967 126.586 123.574 126.508 122.257C126.353 119.238 125.812 116.295 124.574 113.585C123.955 112.269 123.336 110.953 122.717 109.559C122.253 108.553 121.866 107.546 121.402 106.462C119.391 101.507 118.849 96.3965 119.391 91.1315C119.7 87.8795 120.706 84.8598 122.253 82.0724C123.259 80.2916 124.419 78.5108 125.502 76.8074C127.437 73.7877 129.448 70.7681 130.995 67.5161C132.93 63.4899 134.322 59.2314 135.328 54.8954C135.56 54.0437 135.792 53.1146 136.024 52.2629C136.102 52.108 136.179 51.9532 136.411 51.6435C136.566 51.8758 136.798 52.0306 136.875 52.1855C137.417 53.2695 137.958 54.3534 138.423 55.4374C139.506 57.8377 140.589 60.3153 141.749 62.793C142.755 65.0384 143.683 67.3612 144.457 69.6841C145.927 74.0974 146.159 78.5882 145.386 83.1564C144.689 87.4924 143.297 91.596 141.285 95.4674C139.351 99.3388 137.107 102.978 134.632 106.54C133.084 108.707 131.614 110.875 130.144 113.043C129.371 114.205 128.597 115.444 128.133 116.76C127.746 117.844 127.514 118.928 127.669 120.012C128.056 123.341 127.514 126.438 126.276 129.535C126.121 129.923 126.044 130.31 125.812 130.774C126.353 130.697 126.586 130.387 126.818 130.155C129.061 127.755 131.073 125.277 132.93 122.644C133.626 121.638 134.322 120.631 135.018 119.625C135.56 118.773 135.947 117.844 136.179 116.837C136.566 114.902 136.953 112.966 137.417 111.03C138.113 107.933 138.964 104.836 139.97 101.816C141.285 97.8676 143.529 94.5383 146.933 92.0606C147.861 91.3637 148.79 90.6669 149.718 89.97C150.646 89.2732 151.497 88.4989 152.194 87.4924C153.741 85.3244 155.288 83.1564 156.449 80.6788C157.455 78.5882 158.46 76.4977 159.311 74.3297C160.859 70.3809 161.632 66.2773 161.4 62.0187C161.246 58.9991 160.859 56.0568 160.085 53.192C159.311 50.2498 158.538 47.3075 157.841 44.3653C156.99 41.1133 156.371 37.784 156.062 34.3772C155.907 32.4415 155.83 30.4284 155.985 28.4927C156.217 25.8601 156.836 23.305 158.074 20.9048C158.925 19.2014 159.776 17.5754 160.704 15.9494C161.478 14.5557 162.251 13.0846 163.102 11.7684C165.191 8.36156 167.048 4.7999 168.441 1.08338C168.595 0.773671 168.75 0.463954 168.905 -0.000610352C169.137 0.309099 169.292 0.541382 169.446 0.773664C171.148 4.02561 172.85 7.20014 174.475 10.4521C175.713 12.9298 176.796 15.5623 177.415 18.2723C178.421 22.5308 178.498 26.7893 176.951 30.9704C176.255 32.7512 175.404 34.4546 174.32 36.0806C171.922 39.6422 168.982 42.6619 165.965 45.6816C164.959 46.6881 163.953 47.8495 163.025 48.9335C162.561 49.4755 162.251 50.0949 161.864 50.7143C161.323 51.7209 161.246 52.7275 161.555 53.8889C162.483 57.2957 162.715 60.7799 162.715 64.2641C162.715 66.2773 162.406 68.2129 162.019 70.1486C161.942 70.6132 161.787 71.0778 161.632 71.852C162.251 71.3875 162.406 70.9229 162.638 70.5358C163.721 68.6001 165.114 66.8193 166.739 65.3481C168.905 63.2576 171.535 61.9413 174.32 61.0122C176.796 60.1605 179.272 59.6959 181.825 59.3088C184.223 58.9991 186.622 58.6119 189.02 58.3797C195.441 57.6054 201.398 55.5148 207.046 52.3403C208.052 51.7983 208.98 51.2563 209.986 50.7918C210.141 50.7143 210.296 50.7144 210.528 50.6369C210.373 50.9466 210.296 51.1015 210.218 51.1789C209.29 52.3403 208.361 53.4243 207.356 54.5083C204.416 57.9151 201.94 61.6316 200.315 65.7353C199.774 67.2064 199.387 68.7549 199 70.2261C198.381 72.7812 197.84 75.3363 196.989 77.8139C196.138 80.0593 195.132 82.2273 193.817 84.163C193.198 85.0147 192.501 85.8664 191.728 86.5632C189.561 88.6538 186.931 89.5055 183.914 89.2732C182.366 89.1958 180.897 88.8086 179.427 88.4215C178.576 88.1892 177.647 87.8795 176.796 87.6472C175.636 87.3375 174.552 87.1827 173.315 87.3375C172.309 87.4149 171.458 87.6472 170.607 88.1892C169.214 89.0409 168.518 90.2023 168.595 91.8283C168.595 92.4477 168.75 93.1446 168.827 93.764C168.905 95.1577 169.137 96.4739 169.137 97.8676C169.137 100.036 168.441 101.971 167.125 103.597C166.197 104.759 165.036 105.456 163.721 106.075C161.942 106.849 160.008 107.391 157.996 107.623C156.062 107.856 154.205 108.011 152.271 108.165C149.486 108.398 146.778 109.095 144.225 110.256C141.981 111.263 140.357 112.811 138.964 114.747C138.423 115.599 138.036 116.528 137.572 117.457C136.875 119.16 135.792 120.786 134.709 122.257C132.775 124.967 130.763 127.677 128.442 130.077C126.199 132.4 124.032 134.801 121.712 137.046C119.004 139.678 115.832 141.846 112.582 143.86C109.41 145.873 106.238 147.808 103.066 149.821C100.126 151.68 97.3412 153.848 94.7881 156.248C94.4013 156.558 94.0918 156.945 93.5503 157.564C94.1692 157.409 94.4787 157.332 94.7108 157.254C97.4186 156.093 100.281 155.783 103.221 156.016C105.851 156.248 108.482 156.48 111.112 156.712C111.963 156.79 112.814 156.867 113.665 156.867C116.219 156.945 118.694 156.325 120.938 155.164C123.104 154.003 125.038 152.531 126.663 150.751C128.752 148.505 130.918 146.26 133.162 144.169C135.018 142.466 136.643 140.53 138.036 138.362C139.66 135.73 140.898 132.942 141.749 129.923C142.291 128.064 142.755 126.129 143.451 124.27C145.153 119.47 148.403 116.218 153.199 114.592C154.747 114.05 156.449 113.74 158.074 113.431C159.776 113.121 161.478 112.889 163.18 112.656C166.429 112.192 169.601 111.417 172.618 109.869C172.85 109.714 173.16 109.637 173.392 109.559C173.701 109.791 173.624 110.024 173.547 110.256C173.392 112.269 172.618 114.05 171.845 115.908C171.148 117.534 170.297 119.238 169.446 120.786C166.661 125.664 162.638 129.303 157.532 131.626C154.592 132.942 151.575 133.871 148.558 134.878C147.01 135.42 145.386 135.962 143.838 136.581C142.059 137.278 140.511 138.285 139.274 139.756C139.041 139.988 138.964 140.298 138.655 140.84C139.274 140.608 139.66 140.53 140.047 140.375C141.595 139.833 143.219 139.446 144.921 139.214C147.784 138.827 150.569 139.214 153.277 140.22C155.056 140.917 156.758 141.537 158.538 142.234C161.168 143.24 163.876 143.937 166.584 144.324C170.297 144.866 173.934 144.402 177.492 143.24C179.272 142.698 181.051 142.001 182.753 141.382C184.533 140.685 186.312 139.988 188.169 139.369C191.341 138.285 194.59 137.975 197.917 138.052C198.226 138.052 198.613 138.13 198.923 138.13C199 138.517 198.691 138.517 198.613 138.517C192.115 139.911 187.008 143.55 182.289 147.963C180.278 149.899 178.576 152.067 176.873 154.312C174.939 156.79 172.85 159.113 170.452 161.126C168.595 162.674 166.584 163.913 164.34 164.765C161.942 165.694 159.466 166.004 156.913 165.539C154.747 165.152 152.581 164.61 150.414 164.223C148.712 163.913 147.01 163.526 145.386 163.294C142.832 162.907 140.357 163.139 137.881 163.836C137.417 163.991 136.875 164.068 136.411 164.223C131.46 165.617 126.972 164.61 122.872 161.745C122.021 161.203 121.247 160.506 120.474 159.887C119.623 159.268 118.772 158.571 117.688 158.416C117.224 158.338 116.76 158.261 116.373 158.338C114.671 158.493 112.969 158.416 111.19 158.261C109.101 158.106 107.089 157.951 105 157.719C100.745 157.254 96.7996 158.338 92.9313 160.119C91.2293 160.894 89.7593 162.055 88.5988 163.526C87.2062 165.307 85.7363 167.088 84.3437 168.869C80.3207 173.979 75.6013 178.47 70.5726 182.496C65.1569 186.909 59.4318 190.935 53.3973 194.497C52.4689 195.039 51.5405 195.581 50.6121 196.278C50.7668 196.355 50.8442 196.51 50.9216 196.51C53.0105 196.278 55.022 196.046 57.1109 195.736C57.7298 195.658 58.4261 195.504 59.045 195.349C61.2113 194.884 63.1454 193.955 64.9248 192.639C66.0853 191.71 67.2458 190.703 68.4063 189.697C70.6499 187.683 72.8935 185.593 75.2919 183.812C77.226 182.341 79.2375 181.025 81.4038 179.863C84.189 178.392 87.2062 177.463 90.3009 176.998C94.0145 176.534 97.6507 176.998 101.132 178.392C103.298 179.321 105.542 180.25 107.786 181.025C112.195 182.573 116.76 183.425 121.402 183.967C124.651 184.354 127.978 184.586 131.228 184.586C134.09 184.586 136.875 184.741 139.738 184.973C140.744 185.051 141.749 185.128 142.678 185.361C142.291 185.438 141.904 185.515 141.517 185.593C140.511 185.825 139.428 186.057 138.423 186.367C134.554 187.451 131.305 189.464 128.52 192.329C126.895 194.032 125.193 195.736 123.491 197.362C122.021 198.756 120.396 199.994 118.617 200.924C114.903 203.014 110.958 203.401 106.935 202.008C105.387 201.466 103.917 200.924 102.37 200.382C101.21 199.994 99.9716 199.685 98.6564 199.607C97.1091 199.53 95.7165 199.917 94.6334 201.001C94.1692 201.466 93.705 201.93 93.1634 202.317C92.3124 203.014 91.5387 203.711 90.6877 204.253C88.5988 205.724 86.2779 206.189 83.8021 205.956C81.017 205.724 78.4639 204.872 75.9882 203.556C73.8993 202.472 71.9651 201.078 69.9536 199.762C68.3289 198.678 66.6269 197.672 64.9248 196.665C63.9964 196.123 62.9907 195.813 61.9076 196.046C61.366 196.123 60.8244 196.2 60.2829 196.278C57.9619 196.82 55.6409 197.13 53.2426 197.439C51.6179 197.594 50.0706 197.904 48.4459 198.214C47.208 198.446 46.2023 199.065 45.1965 199.762C42.8755 201.543 40.864 203.711 39.3167 206.266C36.841 210.292 33.7463 213.854 30.1101 216.874C29.878 217.106 29.5686 217.338 29.3365 217.57C29.5686 217.958 29.8007 217.803 30.0328 217.725C31.348 217.57 32.6632 217.338 33.9011 217.183C34.8294 217.028 35.6805 216.874 36.6089 216.641C38.0788 216.254 39.4714 215.557 40.5545 214.473C41.6377 213.389 42.7208 212.383 43.8039 211.299C45.1965 209.983 46.6664 208.821 48.2911 207.892C50.2253 206.731 52.3142 206.034 54.6352 205.956C55.7183 205.879 56.8788 205.879 57.9619 205.879C61.2886 205.956 64.6154 206.111 67.9421 206.266C69.4121 206.343 70.882 206.498 72.2746 206.885C72.4293 207.273 72.1199 207.35 71.8878 207.427C69.7989 208.511 68.0968 210.06 66.6269 211.918C65.8532 212.847 65.0022 213.699 64.0738 214.551C62.2944 216.177 60.1281 216.951 57.6524 216.719C56.5693 216.641 55.4088 216.486 54.3257 216.332C52.1594 216.022 50.0706 216.177 48.059 216.951C47.5948 217.106 47.208 217.261 46.7438 217.338C44.8097 218.035 42.7981 218.422 40.7866 218.19C37.692 217.958 34.6747 218.422 31.5801 218.809C28.176 219.274 25.1587 220.513 22.5282 222.758C18.1184 226.475 13.7859 230.269 9.60812 234.217C8.44763 234.837 7.8287 235.611 7.20977 236.308C7.20977 236.385 7.13241 236.385 7.13241 236.463C7.13241 236.385 7.20977 236.308 7.20977 236.308ZM133.471 84.8598C133.626 85.0921 133.781 85.0147 134.013 84.9373C135.173 84.5501 136.334 84.2404 137.494 83.9307C138.113 83.7758 138.655 83.621 139.274 83.4662C140.821 82.9242 142.136 82.0724 143.297 80.8336C143.993 80.0593 144.38 79.2076 144.302 78.1237C144.302 75.1814 143.761 72.3166 142.755 69.5292C142.678 69.2969 142.523 69.0647 142.291 68.6775C142.214 69.1421 142.136 69.3744 142.059 69.6066C141.904 70.6906 141.827 71.6972 141.595 72.7812C141.13 74.9491 140.357 76.9622 139.119 78.7431C137.572 81.0659 135.715 83.1564 133.471 84.8598C133.471 84.9373 133.471 84.9373 133.471 85.0147C133.471 85.0147 133.471 85.0921 133.394 85.0921C133.471 85.0147 133.471 84.9373 133.471 84.8598ZM71.8104 114.282C71.8104 114.205 71.8878 114.05 71.8878 113.973L71.8104 114.05C71.8104 114.127 71.8878 114.205 71.8104 114.282C71.8104 114.515 71.733 114.747 71.6557 114.979C71.5009 117.534 70.9594 120.012 70.3405 122.412C70.1084 123.341 69.8763 124.27 69.7215 125.2C69.1026 127.832 68.9479 130.465 69.2573 133.175C69.4894 135.575 69.7989 137.898 70.1084 140.22C70.1084 140.453 70.2631 140.685 70.3405 140.995C70.6499 140.762 70.882 140.608 70.9594 140.375C71.2688 139.833 71.5783 139.369 71.8104 138.749C72.352 137.356 72.4293 135.885 72.2746 134.413C72.1199 133.097 72.0425 131.781 71.9651 130.465C71.8878 128.142 72.2746 125.896 73.5125 123.883C73.5898 123.728 73.6672 123.496 73.7446 123.341C72.8162 121.018 72.4293 118.541 72.2746 116.063C72.1972 115.521 72.1972 115.057 72.1199 114.592C72.1199 114.592 71.9651 114.515 71.8104 114.282ZM98.2696 60.4702C98.2696 60.3928 98.347 60.2379 98.347 60.1605C98.2696 60.1605 98.2696 60.1605 98.1922 60.1605C98.2696 60.2379 98.2696 60.3153 98.2696 60.4702C97.8828 60.8573 98.0375 61.3993 98.0375 61.9413C97.9601 65.0384 98.5017 68.0581 99.2754 71.0778C99.8943 73.478 100.668 75.8783 101.364 78.2011C101.906 80.1368 102.447 82.0724 102.757 84.0856C102.757 84.2404 102.912 84.3953 102.989 84.6276C103.144 84.5501 103.298 84.4727 103.298 84.3953C103.995 83.079 104.768 81.7627 105.387 80.3691C105.851 79.2851 106.006 78.0462 106.084 76.8074C106.084 75.8008 105.929 74.8717 105.387 74.0974C104.536 72.8586 103.763 71.6197 102.989 70.4583C100.977 67.5935 99.4301 64.5739 98.7338 61.167C98.5791 60.8573 98.4243 60.6251 98.2696 60.4702ZM97.1091 63.6447C97.1091 63.5673 97.1865 63.4899 97.1865 63.4124C97.1091 63.4124 97.0317 63.4124 97.0317 63.4899C97.1091 63.4899 97.1091 63.5673 97.1091 63.6447C96.7223 64.0319 96.7223 64.5739 96.6449 65.0384C95.8712 68.8324 95.4071 72.7037 95.4844 76.6525C95.4844 78.0462 95.4844 79.3625 95.5618 80.7562C95.5618 81.2982 95.5618 81.8402 95.6391 82.3821C96.1033 85.6341 96.7223 88.8861 97.8828 91.9832C98.4243 93.5317 99.198 95.0803 100.049 96.4739C100.204 96.7062 100.281 96.9385 100.668 96.8611C100.745 96.7062 100.823 96.5514 100.9 96.3965C101.364 94.9254 101.751 93.3769 101.983 91.8283C102.447 87.8795 102.215 83.9307 101.132 80.1368C100.591 78.2011 99.9716 76.2654 99.4301 74.3297C98.5017 71.0778 97.6507 67.7484 97.4186 64.419C97.3412 64.1093 97.2638 63.877 97.1091 63.6447ZM149.795 99.4936C151.807 99.8033 153.432 100.113 155.056 100.345C155.598 100.423 156.139 100.5 156.681 100.5C160.549 100.655 163.799 99.1839 166.506 96.4739C167.203 95.8545 167.59 95.0803 167.28 94.0737C167.125 93.5317 167.048 92.8349 167.048 92.2929C167.048 91.6735 167.048 90.9766 167.28 90.3572C167.822 88.4989 169.137 87.3375 170.839 86.7181C172.696 86.0212 174.63 86.0987 176.487 86.4858C177.338 86.7181 178.266 86.9504 179.117 87.1827C180.587 87.5698 182.134 88.0344 183.682 88.1118C186.39 88.3441 188.788 87.4924 190.722 85.5567C191.728 84.5501 192.579 83.4661 193.275 82.1499C194.436 80.0593 195.287 77.8914 195.983 75.5686C196.06 75.3363 195.983 75.0266 196.06 74.6394C195.673 75.0266 195.364 75.3363 195.054 75.646C193.817 77.0397 192.347 78.1236 190.799 78.9753C187.627 80.6787 184.223 81.2982 180.664 81.0659C179.427 80.9885 178.266 80.8336 177.028 80.6788C175.326 80.5239 173.701 80.5239 172.077 80.911C169.678 81.453 167.744 82.6919 166.584 85.0921C166.12 86.0987 165.578 87.0278 164.959 88.0344C162.561 91.9057 159.389 94.9254 155.134 96.7837C153.818 97.4031 152.503 98.0225 151.188 98.6419C150.956 98.7968 150.492 99.029 149.795 99.4936ZM112.041 99.1065C111.963 99.4936 111.963 99.7259 111.963 100.036C111.731 103.752 110.416 107.159 108.25 110.101C107.089 111.65 105.851 113.121 104.614 114.515C102.912 116.45 101.055 118.231 99.2754 120.089C98.1149 121.328 97.1865 122.644 96.4128 124.193C95.6391 125.742 95.2523 127.29 95.4844 129.071C95.5618 130 95.6391 131.007 95.7165 131.936C95.7165 132.168 95.7165 132.478 96.1033 132.555C96.2581 132.4 96.4128 132.168 96.4902 131.936C97.728 129.535 99.6622 127.6 101.906 126.129C103.298 125.2 104.768 124.348 106.161 123.574C108.327 122.335 110.416 121.018 112.273 119.392C113.665 118.231 114.903 116.837 115.754 115.211C116.451 113.973 116.76 112.656 116.451 111.263C116.373 110.798 116.296 110.256 116.219 109.791C115.522 106.075 113.975 102.668 112.35 99.3388C112.273 99.2613 112.273 99.2613 112.041 99.1065ZM39.7809 164.92C39.6261 165.152 39.5488 165.307 39.4714 165.384C38.6204 167.707 37.3825 169.798 36.0673 171.811C33.5142 175.605 30.2649 178.547 26.0871 180.405C25.6229 180.638 25.1587 180.87 24.6945 181.102C24.7719 184.277 24.8492 187.374 24.9266 190.548C24.9266 190.626 24.9266 190.626 25.004 190.703C25.004 190.703 25.0813 190.781 25.1587 190.858C25.4682 190.781 25.7776 190.703 26.0871 190.626C29.9554 189.464 33.5142 187.761 36.841 185.438C38.543 184.199 40.2451 182.883 41.6377 181.257C42.2566 180.56 42.5661 179.786 42.6434 178.779C42.7208 177.308 42.7208 175.837 42.4887 174.366C42.1019 171.269 41.1735 168.327 40.0903 165.462C40.0903 165.229 40.013 165.152 39.7809 164.92ZM88.0573 186.987C88.6762 187.296 88.9857 187.451 89.2951 187.529C90.3009 187.761 91.3066 187.916 92.235 188.071C93.3182 188.225 94.4787 188.225 95.5618 188.38C98.5017 188.845 101.21 189.774 103.53 191.787C104.382 192.484 105.233 193.258 106.006 194.032C107.786 195.813 109.874 196.975 112.273 197.594C114.516 198.214 116.76 198.446 119.004 198.059C119.855 197.904 120.628 197.672 121.325 196.975C122.949 195.349 124.574 193.8 126.199 192.252C126.276 192.174 126.353 192.019 126.431 191.942C126.353 191.787 126.276 191.71 126.199 191.71C124.187 191.323 122.253 190.471 120.396 189.542C120.087 189.387 119.7 189.309 119.391 189.309C116.373 189.309 113.511 188.69 110.571 187.993C108.018 187.296 105.387 186.677 102.757 186.057C98.1149 184.896 93.5503 185.361 88.9857 186.677C88.8309 186.677 88.5988 186.754 88.0573 186.987ZM181.98 60.7799C181.748 60.7799 181.593 60.7025 181.438 60.7025C178.266 61.1671 175.094 61.8639 172.077 63.1802C169.446 64.3416 167.28 66.1224 165.423 68.3678C165.114 68.6775 164.882 69.1421 164.727 69.5292C163.721 71.7746 163.102 74.0974 163.257 76.5751C163.334 77.8139 163.412 79.1302 163.489 80.3691C163.721 84.0856 163.102 87.6472 161.4 90.9766C161.323 91.1315 161.091 91.3637 161.323 91.6734C161.632 91.4412 161.864 91.2089 162.097 90.9766C163.412 89.5055 164.495 87.9569 165.346 86.2535C166.274 84.4727 167.125 82.7693 168.054 80.9885C169.988 77.2719 172.541 74.02 176.022 71.6197C177.028 70.9229 177.647 69.9938 177.879 68.8324C178.111 67.8258 178.421 66.7418 178.73 65.7353C179.194 64.1867 179.968 62.793 181.206 61.6316C181.438 61.3219 181.67 61.0896 181.98 60.7799ZM116.528 115.366C116.219 115.753 116.141 115.831 116.064 115.986C114.981 117.766 113.588 119.16 112.041 120.476C110.261 121.948 108.25 123.186 106.238 124.348C104.382 125.354 102.602 126.438 100.9 127.755C99.198 129.071 97.8054 130.697 96.877 132.633C96.4128 133.639 95.9486 134.646 95.9486 135.807C96.026 138.517 95.6391 141.15 95.2523 143.782C94.9429 145.486 94.7108 147.189 94.4013 148.892C94.4013 149.125 94.2466 149.357 94.6334 149.589C94.7881 149.357 94.8655 149.202 95.0202 148.97C96.9544 145.331 99.2754 142.001 101.983 138.904C104.614 135.807 107.399 132.71 110.029 129.69C111.809 127.6 113.511 125.509 114.749 123.032C115.832 120.941 116.451 118.696 116.605 116.373C116.605 116.063 116.528 115.831 116.528 115.366ZM43.5718 141.382C43.4171 141.614 43.2623 141.769 43.185 142.001C42.7981 142.853 42.2566 143.55 41.5603 144.169C39.8582 145.795 38.1562 147.421 36.3768 149.047C34.9842 150.286 33.669 151.602 32.5085 153.151C31.4253 154.545 30.4196 156.016 29.4138 157.487C28.7949 158.338 28.2533 159.268 27.7891 160.197C26.5513 162.752 25.7003 165.462 25.2361 168.249C24.6945 171.579 24.6171 174.908 24.6171 178.237C24.6171 178.392 24.6945 178.547 24.7719 178.779C25.004 178.624 25.2361 178.547 25.3134 178.392C26.8607 176.921 28.176 175.218 28.9496 173.205C29.5686 171.733 30.1101 170.185 30.5743 168.636C31.8895 164.3 33.8237 160.352 36.6862 156.867C38.0788 155.164 39.3167 153.306 40.3998 151.37C41.9471 148.505 43.0302 145.486 43.5718 142.234C43.7265 142.001 43.8813 141.692 43.5718 141.382ZM95.0202 119.78C95.2523 119.47 95.3297 119.392 95.3297 119.315C96.1033 116.218 97.2638 113.276 98.6564 110.333C99.8943 107.701 101.287 105.068 103.144 102.746C104.382 101.197 105.619 99.6485 106.857 98.0999C108.172 96.474 109.023 94.5383 109.41 92.5251C109.488 92.0606 109.565 91.5186 109.488 91.054C109.488 89.5055 109.333 88.0344 109.333 86.4858C109.41 83.2339 108.637 80.2916 107.167 77.4268C107.089 77.2719 106.935 77.1171 106.702 76.8848C106.625 77.3494 106.548 77.5817 106.548 77.8139C106.393 79.1302 106.084 80.369 105.465 81.6079C104.923 82.6144 104.459 83.621 103.84 84.5501C103.221 85.6341 102.912 86.7181 102.912 88.0344C102.989 91.596 102.37 95.0803 100.9 98.4096C99.9716 100.423 98.9659 102.281 98.0375 104.294C97.4959 105.533 96.877 106.772 96.4128 108.088C95.1749 111.65 94.7881 115.366 94.7881 119.16C94.8655 119.238 94.9428 119.392 95.0202 119.78ZM174.475 73.8652C175.713 73.8652 176.796 73.8651 177.802 73.9426C178.73 74.02 179.736 74.1749 180.664 74.2523C183.45 74.562 186.235 74.7169 188.943 74.2523C191.805 73.7877 194.358 72.6263 196.602 70.8455C197.143 70.3809 197.53 69.8389 197.685 69.1421C197.917 68.1355 198.226 67.2064 198.536 66.1998C199.464 63.5673 200.78 61.0896 202.25 58.7668C202.404 58.6119 202.482 58.3797 202.714 57.9925C202.404 58.1474 202.25 58.1474 202.095 58.2248C199.774 60.4702 196.989 61.9413 193.971 63.1027C191.728 63.9544 189.484 64.961 187.241 65.9676C183.295 67.7484 179.581 69.8389 176.1 72.394C175.636 72.7037 175.094 73.0909 174.475 73.8652ZM69.7989 226.397C69.7215 226.32 69.6442 226.242 69.5668 226.165C67.2458 225.778 64.9248 225.545 62.6039 225.855C62.1397 225.933 61.6755 226.01 61.2886 226.165C59.5866 227.017 58.1166 228.101 57.0335 229.727C56.1051 231.12 55.0993 232.436 54.0162 233.753C52.701 235.301 51.231 236.695 49.3743 237.547C49.2195 237.624 49.0648 237.779 48.9101 237.934C49.2195 238.089 49.4516 238.244 49.6837 238.321C51.231 238.94 52.7784 239.56 54.3257 240.179C55.4862 240.566 56.724 240.876 57.9619 241.263C58.7355 241.495 59.5092 241.341 60.2055 241.031C60.7471 240.721 61.2886 240.411 61.7528 240.024C62.9907 239.018 63.8417 237.702 64.538 236.23C64.9248 235.379 65.2343 234.45 65.6211 233.598C66.6269 231.043 67.7874 228.565 69.7989 226.629C69.7989 226.629 69.7215 226.475 69.7989 226.397ZM109.874 93.6091C109.642 94.0737 109.488 94.3834 109.333 94.6931C108.946 95.5448 108.637 96.3965 108.172 97.1708C107.476 98.2548 106.702 99.3388 105.851 100.345C104.072 102.513 102.37 104.681 100.977 107.159C99.2753 110.101 97.9601 113.198 96.7996 116.45C95.9486 118.928 95.3297 121.406 95.0976 123.961C95.0976 124.27 94.9428 124.58 95.3297 124.812C95.407 124.658 95.5618 124.503 95.6391 124.348C96.6449 122.257 98.1149 120.399 99.7395 118.773C101.21 117.224 102.679 115.753 104.149 114.205C105.774 112.501 107.321 110.643 108.559 108.63C110.416 105.533 111.422 102.204 111.344 98.5645C111.344 96.7062 110.648 95.2351 109.874 93.6091ZM100.823 198.523C99.8169 197.284 98.7338 196.123 97.4959 195.271C95.6391 193.955 93.5503 193.181 91.3066 192.871C90.2235 192.716 89.1404 192.561 88.0573 192.329C85.9684 191.942 84.2663 190.935 83.1059 189.155C83.0285 189.077 82.9511 189.077 82.7964 189.077C81.0943 189.697 77.4581 191.477 76.6845 192.097C76.9166 192.561 77.1487 193.103 77.4581 193.568C78.2318 194.652 79.0054 195.813 79.9338 196.82C82.6417 199.762 85.9684 201.233 89.9914 201.388C91.2293 201.466 92.3124 201.311 93.0861 200.227C93.1634 200.149 93.2408 200.072 93.3182 199.994C94.7881 198.523 96.5675 197.981 98.5791 198.214C99.2754 198.291 100.049 198.368 100.823 198.523ZM121.093 156.558C121.325 156.712 121.479 156.79 121.557 156.79C124.187 157.022 126.818 156.945 129.448 156.558C130.222 156.403 130.686 156.093 131.15 155.474C133.162 152.609 135.715 150.286 138.655 148.583C139.893 147.808 141.208 147.189 142.523 146.569C144.302 145.718 146.082 144.866 147.861 143.937C149.022 143.395 150.027 142.621 150.878 141.692C151.033 141.537 151.265 141.382 151.188 140.995C151.111 140.917 150.956 140.84 150.801 140.762C150.492 140.685 150.105 140.608 149.795 140.53C147.474 140.066 145.153 140.22 142.91 140.685C139.583 141.382 136.721 143.008 134.09 145.176C132.001 146.802 130.222 148.737 128.442 150.673C126.431 152.841 124.265 154.777 121.634 156.248C121.479 156.325 121.325 156.403 121.093 156.558ZM139.583 111.727C140.047 111.34 140.279 111.108 140.589 110.953C141.208 110.488 141.827 110.024 142.446 109.714C144.999 108.398 147.706 107.469 150.646 107.082C151.884 106.927 153.045 106.927 154.283 106.772C155.675 106.617 157.068 106.54 158.46 106.307C160.085 106.075 161.71 105.61 163.257 104.914C165.578 103.907 166.971 102.126 167.435 99.7259C167.59 98.8742 167.59 98.0225 167.667 97.1708C167.667 96.9385 167.512 96.7837 167.435 96.4739C167.203 96.6288 167.125 96.7837 167.048 96.8611C166.893 97.0159 166.739 97.1708 166.584 97.2482C163.257 100.268 159.389 101.584 154.902 100.81C154.283 100.732 153.586 100.578 152.967 100.5C152.194 100.345 151.343 100.268 150.569 100.19C149.176 100.036 147.939 100.345 146.933 101.274C146.623 101.584 146.314 101.816 146.004 102.049C143.219 104.372 141.44 107.391 139.893 110.566C139.66 110.953 139.66 111.263 139.583 111.727ZM139.041 109.714C139.119 109.791 139.119 109.869 139.196 109.869C139.196 109.869 139.274 109.869 139.351 109.791C139.583 109.327 139.893 108.785 140.125 108.32C142.214 104.217 145.308 101.042 149.409 98.7968C150.956 97.9451 152.503 97.1708 154.128 96.3965C155.056 95.932 155.83 95.39 156.526 94.6157C157.764 93.222 158.46 91.6735 159.002 89.97C160.162 86.6407 160.395 83.3113 160.085 79.8271C160.085 79.7496 159.93 79.6722 159.93 79.6722C159.853 79.6722 159.853 79.6722 159.776 79.7496C159.543 80.0593 159.311 80.4465 159.157 80.7562C157.764 83.3887 156.062 85.8664 153.896 87.9569C152.271 89.5829 150.646 91.1315 148.867 92.5251C147.784 93.3768 146.778 94.2285 145.695 95.1577C143.916 96.7062 142.6 98.6419 141.749 100.81C141.672 101.12 141.517 101.352 141.44 101.662C140.357 104.294 139.583 107.004 139.041 109.714ZM83.6474 188.767C83.8795 189.077 84.0342 189.387 84.2663 189.697C85.2721 190.781 86.5873 191.477 88.0573 191.71C89.2178 191.942 90.3783 192.097 91.4614 192.252C94.4787 192.639 97.0317 193.878 99.2754 195.891C100.281 196.82 101.287 197.749 102.37 198.601C102.757 198.91 103.144 199.22 103.608 199.452C104.846 199.917 106.161 200.382 107.476 200.769C111.267 201.93 114.749 201.311 118.075 199.298C118.23 199.22 118.385 199.065 118.694 198.756C117.998 198.756 117.611 198.756 117.224 198.756C115.677 198.756 114.207 198.601 112.737 198.291C110.029 197.672 107.631 196.51 105.619 194.497C105.078 193.955 104.459 193.336 103.84 192.871C102.525 191.71 101.132 190.781 99.5074 190.084C97.5733 189.309 95.5618 188.922 93.4729 188.767C91.2293 188.613 89.063 188.458 87.1289 187.219C85.9684 187.683 84.7305 187.993 83.6474 188.767ZM144.148 153.693C146.237 154.003 148.171 154.235 150.027 154.467C151.343 154.622 152.735 154.854 154.051 155.087C154.979 155.241 155.753 155.086 156.449 154.467C157.145 153.925 157.841 153.306 158.46 152.609C159.466 151.447 160.317 150.209 161.246 149.047C162.251 147.808 163.334 146.724 164.727 145.95C164.882 145.873 165.191 145.795 165.191 145.485C163.489 145.021 161.787 144.711 160.085 144.169C158.383 143.627 156.681 143.008 154.902 142.388C154.747 142.543 154.592 142.698 154.437 142.853C153.122 144.789 151.42 146.337 149.486 147.731C148.558 148.35 147.706 149.047 146.855 149.821C145.927 150.673 145.076 151.602 144.457 152.764C144.38 152.919 144.302 153.306 144.148 153.693ZM19.511 163.294C19.2789 163.449 19.2015 163.526 19.0468 163.604C18.1184 164.842 17.19 166.081 16.1842 167.32C15.0237 168.869 14.6369 170.572 14.7143 172.43C14.7916 175.14 15.5653 177.695 17.1126 180.018C17.8089 181.025 18.5826 181.954 19.4336 182.806C20.9036 184.431 22.3735 186.135 23.6114 187.993C23.6887 188.071 23.8435 188.148 23.9982 188.225C24.1529 187.529 24.0756 186.987 24.0756 186.367C23.9208 182.109 23.7661 177.85 23.9208 173.669C23.9208 173.05 23.7661 172.585 23.3793 172.198C21.2904 169.798 19.9752 167.088 19.6657 163.913C19.6657 163.681 19.5883 163.526 19.511 163.294ZM90.0688 105.146C89.9914 105.301 89.8367 105.378 89.8367 105.456C88.9857 107.469 88.0573 109.559 87.2062 111.572C86.3552 113.585 85.7363 115.676 85.3495 117.766C85.1947 118.541 85.1947 119.392 85.4268 120.167C85.8137 121.87 86.4326 123.419 87.361 124.89C88.212 126.206 89.063 127.522 89.9914 128.761C91.8482 131.316 93.4729 133.949 94.6334 136.891C94.7108 137.046 94.7108 137.278 95.0976 137.201C95.0976 136.814 95.1749 136.426 95.1749 136.039C95.0202 133.639 94.8655 131.316 94.7108 128.916C94.556 127.135 94.4013 125.354 94.3239 123.651C94.2466 122.954 94.0918 122.257 93.705 121.638C92.5445 119.857 91.7709 117.844 91.2293 115.831C90.3783 112.734 89.9914 109.559 90.2235 106.385C90.2235 106.075 90.4556 105.61 90.0688 105.146ZM54.2483 241.186C54.5578 242.115 55.0993 242.734 55.6409 243.276C57.1109 244.747 58.8903 245.754 60.9018 246.528C62.4491 247.148 64.1512 247.38 65.7759 247.69C67.0911 247.922 68.4837 248.154 69.7215 248.619C70.2631 248.774 70.8046 248.929 71.3462 248.929C74.9824 249.083 78.2318 247.999 81.017 245.677C81.1717 245.599 81.2491 245.367 81.4812 245.135C80.8622 245.057 80.398 244.98 79.8565 244.902C78.0771 244.67 76.6071 243.896 75.4466 242.502C74.905 241.883 74.3635 241.186 73.8219 240.489C73.6672 240.257 73.4351 240.024 73.2804 239.792C71.733 240.412 70.2631 241.031 68.7158 241.495C67.1684 242.037 65.5438 242.192 63.9191 242.347C62.2944 242.502 60.6697 242.502 59.1224 242.192C57.5751 241.96 56.0277 241.573 54.2483 241.186ZM128.752 74.02C128.674 74.0974 128.52 74.1749 128.442 74.3297C126.895 76.73 125.348 79.2076 123.8 81.6079C122.949 82.9241 122.64 84.3953 122.717 85.9438C122.795 87.7246 123.259 89.4281 123.955 91.054C124.497 92.2929 125.116 93.5317 125.735 94.7705C126.586 96.6288 127.514 98.4096 127.978 100.423C127.978 100.578 128.133 100.655 128.288 100.887C128.442 100.268 128.597 99.8033 128.674 99.3388C129.525 95.932 130.299 92.5252 131.15 89.1958C131.537 87.7247 131.46 86.4084 130.995 85.0147C130.609 83.9307 130.222 82.9242 129.758 81.9176C128.829 79.7496 128.442 77.5042 128.829 75.104C128.829 74.7168 129.061 74.3297 128.752 74.02ZM23.3793 206.885C23.4566 206.885 23.6114 206.963 23.6887 206.963C23.9208 206.498 24.0756 206.034 24.3077 205.569C25.855 202.162 27.7891 199.065 30.8064 196.742C31.7348 195.968 32.7406 195.271 33.5916 194.42C34.8294 193.336 36.1447 192.252 37.3052 191.013C39.6261 188.613 41.2508 185.748 42.0245 182.496C42.1019 182.264 42.0245 182.031 42.0245 181.644C41.1735 182.418 40.4772 183.115 39.7035 183.812C35.8352 187.141 31.348 189.464 26.4739 191.013C25.9324 191.168 25.3908 191.245 24.9266 191.632C24.6945 194.187 24.5398 196.665 24.3077 199.22C24.0756 201.775 23.534 204.33 23.3793 206.885ZM33.669 149.512C34.5973 148.041 35.2163 146.492 35.6805 144.944C36.9183 140.84 37.3052 136.659 37.0731 132.323C36.9957 130.387 36.7636 128.374 36.6862 126.438C36.5315 123.728 36.4541 121.096 36.841 118.386C36.841 118.231 36.7636 117.999 36.7636 117.689C35.8352 119.625 34.9842 121.483 34.1332 123.264C32.9727 125.742 31.7348 128.142 30.9611 130.774C30.6517 131.781 30.5743 132.71 30.5743 133.794C30.5743 136.117 31.1932 138.285 31.8122 140.453C32.5858 143.24 33.3595 146.105 33.5142 149.047C33.4369 149.279 33.5142 149.279 33.669 149.512ZM168.75 81.2982C169.292 81.3756 169.292 81.3756 169.524 81.2207C170.994 80.369 172.618 80.0593 174.32 79.9819C175.404 79.9819 176.564 79.9819 177.647 80.0593C178.73 80.1368 179.891 80.369 180.974 80.4465C184.455 80.6787 187.782 80.0593 190.877 78.2785C193.198 76.9622 194.977 75.1814 196.524 73.0909C196.911 72.6263 197.066 72.0069 196.989 71.2326C196.602 71.4649 196.292 71.6198 196.06 71.852C193.43 73.6329 190.567 74.7168 187.473 74.9491C185.306 75.104 183.14 75.104 180.974 74.7943C179.736 74.6394 178.576 74.4846 177.338 74.4071C176.487 74.3297 175.636 74.4071 174.785 74.4846C173.701 74.562 172.773 75.104 172.077 76.0331C170.839 77.7365 169.678 79.4399 168.75 81.2982ZM159.543 20.5177C159.311 20.9048 159.157 20.9822 159.157 21.1371C157.919 23.6922 157.145 26.3247 157.068 29.1121C156.913 31.4349 157.068 33.7577 157.377 36.0806C157.841 40.3391 159.002 44.4427 160.085 48.5464C160.085 48.6238 160.24 48.7012 160.395 48.9335C160.549 48.469 160.627 48.0818 160.704 47.6947C161.168 45.9913 161.632 44.2879 162.097 42.5845C162.793 40.1842 163.489 37.8614 164.185 35.4611C164.572 34.2997 164.572 33.1383 164.263 32.0543C163.953 31.1252 163.644 30.1961 163.257 29.3444C162.638 28.0281 161.864 26.7893 161.168 25.473C160.472 24.1567 159.93 22.8405 159.853 21.2919C159.698 21.1371 159.621 20.9822 159.543 20.5177ZM93.7824 120.786C93.8597 120.786 94.0145 120.709 94.0918 120.709C94.0918 120.244 94.0918 119.702 94.0918 119.238C94.0918 116.528 94.3239 113.895 94.8655 111.263C95.4071 108.32 96.5675 105.533 97.9601 102.9C98.347 102.126 98.9659 101.352 99.1206 100.423C98.7338 99.7259 98.2696 99.029 97.8828 98.3322C96.7223 96.3191 96.026 94.0737 95.5618 91.8283C95.4844 91.5186 95.4844 91.1314 95.0976 90.8992C95.0202 91.2089 94.9428 91.3637 94.9428 91.596C94.3239 94.6157 93.4729 97.5579 92.1577 100.423C91.384 102.126 91.0745 103.907 90.9198 105.688C90.8425 106.617 90.7651 107.469 90.7651 108.398C90.7651 112.269 91.5387 116.063 93.1634 119.547C93.3182 119.934 93.5503 120.399 93.7824 120.786ZM92.1577 227.017C91.4614 226.862 90.9972 226.939 90.533 226.939C87.5157 227.094 84.4984 227.326 81.4812 227.404C80.2433 227.404 79.1602 227.636 78.1544 228.255C77.3034 228.797 76.4524 229.339 75.6787 229.959C74.2861 231.043 73.1256 232.436 72.0425 233.83C69.8763 236.54 67.4779 239.095 64.6154 241.108C64.4606 241.186 64.2285 241.263 64.4606 241.573C64.6927 241.573 65.0022 241.573 65.3117 241.495C68.6384 241.108 71.733 239.947 74.4409 238.089C76.1429 236.927 77.845 235.688 79.3923 234.372C82.4869 231.74 85.891 229.649 89.682 228.101C90.3009 227.868 90.9198 227.636 91.5387 227.326C91.6935 227.326 91.8482 227.171 92.1577 227.017ZM24.2303 167.785C24.3077 167.785 24.4624 167.785 24.5398 167.785C24.6171 167.397 24.6945 167.01 24.7719 166.623C25.6229 162.752 27.0928 159.19 29.4138 156.016C30.1875 154.932 30.8838 153.848 31.7348 152.841C32.4311 151.989 32.7406 150.983 32.7406 149.899C32.7406 149.357 32.7406 148.892 32.7406 148.35C32.6632 146.647 32.2764 145.021 31.8895 143.395C31.2706 141.072 30.729 138.672 30.1101 136.349C30.1101 136.272 29.9554 136.194 29.8007 135.884C29.6459 136.736 29.5686 137.356 29.4912 138.052C29.027 141.537 28.4081 145.021 27.557 148.505C26.8607 151.293 26.0097 154.08 24.5398 156.558C23.8435 157.719 23.4566 158.958 23.3019 160.274C23.0698 162.287 23.1472 164.3 23.6887 166.313C23.8435 166.778 24.0756 167.32 24.2303 167.785ZM65.0796 193.878C69.8763 193.568 75.9882 191.71 78.8507 189.851C78.8507 189.697 78.9281 189.464 78.9281 189.309C79.4696 185.67 81.5585 183.115 84.8853 181.644C86.4326 180.947 87.9799 180.483 89.682 180.25C90.6877 180.096 91.6935 180.018 92.6992 179.863C94.0918 179.708 95.4071 179.476 96.6449 178.934C96.7996 178.857 96.9544 178.702 97.1865 178.547C96.7996 178.392 96.5675 178.315 96.3354 178.237C94.1692 177.773 91.9256 177.773 89.682 178.082C86.2005 178.547 83.0285 179.786 80.0886 181.567C77.5355 183.038 75.2145 184.819 72.9709 186.677C70.3405 188.922 67.71 191.245 65.0796 193.568C65.1569 193.645 65.1569 193.723 65.0796 193.878ZM140.047 94.0737C138.345 94.7705 136.643 94.9254 134.941 95.1577C134.322 95.2351 133.626 95.39 133.007 95.5448C132.311 95.7771 131.614 96.0868 130.918 96.3965C130.222 96.7837 129.835 97.3257 129.603 98.1774C128.752 101.816 127.978 105.456 127.437 109.172C127.204 110.798 127.204 112.424 127.05 113.973C127.05 114.205 127.127 114.437 127.204 114.902C127.437 114.592 127.591 114.437 127.669 114.282C129.371 111.727 130.995 109.249 132.697 106.694C134.709 103.675 136.798 100.655 138.5 97.4805C139.196 96.3965 139.738 95.3125 140.047 94.0737ZM144.07 81.1433C143.838 81.2208 143.761 81.2207 143.683 81.2207C143.529 81.2982 143.451 81.3756 143.297 81.5305C141.904 83.079 140.047 83.9307 138.036 84.3953C137.262 84.5501 136.566 84.705 135.792 84.9373C134.941 85.1695 134.167 85.4793 133.471 86.0212C132.775 86.5632 132.233 87.1827 132.001 88.1118C131.382 90.4346 130.841 92.8349 130.222 95.1577C130.144 95.39 129.99 95.6223 130.299 95.8545C130.454 95.8545 130.531 95.8545 130.609 95.8545C132.233 95.0028 133.935 94.6931 135.715 94.4608C136.488 94.3834 137.185 94.2285 137.958 94.0737C139.815 93.6866 141.053 92.6026 141.749 90.7443C142.6 88.1892 143.374 85.5567 143.838 82.8467C143.993 82.3047 143.993 81.7627 144.07 81.1433ZM137.185 155.396C138.887 156.325 139.815 157.487 140.744 158.726C141.44 159.577 142.136 160.429 143.065 161.126C143.451 161.436 143.916 161.668 144.457 161.668C146.855 161.823 149.099 162.442 151.42 162.907C153.199 163.294 154.979 163.681 156.758 163.991C157.919 164.223 159.079 164.223 160.24 164.068C160.472 164.068 160.781 164.068 160.781 163.681C160.317 163.449 159.853 163.294 159.389 163.062C157.687 162.442 156.139 161.358 154.824 160.119C153.973 159.345 153.199 158.493 152.426 157.642C151.884 157.1 151.42 156.48 150.878 156.016C150.26 155.396 149.486 155.009 148.635 154.932C146.623 154.699 144.612 154.467 142.6 154.545C141.13 154.622 139.66 154.854 138.268 155.009C137.958 155.087 137.804 155.241 137.185 155.396ZM136.875 56.5214C136.875 65.9675 135.56 74.9491 133.239 84.0081C133.626 83.7758 133.858 83.6984 134.013 83.5436C134.941 82.6144 135.947 81.6079 136.875 80.6013C139.97 77.0397 141.362 72.8586 141.517 68.2129C141.595 66.8193 141.285 65.503 140.666 64.2641C139.506 61.8639 138.423 59.3862 137.262 56.986C137.339 56.9085 137.185 56.8311 136.875 56.5214ZM179.194 144.014C178.808 144.092 178.498 144.169 178.189 144.247C174.785 145.331 171.303 145.95 167.744 145.718C167.435 145.718 167.048 145.718 166.739 145.873C165.578 146.26 164.495 146.724 163.567 147.653C162.87 148.35 162.174 149.125 161.555 149.899C160.085 151.68 158.847 153.693 156.99 155.087C156.913 155.164 156.913 155.241 156.836 155.396C157.068 155.474 157.3 155.551 157.532 155.551C160.549 155.783 163.489 155.241 166.197 153.925C167.899 153.073 169.601 152.067 171.071 150.905C173.779 148.815 176.409 146.569 179.04 144.402C179.117 144.324 179.117 144.247 179.194 144.014ZM141.672 135.497C141.749 135.575 141.827 135.652 141.904 135.73C142.755 135.42 143.529 135.033 144.38 134.723C146.933 133.871 149.486 133.02 151.962 132.168C153.818 131.471 155.675 130.774 157.455 130C160.317 128.684 162.793 126.826 164.959 124.425C165.114 124.193 165.269 123.961 165.423 123.728C163.953 123.574 162.638 123.341 161.323 123.186C160.395 123.109 159.543 123.186 158.692 123.574C156.217 124.812 153.664 125.974 151.265 127.29C148.016 128.993 145.231 131.316 142.832 134.104C142.368 134.491 142.059 135.033 141.672 135.497ZM203.41 55.5923C202.946 55.7471 202.482 55.902 202.017 56.1343C198.226 57.8377 194.203 58.9217 190.103 59.4636C188.324 59.6959 186.622 59.9282 184.842 60.1605C184.301 60.2379 183.759 60.3153 183.295 60.6251C181.98 61.4768 180.897 62.4833 180.2 63.877C179.194 65.6578 178.885 67.671 178.343 69.7615C178.73 69.6066 178.962 69.5292 179.194 69.4518C183.914 66.5095 188.943 64.3416 194.049 62.3285C194.9 62.0187 195.751 61.6316 196.524 61.2445C199.232 60.0056 201.476 57.9925 203.41 55.5923ZM24.7719 179.863C24.8492 180.018 24.9266 180.018 24.9266 180.018C25.0813 180.018 25.2361 180.018 25.3134 180.018C27.1702 179.244 28.9496 178.237 30.5743 176.998C32.199 175.682 33.669 174.211 34.8294 172.508C36.5315 170.107 38.0014 167.63 39.0846 164.842C39.394 163.991 39.4714 163.294 39.0072 162.52C38.8525 162.287 38.8525 162.055 38.6977 161.823C38.1562 160.506 37.6146 159.113 37.3825 157.642C37.3825 157.564 37.2278 157.487 37.0731 157.409C36.6089 157.951 36.2994 158.571 35.8352 159.113C34.1332 161.281 32.9727 163.758 32.0443 166.313C31.4253 168.094 30.8838 169.875 30.2649 171.656C29.2591 174.598 27.7118 177.231 25.3134 179.321C25.1587 179.399 25.004 179.631 24.7719 179.863ZM34.3652 231.662C34.3652 231.74 34.2879 231.817 34.2879 231.817C34.52 231.972 34.6747 232.127 34.9068 232.204C38.9298 233.83 42.9529 235.534 46.9759 237.16C47.5175 237.392 47.9817 237.392 48.4459 237.237C49.7611 236.85 50.8442 236.076 51.7726 235.224C53.0878 234.062 54.171 232.746 55.1767 231.353C56.2598 229.881 57.2656 228.333 58.5808 227.094C58.6582 227.094 58.5808 226.939 58.5808 226.784C58.3487 226.862 58.0393 226.862 57.8072 226.939C56.4919 227.404 55.2541 227.868 53.9389 228.255C51.7726 229.03 49.6837 229.804 47.5175 230.501C43.6492 231.74 39.6261 232.204 35.5257 231.74C35.1389 231.74 34.7521 231.74 34.3652 231.662ZM152.194 125.896C152.503 125.819 152.735 125.742 153.045 125.587C154.747 124.735 156.449 123.883 158.228 123.032C163.102 120.709 166.971 117.147 170.22 112.811C170.297 112.656 170.529 112.501 170.297 112.269C170.143 112.269 169.988 112.347 169.756 112.347C168.054 112.734 166.429 113.198 164.727 113.585C163.412 113.895 162.019 114.05 160.704 114.205C160.008 114.282 159.389 114.592 158.77 114.979C156.913 116.295 155.52 117.999 154.747 120.167C154.05 122.025 153.354 123.883 152.194 125.509C152.194 125.587 152.194 125.664 152.194 125.896ZM165.036 10.8392C164.882 10.9941 164.727 11.1489 164.572 11.3038C163.257 13.5492 161.942 15.872 160.704 18.1948C160.472 18.582 160.395 19.0465 160.317 19.5111C160.085 21.2919 160.395 22.9179 161.168 24.4665C161.787 25.6279 162.406 26.7893 163.025 27.9507C163.644 29.1121 164.263 30.2735 164.65 31.5124C164.65 31.5898 164.804 31.6672 164.959 31.8995C165.114 31.5124 165.191 31.1252 165.269 30.8155C165.887 27.7958 166.506 24.7762 167.203 21.7565C167.744 19.3562 167.512 17.0334 166.352 14.8655C165.733 13.7815 165.346 12.5426 165.191 11.3038C165.269 11.1489 165.114 10.9941 165.036 10.8392ZM152.116 141.304C151.884 141.459 151.73 141.614 151.652 141.769C150.569 143.163 149.176 144.092 147.552 144.866C145.695 145.795 143.838 146.647 141.904 147.576C138.19 149.357 134.941 151.68 132.388 154.854C132.156 155.164 132.001 155.474 131.614 156.016C132.543 155.861 133.084 155.628 133.703 155.474C134.322 155.319 134.941 155.087 135.56 154.932C136.179 154.777 136.798 154.544 137.494 154.467C138.113 154.312 138.809 154.235 139.428 154.157C140.047 154.08 140.744 154.08 141.362 154.003C141.981 153.925 142.678 154.08 143.374 153.77C143.838 152.222 144.767 150.983 145.927 149.899C146.933 148.97 148.093 148.041 149.176 147.189C150.414 146.26 151.652 145.253 152.735 144.092C153.277 143.55 153.741 142.93 154.051 142.311C153.354 141.614 153.354 141.614 152.116 141.304ZM93.6276 146.724C93.705 146.724 93.7824 146.724 93.8597 146.647C94.0918 145.098 94.3239 143.472 94.6334 141.924C94.8655 140.685 94.7108 139.524 94.3239 138.362C93.5503 135.885 92.3898 133.562 90.9198 131.471C90.0688 130.232 89.2178 129.071 88.3667 127.909C87.1289 126.206 85.9684 124.425 85.1947 122.412C85.1174 122.335 85.04 122.257 84.8853 122.102C84.6532 122.722 84.7305 123.264 84.7305 123.806C84.8853 127.677 85.891 131.394 87.6704 134.878C88.4441 136.426 89.2951 137.975 90.1462 139.524C91.384 141.769 92.5445 144.014 93.2408 146.415C93.4729 146.492 93.5503 146.569 93.6276 146.724ZM23.2245 198.678C23.3019 198.678 23.3793 198.601 23.534 198.601C23.6114 198.291 23.6114 197.981 23.6887 197.749C23.8435 195.968 23.9208 194.187 24.0756 192.484C24.2303 191.013 23.8435 189.697 23.0698 188.458C22.7603 187.916 22.3735 187.374 21.9093 186.832C20.6715 185.361 19.4336 183.889 18.1184 182.496C15.7974 179.863 14.4048 176.844 14.0954 173.359C14.0954 173.127 14.018 172.895 13.9406 172.353C13.7085 172.817 13.6312 173.05 13.5538 173.282C13.3991 174.366 13.167 175.45 13.0122 176.611C12.6254 179.321 13.4764 181.722 14.7916 183.967C15.1785 184.586 15.5653 185.128 16.0295 185.67C16.4163 186.135 16.8032 186.599 17.19 187.064C18.9694 189.232 20.2846 191.632 21.213 194.342C21.5225 195.349 21.9093 196.355 22.3735 197.284C22.683 197.749 22.9924 198.214 23.2245 198.678ZM153.973 155.938C153.973 156.093 153.973 156.248 153.973 156.325C154.747 157.1 155.52 157.796 156.526 158.184C158.151 158.803 159.776 158.958 161.478 158.88C162.948 158.803 164.418 158.648 165.888 158.571C167.125 158.493 168.363 158.493 169.524 158.726C170.452 158.88 170.994 158.648 171.535 158.106C171.613 158.029 171.767 157.874 171.845 157.796C173.934 155.628 175.713 153.306 177.57 150.905C177.725 150.751 177.802 150.518 177.957 150.209C177.492 150.054 177.183 150.209 176.873 150.363C175.868 150.828 174.862 151.37 173.934 151.912C172.773 152.454 171.613 152.996 170.375 153.073C169.601 153.151 168.905 153.383 168.286 153.77C164.804 155.861 161.013 156.635 156.913 156.325C156.217 156.248 155.52 156.17 154.824 156.093C154.437 155.938 154.205 155.938 153.973 155.938ZM169.446 4.64503C169.369 4.64503 169.369 4.72247 169.369 4.72247C169.369 4.95475 169.292 5.18703 169.369 5.49674C169.524 7.66471 169.446 9.83267 169.292 12.0006C168.982 16.5689 168.286 21.1371 167.435 25.6279C167.357 26.015 167.28 26.4796 167.28 26.9441C167.512 26.9441 167.59 26.9441 167.667 26.8667C168.75 25.8602 169.833 24.931 170.839 23.847C171.535 23.0728 172.154 22.2211 172.618 21.2145C173.701 18.6594 174.011 16.0269 173.779 13.3943C173.701 12.4652 173.469 11.6135 173.005 10.7618C171.999 8.82612 170.994 6.89043 169.988 5.03217C169.756 4.87732 169.756 4.64503 169.446 4.64503ZM93.3955 184.819C93.7824 183.27 94.8655 182.496 96.026 181.722C97.2638 180.947 98.7338 180.56 100.126 180.25C100.436 180.173 100.745 180.096 101.364 179.863C100.513 179.554 99.9716 179.321 99.4301 179.089C98.8111 178.779 98.1922 178.779 97.5733 179.089C95.9486 179.941 94.1692 180.328 92.3124 180.483C91.4614 180.56 90.6104 180.638 89.7593 180.792C87.8252 181.102 86.0458 181.644 84.2663 182.573C82.3322 183.58 80.9396 185.051 80.0886 187.064C79.7791 187.761 79.4696 188.535 79.6244 189.464C81.9454 188.458 84.1116 187.529 86.2779 186.677C88.5215 185.825 90.8424 185.283 93.3955 184.819ZM164.65 37.1645C166.429 36.7 168.131 36.2354 169.833 35.7709C170.143 35.6934 170.452 35.616 170.684 35.4611C171.535 35.074 172.386 34.6094 173.237 34.1449C173.779 33.8352 174.243 33.2932 174.553 32.6738C175.79 30.1187 176.564 27.4861 176.564 24.6987C176.564 24.5439 176.487 24.3116 176.409 24.0019C176.022 24.4665 175.636 24.8536 175.404 25.2407C174.785 26.015 174.088 26.6344 173.237 27.099C172.386 27.5635 171.535 27.8733 170.607 28.2604C169.911 28.5701 169.214 28.8024 168.441 29.0347C167.048 29.4992 166.197 30.5058 165.888 31.9769C165.501 33.3706 165.114 34.8417 164.804 36.2354C164.65 36.5451 164.65 36.8548 164.65 37.1645ZM38.0015 135.652C38.6978 135.652 39.0846 135.265 39.4714 134.878C40.7093 133.794 41.6377 132.555 42.4113 131.084C42.8755 130.155 42.9529 129.303 42.6434 128.297C41.8698 125.819 41.1735 123.341 40.4772 120.864C39.8582 118.541 39.394 116.218 39.3167 113.895C39.3167 113.585 39.2393 113.353 39.1619 112.966C39.0072 113.121 38.9298 113.198 38.9298 113.276C37.7694 116.837 37.1504 120.554 37.3825 124.348C37.4599 125.122 37.4599 125.974 37.5373 126.748C37.692 129.535 37.8467 132.323 38.0015 135.033C37.9241 135.265 37.9241 135.42 38.0015 135.652ZM60.8244 241.495C61.6755 241.728 62.1396 241.495 62.6812 241.341C63.9191 240.876 65.0022 240.102 66.008 239.25C68.0968 237.547 69.8763 235.534 71.5783 233.443C73.3577 231.198 75.2919 229.185 77.7676 227.713C77.845 227.636 77.9223 227.559 77.9997 227.481C77.845 227.404 77.7676 227.326 77.6129 227.249C75.6787 227.017 73.7446 226.784 71.733 226.475C71.1915 226.397 70.7273 226.475 70.3405 226.862C70.1084 227.094 69.7989 227.326 69.5668 227.636C68.4063 228.875 67.6326 230.346 66.9363 231.894C66.3948 233.211 65.8532 234.527 65.3117 235.843C64.4606 238.089 63.068 240.024 60.8244 241.495ZM126.431 157.874C127.437 159.035 128.365 160.119 129.293 161.203C129.835 161.745 130.531 162.287 131.15 162.752C131.846 163.216 132.62 163.371 133.471 163.216C134.322 162.984 135.251 162.829 136.102 162.597C137.881 162.132 139.738 161.668 141.595 161.59C141.749 161.59 141.981 161.513 142.214 161.436C141.053 160.042 139.893 158.648 138.809 157.332C138.5 157.022 138.19 156.712 137.804 156.403C136.875 155.628 135.947 155.396 134.709 155.861C132.079 156.79 129.371 157.487 126.586 157.642C126.663 157.719 126.586 157.796 126.431 157.874ZM34.6747 149.434C35.0615 149.279 35.2163 149.279 35.2936 149.202C37.6146 147.344 39.7809 145.253 41.7924 143.085C43.1076 141.614 43.6492 139.756 44.1134 137.898C44.1907 137.665 44.1907 137.356 44.1134 137.123C43.9586 135.42 43.7265 133.717 43.5718 132.013C43.5718 131.781 43.4171 131.549 43.3397 131.161C42.4887 132.323 41.7924 133.329 41.0961 134.336C40.2451 135.342 39.2393 136.117 38.0015 136.659C37.5373 140.995 36.7636 145.253 34.6747 149.434ZM45.0418 237.237C44.5002 237.779 44.5776 238.398 44.5002 239.018C44.4228 241.263 44.887 243.431 45.5833 245.599C45.8154 246.296 46.2023 246.683 46.8212 247.07C49.1422 248.232 51.5405 248.774 54.0936 248.774C54.3257 248.774 54.5578 248.696 54.9446 248.619C53.6294 247.535 52.701 246.373 52.1594 244.902C51.5405 243.431 51.6952 241.805 51.5405 240.179C49.3743 239.095 47.2854 238.166 45.0418 237.237ZM70.4178 142.311C70.882 142.234 71.0367 142.234 71.1141 142.156C73.0483 141.227 74.7503 139.911 76.1429 138.362C76.8392 137.588 77.5355 136.736 77.9223 135.73C78.1544 135.11 78.2318 134.568 78.0771 133.949C77.845 133.097 77.6902 132.245 77.3034 131.471C76.375 129.303 75.2919 127.135 74.2861 125.045C74.2088 124.89 74.054 124.89 73.9767 124.735C73.5125 125.122 73.2804 125.664 73.203 126.206C72.9709 127.135 72.7388 128.064 72.6614 128.993C72.5841 130.387 72.6614 131.781 72.7388 133.252C72.8162 134.181 72.8935 135.188 72.8935 136.117C72.8935 138.207 72.352 140.143 70.8046 141.614C70.7273 141.769 70.6499 141.924 70.4178 142.311ZM150.492 117.302C150.337 117.379 150.182 117.379 150.105 117.379C147.706 119.005 145.85 121.096 144.844 123.883C144.534 124.812 144.225 125.664 143.916 126.593C143.297 128.606 142.678 130.697 142.136 132.71C141.981 133.097 141.827 133.484 141.672 134.026C141.827 133.949 141.981 133.949 142.059 133.871C142.291 133.639 142.523 133.484 142.678 133.252C144.38 131.316 146.314 129.613 148.48 128.219C149.409 127.6 149.873 126.825 150.027 125.742C150.105 124.812 150.105 123.961 150.105 123.032C150.027 121.251 150.027 119.47 150.569 117.766C150.569 117.612 150.569 117.534 150.492 117.302ZM63.1454 142.079C62.7586 142.853 62.836 143.318 62.836 143.782C62.9133 147.808 63.7643 151.68 65.1569 155.474C66.1627 158.029 67.0911 160.584 68.0195 163.139C68.0968 163.294 68.2516 163.449 68.4063 163.681C69.1026 161.436 69.4894 159.268 69.7215 157.177C69.7989 156.712 69.6442 156.248 69.5668 155.861C69.2573 154.39 68.7158 153.073 67.9421 151.757C67.1684 150.518 66.4722 149.279 65.6211 148.041C64.6154 146.492 63.8417 144.866 63.3001 143.085C63.3775 142.853 63.3001 142.621 63.1454 142.079ZM71.4236 193.723C71.5783 194.032 71.5783 194.265 71.733 194.497C72.7388 196.123 73.9767 197.594 75.524 198.756C77.1487 199.994 78.9281 200.924 80.7849 201.775C83.4153 202.859 86.1231 203.246 88.9083 203.246C89.682 203.246 90.2235 202.937 90.6877 202.162C90.1462 202.085 89.682 202.085 89.2951 202.085C86.7421 201.93 84.3437 201.233 82.1775 199.762C79.7791 198.136 77.9997 195.968 76.6071 193.49C76.375 193.181 76.2203 192.794 75.9882 192.407C74.4409 192.716 72.9709 193.181 71.4236 193.723ZM120.319 93.9963C120.319 94.306 120.242 94.6931 120.242 95.0028C120.242 98.5645 120.783 102.049 122.176 105.378C123.336 108.243 124.651 111.03 125.889 113.818C125.889 113.895 126.044 113.895 126.199 114.05C126.199 113.74 126.276 113.431 126.276 113.121C126.431 111.65 126.431 110.179 126.663 108.707C127.127 105.688 126.431 102.978 124.651 100.578C124.265 100.113 123.955 99.6485 123.568 99.1065C122.408 97.6354 121.17 96.0094 120.319 93.9963ZM73.9767 239.482C74.3635 240.334 74.9824 240.953 75.524 241.65C76.9939 243.586 78.9281 244.36 81.3264 244.515C82.1775 244.593 82.7964 244.283 83.2606 243.586C83.8021 242.812 84.3437 242.115 84.7305 241.263C85.5042 239.715 86.2005 238.166 86.8968 236.618C86.8968 236.54 86.8194 236.463 86.7421 236.308C86.51 236.385 86.2005 236.463 85.891 236.54C85.1174 236.85 84.4211 237.16 83.6474 237.469C81.1717 238.476 78.6186 239.173 75.9882 238.786C75.1371 238.631 74.5182 238.863 73.9767 239.482ZM111.499 183.657C111.267 183.425 111.19 183.348 111.112 183.348C108.559 182.651 106.006 181.799 103.53 180.792C103.144 180.638 102.679 180.56 102.215 180.56C100.204 180.638 98.347 181.18 96.5675 182.109C95.7939 182.496 95.0976 183.038 94.556 183.735C94.4013 183.967 94.3239 184.199 94.0918 184.664C95.0202 184.741 95.7165 184.586 96.4902 184.586C97.2638 184.586 98.0375 184.586 98.7338 184.664C99.5074 184.741 100.204 184.819 100.977 184.896C101.751 184.973 102.447 185.128 103.221 185.283C103.995 185.438 104.691 185.593 105.465 185.825C106.161 185.98 106.935 186.212 107.708 186.367C108.637 185.128 109.952 184.277 111.499 183.657ZM93.8597 227.636C93.6276 227.636 93.4729 227.559 93.3955 227.559C93.1634 227.636 92.9313 227.636 92.6992 227.713C88.6762 229.185 84.8079 230.888 81.4812 233.675C79.8565 234.992 78.2318 236.23 76.6071 237.547C76.4524 237.624 76.375 237.856 76.2976 238.011C76.4524 238.089 76.5297 238.166 76.6071 238.166C76.9166 238.166 77.226 238.244 77.5355 238.166C79.4696 238.166 81.3264 237.624 83.1059 236.927C84.4984 236.385 85.891 235.766 87.361 235.224C90.0688 231.043 89.6046 231.275 93.8597 227.636ZM64.6154 195.116C65.8532 195.813 66.9363 196.433 67.9421 197.052C68.561 197.439 69.2573 197.826 69.8763 198.214C71.1915 199.065 72.4293 200.072 73.7446 200.924C76.6845 202.859 79.7791 204.175 83.2606 204.563C84.5758 204.717 85.891 204.64 87.1289 204.253C87.361 204.175 87.5157 204.021 88.0573 203.866C80.4754 203.246 74.5956 200.304 70.6499 193.955C68.7931 194.11 65.7759 194.652 64.6154 195.116ZM69.7989 153.848C69.8763 153.848 70.031 153.77 70.1084 153.77C70.1084 153.461 70.1857 153.228 70.1857 152.919C70.1857 151.215 70.1084 149.512 70.1084 147.731C70.1084 146.879 69.7989 146.182 69.3347 145.485C67.0137 142.234 65.4664 138.594 65.0022 134.568C65.0022 134.336 64.8475 134.104 64.6927 133.562C64.3833 134.491 64.2285 135.11 63.9964 135.73C63.1454 137.975 63.3775 140.22 63.9964 142.466C64.3833 143.937 65.0022 145.331 65.7759 146.647C67.1684 149.125 68.7931 151.293 69.7989 153.848ZM69.7215 144.789C69.9536 144.247 69.7989 143.705 69.7215 143.24C69.3347 140.066 68.9479 136.891 68.561 133.794C68.1742 130.697 68.4063 127.677 69.1026 124.58C69.3347 123.574 69.6442 122.49 69.8763 121.483C70.1857 120.167 70.4178 118.928 70.6499 117.612C70.7273 117.147 70.7273 116.605 70.8046 116.141C70.4952 116.45 70.3405 116.837 70.2631 117.224C69.4894 120.089 68.561 122.954 67.5553 125.742C66.9363 127.445 66.2401 129.148 65.6985 130.852C65.5438 131.239 65.389 131.703 65.4664 132.168C65.6985 136.581 66.859 140.762 69.4121 144.402C69.4121 144.634 69.5668 144.711 69.7215 144.789ZM13.9406 183.58C13.8633 183.58 13.7859 183.58 13.7085 183.657C13.7859 183.967 13.7859 184.277 13.8632 184.509C14.3274 185.98 14.7143 187.529 15.3332 189C16.1842 191.168 17.19 193.258 18.2731 195.349C19.8978 198.601 21.2904 201.853 22.2188 205.337C22.2962 205.569 22.2188 205.879 22.6056 205.879C22.8377 205.105 23.4566 200.924 23.4566 200.382C23.4566 200.149 23.3793 199.917 23.2245 199.685C21.9867 197.981 21.3678 196.046 20.6715 194.032C20.0525 192.329 19.3562 190.626 18.2731 189.155C16.7258 187.219 15.3332 185.438 13.9406 183.58ZM34.0558 232.901C34.0558 233.056 34.0558 233.133 34.1332 233.211C36.1447 235.766 38.0788 238.321 40.0903 240.876C41.3282 242.425 42.6434 243.973 44.2681 245.289C44.4228 245.367 44.5776 245.444 44.887 245.677C44.6549 244.515 44.3455 243.663 44.1907 242.657C44.036 241.728 43.8813 240.721 43.8813 239.792C43.8813 238.863 44.036 237.934 44.1134 237.005C43.5718 236.695 35.0615 233.056 34.4426 232.901C34.3652 232.824 34.2105 232.901 34.0558 232.901ZM169.678 159.345C168.673 159.035 167.822 159.035 166.971 159.113C165.81 159.19 164.65 159.268 163.489 159.345C162.174 159.422 160.859 159.5 159.543 159.422C156.913 159.345 154.747 158.261 153.122 156.248C152.581 155.628 152.581 155.628 151.497 155.706C151.497 155.783 151.497 155.938 151.575 156.016C152.503 157.022 153.509 158.106 154.437 159.113C156.526 161.203 158.925 162.752 161.787 163.449C162.483 163.604 163.025 163.604 163.721 163.371C165.81 162.52 167.667 161.358 169.369 159.887C169.524 159.732 169.601 159.577 169.678 159.345ZM161.478 48.1592C161.787 47.927 161.864 47.7721 162.019 47.6172C163.799 45.8364 165.501 43.9782 167.28 42.1973C169.214 40.3391 170.839 38.1711 172.464 36.0806C172.618 35.9257 172.85 35.6934 172.541 35.3837C171.071 36.158 169.446 36.5451 167.899 36.9323C167.203 37.0871 166.506 37.3194 165.888 37.5517C165.501 37.7065 165.036 37.9388 164.727 38.1711C164.495 38.4034 164.185 38.7131 164.108 39.0228C163.257 41.8102 162.483 44.5202 161.632 47.3075C161.478 47.4624 161.478 47.7721 161.478 48.1592ZM70.4952 143.163C70.6499 145.098 70.8046 146.957 70.9594 148.815C70.9594 148.97 71.1141 149.047 71.1915 149.202C72.8162 148.737 74.2088 148.118 75.4466 146.957C75.8334 146.569 76.0655 146.182 76.1429 145.64C76.4524 143.472 77.0713 141.382 77.6902 139.291C77.845 138.594 78.1544 137.975 77.9997 137.123C77.0713 137.743 76.6071 138.827 75.8334 139.446C74.9824 140.066 74.2088 140.84 73.3577 141.382C72.4293 142.156 71.5009 142.621 70.4952 143.163ZM71.0368 150.054C71.0368 150.596 71.0368 151.06 71.0368 151.525C71.0368 153.77 70.882 155.938 70.4952 158.184C70.2631 159.655 69.9536 161.048 69.6442 162.52C69.5668 162.752 69.6442 163.062 69.6442 163.526C73.7446 158.958 75.3692 153.693 75.9108 147.731C75.0598 148.273 74.3635 148.737 73.5898 149.047C72.7388 149.434 71.8878 149.667 71.0368 150.054ZM135.792 57.6054C135.715 57.8377 135.637 58.07 135.56 58.3022C134.786 60.7025 134.09 63.1802 133.084 65.4256C132.156 67.4387 132.001 69.6066 132.079 71.852C132.156 73.7103 132.543 75.5685 133.316 77.2719C133.394 77.4268 133.471 77.7365 133.781 77.7365C135.018 74.2523 136.488 60.8573 135.792 57.6054ZM121.866 85.6341C121.17 87.4924 120.706 89.0409 120.551 90.5895C120.551 90.7443 120.551 90.8992 120.551 91.054C120.938 93.222 121.479 95.3125 122.795 97.0934C123.568 98.0999 124.265 99.1065 125.038 100.113C125.889 101.197 126.586 102.358 126.972 103.675C127.05 103.83 127.127 104.062 127.204 104.217C127.591 104.062 127.514 103.752 127.591 103.52C127.746 101.739 127.359 99.9582 126.663 98.3322C125.812 96.3191 124.883 94.3834 123.955 92.4477C123.027 90.512 122.33 88.5764 122.176 86.4084C122.098 86.331 122.021 86.1761 121.866 85.6341ZM166.816 29.1121C167.512 28.8024 167.976 28.6475 168.518 28.4153C169.06 28.183 169.678 28.0281 170.22 27.7958C170.762 27.641 171.303 27.4087 171.767 27.1764C172.386 26.8667 173.005 26.557 173.624 26.0924C174.707 25.2407 175.558 24.2342 176.1 22.9179C176.409 22.2211 176.487 21.6016 176.332 20.8274C176.022 18.8917 175.558 16.956 174.785 15.0977C174.707 14.9429 174.707 14.7106 174.32 14.788C174.32 15.2526 174.243 15.6397 174.243 16.1043C174.166 17.3431 173.934 18.582 173.624 19.8208C173.083 21.5242 172.309 23.0728 170.994 24.389C170.22 25.1633 169.446 25.8601 168.673 26.557C168.131 27.099 167.59 27.7184 167.048 28.3378C166.971 28.5701 166.893 28.8024 166.816 29.1121ZM131.537 69.3744C131.228 69.6841 131.15 69.7615 131.073 69.9163C130.067 71.3875 129.758 73.0909 129.525 74.7943C129.139 77.1171 129.371 79.2851 130.299 81.453C130.763 82.6144 131.228 83.7759 131.692 85.0147C131.769 85.1696 131.846 85.247 132.001 85.3244C132.079 85.1695 132.233 85.0147 132.233 84.9373C132.697 83.3113 133.084 81.6853 133.471 80.1368C133.626 79.5173 133.548 78.9753 133.239 78.4334C131.924 76.0331 131.46 73.478 131.537 70.8455C131.46 70.3809 131.537 69.9938 131.537 69.3744ZM51.7726 210.989C54.3257 210.912 56.6467 210.834 58.8903 210.679C59.8187 210.602 60.6697 210.447 61.5207 210.137C63.3001 209.518 65.0022 208.744 66.7043 208.047C66.9363 207.969 67.1684 207.892 67.1684 207.505C67.0911 207.427 66.9363 207.35 66.7816 207.35C63.8417 207.273 60.9018 207.195 58.0393 207.118C57.5751 207.118 57.1109 207.195 56.724 207.427C55.0993 208.124 53.7068 209.053 52.3915 210.215C52.2368 210.37 52.0821 210.525 51.7726 210.989ZM157.532 94.5383C157.919 94.306 158.228 94.306 158.306 94.1511C158.925 93.4543 159.621 92.68 160.085 91.9057C161.942 88.8086 162.948 85.4793 162.87 81.8402C162.87 80.911 162.793 80.0593 162.715 79.1302C162.561 77.272 162.483 75.4137 162.793 73.5554C162.793 73.4006 162.793 73.2457 162.715 72.936C162.406 73.478 162.174 73.7877 162.019 74.1749C161.71 74.8717 161.4 75.646 161.091 76.4203C160.704 77.1945 160.627 78.0462 160.627 78.8979C160.704 80.2916 160.781 81.6079 160.781 83.0016C160.781 86.873 159.776 90.512 157.841 93.8414C157.764 93.9188 157.764 94.1511 157.532 94.5383ZM188.478 140.917C188.401 140.84 188.401 140.762 188.324 140.685C187.705 140.917 187.086 141.072 186.467 141.304C182.908 142.621 179.813 144.634 176.951 147.034C175.094 148.583 173.16 150.054 171.303 151.602C171.148 151.757 171.071 151.912 170.916 152.067C171.613 151.989 172.232 151.835 172.85 151.602C173.469 151.293 174.088 150.983 174.707 150.673C175.945 150.054 177.106 149.357 178.498 149.125C178.962 149.047 179.272 148.737 179.581 148.428C181.98 145.795 184.765 143.472 187.782 141.537C188.014 141.304 188.246 141.15 188.478 140.917ZM131.228 185.748C130.763 185.748 130.376 185.67 129.912 185.67C127.823 185.593 125.657 185.515 123.568 185.361C120.396 185.051 117.456 185.825 114.671 187.219C114.439 187.296 114.284 187.451 114.13 187.606C114.362 187.993 114.671 187.993 114.981 187.993C117.302 188.38 119.7 188.535 122.098 188.225C125.116 187.916 128.21 186.909 131.228 185.748ZM157.687 114.902C156.294 114.979 154.36 115.444 153.045 115.908C152.194 116.218 151.652 116.837 151.265 117.689C150.878 118.773 150.646 119.857 150.646 120.941C150.646 122.567 150.646 124.27 150.724 125.896C150.724 125.896 150.801 125.974 150.878 126.051C150.956 125.974 151.188 125.974 151.265 125.896C151.73 125.2 152.271 124.503 152.658 123.728C153.199 122.644 153.664 121.56 154.051 120.399C154.747 118.463 155.753 116.837 157.223 115.521C157.377 115.366 157.455 115.134 157.687 114.902ZM52.2368 240.489C52.2368 241.031 52.1594 241.418 52.2368 241.883C52.3142 242.502 52.3142 243.121 52.4689 243.663C52.8557 245.367 53.7841 246.838 55.1767 247.922C55.7956 248.387 56.4919 248.696 57.2656 248.464C58.194 248.232 59.1224 248.154 60.1281 247.999C60.9018 247.922 61.5981 247.845 62.6812 247.69C61.8302 247.38 61.2113 247.225 60.6697 246.993C58.9676 246.373 57.343 245.444 55.9504 244.283C54.9446 243.431 54.0936 242.425 53.552 241.263C53.3199 240.876 53.0105 240.489 52.2368 240.489ZM160.781 122.412C162.483 122.799 163.876 123.032 165.269 122.877C165.965 122.799 166.506 122.567 166.893 121.948C168.131 120.012 169.214 118.076 170.143 115.986C170.607 114.902 171.226 113.818 171.458 112.424C169.756 114.282 168.286 116.141 166.661 117.844C165.036 119.547 163.102 120.941 160.781 122.412ZM55.3314 207.273C55.022 207.273 54.8672 207.195 54.6352 207.195C52.5463 207.273 50.5347 207.815 48.678 208.899C46.2023 210.292 44.1907 212.15 42.2566 214.164C42.1792 214.241 42.1792 214.396 42.1019 214.706C42.6434 214.473 43.0302 214.241 43.4171 214.086C45.1965 213.234 46.9759 212.305 48.8327 211.763C49.9158 211.454 50.7668 210.912 51.6179 210.137C52.7784 209.053 53.9389 208.279 55.3314 207.273ZM130.299 163.062C129.603 162.287 129.061 161.745 128.52 161.203C127.978 160.584 127.437 159.887 126.895 159.268C126.818 159.19 126.663 159.035 126.586 158.958C125.735 158.261 124.884 157.719 123.723 157.796C122.795 157.796 121.789 157.719 120.86 157.642C120.551 157.642 120.319 157.642 119.932 157.642C122.253 160.197 127.359 163.294 130.299 163.062ZM23.9982 171.656C24.2303 170.572 24.4624 169.565 23.8435 168.481C23.4566 167.785 23.2245 167.01 23.0698 166.236C22.6056 164.3 22.4509 162.365 22.683 160.352C22.683 160.119 22.7603 159.887 22.3735 159.732C21.9093 160.274 21.4451 160.894 20.9036 161.436C20.2073 162.132 20.0525 162.907 20.2073 163.758C20.5167 166.701 21.7546 169.256 23.6114 171.579C23.6887 171.579 23.8435 171.579 23.9982 171.656ZM167.744 16.1817C168.208 16.0269 168.131 15.6397 168.131 15.33C168.286 13.2395 168.518 11.0715 168.595 8.98097C168.673 7.66471 168.595 6.34844 168.518 5.03217C168.518 4.79989 168.518 4.49019 168.208 4.41276C167.59 5.6516 166.971 6.89043 166.274 8.12927C165.888 8.74869 165.81 9.44554 165.81 10.1424C165.81 12.4652 166.816 14.3235 167.744 16.1817ZM118.539 185.051C118.539 184.973 118.539 184.896 118.462 184.819C116.837 184.509 115.213 184.199 113.588 183.889C113.279 183.812 112.892 183.889 112.505 183.967C111.19 184.277 110.029 184.896 109.023 185.748C108.791 185.903 108.559 186.135 108.714 186.599C110.029 186.987 111.422 187.451 112.737 187.606C113.511 187.219 114.13 186.832 114.749 186.522C115.367 186.212 115.909 185.98 116.528 185.748C117.224 185.515 117.921 185.283 118.539 185.051ZM53.8615 211.763C51.3858 211.686 48.6006 212.383 47.208 213.467C47.4401 213.776 47.7496 214.086 47.9817 214.396C48.3685 214.938 48.9101 215.093 49.6064 214.938C50.9216 214.628 52.2368 214.706 53.552 214.86C54.171 214.938 54.8672 215.015 55.4862 215.093C55.7183 215.093 55.9504 215.093 56.1825 215.015C55.3314 213.854 54.5578 212.77 53.8615 211.763ZM133.239 186.677C133.239 186.599 133.162 186.522 133.162 186.445C132.697 186.522 132.311 186.599 131.846 186.677C131.382 186.754 130.995 186.909 130.531 186.987C130.144 187.064 129.758 187.219 129.371 187.296C128.907 187.451 128.52 187.529 128.056 187.683C127.591 187.838 127.204 187.916 126.74 188.071C126.276 188.225 125.889 188.303 125.425 188.38C125.038 188.458 124.651 188.535 124.265 188.613C123.8 188.69 123.336 188.767 122.949 188.845C122.563 188.922 122.098 188.845 121.712 189.155C121.789 189.309 121.789 189.387 121.866 189.464C123.336 190.239 124.806 190.703 126.431 191.013C127.05 191.09 127.514 191.013 127.901 190.548C129.061 189.387 130.376 188.38 131.846 187.529C132.311 187.296 132.775 186.987 133.239 186.677ZM95.7165 86.873C95.3297 87.9569 95.4071 88.4989 96.026 91.4412C96.6449 94.306 97.4959 97.0934 99.3527 99.571C99.8943 99.1065 100.049 98.6419 100.204 98.0225C99.198 96.3191 98.1149 94.6157 97.4959 92.68C96.877 90.7443 96.3354 88.8086 95.7165 86.873ZM58.1166 211.609C58.1166 211.841 58.1166 211.841 58.194 211.918C58.2714 211.996 58.4261 212.15 58.5035 212.228C59.5866 212.847 60.8244 213.157 62.1397 213.234C62.8359 213.234 63.3001 213.08 63.7643 212.538C64.6154 211.531 65.5438 210.602 66.3948 209.595C66.4722 209.441 66.5495 209.286 66.7816 208.899C65.6211 209.363 64.7701 209.75 63.9191 210.06C62.9907 210.447 62.0623 210.757 61.0565 210.989C60.0508 211.299 59.1224 211.454 58.1166 211.609ZM54.7125 211.686C55.2541 213.157 56.1825 214.241 57.4203 215.093C57.5751 215.17 57.8072 215.248 57.9619 215.248C59.3545 215.325 60.5923 215.015 61.6755 214.086C61.5981 214.009 61.5981 213.931 61.5981 213.931C61.4434 213.854 61.366 213.776 61.2113 213.776C59.6639 213.544 58.2714 213.08 57.1109 211.996C56.8788 211.763 56.4919 211.686 56.1051 211.686C55.7183 211.609 55.2541 211.609 54.7125 211.686ZM40.7093 216.564C42.7981 216.951 45.506 216.332 47.7496 215.248C47.6722 215.093 47.6722 214.938 47.5948 214.86C47.208 214.473 46.8212 214.086 46.4343 213.622C44.3455 214.396 42.4887 215.48 40.7093 216.564Z" fill="url(#paint0_linear_318_1087)"/>
<defs>
<linearGradient id="paint0_linear_318_1087" x1="-21.0917" y1="253.824" x2="206.912" y2="40.935" gradientUnits="userSpaceOnUse">
<stop stop-color="#A5845A"/>
<stop offset="0.0093143" stop-color="#A38358"/>
<stop offset="0.107" stop-color="#967744"/>
<stop offset="0.2053" stop-color="#8E6F38"/>
<stop offset="0.3043" stop-color="#8B6D34"/>
<stop offset="0.3738" stop-color="#967941"/>
<stop offset="0.5025" stop-color="#B39864"/>
<stop offset="0.6752" stop-color="#E1CA9B"/>
<stop offset="0.6813" stop-color="#E3CC9D"/>
<stop offset="0.761" stop-color="#D8BF91"/>
<stop offset="0.9081" stop-color="#BA9D71"/>
<stop offset="1" stop-color="#A5845A"/>
</linearGradient>
</defs>
</svg>
