<svg width="143" height="166" viewBox="0 0 143 166" fill="none" xmlns="http://www.w3.org/2000/svg">
<path d="M9.04062 17.8099C10.5879 21.2167 12.29 24.4687 14.4562 27.4883C16.7772 30.7403 19.8718 32.676 23.8175 33.2179C25.829 33.4502 27.8405 33.6825 29.8521 33.6825C35.1903 33.6825 40.4512 33.6051 45.7895 33.4502C51.3598 33.2954 57.0075 33.218 62.5779 33.6825C68.303 34.1471 73.796 35.4633 78.9795 37.8636C82.2289 39.3347 85.1688 41.3478 87.7992 43.8255C91.6675 47.4646 94.4527 51.8779 96.6963 56.6784C98.3984 60.395 100.1 64.1889 101.88 67.9054C103.582 71.4671 106.058 74.4868 109.307 76.887C110.932 78.1258 112.556 79.2873 114.181 80.4487C118.436 83.5458 122.614 86.7203 126.482 90.282C133.445 96.7084 138.087 104.529 140.718 113.665C142.806 121.021 142.729 128.299 140.408 135.577C139.17 139.526 137.391 143.242 135.457 146.881C133.058 151.295 130.196 155.476 127.333 159.58C122.072 167.167 117.895 175.297 114.181 183.659C112.556 187.299 111.319 191.092 110.313 194.964C109.307 198.835 108.533 202.784 107.605 206.655C105.748 214.476 103.04 222.063 99.7136 229.419C98.3984 232.361 96.8511 235.149 95.3038 238.013C94.9943 238.633 94.5301 239.175 94.0659 239.639C93.9111 239.794 93.5243 239.794 93.2922 239.639C93.0601 239.562 92.9054 239.252 92.828 239.02C92.7507 238.788 92.9054 238.478 92.9828 238.246C93.2922 237.704 93.6791 237.162 93.9885 236.62C100.333 225.083 104.665 212.927 107.218 199.997C108.765 192.022 109.152 184.047 108.146 175.994C107.528 171.116 106.212 166.548 103.582 162.367C100.874 158.031 97.2379 154.702 92.4412 152.921C90.7392 152.301 88.9597 151.837 87.1803 151.372C84.5499 150.753 81.9194 150.753 79.289 150.83C75.0338 150.908 70.7787 151.062 66.5236 150.908C52.2109 150.443 39.6775 145.255 28.6916 136.196C25.9064 133.874 23.5081 131.318 21.4965 128.299C19.485 125.357 18.0151 122.259 17.3961 118.698C16.6998 114.517 17.2414 110.491 18.8661 106.542C19.8718 104.064 21.2644 101.819 22.8118 99.5733C24.2044 97.5601 25.6743 95.6244 26.9895 93.5339C27.9179 92.2176 28.7689 90.824 29.4652 89.3528C31.4767 85.0169 31.2446 80.6809 29.0784 76.4224C27.6858 73.6351 25.5969 71.3122 23.1986 69.3766C21.5739 68.0603 19.8719 66.8214 18.1698 65.5826C16.8546 64.576 15.5394 63.4921 14.3015 62.3307C11.7484 59.853 10.5106 56.8333 10.5879 53.2716C10.5879 52.4199 10.6653 51.5683 10.82 50.794C10.8974 49.9423 11.0521 49.0906 11.2069 48.3163C11.8258 44.2126 10.9748 40.4961 8.65379 37.1667C7.57067 35.5408 6.48753 33.9148 5.40441 32.2888C3.00606 28.5723 1.38136 24.6235 0.994533 20.1327C0.452971 13.3965 1.22664 6.89263 3.47026 0.466156C3.54762 0.311301 3.62497 0.233869 3.93443 0.00158691C4.86283 6.50549 6.48754 12.2351 9.04062 17.8099ZM105.671 118.388C107.528 112.271 109.384 106.232 111.164 100.115C112.092 96.9407 112.556 93.6888 112.711 90.4368C112.866 87.4171 112.402 84.4749 111.705 81.5327C111.551 80.9132 111.319 80.2938 110.467 80.2164C110.467 80.5261 110.39 80.9132 110.467 81.2229C111.783 86.3332 111.241 91.3659 110.158 96.3987C109.849 97.715 109.539 98.9538 109.23 100.27C108.456 103.29 107.76 106.232 107.063 109.252C106.29 112.426 105.671 115.678 105.361 118.93C105.361 119.085 105.439 119.162 105.439 119.317C105.439 119.395 105.516 119.395 105.516 119.472C105.516 119.395 105.593 119.24 105.593 119.24C105.516 119.162 105.439 119.085 105.284 119.008C105.284 118.698 105.593 118.62 105.671 118.388ZM16.313 61.5564C16.2356 61.6338 16.1583 61.6338 16.0809 61.7112C16.1583 61.7887 16.313 61.7887 16.3904 61.8661C16.8546 62.3307 17.2414 62.7952 17.7056 63.1824C19.6397 64.6535 21.5739 66.202 23.5854 67.5957C24.8233 68.4474 26.1385 69.1443 27.4537 69.6088C32.8694 71.6994 38.3623 72.4736 44.0874 71.4671C47.6463 70.8477 51.2824 70.3831 54.8413 69.7637C59.7153 68.9894 64.4347 69.3766 69.154 70.8477C69.3861 70.9251 69.5409 70.9251 69.773 71.0025C69.8503 71.0025 69.8503 70.9251 69.9277 70.9251C69.9277 70.8477 70.005 70.7702 69.9277 70.7702C65.7499 66.5892 60.8758 64.2663 54.8413 64.7309C52.675 64.8858 50.5862 65.4277 48.4973 66.0472C46.7179 66.5117 45.0158 67.0537 43.2364 67.4409C40.3738 68.0603 37.5113 67.9829 34.6488 67.6731C28.7689 66.9763 23.1986 65.1955 17.9377 62.4855C17.3962 62.2532 17.0093 61.6338 16.2357 61.9435C16.313 61.7887 16.313 61.6338 16.313 61.5564ZM27.7632 98.4893C25.9064 107.316 28.9237 118.233 36.5056 124.737C39.987 127.757 43.9327 130.002 48.1878 131.706C52.5977 133.486 57.1623 134.803 61.959 135.422C65.131 135.809 68.3804 136.119 71.5524 136.506C74.647 136.893 77.819 137.358 80.9136 137.822C86.3293 138.752 91.4354 140.532 96.3095 143.242C99.0173 144.791 101.493 146.572 103.814 148.662C105.826 150.443 107.373 152.611 108.843 155.166C108.998 154.702 109.075 154.469 109.075 154.237C108.998 151.604 107.914 149.437 106.29 147.346C101.184 140.842 94.7622 136.196 87.1803 133.099C83.6215 131.706 79.9852 130.931 76.1169 130.699C73.3318 130.544 70.5466 130.467 67.7614 130.234C63.2742 129.847 58.8643 129.073 54.5318 127.834C47.3368 125.744 41.1475 121.795 35.964 116.452C33.643 113.975 31.7089 111.265 30.3936 108.09C29.3879 105.613 28.6916 103.057 28.4595 100.348C28.3821 99.4958 28.2274 98.7215 28.15 97.8698C28.15 97.715 28.2274 97.6376 28.2274 97.4827C28.2274 97.4827 28.15 97.4053 28.0726 97.4053C28.0726 97.5601 28.15 97.715 28.15 97.8698C27.9953 98.1021 27.7632 98.3344 27.7632 98.4893ZM110.081 173.207C110.081 171.271 110.003 169.258 110.003 167.322C110.003 166.316 109.694 165.387 109.23 164.535C105.439 156.56 99.4815 150.83 91.2807 147.501C87.7219 146.03 84.0857 145.178 80.2947 144.791C76.968 144.481 73.6413 144.249 70.2371 144.017C65.7499 143.707 61.34 143.397 56.9302 142.623C48.4199 141.074 40.8381 137.668 34.1846 132.015C31.5541 129.77 29.2331 127.292 27.3763 124.35C24.6685 120.014 23.1986 115.368 23.1212 110.258C23.0438 108.245 23.2759 106.232 23.2759 104.219C23.2759 103.754 23.5854 103.29 23.2759 102.825C23.1212 102.903 22.9665 102.903 22.8891 102.98C20.0266 107.316 18.4793 112.039 18.9435 117.304C19.2529 120.866 20.6455 124.04 22.5797 126.983C24.4365 129.77 26.6027 132.17 29.0784 134.338C40.0644 143.784 52.7524 148.972 67.3746 149.282C71.3203 149.359 75.3433 149.204 79.289 149.204C81.0684 149.204 82.9252 149.204 84.7046 149.359C87.8766 149.591 90.8939 150.443 93.8338 151.682C98.3984 153.618 101.88 156.637 104.588 160.741C106.986 164.38 108.688 168.251 109.307 172.51C109.384 173.052 109.539 173.594 109.616 174.136C109.694 174.213 109.771 174.291 109.771 174.368C109.694 174.368 109.694 174.291 109.616 174.291C109.616 174.213 109.616 174.136 109.616 174.136C109.926 173.826 110.081 173.516 110.081 173.207ZM29.1558 95.005C29.0011 97.173 29.0784 99.341 29.3879 101.509C30.3163 107.393 32.9467 112.349 37.1245 116.53C42.308 121.717 48.4199 125.434 55.5376 127.292C60.7211 128.686 65.982 129.383 71.2429 129.693C72.4034 129.77 73.6413 129.847 74.8018 129.847C82.0742 130.002 88.6503 132.325 94.7622 136.119C99.2494 138.906 103.195 142.313 106.444 146.494C106.754 146.959 107.141 147.346 107.528 147.733C107.992 147.733 107.992 147.423 107.992 147.191C107.373 143.707 106.831 140.145 106.212 136.661C105.98 135.577 105.439 134.57 104.897 133.564C102.499 129.383 98.94 126.363 94.7622 124.04C88.2634 120.401 81.2231 118.078 73.796 117.149C69.9277 116.685 65.982 116.298 62.1137 115.678C59.1738 115.214 56.1565 114.672 53.294 113.975C49.1936 113.046 45.5574 111.187 42.308 108.555C40.7607 107.316 39.2907 106 37.8981 104.683C34.6488 101.741 32.2504 98.1021 30.7031 93.9985C30.5484 93.6888 30.471 93.3791 30.2389 92.7596C29.2331 93.4565 29.1558 94.2307 29.1558 95.005ZM32.792 85.7912C34.2619 93.8436 38.8265 99.6507 46.0216 103.445C48.0331 104.529 50.1993 105.303 52.443 106C58.0133 107.781 63.7384 108.555 69.5408 108.942C71.6297 109.097 73.7186 109.174 75.8075 109.329C81.7647 109.871 87.4898 111.42 92.828 114.207C95.6132 115.601 98.0889 117.304 100.487 119.317C100.874 119.704 101.338 120.014 101.648 120.324C102.189 120.169 102.112 119.859 102.035 119.627C100.951 116.762 99.9457 113.82 98.8626 110.955C98.7078 110.413 98.321 110.026 97.9342 109.561C96.1548 107.239 93.9112 105.458 91.4355 103.987C88.1861 102.051 84.6272 100.657 80.9136 99.883C77.9737 99.2635 75.0338 98.799 72.0165 98.3344C67.6841 97.6376 63.2742 97.0181 58.9417 96.3213C55.3829 95.7019 51.824 94.8502 48.4199 93.6113C45.48 92.5274 42.6175 91.1337 39.9096 89.5077C37.5887 88.0366 35.4998 86.3332 33.7204 84.1652C33.4883 83.9329 33.2562 83.7006 32.9467 83.3135C32.5599 84.3201 32.6372 85.0169 32.792 85.7912ZM113.021 181.956C115.806 175.917 118.591 169.877 122.227 164.303C124.703 160.509 127.256 156.715 129.732 152.921C132.517 148.74 135.07 144.404 137.004 139.681C139.093 134.725 140.486 129.615 140.486 124.195C140.486 118.156 138.938 112.426 136.385 107.006C136.308 106.929 136.23 106.851 136.076 106.774C135.689 107.084 135.844 107.548 135.844 107.935C136.385 119.395 132.749 129.538 125.709 138.519C124.161 140.532 122.459 142.391 120.912 144.326C119.674 145.797 118.436 147.346 117.198 148.895C114.491 152.456 112.866 156.56 112.092 160.973C111.86 162.444 111.705 163.915 111.783 165.387C111.937 171.039 112.015 176.691 111.705 182.343C111.705 182.808 111.783 183.272 111.86 184.201C112.402 183.195 112.711 182.575 113.021 181.956ZM108.456 156.637C106.986 153.463 104.897 150.753 102.267 148.507C97.6247 144.559 92.2865 141.849 86.484 140.068C83.6215 139.216 80.6815 138.597 77.6643 138.21C73.2544 137.59 68.7672 137.048 64.3573 136.584C57.2397 135.809 50.5088 133.951 44.0874 130.777C40.9154 129.228 38.0529 127.215 35.4224 124.892C30.9352 120.788 28.3047 115.678 26.9895 109.716C26.2932 106.387 26.1385 103.057 26.6801 99.7281C26.7574 99.341 26.8348 98.8764 26.8348 98.4893C26.8348 98.3344 26.7574 98.257 26.7574 98.1021C26.448 97.8698 26.2932 98.1796 26.0612 98.3344C25.2101 99.2635 24.8233 100.348 24.5912 101.586C23.4307 108.013 23.5854 114.284 26.2158 120.324C27.5311 123.421 29.4653 126.208 31.8636 128.609C38.2076 135.035 45.8669 139.216 54.6866 141.229C58.5549 142.158 62.5005 142.623 66.5236 142.855C69.8503 143.087 73.2544 143.242 76.5812 143.475C78.7474 143.629 80.9137 143.862 83.0025 144.249C89.7334 145.333 95.8453 147.965 101.184 152.379C104.201 154.934 106.599 158.031 108.611 161.438C108.765 161.747 108.998 162.057 109.152 162.289C109.152 162.367 109.23 162.367 109.616 162.677C109.849 160.431 109.307 158.496 108.456 156.637ZM30.0068 74.4868C30.7031 75.3385 31.7088 75.9579 32.5599 76.5773C35.2677 78.3581 38.285 79.5195 41.3796 80.3712C44.2422 81.1455 47.1047 81.5327 50.0446 81.6101C52.6751 81.7649 55.3829 81.7649 58.0133 81.8424C63.2742 81.9198 68.4577 82.6166 73.5639 83.8555C78.2058 85.0169 82.6157 86.7977 86.6388 89.4303C86.8708 89.5851 87.1029 89.74 87.335 89.8174C87.7992 89.5077 87.4124 89.2754 87.335 89.1206C85.8651 87.1849 84.4725 85.1718 82.9252 83.3135C80.9137 80.9132 78.67 78.6678 76.5038 76.4224C74.0281 73.8673 70.9334 72.1639 67.5293 71.2348C63.661 70.1508 59.7154 69.9185 55.6923 70.4605C52.443 70.9251 49.1936 71.3897 45.9442 72.0091C39.987 73.0931 34.1072 72.9382 28.3821 70.7702C28.15 70.6928 27.8406 70.6154 27.6085 70.538C27.5311 70.538 27.4537 70.538 27.1442 70.6154C28.2274 72.0091 29.001 73.3253 30.0068 74.4868ZM103.35 124.427C103.118 123.421 102.499 122.647 101.802 121.95C100.41 120.324 98.7078 118.93 96.9284 117.691C90.7391 113.433 83.8536 111.033 76.4264 110.258C74.0281 110.026 71.7071 109.949 69.3087 109.794C63.2742 109.407 57.317 108.555 51.5919 106.697C49.3483 106 47.1047 105.071 45.0158 103.909C40.1418 101.199 36.2734 97.4053 33.8751 92.2951C33.4109 91.3659 33.1788 90.3594 32.792 89.3528C32.6372 88.9657 32.7146 88.5011 32.0957 88.2689C31.6315 88.8883 31.4768 89.74 31.0899 90.4368C30.9352 90.6691 30.7805 90.9788 30.7805 91.2111C30.7805 91.6756 30.8578 92.2177 31.0125 92.6048C32.0957 95.7019 33.643 98.4893 35.7319 100.967C38.7492 104.606 42.308 107.626 46.331 110.103C48.0331 111.11 49.8125 111.884 51.6693 112.504C54.4545 113.355 57.317 113.975 60.2569 114.362C64.3573 114.904 68.4577 115.446 72.5581 115.91C80.2947 116.762 87.6445 118.93 94.4527 122.647C98.1663 124.66 101.493 127.215 104.123 130.544C104.278 130.699 104.433 130.854 104.588 130.931C104.665 130.931 104.742 130.931 105.129 131.086C104.51 128.841 103.891 126.673 103.35 124.427ZM87.5672 85.3266C86.4067 81.1455 86.0972 76.9644 86.0972 72.6285C86.0972 69.3765 86.0198 66.0472 85.8651 62.7952C85.7104 59.2336 84.9367 55.6719 83.6989 52.3425C81.7647 47.0775 78.7474 42.5092 74.8018 38.483C74.3376 37.941 73.7186 37.6313 73.0223 37.399C69.6956 36.3925 66.2141 35.6956 62.81 35.4633C62.4232 36.0828 63.0421 36.2376 63.2742 36.4699C65.9046 38.7927 68.303 41.2704 70.1598 44.3675C71.9392 47.3097 73.4091 50.4068 74.1828 53.8136C75.1886 58.1496 76.1943 62.5629 77.0453 66.8989C78.0511 72.0091 80.14 76.6547 83.1573 80.8358C84.3951 82.6166 85.8651 84.1652 87.2577 85.8686C87.335 85.946 87.4898 85.946 87.6445 86.0235C87.6445 85.7137 87.6445 85.4814 87.5672 85.3266ZM100.1 71.622C100.487 74.6416 100.565 77.5839 100.1 80.6035C99.7136 82.8489 99.3268 85.1717 98.9399 87.4171C98.4757 90.282 97.9342 93.0693 97.7021 95.9342C97.5474 98.0247 97.7021 100.115 97.7794 102.206C97.8568 103.754 98.2437 105.225 98.8626 106.697C100.565 110.568 102.112 114.439 103.427 118.466C103.582 118.853 103.737 119.162 103.969 119.704C104.201 119.317 104.278 119.162 104.356 119.008C104.665 114.517 105.826 110.181 106.831 105.845C107.45 103.29 108.224 100.735 108.765 98.1021C109.307 95.7793 109.771 93.4565 110.081 91.1337C110.622 87.4171 110.235 83.7781 109.307 80.139C109.152 79.4421 108.843 78.8227 108.224 78.3581C104.897 75.803 102.267 72.6285 100.41 68.912C100.255 68.5249 99.9457 68.2151 99.7136 67.9054C99.6362 67.9054 99.5589 67.9829 99.4815 67.9829C99.6362 69.1443 99.9457 70.3831 100.1 71.622ZM32.9467 81.6875C33.8751 83.1586 34.9582 84.5523 36.2734 85.7137C39.2907 88.5011 42.8496 90.4368 46.6405 91.9854C49.5804 93.2242 52.6751 94.1533 55.8471 94.8502C60.9532 95.9342 66.2141 96.631 71.3976 97.4053C73.8733 97.7924 76.349 98.1021 78.8248 98.5667C82.0741 99.1861 85.2461 100.115 88.2634 101.432C90.8165 102.593 93.2149 103.987 95.3811 105.767C95.7679 106.077 96.1548 106.309 96.4642 106.619C96.9284 106.309 96.6963 106 96.6189 105.845C96.3868 105.303 96.0774 104.838 95.9227 104.296C95.3811 102.438 94.0659 101.199 92.6733 100.038C88.0313 96.3987 83.0025 93.6888 77.4322 91.7531C72.7902 90.2045 67.9162 89.3528 63.0421 88.7334C60.6438 88.4237 58.168 88.1914 55.7697 87.9591C50.1993 87.3397 44.7837 85.7912 39.6002 83.5458C37.5113 82.6166 35.5771 81.5326 33.7204 80.2938C33.3335 80.0615 32.9467 79.8292 32.4825 79.5195C32.1731 80.5261 32.5599 81.0681 32.9467 81.6875ZM59.0964 62.7178C55.2281 60.3176 51.2051 58.3044 47.1047 56.2913C46.2537 55.9042 45.4027 55.6719 44.4743 55.6719C42.5401 55.5945 40.606 55.9042 38.6718 56.2913C36.8924 56.6784 35.1129 57.143 33.3335 57.4527C28.3821 58.3819 23.5854 57.6076 19.0208 55.517C17.3188 54.7428 15.7714 53.6588 14.3788 52.3425C13.9147 51.878 13.4504 51.4908 13.0636 51.0263C12.9089 51.1811 12.7542 51.2585 12.7542 51.336C12.29 53.1942 12.4447 55.1299 12.9863 56.9107C13.2184 57.5302 13.6826 58.1496 14.1468 58.6141C15.1525 59.4658 16.2357 60.3175 17.3961 60.937C23.0439 64.1115 29.1558 66.0472 35.6545 66.744C38.9813 67.0537 42.308 66.8989 45.6348 65.8923C47.5689 65.3503 49.5804 64.8858 51.5145 64.3438C54.2224 63.6469 57.0075 63.5695 59.7927 64.034C60.0248 64.1115 60.3343 64.1115 60.6437 64.1115C60.7211 64.0341 60.7985 63.8792 60.8759 63.8018C60.1796 63.4921 59.638 63.1049 59.0964 62.7178ZM111.318 153.308C112.711 148.043 115.342 143.32 118.359 138.829C119.829 136.661 121.453 134.493 123.078 132.402C125.09 129.693 127.024 126.983 128.571 123.963C132.13 117.227 133.445 110.026 132.594 102.438C132.285 99.7281 131.124 97.5601 129.035 95.6245C128.958 96.089 128.803 96.4762 128.803 96.8633C128.881 100.193 128.494 103.445 127.797 106.619C126.56 112.891 124.007 118.62 120.448 123.885C119.442 125.357 118.281 126.828 117.276 128.299C115.806 130.467 114.413 132.557 113.021 134.803C111.628 137.048 110.777 139.603 110.081 142.158C109.694 143.784 109.539 145.41 109.849 147.114C110.235 149.282 110.468 151.527 110.777 154.16C111.086 153.695 111.241 153.54 111.318 153.308ZM77.7417 40.4961C80.6816 43.9804 83.0025 47.9292 84.5499 52.2651C85.9425 56.1365 86.6388 60.0853 86.7935 64.1889C86.8709 67.0537 86.8708 69.9185 86.9482 72.7834C86.9482 76.5773 87.1803 80.3713 88.1087 84.0103C88.8823 86.8752 89.7334 89.6625 91.4355 92.1402C92.2091 93.3016 92.9054 94.463 93.9111 95.547C93.9111 95.005 93.9111 94.5405 93.8338 93.9985C93.1375 89.198 93.2148 84.3975 93.679 79.5195C93.9111 77.0419 94.1432 74.4868 94.298 72.0091C94.7622 64.2663 92.828 56.9882 89.5013 50.0971C88.8824 48.7808 88.1087 47.4646 87.335 46.2257C86.8708 45.5289 86.3293 44.8321 85.7104 44.2901C83.312 42.0447 80.4494 40.3413 77.4322 39.025C77.2001 38.9476 76.8906 38.8702 76.5812 38.7927C76.8133 39.6444 77.3548 40.0316 77.7417 40.4961ZM58.787 36.7796C60.3343 38.6379 61.3401 40.8058 61.6495 43.2061C61.8816 44.8321 62.0363 46.5355 62.1137 48.2389C62.3458 51.8005 62.8874 55.2848 64.0479 58.769C64.8989 61.4015 66.1367 63.8018 67.6067 66.1246C67.9935 66.6666 68.4577 67.2086 68.9993 67.6731C72.1713 70.1508 75.1886 72.7059 77.9737 75.4933C78.1285 75.6482 78.3606 75.9579 78.7474 75.7256C78.7474 75.5707 78.7474 75.3385 78.6701 75.1836C76.8133 71.0025 76.0396 66.5117 75.1112 62.021C74.4149 58.8464 73.796 55.7493 72.945 52.6522C71.0108 45.9935 67.1425 40.651 61.7269 36.315C60.5664 35.3859 59.3285 34.9988 57.5491 35.3085C58.0907 35.9279 58.4775 36.3925 58.787 36.7796ZM112.711 82.7715C114.026 87.8817 113.717 92.9145 112.556 97.9473C111.705 101.509 110.7 104.993 109.694 108.477C108.998 110.955 108.146 113.433 107.373 115.91C106.599 118.311 106.29 120.788 106.058 123.343C105.826 126.131 106.29 128.763 107.063 131.396C107.141 131.551 107.295 131.706 107.528 132.015C107.682 131.473 107.76 131.164 107.76 130.854C108.224 126.673 109.539 122.801 111.473 119.162C113.407 115.446 115.187 111.652 116.812 107.781C118.9 102.593 119.829 97.173 119.365 91.5208C119.21 89.9722 118.978 88.5011 118.436 87.03C118.127 86.0235 117.585 85.1717 116.657 84.5523C115.651 83.9329 114.723 83.1586 113.794 82.4618C113.562 82.3069 113.253 82.1521 112.788 81.9198C112.711 82.2295 112.634 82.5392 112.711 82.7715ZM32.4825 78.3581C33.5656 79.1324 34.5714 79.9841 35.7319 80.6809C40.9154 83.7006 46.5631 85.6363 52.443 86.7203C54.7639 87.1074 57.1623 87.3397 59.4832 87.6494C62.1137 87.9591 64.7441 88.2689 67.3746 88.656C76.5038 89.9723 84.782 93.2242 92.2091 98.7215C92.3638 98.8764 92.5959 98.9538 92.7506 99.0313C92.828 99.0313 92.9054 99.0313 92.9828 99.0313C93.2922 98.7215 93.0601 98.4118 92.9054 98.1021C92.2091 96.8633 91.5128 95.6245 90.8939 94.463C90.3523 93.4565 89.5013 92.6822 88.6503 91.9854C84.9367 88.9657 80.8363 86.8752 76.2717 85.4815C70.7013 83.7781 64.9762 82.8489 59.0964 82.6941C56.1565 82.6166 53.2166 82.6166 50.2767 82.4618C47.1047 82.3069 44.0101 81.9198 40.9928 81.0681C38.3623 80.3712 35.8093 79.3647 33.4109 77.971C33.0241 77.7387 32.5599 77.5064 31.7089 77.1193C32.1731 77.8162 32.2504 78.2033 32.4825 78.3581ZM117.663 107.626C116.27 111.033 114.645 114.284 113.175 117.536C112.479 119.162 111.551 120.634 110.854 122.259C108.998 126.518 108.146 130.931 108.379 135.577C108.379 135.809 108.456 136.119 108.533 136.738C108.843 136.196 108.998 135.964 109.075 135.654C109.926 132.48 111.473 129.538 113.33 126.75C114.336 125.202 115.342 123.731 116.27 122.182C121.067 114.362 123.465 105.845 123.542 96.7084C123.542 94.8502 123.31 92.9145 123.001 91.0562C122.769 89.74 122.227 88.656 121.067 87.9591C120.525 87.6494 120.061 87.2623 119.21 86.5654C121.067 94.1533 120.37 100.967 117.663 107.626ZM112.17 157.334C113.253 153.772 114.877 150.598 117.121 147.733C118.746 145.643 120.525 143.629 122.227 141.616C124.239 139.216 126.25 136.738 127.952 134.106C133.6 125.124 135.921 115.446 134.76 104.838C134.683 103.832 134.451 102.903 133.832 102.206C133.29 102.283 133.445 102.593 133.445 102.903C134.374 111.729 132.285 119.859 127.565 127.292C126.018 129.77 124.239 132.093 122.459 134.493C119.829 137.977 117.43 141.539 115.342 145.41C113.33 149.127 112.015 153.153 111.318 157.257C111.241 157.799 111.164 158.341 111.473 159.115C111.783 158.418 112.015 157.876 112.17 157.334ZM96.7737 100.115C96.5416 95.7793 97.3153 91.5982 98.0889 87.4171C98.5531 85.0169 99.0173 82.6167 99.3268 80.2164C99.8683 76.1127 99.5589 72.1639 98.5531 68.1377C97.47 63.6469 95.9226 59.311 93.9111 55.1299C93.1375 53.5039 92.2865 51.878 90.9712 50.3294C90.8939 51.0263 91.126 51.4134 91.2807 51.878C92.1317 54.3556 93.0601 56.9107 93.8338 59.3884C94.9943 63.1824 95.3811 67.0537 95.2264 71.0025C95.149 73.8673 94.9169 76.7322 94.6074 79.597C93.8338 85.946 94.298 92.2951 95.4585 98.5667C95.5358 99.0312 95.6906 99.4958 95.8453 99.9604C95.9226 100.27 96.1548 100.58 96.4642 101.199C96.619 100.502 96.7737 100.27 96.7737 100.115ZM109.616 140.765C110.854 136.351 113.175 132.557 115.806 128.918C116.812 127.525 117.895 126.131 118.9 124.66C124.548 116.84 127.565 108.09 127.952 98.4118C128.03 97.2504 127.952 96.0116 127.875 94.8502C127.875 94.5405 127.72 94.1533 127.565 93.921C127.101 93.3791 126.637 92.9145 126.095 92.3725C125.477 91.8305 124.858 91.2885 124.239 90.7465C123.697 91.1337 124.007 91.5982 124.007 91.9079C124.78 96.4761 124.393 100.967 123.62 105.458C122.537 111.652 120.293 117.459 116.889 122.801C115.651 124.737 114.413 126.673 113.175 128.609C110.932 132.093 109.694 135.887 109.075 139.99C108.998 140.378 108.998 140.765 108.998 141.152C109.075 141.152 109.23 141.152 109.307 141.229C109.384 141.074 109.539 140.919 109.616 140.765ZM52.5203 35.773C54.7639 38.483 55.6149 41.6575 56.0018 45.0643C56.2339 47.3872 56.466 49.6326 56.7754 51.9554C57.0849 54.3556 57.5491 56.7559 58.4775 59.0787C58.9417 60.2401 59.5606 61.0918 60.7211 61.7887C61.959 62.4855 63.0421 63.3372 64.2026 64.1115C64.5121 64.3438 64.8989 64.4986 65.2084 64.7309C65.5952 64.2663 65.2857 63.9566 65.131 63.7243C62.7327 59.2336 61.7269 54.4331 61.34 49.4777C61.1853 47.4646 61.0306 45.4515 60.7985 43.4384C60.4116 40.4961 59.0191 38.0185 56.8528 36.0053C56.2339 35.4633 55.615 35.1536 54.7639 35.2311C53.9903 35.2311 53.2166 35.2311 52.2882 35.3085C52.4429 35.5408 52.4429 35.6956 52.5203 35.773ZM54.145 56.3687C52.9072 54.3556 51.9014 52.1877 51.2825 49.8648C50.8183 48.0066 50.2767 46.2258 49.6578 44.4449C48.5747 41.4253 47.1047 38.7153 44.629 36.6247C43.5459 35.6956 42.4627 35.1536 41.0701 35.3085C39.6002 35.4634 38.0529 35.4633 36.5829 35.4633C36.3508 36.0053 36.6603 36.0828 36.8924 36.1602C37.5887 36.6247 38.3623 37.0119 39.0586 37.4765C41.7664 39.2573 43.7006 41.6575 45.0158 44.5998C46.0216 46.8452 46.95 49.0906 48.0331 51.2585C49.3483 54.0459 51.2824 56.2913 54.0676 57.685C54.2224 57.7624 54.4545 57.8399 54.6866 57.9173C54.764 57.9173 54.8413 57.9173 55.1508 57.8399C54.6866 57.2979 54.4545 56.8333 54.145 56.3687ZM45.0932 36.0053C48.1105 38.6379 49.8125 42.0447 50.8956 45.7612C51.7467 48.626 52.3656 51.6457 53.9129 54.2782C54.764 55.7493 55.6923 57.0656 56.6207 58.4593C56.7755 58.6916 57.0075 58.769 57.4717 59.1561C57.0849 57.7624 56.7754 56.6785 56.5433 55.5945C56.0791 52.5748 55.6923 49.4777 55.3055 46.458C54.996 44.3675 54.8413 42.277 54.0676 40.2638C53.5261 38.6379 52.675 37.2442 51.5145 35.9279C50.973 35.3085 50.3541 34.9213 49.5031 34.9988C47.9557 35.1536 46.331 34.9988 44.4743 35.2311C44.9385 35.7731 45.0158 35.9279 45.0932 36.0053ZM48.5746 54.1234C47.0273 51.6457 45.7121 49.0131 44.7063 46.2257C42.8496 41.0381 39.0586 37.8636 34.1846 35.773C32.9467 35.231 32.0183 35.2311 30.2389 35.6956C30.6257 35.9279 30.8578 36.1602 31.1673 36.315C34.1846 38.1733 36.3508 40.7284 37.9755 43.8255C38.7492 45.3741 39.6775 46.8452 40.5286 48.3937C41.5343 50.0971 42.8495 51.4908 44.3969 52.7297C45.5574 53.6588 47.1047 54.4331 48.8841 54.8202C48.8068 54.6653 48.7294 54.3556 48.5746 54.1234ZM37.9755 53.1168C37.0471 53.2717 36.1961 53.4265 35.2677 53.5813C29.4652 54.8202 23.9723 53.8136 18.9435 50.8714C17.4735 50.0197 16.0809 48.9357 14.6109 47.9292C14.2241 47.6969 13.8373 47.3872 13.3731 47.0774C13.2957 47.4646 13.2184 47.7743 13.141 48.0066C12.8315 49.0906 13.141 50.0197 13.992 50.8714C15.462 52.4199 17.0867 53.7362 18.9435 54.6654C23.4307 56.8333 28.0727 57.6076 33.0241 56.8333C34.6488 56.601 36.2734 56.1365 37.9755 55.7493C39.4454 55.4396 40.8381 55.2073 42.308 54.9751C42.5401 54.9751 42.6948 54.8202 43.0043 54.6654C41.3022 53.5814 39.8323 52.8071 37.9755 53.1168ZM33.4883 50.0197C33.1788 49.8649 32.8693 49.6326 32.5599 49.5551C32.0183 49.4777 31.4768 49.4003 30.9352 49.4003C26.1385 49.5551 21.6513 48.3163 17.6282 45.7612C16.5451 45.0644 15.5394 44.2126 14.4562 43.3609C14.0694 43.0512 13.7599 42.7415 13.141 42.277C13.0636 43.9804 12.9863 45.3741 14.3015 46.458C18.8661 50.3294 23.8949 52.8845 30.0068 53.1168C32.4825 53.1942 34.8809 52.7296 37.7434 52.0328C35.964 51.336 34.7261 50.6391 33.4883 50.0197ZM28.769 47.4646C25.2875 45.374 22.0381 43.0512 18.9435 40.3413C18.0924 39.567 17.164 39.025 16.0809 38.7927C14.4562 38.4056 12.9863 37.6313 11.5937 36.6247C11.2069 36.3925 10.82 36.0053 10.1237 36.0053C10.82 37.5539 11.4389 39.025 12.4447 40.2638C16.6998 45.4515 22.2702 48.1614 28.9237 48.626C29.2331 48.626 29.5426 48.5486 30.1615 48.4712C29.62 48.0066 29.2332 47.6969 28.769 47.4646ZM41.457 51.7231C41.3796 51.4134 41.3796 51.1811 41.3022 51.0263C39.6002 48.9357 38.3623 46.6129 37.1245 44.2127C35.1903 40.5736 32.4825 37.7862 28.769 35.9279C27.6858 35.3859 26.6027 34.9988 25.2101 35.3859C25.829 36.1602 26.5253 36.5473 27.1442 37.0893C27.7632 37.7087 28.4595 38.3282 29.0784 38.9476C29.62 39.567 30.1615 40.1864 30.6257 40.8833C31.0899 41.5801 31.5541 42.277 31.941 43.0512C32.3278 43.8255 32.7146 44.6772 33.0241 45.5289C33.3336 46.3032 33.4883 47.1549 33.7204 48.0066C36.1961 49.4777 38.7492 50.7165 41.457 51.7231ZM3.39286 11.4608C2.8513 11.5383 2.92868 11.9254 2.92868 12.2351C2.54185 16.3388 2.61922 20.4424 3.70234 24.4687C5.32703 30.4306 9.04058 34.6116 14.6109 37.2442C14.843 37.3216 15.0751 37.399 15.3846 37.399C8.03482 30.1983 4.86282 21.2167 3.39286 11.4608ZM23.4307 40.3413C21.8834 37.4765 19.9492 34.8439 17.3961 32.9082C14.0694 30.3531 11.8258 27.1012 9.89163 23.4621C8.73114 21.3715 7.88009 19.2036 6.87433 17.0356C6.64224 16.5711 6.48753 16.1839 6.17807 15.7968C6.5649 19.5907 8.03485 23.0749 9.65954 26.4818C11.5163 30.4305 14.3015 33.7599 17.4735 36.7022C21.1097 40.0316 22.2702 41.0381 23.8175 41.5801C23.6628 41.0381 23.5854 40.651 23.4307 40.3413ZM21.3418 35.6956C22.8891 37.5539 24.127 39.567 24.9007 41.8124C25.2875 42.8964 25.9064 43.5932 26.8348 44.1352C28.3048 44.9869 29.6974 45.916 31.0899 46.7677C31.3994 47 31.8636 47.0775 32.4051 47.3097C32.3278 46.6129 32.3278 46.1483 32.173 45.7612C31.4767 43.6707 30.3162 41.8898 28.9237 40.1864C27.2216 38.1733 25.2875 36.5473 23.0439 35.2311C22.0381 34.6116 22.0381 34.6116 20.5681 34.5342C20.5681 35.0762 21.0323 35.3085 21.3418 35.6956Z" fill="#0A4156"/>
</svg>
