<svg width="221" height="228" viewBox="0 0 221 228" fill="none" xmlns="http://www.w3.org/2000/svg">
<path d="M219.502 54.0265C218.497 54.4137 217.491 54.7234 216.485 55.1105C210.76 57.3559 204.803 58.5948 198.536 58.5173C196.215 58.4399 193.894 58.5173 191.573 58.5173C189.098 58.5173 186.622 58.7496 184.146 59.1367C181.361 59.6787 178.73 60.6079 176.409 62.3113C174.63 63.5501 173.083 65.0212 171.845 66.7246C171.613 67.1118 171.381 67.4989 170.762 67.886C170.994 67.1892 171.226 66.7246 171.381 66.3375C172 64.5567 172.541 62.7758 172.851 60.8401C173.315 57.5108 173.47 54.1814 173.083 50.7746C172.928 49.6132 173.16 48.684 173.779 47.7549C174.166 47.2129 174.553 46.6709 175.094 46.2064C176.1 45.2772 177.183 44.3481 178.344 43.4964C181.593 41.0187 184.765 38.4636 187.55 35.4439C188.788 34.0503 189.871 32.5791 190.722 30.8757C192.734 27.0818 193.198 23.0556 192.811 18.8745C192.502 16.1645 191.883 13.6094 191.032 11.0543C189.871 7.72493 188.711 4.47298 187.473 1.1436C187.395 0.911316 187.241 0.679033 187.086 0.369324C186.854 0.756461 186.622 1.06617 186.467 1.29845C184.61 4.70526 182.444 7.80236 179.968 10.822C178.963 12.0609 178.034 13.2997 177.106 14.5385C176.023 16.0097 175.017 17.4808 174.011 18.9519C172.541 21.0424 171.613 23.3653 171.071 25.9204C170.684 27.7786 170.452 29.6369 170.375 31.5726C170.22 34.8245 170.375 38.0765 170.762 41.3284C171.071 44.1932 171.458 47.1355 171.768 50.0003C172.077 52.8651 172.077 55.7299 171.845 58.5947C171.535 62.6984 170.298 66.4923 168.286 70.054C167.203 71.9897 165.965 73.8479 164.727 75.7062C163.335 77.8742 161.633 79.8099 159.776 81.6681C159.002 82.4424 158.074 83.1392 157.145 83.6812C156.14 84.2232 155.211 84.8427 154.205 85.3072C150.647 87.2429 148.094 90.1077 146.391 93.6694C144.999 96.3793 143.838 99.2441 142.755 102.109C142.136 103.89 141.517 105.671 140.898 107.451C140.589 108.381 140.125 109.232 139.429 109.929C138.655 110.781 137.881 111.633 137.03 112.484C134.941 114.73 132.62 116.898 130.222 118.833C129.913 119.066 129.68 119.298 129.216 119.298C129.448 118.833 129.603 118.524 129.758 118.214C131.305 115.504 132.311 112.562 132.311 109.31C132.311 108.226 132.698 107.219 133.239 106.29C133.936 105.051 134.787 104.045 135.638 103.038C137.34 101.18 138.964 99.2441 140.744 97.3859C143.529 94.3662 146.159 91.1143 148.48 87.7074C150.879 84.2232 152.735 80.5067 153.973 76.4805C155.289 72.222 155.675 67.886 154.824 63.5501C154.36 61.2273 153.819 58.9045 153.122 56.5816C152.349 54.104 151.652 51.6263 150.879 49.1486C150.569 48.0646 150.182 46.9032 149.796 45.8192C149.718 45.5869 149.563 45.4321 149.409 45.1998C149.254 45.4321 149.099 45.5869 149.022 45.7418C148.635 46.5161 148.326 47.3678 148.016 48.142C146.469 52.1683 144.612 56.0396 142.291 59.6013C140.357 62.4661 138.113 65.0986 135.87 67.7312C134.554 69.2797 133.239 70.7509 132.079 72.3768C130.222 74.8545 128.907 77.6419 128.133 80.6616C126.973 85.6169 126.818 90.5723 128.133 95.5276C128.365 96.5342 128.675 97.6182 128.984 98.6247C129.371 99.941 129.835 101.335 130.222 102.651C131.073 105.438 131.228 108.303 130.918 111.168C130.764 112.484 130.454 113.723 129.913 114.962C128.829 117.672 127.205 120.072 125.348 122.395C125.038 122.782 124.652 123.092 124.265 123.324C122.795 124.253 121.402 125.182 119.932 125.957C115.677 128.202 111.422 130.447 107.012 132.383C103.453 133.932 100.127 135.712 96.8772 137.88C96.7225 138.035 96.4904 138.113 96.1035 138.268C96.2583 137.803 96.2583 137.493 96.413 137.261C97.1093 136.022 97.8056 134.706 98.6566 133.467C100.668 130.525 103.066 127.97 105.697 125.492C108.327 123.092 111.035 120.846 113.666 118.446C115.677 116.665 117.689 114.962 119.468 112.871C122.021 109.929 123.568 106.522 124.11 102.651C124.574 99.0119 124.265 95.3728 123.336 91.8111C122.717 89.6431 122.099 87.3978 121.402 85.2298C120.319 81.9778 120.01 78.6484 120.706 75.3191C120.706 75.1642 120.706 75.0094 120.783 74.8545C121.248 72.0671 121.015 69.3572 120.164 66.6472C119.932 65.9504 119.7 65.2535 119.468 64.5567C118.617 62.2338 117.611 59.9884 116.451 57.743C114.671 54.2588 113.666 50.6197 113.743 46.6709C113.743 45.7418 113.82 44.8127 113.82 43.8835C113.82 43.6513 113.898 43.419 113.588 43.3415C112.66 44.503 110.88 47.5226 110.184 49.226C108.482 53.6394 107.09 58.1302 106.548 62.8533C106.238 65.4084 105.929 67.9635 105.542 70.5186C105.001 74.5448 103.763 78.3387 101.983 82.0553C100.668 84.7652 98.9661 87.2429 97.4188 89.8754C95.9488 92.3531 94.4789 94.7534 93.1636 97.3085C89.9143 103.658 89.2953 110.316 91.3069 117.13C91.8484 118.911 92.5447 120.614 93.1636 122.318C93.7052 123.789 94.2468 125.337 94.7883 126.808C96.0262 130.37 95.8715 133.854 94.711 137.416C93.9373 139.816 93.9373 139.816 92.0032 141.442C89.2953 143.61 86.897 146.088 84.4213 148.488C78.9283 153.83 72.739 158.089 66.0855 161.806C65.9308 161.883 65.6987 162.115 65.3119 161.883C66.5497 160.334 67.7102 158.786 68.6386 156.928C69.4896 155.147 70.1859 153.366 70.5728 151.43C70.9596 149.495 70.9596 147.481 70.8822 145.546C71.6559 144.849 72.3522 144.229 73.0485 143.61C75.06 141.752 76.8394 139.739 78.1546 137.261C79.2378 135.17 80.0114 133.002 80.6304 130.757C81.4814 127.583 82.4871 124.408 83.8797 121.388C85.1949 118.601 85.3497 115.659 84.4986 112.717C84.0344 111.168 83.5703 109.619 83.0287 108.148C82.0229 105.206 81.5587 102.186 81.6361 99.0893C81.7135 96.147 81.5587 93.1274 81.5587 90.1851C81.5587 89.8754 81.4814 89.4883 81.4814 89.1786C81.3266 89.256 81.2493 89.3334 81.1719 89.4109C80.1662 91.7337 79.083 94.1339 78.0773 96.4568C76.6847 99.8636 75.2147 103.193 73.5127 106.367C72.0427 109.077 70.6501 111.787 69.3349 114.497C67.7102 117.827 66.7045 121.311 66.5497 125.027C66.395 127.97 66.6271 130.989 67.246 133.854C67.7876 136.254 68.4065 138.655 68.9481 141.132C69.4896 143.378 69.7991 145.623 69.7217 147.946C69.7217 150.424 69.1802 152.747 68.1744 154.992C66.9366 157.934 64.9251 160.412 62.7588 162.735C61.2888 164.283 59.5094 165.522 57.4979 166.374C55.6411 167.225 53.7843 168 51.9276 168.851C49.2971 170.09 46.744 171.252 44.191 172.568C42.2568 173.497 40.4774 174.658 38.9301 176.13C37.5375 177.446 36.2223 178.917 34.907 180.311C32.8955 182.633 30.6519 184.724 28.0988 186.427C24.8494 188.595 21.4453 190.454 18.0412 192.312C17.8865 192.389 17.7318 192.312 17.4997 192.312C17.6544 192.08 17.7318 191.925 17.8091 191.847C19.3565 189.602 20.5169 187.279 21.1359 184.569C21.2132 184.182 21.368 183.872 21.5227 183.485C22.5285 181.162 23.8437 178.994 25.1589 176.826C26.6289 174.504 28.4083 172.568 30.7293 171.174C31.8898 170.4 33.1276 169.703 34.2881 168.929C35.6033 168.077 36.9185 167.225 38.1564 166.296C39.9358 164.903 41.5605 163.354 42.721 161.418C45.042 157.624 46.2025 153.521 46.1251 149.107C46.1251 146.939 45.8156 144.771 45.3514 142.604C44.8872 140.59 44.423 138.5 43.9589 136.487C43.8041 135.635 43.6494 134.783 43.4947 133.932C43.3399 133.157 43.572 132.461 44.0362 131.919C44.6551 131.144 45.2741 130.447 45.893 129.673C49.916 124.795 52.1597 119.22 52.4691 112.871C52.5465 110.549 52.4691 108.303 52.0823 106.058C51.7728 104.122 51.4634 102.109 51.1539 100.173C50.3802 95.4502 50.3802 90.8046 51.1539 86.0815C51.2313 85.8492 51.386 85.5395 51.0765 85.2298C50.9992 85.3846 50.8444 85.5395 50.7671 85.6944C50.2255 86.6235 49.6839 87.5526 49.1424 88.4043C48.1366 90.0303 47.0535 91.5788 46.1251 93.2048C44.6552 95.7599 43.1078 98.315 41.4058 100.715C40.7095 101.722 40.0905 102.728 39.4716 103.812C37.7696 106.832 36.6091 110.007 35.7581 113.258C34.907 116.588 33.8239 119.84 32.5087 123.092C30.884 127.35 28.4856 131.067 24.8494 133.932C23.5342 134.938 22.3737 136.1 21.2132 137.261C19.5886 138.81 18.196 140.59 17.1128 142.526C15.4882 145.468 14.8692 148.643 14.7145 151.895C14.6371 154.218 14.8692 156.54 15.3334 158.863C15.7976 161.109 16.4165 163.277 17.1902 165.445C17.7318 167.071 18.3507 168.774 18.8149 170.4C19.6659 173.265 20.2075 176.13 20.2848 179.149C20.3622 183.175 19.4338 186.815 17.2676 190.221C16.3392 191.692 15.2561 192.931 14.0956 194.248C13.6314 194.79 13.0898 195.254 12.4709 195.641C10.8462 196.725 9.14414 197.887 7.51945 199.048C4.34744 201.371 1.33017 203.926 -1.30028 206.868C-5.71014 211.901 -9.50107 217.398 -12.2863 223.438C-13.3694 225.761 -14.3751 228.083 -15.3809 230.329C-15.5356 230.561 -15.613 230.871 -15.6904 231.18C-15.7677 231.568 -15.6904 231.955 -15.3809 232.032C-15.0714 232.187 -14.762 232.032 -14.5299 231.645C-14.3751 231.413 -14.2978 231.103 -14.143 230.871C-13.8336 230.096 -13.4467 229.245 -13.1373 228.471C-10.2747 221.657 -6.63853 215.308 -1.9192 209.578C-1.45501 208.959 -0.83608 208.417 -0.217151 208.03C3.03222 206.017 6.35896 204.313 9.99516 203.074C14.3277 201.681 18.7375 201.216 23.2248 201.835C24.7721 202.068 26.0099 202.687 26.9383 203.849C27.5573 204.7 28.2535 205.552 28.7951 206.481C29.7235 208.03 30.5745 209.578 31.5029 211.127C32.6634 213.14 33.8239 215.076 35.2165 216.856C36.2222 218.173 37.3827 219.489 38.7753 220.495C41.0189 222.044 43.4947 223.051 46.2025 223.283C47.6724 223.438 49.1424 223.515 50.535 223.438C53.3201 223.36 56.028 223.747 58.7358 224.677C59.7415 224.986 60.7473 225.373 61.8304 225.528C65.6987 226.38 69.3349 225.838 72.739 223.747C75.06 222.354 76.9168 220.418 78.3094 218.095C79.6246 215.927 80.9398 213.759 82.5645 211.824C83.4929 210.662 84.576 209.733 85.8139 208.959C87.6707 207.797 89.6048 206.791 91.6937 206.094C92.0032 206.017 92.39 206.017 92.5447 205.552C92.2353 205.475 91.9258 205.475 91.6937 205.397C88.8311 205.087 85.8912 204.778 83.0287 204.545C81.4814 204.391 79.9341 204.313 78.3867 204.236C74.5958 204.003 70.8822 203.307 67.246 202.145C65.544 201.603 63.9193 201.139 62.2172 200.674C59.5868 199.977 56.879 199.822 54.0938 200.21C52.7012 200.442 51.3086 200.674 49.916 200.984C47.2856 201.526 44.5778 202.145 41.9473 202.61C38.1564 203.307 34.4428 203.074 30.6519 202.145C28.7951 201.681 26.861 201.216 25.0042 200.829C22.0643 200.209 19.047 200.132 16.0297 200.442C12.084 200.906 8.37048 202.068 4.73427 203.771C4.34744 203.926 3.96062 204.158 3.49642 204.313C3.41905 204.313 3.26432 204.158 3.18695 204.158L3.10959 204.236C3.10959 204.236 3.10959 204.158 3.18695 204.158C3.88325 203.539 4.57954 202.919 5.3532 202.377C9.84043 199.126 14.405 196.028 19.1244 193.086C21.9095 191.305 24.9268 190.454 28.2535 190.531C31.1935 190.531 34.1334 190.454 37.0733 191.073C39.0074 191.46 40.9416 191.383 42.8757 190.996C43.3399 190.918 43.7268 190.841 44.191 190.763C46.2025 190.299 48.214 190.376 50.2255 190.996C51.2313 191.305 52.3144 191.538 53.3201 191.77C55.6411 192.312 57.8074 191.847 59.7415 190.531C60.6699 189.834 61.5983 189.137 62.4493 188.363C64.074 186.815 65.9308 185.576 68.0971 184.801C68.3292 184.724 68.5613 184.724 68.5613 184.337C67.246 183.795 65.9308 183.485 64.5382 183.175C61.3662 182.633 58.1942 182.091 55.0996 181.549C54.0164 181.395 53.0107 181.24 51.9276 181.162C49.7613 181.008 47.6724 181.395 45.6609 182.246C43.9589 182.943 42.4115 183.872 41.0189 184.879C39.8585 185.731 38.698 186.66 37.5375 187.511C36.2996 188.363 34.9844 188.905 33.5144 189.06C32.6634 189.137 31.735 189.215 30.884 189.215C29.6461 189.215 28.3309 189.292 27.0931 189.292C26.861 189.292 26.6289 189.447 26.4741 189.06C26.7836 188.905 27.0157 188.673 27.3252 188.518C31.1935 186.118 34.5976 183.175 37.4601 179.614C39.2395 177.446 41.4058 175.588 43.8815 174.194C44.8872 173.574 45.9704 173.187 47.1309 173.11C48.6782 173.032 50.2255 172.955 51.7728 172.955C54.0938 173.032 56.3374 173.032 58.581 172.723C59.1226 172.645 59.6642 172.723 60.2057 172.645C61.2888 172.645 62.2172 173.032 62.9909 173.652C64.4609 174.813 66.0082 175.975 67.4008 177.291C69.1028 178.84 70.7275 180.388 72.6616 181.704C74.8279 183.253 77.1489 184.337 79.7793 184.956C82.1003 185.498 84.4213 185.343 86.5875 184.182C87.5159 183.717 88.3669 183.175 89.218 182.633C89.7595 182.324 90.2237 181.937 90.7653 181.549C92.0032 180.62 93.3184 180.466 94.7883 180.698C96.0262 180.93 97.1093 181.395 98.1924 181.937C99.585 182.633 100.978 183.33 102.37 184.027C106.084 185.885 109.797 185.963 113.666 184.492C115.522 183.795 117.224 182.866 118.772 181.704C120.629 180.388 122.408 178.994 124.265 177.601C127.282 175.278 130.609 173.729 134.4 173.187C135.405 173.032 136.411 172.955 137.417 172.878C137.804 172.878 138.191 172.8 138.578 172.8C137.649 172.413 136.721 172.258 135.792 172.026C133.162 171.407 130.454 170.864 127.746 170.555C124.574 170.168 121.48 169.548 118.462 168.697C114.13 167.535 109.875 166.141 105.929 164.128C103.918 163.122 101.906 161.883 99.9718 160.799C96.7998 159.018 93.4731 158.012 89.8369 158.012C86.8196 158.012 83.8797 158.554 81.0172 159.56C78.8509 160.334 76.762 161.418 74.6732 162.502C72.1201 163.973 69.7217 165.599 67.3234 167.225C66.1629 168.077 64.925 168.851 63.6098 169.548C61.753 170.632 59.8189 171.174 57.6526 171.406C57.0337 171.484 56.4148 171.561 55.7959 171.561C53.7843 171.561 51.8502 171.561 49.8387 171.484C49.7613 171.484 49.6839 171.407 49.5292 171.252C50.4576 170.71 51.4634 170.323 52.3918 169.935C58.581 167.303 64.5382 164.206 70.2633 160.722C75.6016 157.47 80.6303 153.83 85.1176 149.495C86.6649 147.946 88.2896 146.475 89.8369 144.926C91.1521 143.61 92.6994 142.758 94.4015 142.216C98.2698 141.055 102.138 140.436 106.161 141.442C108.095 141.907 110.029 142.294 111.964 142.758C113.588 143.145 115.213 143.455 116.838 143.455C117.302 143.455 117.689 143.61 118.076 143.765C119.081 144.075 119.855 144.771 120.551 145.468C121.248 146.165 121.866 146.862 122.64 147.559C126.199 150.811 130.299 152.359 135.173 151.663C135.638 151.585 136.102 151.508 136.643 151.508C139.119 151.198 141.517 151.275 143.838 151.972C145.463 152.437 147.01 152.979 148.558 153.521C150.569 154.218 152.581 154.992 154.592 155.611C156.991 156.386 159.389 156.386 161.787 155.844C164.031 155.302 166.12 154.372 168.054 153.211C170.607 151.585 172.928 149.649 175.094 147.559C177.028 145.701 178.885 143.842 181.051 142.216C186.08 138.577 191.419 135.79 197.763 135.325C197.917 135.325 198.149 135.403 198.149 135.016C197.84 134.938 197.53 134.861 197.144 134.783C193.972 134.319 190.877 134.164 187.705 134.783C185.926 135.17 184.069 135.635 182.289 136.022C180.51 136.409 178.808 136.874 177.028 137.106C173.47 137.726 169.988 137.726 166.507 136.719C163.954 136.022 161.478 135.016 159.08 133.699C157.532 132.848 155.907 131.996 154.36 131.067C151.962 129.751 149.331 129.054 146.546 129.054C144.922 129.054 143.374 129.209 141.75 129.518C141.363 129.596 141.053 129.673 140.357 129.828C140.744 129.363 140.898 129.054 141.131 128.899C142.523 127.66 144.148 126.886 145.927 126.499C147.475 126.111 149.022 125.802 150.647 125.492C153.664 124.95 156.681 124.408 159.621 123.556C164.805 122.008 169.06 119.066 172.386 114.807C173.47 113.413 174.398 111.942 175.326 110.471C176.332 108.845 177.261 107.219 177.725 105.361C177.802 105.129 177.957 104.896 177.647 104.664C177.415 104.741 177.106 104.741 176.874 104.819C173.856 105.98 170.762 106.29 167.59 106.29C165.965 106.29 164.263 106.29 162.638 106.367C161.014 106.445 159.389 106.522 157.842 106.832C153.045 107.761 149.563 110.471 147.32 114.807C146.469 116.51 145.773 118.291 144.999 119.995C143.761 122.705 142.291 125.26 140.357 127.505C138.81 129.363 136.953 130.989 134.941 132.383C132.543 134.086 130.222 135.945 127.901 137.803C126.122 139.274 124.11 140.436 121.866 141.287C119.545 142.139 117.147 142.449 114.671 141.984C113.82 141.829 113.047 141.674 112.273 141.52C109.797 140.978 107.322 140.436 104.846 139.894C102.138 139.274 99.3529 139.197 96.6451 139.971C96.413 140.048 96.1036 140.048 95.4846 140.126C96.1036 139.661 96.413 139.352 96.7998 139.042C99.5077 137.106 102.448 135.403 105.465 134.009C108.714 132.538 112.041 131.067 115.29 129.596C118.617 128.047 121.866 126.421 124.806 124.253C127.282 122.395 129.68 120.459 132.156 118.524C134.709 116.51 136.875 114.188 139.119 111.865C140.357 110.549 141.517 109.232 142.446 107.606C142.91 106.755 143.452 105.903 144.07 105.206C145.618 103.58 147.397 102.264 149.641 101.644C152.271 100.87 154.824 100.56 157.532 100.715C159.389 100.87 161.246 100.948 163.025 100.948C164.959 100.948 166.816 100.715 168.673 100.251C169.988 99.8636 171.226 99.3216 172.232 98.315C173.702 96.9213 174.63 95.1405 174.862 93.1274C175.017 91.8111 175.017 90.4949 175.094 89.1786C175.094 88.5592 175.094 87.9397 175.172 87.3203C175.326 85.7718 176.177 84.7652 177.57 84.1458C178.421 83.7587 179.349 83.6812 180.278 83.6812C181.438 83.7587 182.521 83.9909 183.527 84.4555C184.301 84.7652 185.152 85.1524 185.926 85.5395C187.241 86.0815 188.633 86.6235 190.026 86.9332C192.811 87.4752 195.442 87.0106 197.763 85.3072C198.614 84.6878 199.387 83.9909 200.006 83.2941C201.553 81.5907 202.791 79.655 203.874 77.6419C205.035 75.3965 205.886 72.9962 206.814 70.6734C207.356 69.2797 207.897 67.886 208.671 66.5698C210.76 62.7758 213.545 59.6013 216.795 56.7365C217.878 55.8074 218.883 54.8782 219.889 53.8717C220.044 53.7943 220.044 53.6394 220.276 53.3297C219.812 54.0265 219.657 54.0265 219.502 54.0265Z" fill="#0A4156"/>
</svg>
