<svg width="188" height="152" viewBox="0 0 188 152" fill="none" xmlns="http://www.w3.org/2000/svg">
<path d="M1.92725 0.712765C4.17086 0.712765 6.41446 1.09991 8.58071 1.56447C16.472 3.11302 24.286 4.8164 31.8679 7.44894C35.6588 8.7652 39.1403 10.546 42.6218 12.5591C49.6621 16.7402 54.7682 22.7022 58.1724 30.1352C59.3328 32.6903 60.3386 35.2454 61.6538 37.7231C64.5164 42.8333 68.6941 46.2401 74.6513 47.0918C75.8118 47.2466 77.0496 47.4015 78.2101 47.4015C79.8348 47.4789 81.5369 47.4789 83.1616 47.4015C86.1788 47.2466 89.2735 47.0918 92.2908 46.8595C95.4628 46.7047 98.6348 46.7046 101.807 47.3241C105.366 48.0209 108.615 49.3372 111.555 51.5051C114.804 53.9054 117.435 56.8476 119.369 60.3319C120.839 62.9644 122.464 65.4421 124.32 67.7649C126.254 70.0877 128.653 71.6363 131.593 72.1783C132.985 72.4105 134.378 72.5654 135.693 72.7203C137.318 72.8751 139.02 72.8751 140.645 72.9525C143.739 73.1074 146.834 73.2622 149.928 73.8042C153.797 74.4237 157.356 75.7399 160.605 77.9079C164.86 80.6953 168.806 83.9472 172.133 87.8186C174.686 90.6834 176.465 93.9354 177.625 97.5745C179.095 102.375 179.405 107.33 178.554 112.286C178.244 114.144 177.935 115.925 177.625 117.783C177.007 121.5 177.548 125.061 179.173 128.391C180.643 131.333 182.113 134.352 183.583 137.295C185.439 141.089 186.755 145.037 186.987 149.219C187.064 150.612 187.064 152.006 186.832 153.4C186.523 155.722 185.13 157.426 183.118 158.51C181.881 159.129 180.565 159.671 179.25 160.058C177.316 160.6 175.227 160.988 173.293 161.452C171.591 161.839 169.889 162.149 168.264 162.613C165.092 163.543 162.307 165.169 160.296 167.879C159.058 169.505 157.82 171.13 156.659 172.834C155.499 174.537 154.725 176.396 154.184 178.409C153.255 181.893 152.868 185.455 153.023 189.016C153.178 191.494 153.487 193.894 153.719 196.294C153.951 199.082 154.338 201.792 154.493 204.579C154.725 208.063 154.725 211.625 153.951 215.032C153.255 218.129 152.172 221.149 151.244 224.168C151.089 224.71 150.779 225.252 150.393 225.717C150.161 226.027 149.774 226.259 149.464 226.336C149.232 226.414 148.845 226.259 148.613 226.027C148.381 225.794 148.381 225.407 148.691 225.097C149.619 224.323 149.928 223.239 150.238 222.155C150.857 220.219 151.321 218.206 151.94 216.271C152.791 213.406 153.023 210.386 153.023 207.444C153.023 205.818 152.868 204.115 152.791 202.489C152.404 197.069 150.857 191.958 147.994 187.313C145.751 183.674 142.733 181.041 138.556 179.88C136.776 179.415 134.997 178.951 133.14 178.564C130.432 178.022 127.956 176.86 126.1 174.77C124.707 173.298 123.469 171.75 122.231 170.201C120.994 168.653 119.91 166.949 118.673 165.401C116.274 162.381 113.257 160.445 109.466 159.594C108.073 159.284 106.758 159.052 105.366 158.897C101.729 158.432 98.1706 158.045 94.5344 157.581C91.4397 157.194 88.3451 156.884 85.2505 156.342C81.3048 155.722 77.5912 154.329 74.1097 152.238C69.2357 149.296 65.29 145.425 62.7369 140.314C59.4875 133.888 57.3987 127.074 56.7024 119.874C56.5476 118.325 56.3156 116.699 56.0835 115.15C55.2324 110.04 52.9888 105.627 49.6621 101.756C47.3411 99.0456 44.7107 96.6453 41.9255 94.3225C39.8366 92.5417 37.7477 90.6834 35.6588 88.8251C32.0226 85.5732 29.9337 81.547 29.3922 76.7465C29.2375 75.5851 29.0827 74.3462 28.928 73.1848C28.3864 69.0037 26.607 65.3647 23.7445 62.2676C21.5782 60.0222 19.412 57.8542 17.1684 55.6862C13.1453 51.8149 11.1338 47.0918 11.3659 41.4396C11.4433 39.7362 11.5206 38.0328 11.7527 36.3294C12.0622 33.9291 12.5264 31.5289 12.9132 29.0512C13.1453 27.3478 13.4548 25.6444 13.6095 23.941C14.0737 19.5276 12.9906 15.5788 10.7469 11.7849C8.3486 7.83608 5.40871 4.42929 1.77251 1.56447C1.46304 1.33219 1.1536 1.02246 0.534668 0.480469C1.30833 0.712751 1.61778 0.712765 1.92725 0.712765ZM148.226 162.691C148.226 156.574 147.917 150.535 146.756 144.495C145.905 139.85 143.275 136.598 139.407 134.198C137.627 133.036 135.616 132.262 133.604 131.72C129.04 130.481 124.398 129.939 119.678 130.326C115.887 130.559 112.174 131.178 108.46 131.797C103.431 132.726 98.48 133.656 93.4512 134.507C88.2677 135.359 83.0842 135.669 77.8233 135.436C74.1097 135.282 70.4735 134.817 66.8373 134.043C65.2126 133.733 63.588 133.268 62.118 132.572C61.8859 132.494 61.6538 132.417 61.3443 132.339C61.3443 132.572 61.267 132.649 61.3443 132.804C62.4275 136.133 63.7427 139.385 65.7542 142.327C70.1641 148.677 76.1986 152.703 83.7031 154.484C87.0299 155.258 90.3566 155.645 93.6833 155.877C96.0817 156.032 98.4027 155.877 100.801 155.568C105.134 154.948 109.466 154.251 113.799 153.787C116.506 153.477 119.214 153.322 121.922 153.245C127.492 153.167 132.831 154.329 138.014 156.342C141.573 157.736 144.668 159.826 147.298 162.691C147.53 162.923 147.762 163.078 148.072 163.388C148.149 163.001 148.226 162.846 148.226 162.691ZM139.484 126.3C134.068 117.706 127.183 110.66 118.673 105.085C115.733 103.149 112.638 101.523 109.621 99.665C108.383 98.8907 106.99 98.5036 105.52 98.3487C103.045 98.039 100.646 97.9616 98.1706 98.2713C95.1533 98.6584 92.136 99.123 89.1961 99.7424C85.4052 100.439 81.6916 101.136 77.8233 101.523C67.2242 102.607 57.0892 101.059 47.4958 96.4905C47.3411 96.413 47.109 96.3356 46.9543 96.2582C47.2637 97.1099 47.2637 97.1099 47.96 97.7293C49.7394 99.5101 51.3641 101.368 52.9114 103.459C55.4645 107.021 57.1666 110.892 57.7855 115.228C58.0176 116.776 58.7139 117.938 59.8744 118.867C62.8916 121.19 66.2958 122.816 70.0093 123.745C72.8719 124.442 75.8118 124.906 78.829 125.139C82.8521 125.448 86.8751 125.526 90.8982 125.216C96.0043 124.829 101.033 124.364 106.139 123.9C110.085 123.513 114.031 123.203 117.976 123.28C125.558 123.358 132.831 124.906 139.561 128.468C139.793 128.623 140.026 128.7 140.258 128.778C140.335 128.778 140.412 128.778 140.799 128.7C140.258 127.771 139.871 126.997 139.484 126.3ZM64.8258 58.1639C65.0579 64.6678 67.0694 70.6297 70.3188 76.2045C72.4077 79.6887 75.0381 82.7084 77.978 85.4958C78.6743 86.1152 79.448 86.5798 80.3764 86.8895C84.322 88.2832 88.2677 89.5994 92.2134 90.9931C94.6118 91.8448 97.0101 92.6191 99.331 93.3934C99.7179 93.5482 100.027 93.5482 100.569 93.7031C100.414 93.316 100.414 93.0062 100.337 92.7739C99.3311 90.2963 98.7121 87.7412 98.48 85.1086C98.2479 82.2438 98.1706 79.4564 98.0159 76.5916C97.9385 73.8042 97.9385 71.0168 97.7837 68.2295C97.5516 64.3581 96.7006 60.6416 95.0759 57.0799C93.9154 54.6022 92.4455 52.3569 90.5887 50.3437C89.6603 49.3372 88.5772 48.8726 87.1072 48.95C84.2447 49.1823 81.3048 49.1823 78.3649 49.1049C76.6628 49.1049 74.9608 48.8726 73.2587 48.5629C70.3188 48.0209 67.6883 46.8595 65.4447 45.0012C65.1353 44.7689 64.8258 44.5367 64.1295 44.0721C64.9032 49.0275 64.6711 53.5957 64.8258 58.1639ZM148.226 138.843C148.613 134.972 149.464 131.255 150.934 127.694C151.94 125.216 153.023 122.816 154.184 120.416C156.35 115.77 158.439 111.124 159.909 106.246C161.379 101.446 162.075 96.5679 161.456 91.5351C160.837 86.812 159.29 82.3987 156.505 78.5273C155.576 77.211 154.416 76.2819 152.868 76.0496C150.547 75.6625 148.226 75.1205 145.828 74.9656C142.114 74.6559 138.401 74.5785 134.765 74.4236C134.61 74.4236 134.533 74.5011 134.3 74.5785C134.378 74.9656 134.378 75.3528 134.533 75.6625C136.235 79.6887 137.086 83.8698 137.473 88.1283C138.014 93.6257 137.937 99.123 137.55 104.543C137.395 106.556 137.24 108.492 137.163 110.505C137.008 113.524 137.24 116.544 137.937 119.564C138.169 120.648 138.556 121.577 139.175 122.429C141.573 126.068 143.817 129.784 145.519 133.888C146.292 135.746 146.911 137.759 147.607 139.695C147.685 140.005 147.84 140.314 147.917 140.624C147.994 140.624 148.149 140.624 148.226 140.624C148.072 140.005 148.149 139.385 148.226 138.843ZM91.4397 50.034C94.8438 53.5957 96.778 57.8542 97.8611 62.5773C98.48 65.1324 98.7122 67.6875 98.7895 70.2426C98.8669 73.3397 98.8668 76.4368 98.9442 79.5339C99.0216 82.5535 99.2537 85.6506 99.95 88.5929C100.259 89.8317 100.646 90.9931 101.033 92.1545C101.497 93.6257 102.503 94.5548 103.973 95.1742C110.317 97.8067 116.197 101.214 121.767 105.162C123.547 106.401 125.171 107.872 126.951 109.189C127.183 109.343 127.492 109.498 127.879 109.653C127.879 109.266 127.879 109.111 127.802 108.879C126.564 104.078 125.945 99.123 125.326 94.2451C124.475 87.4315 123.237 80.6178 121.303 74.0365C119.214 67.068 116.119 60.5642 111.478 54.912C110.626 53.9054 109.775 52.8988 108.77 51.9697C108.151 51.4277 107.377 50.9632 106.603 50.576C104.592 49.6469 102.503 49.1049 100.337 48.7952C97.2422 48.3306 94.1476 48.408 91.0529 48.6403C90.9755 48.6403 90.8208 48.7178 90.5113 48.95C90.8982 49.4146 91.1303 49.7243 91.4397 50.034ZM12.1396 4.81641C16.0852 6.82952 19.8762 9.07492 23.3576 11.8623C27.3033 15.0368 31.0169 18.4436 33.6473 22.7796C35.8136 26.3412 37.593 30.1352 38.9855 34.084C40.3008 37.9554 41.5387 41.9042 42.9312 45.6981C44.5559 50.2663 46.258 54.7571 48.5016 59.093C51.4415 64.8227 55.1551 70.0877 59.797 74.5785C60.1839 74.8882 60.5707 75.1979 61.1896 75.3528C60.5707 74.1914 60.0291 73.03 59.4102 71.7911C57.8629 68.6166 56.9345 65.2872 56.1608 61.803C55.3098 57.6993 54.6909 53.5957 54.2267 49.492C53.9172 46.1627 53.5304 42.7558 53.1436 39.4265C52.4473 33.7743 51.132 28.1995 48.7337 23.0119C48.0374 21.5407 47.2637 20.147 46.4901 18.8308C45.1748 16.7402 43.5501 15.0368 41.3065 13.798C38.3666 12.172 35.3493 10.6235 32.1773 9.46205C27.6901 7.83608 23.1255 6.59723 18.4835 5.51325C16.3947 5.04869 14.3831 4.58413 12.2943 4.11957C11.8301 4.04214 11.4432 3.9647 10.9017 3.9647C11.0564 4.58412 11.6754 4.58413 12.1396 4.81641ZM150.857 159.129C152.482 155.722 154.803 152.858 157.433 150.303C159.986 147.747 162.694 145.27 165.324 142.792C167.491 140.702 169.579 138.456 171.436 136.056C173.68 133.036 175.382 129.784 175.923 125.99C176.001 125.216 176.078 124.364 176.001 123.59C175.691 121.19 175.846 118.867 176.233 116.467C176.542 114.763 176.852 113.06 177.084 111.357C177.935 105.627 177.239 100.13 174.84 94.8645C173.835 92.6965 172.442 90.7608 170.895 88.9026C170.817 88.8252 170.663 88.8251 170.43 88.7477C170.43 89.0574 170.353 89.3671 170.43 89.6769C171.668 99.9747 169.425 109.576 164.473 118.557C162.926 121.345 161.301 124.055 159.599 126.765C156.659 131.488 154.416 136.443 152.559 141.631C151.012 145.812 150.161 150.148 149.851 154.638C149.696 156.342 149.851 158.045 149.928 159.826C149.928 159.904 150.083 159.981 150.238 160.213C150.47 159.749 150.702 159.439 150.857 159.129ZM149.387 184.68C148.536 180.422 148.304 176.163 148.304 171.827C148.304 170.047 148.304 168.266 148.304 166.485C148.304 165.711 148.072 165.091 147.607 164.472C146.37 162.691 144.822 161.297 143.12 160.058C141.341 158.742 139.407 157.736 137.395 156.961C131.206 154.561 124.785 153.709 118.131 154.174C116.661 154.251 115.268 154.406 113.799 154.638C110.085 155.103 106.371 155.645 102.58 156.187C102.116 156.264 101.729 156.342 101.265 156.729C101.807 156.806 102.348 156.961 102.89 157.039C105.134 157.426 107.454 157.736 109.698 158.2C112.947 158.82 115.81 160.368 118.131 162.691C119.214 163.775 120.22 165.014 121.226 166.33C122.386 167.801 123.392 169.35 124.475 170.821C125.171 171.75 126.022 172.679 126.796 173.531C128.575 175.466 130.742 176.55 133.295 177.092C134.997 177.48 136.621 177.867 138.324 178.254C142.579 179.338 145.983 181.815 148.458 185.377C148.613 185.609 148.845 185.919 149 186.151C149.155 186.074 149.232 186.074 149.387 185.997C149.464 185.609 149.464 185.145 149.387 184.68ZM58.4044 120.416C58.7139 123.358 59.2555 126.3 60.1065 129.165C60.416 130.249 61.0349 131.023 62.0407 131.565C63.3559 132.262 64.6711 132.727 66.141 133.036C71.4793 134.275 76.8175 134.817 82.3105 134.662C87.3393 134.507 92.3681 133.965 97.3195 133.036C101.575 132.262 105.752 131.488 110.008 130.713C113.257 130.094 116.506 129.707 119.833 129.475C124.63 129.087 129.349 129.629 133.991 130.946C138.091 132.107 141.728 134.043 144.745 137.604C144.668 136.908 144.668 136.598 144.59 136.288C144.126 135.127 143.584 133.965 143.12 132.804C142.579 131.488 141.65 130.481 140.412 129.784C136.389 127.539 132.134 125.913 127.647 125.061C123.856 124.364 120.065 123.9 116.197 124.132C112.87 124.287 109.621 124.519 106.294 124.829C101.188 125.216 96.0043 125.758 90.8982 126.145C86.9525 126.455 82.9295 126.377 78.9838 126.068C76.1212 125.835 73.3361 125.448 70.5509 124.829C66.5279 123.9 62.8143 122.196 59.5649 119.641C59.3328 119.486 59.1781 119.332 58.946 119.177C58.8686 119.177 58.7913 119.177 58.4818 119.099C58.3271 119.486 58.4044 119.951 58.4044 120.416ZM39.9139 42.3687C39.4497 42.2138 38.9082 42.059 38.444 41.9041C31.7132 39.8136 25.5239 36.4842 20.1083 31.916C18.6383 30.6772 17.3231 29.2835 16.1626 27.7349C15.9305 27.4252 15.6984 27.1155 15.4663 26.8832C14.9247 26.9606 14.9247 27.3478 14.8474 27.6575C14.4606 29.748 14.1511 31.8386 13.6869 33.9291C13.4548 35.0905 13.5322 36.1745 13.6869 37.2585C14.6153 42.059 16.7041 46.2401 19.9535 49.8792C23.5124 53.9828 27.9222 56.7702 33.0284 58.6285C35.3494 59.4802 37.6703 60.0996 40.0687 60.7964C42.7765 61.5707 45.5617 62.1901 48.1921 63.429C48.2695 63.5064 48.4242 63.429 48.811 63.429C45.0201 56.6154 42.5444 49.492 39.9139 42.3687ZM33.9568 84.5666C34.7304 85.6506 35.6588 86.5798 36.5872 87.5863C43.2407 94.4773 51.5189 98.1164 60.7254 99.9747C68.6168 101.601 76.5081 101.214 84.3994 99.8199C86.7204 99.4327 89.0414 98.9681 91.4397 98.5036C95.308 97.7293 99.2537 97.1873 103.277 97.3422C103.431 97.3422 103.509 97.2647 103.664 97.2647C103.818 96.8002 103.431 96.7227 103.199 96.6453C101.575 95.9485 99.8726 95.2516 98.2479 94.7096C95.1533 93.6257 91.9813 92.6191 88.8093 91.6125C88.0356 91.3803 87.1072 91.2254 86.2562 91.148C83.6258 90.9931 80.9953 91.2254 78.3649 91.5351C75.8892 91.8448 73.4134 92.1545 70.8604 92.3094C59.1007 93.0062 48.1921 90.2963 37.9024 84.6441C36.4325 83.7924 35.0399 82.7084 33.6473 81.7018C33.2605 81.3921 32.7963 81.0824 32.1 80.5404C32.3321 82.3213 33.1057 83.4827 33.9568 84.5666ZM180.256 136.056C179.328 139.153 177.471 141.631 175.304 143.876C173.68 145.579 171.823 147.128 170.044 148.677C166.407 151.696 162.539 154.561 159.444 158.2C157.82 160.058 156.195 162.071 154.802 164.085C152.791 167.104 151.708 170.511 150.857 173.995C150.083 177.247 150.315 180.422 151.012 183.596C151.012 183.674 151.166 183.751 151.244 183.829C151.321 183.751 151.476 183.674 151.476 183.596C151.553 183.364 151.631 183.054 151.631 182.822C152.404 176.318 155.421 170.898 159.754 166.175C161.843 163.852 164.396 162.226 167.336 161.297C168.96 160.755 170.663 160.446 172.287 160.058C174.376 159.594 176.465 159.207 178.477 158.665C180.179 158.278 181.726 157.658 183.196 156.574C184.434 155.645 185.207 154.484 185.439 152.935C185.594 151.851 185.594 150.69 185.594 149.606C185.362 146.044 184.434 142.715 182.964 139.463C182.345 138.069 181.649 136.753 180.875 135.204C180.488 135.591 180.333 135.824 180.256 136.056ZM73.8776 86.0378C70.783 84.6441 67.8431 83.0955 65.0579 81.1598C63.5879 80.1533 62.1954 79.0693 60.8028 77.9079C58.095 75.5851 55.1551 73.7268 51.9057 72.488C49.7394 71.6363 47.4958 71.0169 45.3296 70.32C43.6275 69.778 41.8481 69.4683 40.146 69.0037C36.123 67.9972 32.3321 66.6035 28.6959 64.7452C28.3864 64.5904 28.0769 64.5129 27.7675 64.4355C27.7675 64.4355 27.6901 64.5129 27.6128 64.5129C27.6128 64.5904 27.5354 64.7452 27.6128 64.8227C28.6959 66.6035 29.5469 68.4617 30.0885 70.3974C30.3205 71.1717 30.7074 71.7911 31.2489 72.4106C35.4267 76.9788 40.3781 80.463 45.9485 82.9407C51.5962 85.4958 57.5534 86.9669 63.8201 87.0443C67.5336 87.0443 71.2472 87.1218 74.8834 87.1218C75.0381 87.1218 75.1929 87.0443 75.5023 86.9669C74.9608 86.3475 74.3418 86.27 73.8776 86.0378ZM136.621 117.783C136.157 115.15 136.08 112.518 136.235 109.885C136.389 107.175 136.621 104.465 136.776 101.756C137.163 96.0259 136.931 90.3737 136.08 84.7215C135.616 81.4696 134.687 78.295 133.372 75.1979C133.217 74.8882 133.063 74.5785 132.908 74.3462C131.438 73.8817 129.891 73.572 128.498 73.03C127.183 72.488 125.945 71.6363 124.552 70.862C124.552 71.1717 124.552 71.404 124.63 71.5588C127.028 76.6691 128.189 82.089 128.808 87.5863C129.581 94.6322 130.277 101.678 130.974 108.724C131.051 109.808 131.206 110.815 131.283 111.899C131.361 112.905 131.67 113.757 132.444 114.531C133.759 115.925 134.997 117.396 136.235 118.79C136.312 118.79 136.467 118.712 136.544 118.712C136.621 118.402 136.621 118.093 136.621 117.783ZM36.5099 32.3031C35.272 29.2835 33.8794 26.4187 32.1773 23.6313C30.63 21.1536 28.6959 18.9856 26.607 16.9725C21.4235 12.0172 15.3889 8.14579 8.81279 5.28098C8.5807 5.20355 8.3486 5.12613 8.03913 5.04871C7.96177 5.04871 7.9618 5.12612 7.7297 5.20355C7.88443 5.43583 8.03917 5.74553 8.27127 5.90039C9.04493 6.90694 9.89596 7.83609 10.5923 8.84264C13.2227 12.714 16.0852 16.4305 18.4835 20.4568C20.7272 24.1733 23.5124 27.5801 26.8391 30.4449C29.8564 33.0774 33.0284 35.4002 36.6646 37.1036C37.0514 37.3359 37.5156 37.4133 38.2119 37.7231C37.8251 35.5551 37.1288 33.9291 36.5099 32.3031ZM49.5074 22.7021C51.5189 27.1929 52.9114 31.916 53.6077 36.7939C54.1493 40.5879 54.5361 44.3818 54.923 48.2532C55.3872 52.744 56.0834 57.1574 56.9345 61.5707C57.9402 66.7584 59.8744 71.5588 62.5822 76.1271C63.5106 77.5982 64.5937 78.9145 66.141 79.7662C67.4563 80.5404 68.6168 81.4695 70.2414 82.1664C69.932 81.1598 69.3131 80.6179 68.8489 79.9984C66.6826 77.2885 64.9805 74.2688 63.7427 71.0943C62.5822 68.0746 61.7312 64.9775 61.1896 61.7256C60.648 58.0865 60.3386 54.37 60.1839 50.6534C60.0291 47.7112 59.797 44.6915 59.5649 41.7493C59.1781 37.0262 57.6308 32.6129 55.3871 28.4318C53.7625 25.4895 51.9057 22.6247 49.5074 20.2245C48.8884 19.605 48.2695 19.0631 47.6505 18.4436C47.5732 18.5211 47.4958 18.5985 47.4185 18.6759C48.1148 19.9922 48.8884 21.3085 49.5074 22.7021ZM150.702 170.821C151.94 166.33 154.416 162.459 157.433 159.052C159.909 156.264 162.539 153.632 165.402 151.309C167.955 149.296 170.43 147.205 172.829 145.115C174.84 143.334 176.542 141.321 177.935 139.076C178.709 137.837 179.328 136.52 179.637 135.049C179.869 134.12 179.714 133.268 179.25 132.339C178.554 131.023 178.012 129.707 177.393 128.391C177.161 127.926 176.929 127.461 176.62 126.765C176.388 127.307 176.233 127.539 176.156 127.849C175.382 131.023 173.757 133.81 171.823 136.443C169.502 139.54 166.794 142.173 164.009 144.883C161.069 147.67 158.052 150.303 155.421 153.4C153.41 155.722 151.863 158.278 150.625 161.142C150.083 162.381 149.774 163.62 149.851 165.014C149.928 166.795 149.851 168.575 149.928 170.356C149.928 170.743 150.006 171.13 150.006 171.44C150.083 171.44 150.238 171.44 150.315 171.44C150.547 171.363 150.625 171.13 150.702 170.821ZM149.31 141.011C150.625 136.056 152.482 131.333 154.88 126.842C156.427 123.9 158.052 121.035 159.522 118.093C161.301 114.686 162.849 111.202 164.164 107.563C165.711 102.994 166.562 98.3487 166.253 93.5482C166.098 90.1414 165.324 86.8895 164.086 83.7149C163.545 82.3987 162.849 81.2373 161.533 80.5404C160.373 79.8436 159.29 79.1467 158.207 78.4499C157.975 78.295 157.665 78.2176 157.356 78.0627C156.969 78.4499 157.278 78.6047 157.433 78.7596C161.92 85.4183 163.158 92.7739 161.998 100.517C161.456 104.233 160.373 107.717 158.98 111.202C157.665 114.531 156.118 117.783 154.725 121.035C153.642 123.59 152.482 126.068 151.398 128.7C149.696 132.881 149 137.372 149.077 141.94C149.155 141.631 149.232 141.321 149.31 141.011ZM78.9838 88.3606C76.7402 88.1283 74.4966 87.9735 72.2529 87.896C69.1583 87.8186 66.0637 87.896 62.969 87.8186C52.4472 87.5089 43.2407 83.7924 35.1172 77.2885C33.6473 76.1271 32.4095 74.8108 30.9395 73.4945C30.8621 73.8042 30.7074 74.0365 30.7848 74.2688C30.9395 75.4302 31.0942 76.5916 31.2489 77.8305C31.3263 78.6047 31.7132 79.1467 32.2547 79.6887C34.1889 81.3147 36.123 82.8632 38.3666 84.1021C48.6563 89.7543 59.6423 92.3868 71.4019 91.5351C73.4134 91.3803 75.3476 91.148 77.2817 90.9157C79.2932 90.6834 81.3821 90.4511 83.3937 90.2189C82.0011 89.2123 80.6085 88.5154 78.9838 88.3606ZM150.393 146.199C152.172 139.308 155.035 132.881 158.748 126.765C160.373 124.055 162.075 121.345 163.622 118.557C166.098 114.221 167.877 109.576 168.96 104.698C170.044 99.8973 170.276 95.0968 169.734 90.2963C169.657 89.6768 169.579 89.1349 169.502 88.5154C169.347 87.354 168.883 86.4249 167.877 85.6506C167.181 85.1086 166.485 84.4118 165.788 83.7924C165.634 83.6375 165.324 83.5601 164.937 83.3278C165.17 84.0246 165.247 84.4118 165.402 84.7989C167.491 90.6834 167.645 96.7227 166.33 102.84C165.556 106.479 164.319 109.963 162.694 113.37C160.528 117.783 158.284 122.119 155.963 126.455C153.797 130.559 152.017 134.817 150.625 139.23C149.928 141.476 149.619 143.721 149.619 146.044C149.619 146.354 149.696 146.663 149.696 146.973C149.774 146.973 149.928 147.051 150.006 147.051C150.161 146.818 150.315 146.509 150.393 146.199ZM13.5322 46.8595C13.6869 47.5564 14.1511 48.1758 14.6152 48.7178C16.7041 51.5051 19.2572 53.9054 22.0424 56.1508C25.9107 59.2479 30.0885 61.6481 34.6531 63.5064C36.5872 64.2807 38.5987 65.0549 40.6103 65.6744C44.4786 66.8358 48.3469 67.9197 52.4473 69.0812C52.2925 68.6166 52.2925 68.3843 52.1378 68.2295C51.8283 67.7649 51.5189 67.3778 51.2868 66.9132C50.6678 65.9066 49.8168 65.2098 48.811 64.6678C47.1864 63.7387 45.4843 63.1193 43.7049 62.5773C41.3839 61.8804 38.9855 61.261 36.6646 60.6416C32.7963 59.5576 29.1601 58.009 25.8333 55.8411C20.1856 52.1246 16.1626 47.0918 13.919 40.6653C13.7642 40.2782 13.6869 39.9684 13.5322 39.5813C12.8359 42.059 12.9132 44.4593 13.5322 46.8595ZM130.432 110.505C129.659 102.917 128.962 95.3291 128.111 87.8186C127.647 83.4052 126.796 79.0693 125.171 74.8882C123.856 71.6363 122.464 68.4617 120.452 65.5195C119.137 63.5838 118.054 61.5707 116.816 59.635C115.965 58.3188 114.882 57.0799 113.876 55.9185C113.566 55.5314 113.025 55.2991 112.329 54.6797C113.334 56.0733 114.108 57.1573 114.804 58.2413C118.286 63.429 120.607 69.0812 122.309 75.0431C124.088 81.2373 125.171 87.5863 126.022 93.9354C126.487 97.4196 126.951 100.904 127.57 104.311C127.956 106.479 128.575 108.569 129.117 110.66C129.272 111.202 129.426 111.821 130.432 112.131C130.432 111.434 130.432 110.969 130.432 110.505ZM38.8308 38.9619C38.5988 38.807 38.444 38.6522 38.2119 38.6522C32.951 36.4068 28.4638 33.1548 24.4407 29.206C21.5782 26.4187 19.3346 23.1667 17.1684 19.8373C16.3947 18.6759 15.6984 17.5145 14.77 16.0434C14.6926 16.5854 14.6153 16.8951 14.6926 17.05C15.3116 19.2179 15.4663 21.4633 15.3116 23.7087C15.2342 24.6378 15.4663 25.3347 16.0079 26.1089C17.5552 28.4318 19.4893 30.3675 21.7329 32.1483C26.5296 36.0197 31.8679 38.807 37.6704 40.8202C38.1346 40.975 38.6761 41.1299 39.5271 41.3622C39.2177 40.2782 39.0629 39.5813 38.8308 38.9619ZM73.2587 81.6244C68.0752 75.2754 64.7485 68.0746 64.2069 59.8673C63.9748 57.0025 64.0521 54.2151 63.8974 51.3503C63.82 49.3372 63.6653 47.4015 63.5106 45.3884C63.3559 43.8398 62.969 42.4461 61.8085 41.2847C61.267 40.7427 60.9575 39.9685 60.1839 39.2716C60.1839 39.891 60.1839 40.2007 60.1839 40.5104C60.416 44.227 60.648 47.866 60.9575 51.5826C61.1896 54.7571 61.4217 57.9316 61.8859 61.0287C62.5048 65.9066 63.9748 70.6297 66.3731 74.9656C68.0752 78.1402 70.1641 81.005 73.0266 83.3278C73.8776 84.0246 74.6513 84.6441 76.1212 84.9538C74.9607 83.6375 74.1098 82.631 73.2587 81.6244ZM55.6966 72.7203C54.6135 70.7846 52.7567 69.9329 50.7452 69.3909C48.7337 68.8489 46.6448 68.2295 44.6333 67.6875C39.7592 66.3712 35.0399 64.7452 30.5527 62.4224C25.4465 59.8673 20.8819 56.5379 16.7815 52.4343C16.7042 52.3568 16.5494 52.2794 16.3173 52.202C17.0136 53.6731 18.1741 54.5248 19.1799 55.5314C20.8819 57.3122 22.7387 59.093 24.5181 60.7964C25.2144 61.4159 25.9107 62.0353 26.6844 62.4998C30.4753 64.9001 34.5757 66.5261 38.8308 67.6875C40.6876 68.152 42.5444 68.6166 44.4012 69.0812C48.1147 69.9329 51.6736 71.1717 55.0003 72.8751C55.1551 72.9525 55.3872 72.9525 55.6966 73.03C55.6966 72.8751 55.6966 72.7977 55.6966 72.7203Z" fill="url(#paint0_linear_318_1084)"/>
<defs>
<linearGradient id="paint0_linear_318_1084" x1="3.3665" y1="115.367" x2="186.177" y2="110.817" gradientUnits="userSpaceOnUse">
<stop stop-color="#A5845A"/>
<stop offset="0.0919473" stop-color="#BA9D71"/>
<stop offset="0.239" stop-color="#D8BF91"/>
<stop offset="0.3187" stop-color="#E3CC9D"/>
<stop offset="0.3248" stop-color="#E1CA9B"/>
<stop offset="0.4975" stop-color="#B39864"/>
<stop offset="0.6262" stop-color="#967941"/>
<stop offset="0.6957" stop-color="#8B6D34"/>
<stop offset="0.7947" stop-color="#8E6F38"/>
<stop offset="0.893" stop-color="#967744"/>
<stop offset="0.9907" stop-color="#A38358"/>
<stop offset="1" stop-color="#A5845A"/>
</linearGradient>
</defs>
</svg>
