<svg width="139" height="123" viewBox="0 0 139 123" fill="none" xmlns="http://www.w3.org/2000/svg">
<path d="M134.906 120.606C132.895 121.303 130.883 121.767 128.717 121.767C126.551 121.767 124.307 121.535 122.141 121.457C121.135 121.38 120.129 121.303 119.046 121.225C116.493 121.07 114.017 121.535 111.542 122.387C110.923 122.619 110.381 122.851 109.762 123.083C107.596 124.013 105.352 124.632 103.031 125.174C101.329 125.561 99.6273 126.026 97.9252 126.568C94.8306 127.574 92.4323 129.432 90.5755 132.142C88.4092 135.317 86.7845 138.646 85.7788 142.285C85.0825 144.84 84.4635 147.396 83.8446 149.951C83.7673 150.26 83.6899 150.648 83.6125 150.957C83.5352 151.732 83.1483 152.196 82.452 152.428C80.6726 153.048 79.1253 154.054 77.7327 155.293C77.5006 155.448 77.2685 155.68 77.0364 155.835C77.0364 155.835 76.959 155.835 76.8817 155.835C76.8043 155.216 76.8043 155.216 76.959 154.674C77.5006 153.203 78.1195 151.732 78.5063 150.26C79.1253 147.938 79.5895 145.537 80.1311 143.137C80.2858 142.44 80.131 141.666 80.2084 140.969C80.2084 140.117 80.131 139.188 80.2084 138.337C80.3631 135.394 81.6784 132.917 83.8446 130.904C85.3146 129.587 87.0166 128.581 88.7187 127.652C92.3549 125.638 95.2948 122.774 97.5384 119.212C98.0026 118.438 98.5442 117.663 98.931 116.812C100.401 114.257 101.407 111.547 102.645 108.837C102.722 108.682 102.722 108.527 102.722 108.295C102.49 108.372 102.335 108.372 102.18 108.45C100.865 109.224 99.4726 109.688 97.9252 109.998C97.6932 110.076 97.461 110.076 97.2289 110.153C93.5154 110.927 90.8076 113.018 88.8734 116.27C87.4808 118.593 86.6298 121.148 85.9335 123.703C85.5467 125.096 85.2372 126.413 84.8504 127.806C84.773 128.271 84.6183 128.658 84.1541 128.89C81.601 130.594 80.0537 133.072 79.2027 135.936C79.2027 135.936 79.1253 136.014 79.0479 136.091C78.9706 135.936 78.8158 135.781 78.8158 135.627C77.8101 131.6 76.1854 127.884 74.3286 124.167C73.1681 121.845 72.085 119.367 70.9245 117.044C70.5377 116.192 70.3829 115.418 70.4603 114.489C70.6924 108.372 72.7813 103.03 77.5006 99.0034C78.8932 97.842 80.3632 96.758 81.9105 95.8289C83.6125 94.8224 85.3146 93.8932 86.9393 92.8867C88.5639 91.8801 90.1886 90.8736 91.6586 89.7122C92.7417 88.9379 93.7475 87.9313 94.6759 87.0022C96.9195 84.7568 98.312 82.0468 99.0083 78.9497C99.3952 77.1689 99.782 75.3107 100.246 73.5298C100.865 71.0521 102.103 68.8842 103.728 66.9485C104.424 66.0968 105.198 65.2451 105.894 64.3934C107.364 62.69 108.602 60.8317 109.375 58.6637C109.994 57.0378 110.381 55.4118 110.459 53.7084C110.613 51.6179 110.768 49.5273 110.845 47.4368C111 45.114 111.387 42.8686 111.928 40.6232C112.857 36.6744 114.404 33.0353 116.261 29.4736C116.493 29.0091 116.648 28.6219 116.88 28.1574C116.88 28.1574 116.88 28.0799 116.803 27.9251C116.493 28.1574 116.184 28.3896 115.874 28.6994C114.327 30.1705 112.78 31.5641 111.31 33.0353C108.37 35.9001 105.043 37.9906 101.097 39.1521C99.1631 39.694 97.3063 40.3909 95.4495 41.1651C91.0397 42.946 87.5582 45.9657 84.773 49.7596C83.922 50.921 83.303 52.3147 82.7615 53.631C82.452 54.4052 82.2199 55.1795 81.9105 55.9538C81.0594 58.1218 79.8989 60.0575 78.5063 61.9157C77.3459 63.3868 76.2627 64.8579 75.257 66.4065C74.0191 68.1873 73.1681 70.123 72.3944 72.1361C71.466 74.7686 71.2339 77.4786 71.2339 80.1886C71.1566 85.2988 72.1623 90.2542 73.6323 95.2095C74.0191 96.6032 74.4833 97.9969 74.9475 99.468C73.4776 101.249 72.0076 103.03 71.0792 105.275C70.1508 107.443 69.6093 109.688 69.1451 112.166C68.6809 111.624 68.6035 111.16 68.4488 110.772C66.6693 105.507 65.6636 100.087 65.5089 94.5901C65.4315 91.8801 65.3541 89.2476 65.1994 86.5376C65.0447 84.6019 64.7352 82.6663 64.3484 80.7306C63.4973 76.5495 64.1163 72.6007 65.8183 68.7293C66.7467 66.5613 67.9846 64.6257 69.5319 62.8448C70.6924 61.4511 71.8529 60.0574 73.0134 58.7412C73.4002 58.2766 73.787 57.7346 74.2512 57.2701C76.1854 54.9472 77.2685 52.2373 77.5006 49.295C77.8101 45.9656 78.0422 42.5588 78.2743 39.2295C78.3516 38.1455 78.429 36.9841 78.5063 35.9001C78.5063 35.7452 78.5064 35.513 78.429 35.2033C78.1969 35.2807 77.9648 35.3581 77.8874 35.4355C75.9533 37.0615 74.2512 38.8423 72.8586 40.9329C71.8529 42.5588 70.615 44.03 69.3772 45.4237C68.6035 46.2754 67.9846 47.2045 67.2883 48.0562C65.6636 50.2242 65.0447 52.7018 64.8126 55.3344C64.5805 58.8186 64.8899 62.148 65.8957 65.5548C64.1936 68.5745 62.801 71.8264 62.6463 75.6204C62.4142 75.3106 62.1821 75.2332 62.1821 75.0784C61.3311 73.1427 60.4027 71.207 59.629 69.1939C58.6233 66.7162 58.3912 64.0837 58.778 61.4511C59.0101 59.5929 59.3196 57.812 59.629 55.9538C60.1706 52.547 60.7122 49.1402 60.8669 45.656C61.0216 41.1652 60.5574 36.7518 59.0101 32.5707C57.3854 28.0799 54.6776 24.5183 50.8093 21.8083C48.1015 19.95 45.239 18.4015 42.299 16.9304C39.2044 15.3044 36.0324 13.7559 32.9378 12.0525C28.76 9.80706 25.0464 6.8648 21.565 3.61285C20.5592 2.60629 19.4761 1.67718 18.4703 0.748047C18.0835 0.902902 18.1608 1.13517 18.1608 1.36746C18.3929 5.85825 19.3987 10.2716 21.1008 14.4527C21.8744 16.3884 22.5707 18.2466 23.4217 20.1823C25.0464 23.744 25.7427 27.5379 25.5106 31.4093C25.4332 33.345 25.3559 35.3581 25.5106 37.2938C25.8201 42.3266 27.4448 46.9722 30.6168 50.921C32.783 53.5535 35.5682 55.2569 38.8176 56.2635C41.2159 56.9603 43.6143 57.5023 46.09 57.8895C48.1015 58.1992 50.0356 58.5863 51.8924 59.2832C53.0529 59.6703 54.2134 60.1349 55.1418 60.8317C55.6834 61.2189 56.1476 61.6834 56.6891 62.148C57.076 62.5351 57.3081 62.9997 57.3081 63.6191C57.2307 66.4065 58.0044 69.039 59.0875 71.5167C59.5517 72.5233 59.9385 73.5298 60.4027 74.4589C62.801 78.9497 63.7294 83.8277 63.8842 88.8604C63.9615 91.493 64.0389 94.1255 64.1936 96.758C64.5805 103.185 66.2052 109.379 68.5261 115.341C69.8414 118.67 71.3113 121.922 72.936 125.096C74.3286 127.806 75.5665 130.516 76.4949 133.459C77.578 136.943 78.2742 140.427 78.1195 144.144C78.0422 146.466 77.578 148.712 76.8817 150.88C75.9533 153.435 74.9475 155.99 73.9418 158.545C73.8644 158.7 73.787 158.855 73.6323 159.165C73.4776 158.855 73.4002 158.7 73.4002 158.545C73.4776 155.216 72.3944 152.119 70.8471 149.176C70.0735 147.783 69.3772 146.312 68.6809 144.84C67.2883 141.976 66.2825 138.956 65.9731 135.781C65.5862 132.142 65.2768 128.503 64.9673 124.864C64.8126 122.851 64.5031 120.915 64.0389 118.98C63.6521 117.431 63.1105 115.883 62.569 114.411C60.7122 109.688 57.4628 106.282 52.8208 104.191C50.5772 103.185 48.2562 102.255 45.9353 101.249C44.5427 100.629 43.1501 100.087 41.7575 99.468C39.127 98.2292 36.8834 96.6032 34.8719 94.5901C34.0209 93.7384 33.1699 92.8092 32.3188 91.9575C31.1583 90.7961 29.9979 89.5573 28.8374 88.4733C26.2069 85.9182 23.0349 84.3697 19.6308 83.3631C16.8456 82.5114 14.1378 81.7371 11.43 80.7306C9.65059 80.0337 7.87117 79.4143 6.01438 79.0272C5.55019 78.9497 5.08598 78.8723 4.62178 78.7949C4.62178 79.0272 4.54443 79.1046 4.54443 79.182C6.24649 81.5048 7.09749 84.2148 7.71642 87.0022C8.02589 88.6282 8.18062 90.2541 8.49008 91.9575C8.87691 94.0481 9.10901 96.1386 9.65057 98.1517C10.8111 103.262 13.2868 107.598 17.0777 111.16C19.1666 113.095 21.565 114.566 24.1954 115.728C25.6654 116.425 27.2127 117.199 28.6053 118.051C30.5394 119.289 32.0867 120.915 33.2472 122.851C34.1756 124.477 35.1814 126.18 36.1098 127.806C38.4307 131.91 41.9122 134.775 46.3221 136.323C47.6373 136.788 48.9525 137.175 50.2677 137.485C54.0587 138.259 57.927 138.956 61.7953 139.73C62.7237 139.885 63.6521 140.117 64.5031 140.35C65.4315 140.582 66.0504 141.124 66.4373 142.131C67.1336 143.989 67.9846 145.692 68.8356 147.473C69.3772 148.557 69.9187 149.641 70.4603 150.725C72.085 153.822 72.5492 157.074 72.3944 160.481C72.3171 162.571 71.9302 164.662 71.2339 166.675C70.8471 167.759 70.615 168.843 70.3829 169.85C70.0734 169.927 69.9961 169.772 69.9187 169.54C69.8414 169.385 69.8414 169.153 69.764 168.998C69.0677 166.52 67.8298 164.275 66.1278 162.417C64.6578 160.791 63.2653 159.087 62.1048 157.151C61.2537 155.758 60.4801 154.364 59.7064 152.97C59.0101 151.732 58.3138 150.415 57.5402 149.099C56.0702 146.621 54.2134 144.376 52.1245 142.44C51.5056 141.821 50.8093 141.356 49.9583 140.892C49.0299 140.427 48.1015 139.808 47.1731 139.266C46.941 139.111 46.6316 139.111 46.3221 139.033C46.3995 139.421 46.3994 139.653 46.3994 139.885C46.7089 141.356 46.7089 142.827 46.6316 144.298C46.4768 147.55 47.2505 150.493 48.8752 153.28C50.4225 155.99 52.5114 158.39 55.0644 160.171C56.9212 161.487 58.778 162.726 60.7895 163.733C61.8727 164.352 63.0332 164.972 64.1163 165.591C66.0504 166.675 67.3656 168.301 68.2167 170.392C69.1451 172.792 69.6093 175.269 69.5319 177.825C69.3772 182.16 69.764 186.419 70.615 190.6C70.6924 191.142 70.9245 191.607 71.0792 192.149C71.1566 192.381 71.3887 192.536 71.6981 192.458C71.8529 192.381 72.0076 192.226 72.0076 192.071C72.0076 191.762 72.0076 191.529 71.9302 191.219C71.0792 186.806 70.6924 182.47 70.7697 177.979C70.8471 173.024 71.8529 168.224 73.7097 163.578C73.9418 162.881 74.3286 162.262 74.4833 161.565C74.7154 160.791 75.1796 160.094 75.7985 159.474C76.5722 158.7 77.3459 157.848 78.1969 157.074C80.4405 154.983 83.0709 153.667 86.0882 153.125C87.4034 152.893 88.796 152.738 90.1113 152.428C91.968 152.041 93.8248 151.732 95.6816 151.267C98.5442 150.57 100.943 149.022 103.031 146.931C103.882 146.002 104.733 145.073 105.584 144.144C106.668 142.982 107.673 141.821 108.679 140.659C110.613 138.491 112.934 136.865 115.642 135.627C117.886 134.62 120.129 133.691 122.373 132.684C124.926 131.523 127.324 130.207 129.568 128.503C131.193 127.264 132.585 125.871 133.823 124.245C134.442 123.393 135.061 122.464 135.68 121.612C135.912 121.303 136.067 121.07 136.144 120.606C135.68 120.373 135.293 120.451 134.906 120.606Z" fill="#0A4156"/>
<path d="M138.388 99.5454C137.924 100.552 137.537 101.481 137.073 102.488C136.222 104.268 135.061 105.972 133.746 107.443C131.889 109.534 129.723 111.314 127.479 112.863C125.468 114.257 123.456 115.65 121.445 117.044C119.046 118.67 117.035 120.761 115.565 123.316C114.791 124.632 113.94 126.026 113.166 127.342C112.47 128.426 111.851 129.51 111.155 130.594C109.53 133.071 107.441 135.007 104.734 136.246C103.032 137.02 101.252 137.795 99.4727 138.491C98.2348 139.033 96.9196 139.421 95.6044 139.885C92.7418 140.969 90.4208 142.75 88.6414 145.305C88.0225 146.234 87.4035 147.163 86.7846 148.092C86.3204 148.789 86.011 149.564 85.8562 150.415C85.7789 151.112 85.5468 151.886 85.4694 152.583C84.541 157.461 84.4636 162.339 85.3147 167.294C86.0883 171.708 87.2488 175.966 88.9509 180.07C89.0282 180.302 89.183 180.612 89.183 180.922C89.183 181.076 89.0282 181.309 88.9509 181.386C88.7188 181.541 88.4867 181.464 88.3319 181.231C88.0998 180.767 87.7904 180.302 87.6356 179.76C85.9336 175.811 84.7731 171.63 84.1542 167.372C83.7673 164.817 82.8389 162.494 81.4464 160.326C80.2085 158.468 78.5838 157.151 76.4949 156.377C75.3345 155.99 74.0966 155.525 72.8587 155.138C70.6925 154.519 68.6036 153.667 66.5921 152.738C63.7295 151.422 61.2538 149.486 59.1649 147.086C57.0761 144.686 55.7608 141.898 55.2966 138.724C55.0645 137.253 54.8325 135.859 54.2135 134.465C54.1362 134.233 54.0588 134.001 53.9814 133.691C54.3683 133.691 54.6003 133.691 54.9098 133.768C55.9156 134.078 56.9213 134.465 57.9271 134.775C58.7781 135.007 59.5518 135.394 60.3254 135.859C62.8011 137.407 65.0448 139.188 66.9015 141.356C67.8299 142.44 68.7583 143.602 69.6867 144.763C70.6925 146.002 71.7756 147.241 72.8587 148.402C74.3287 150.028 76.0308 151.422 77.8102 152.815C79.8991 154.364 81.4464 156.3 82.6068 158.623C82.6842 158.777 82.7616 159.01 82.839 159.165C82.9163 159.319 82.9937 159.552 83.3032 159.397C83.3805 158.313 83.3805 157.229 83.5352 156.067C83.8447 153.977 83.7674 151.886 83.4579 149.796C82.9937 146.389 81.8332 143.292 79.6669 140.582C78.8933 139.653 78.1196 138.646 77.4234 137.717C76.2629 136.169 75.1024 134.543 74.0966 132.917C73.555 131.988 72.8587 131.6 71.853 131.523C70.9246 131.446 69.9962 131.446 69.0678 131.446C65.1995 131.446 61.2538 131.446 57.3855 131.446C55.9929 131.446 54.6777 131.291 53.2851 131.058C48.6432 130.362 44.6975 128.271 41.6029 124.632C40.365 123.161 39.1271 121.767 37.8893 120.296C36.4193 118.593 34.5625 117.354 32.4737 116.425C30.9263 115.805 29.379 115.341 27.7544 114.953C24.9692 114.257 22.3387 113.327 19.9404 111.779C15.5305 108.992 12.2811 105.12 10.1923 100.397C9.34123 98.4614 8.64495 96.5258 7.94865 94.5126C7.32972 92.9641 6.86552 91.3381 6.24659 89.867C5.16346 87.2345 3.84825 84.7568 1.682 82.8211C1.60463 82.7437 1.682 82.6663 1.682 82.434C2.14619 82.434 2.61038 82.3565 3.07458 82.434C5.00873 82.5114 6.86553 82.8211 8.72231 83.1308C11.5849 83.5954 14.4474 83.9051 17.3099 84.1374C20.9461 84.5245 24.2729 85.4536 27.3675 87.4668C28.7601 88.3959 30.1527 89.325 31.4679 90.2541C32.4737 90.951 33.4794 91.6478 34.4852 92.3447C36.8835 93.9706 39.4366 95.132 42.2218 95.8289C43.6917 96.216 45.1617 96.4483 46.6317 96.758C49.03 97.3 51.5057 97.7646 53.9041 98.3066C58.8555 99.468 62.6464 102.255 65.4316 106.514C66.2826 107.83 67.0563 109.301 67.7526 110.695C68.6036 112.476 69.2225 114.411 69.8415 116.347C70.8472 119.831 71.853 123.393 72.9361 126.877C73.8645 129.974 75.3345 132.762 77.2686 135.317C78.2744 136.633 79.2028 137.872 80.2085 139.111C82.2974 141.743 83.8447 144.531 84.4636 147.86C84.4636 148.015 84.6184 148.17 84.8505 148.402C84.9278 148.092 85.0052 147.86 85.0826 147.705C85.5468 144.995 86.1657 142.363 86.5525 139.653C86.862 137.407 86.9394 135.085 86.5525 132.762C85.9336 129.123 84.6184 125.793 82.9163 122.619C81.4464 119.986 79.7443 117.509 77.8102 115.108C75.6439 112.321 73.555 109.379 71.6209 106.436C68.1394 101.017 65.3542 95.2869 63.8069 89.0153C63.188 86.4602 62.5691 83.9051 62.0275 81.2726C60.9444 76.3172 59.0102 71.749 55.8382 67.8002C55.1419 66.9485 54.6004 66.0968 53.9814 65.1676C52.4341 62.9222 51.1962 60.4446 50.7321 57.7346C50.6547 57.1926 50.3452 56.7281 49.881 56.4184C49.3395 56.0312 48.7205 55.6441 48.1016 55.4118C47.0185 54.8698 45.7806 54.6375 44.5428 54.4827C42.5313 54.2504 40.5197 54.173 38.5856 54.2504C36.1099 54.3278 33.6342 54.3278 31.1585 54.0955C27.7544 53.7084 24.7371 52.6244 22.1066 50.379C18.161 47.1271 15.7626 42.8686 14.5248 37.9906C14.0606 36.1324 13.6737 34.1967 13.4416 32.261C12.9001 28.3896 11.5075 24.828 9.26386 21.576C8.10337 19.8726 7.02025 18.1692 5.85976 16.4658C3.38405 12.6719 1.60463 8.56821 0.521507 4.15485C0.444141 3.92257 0.289419 3.69029 0.676249 3.45801C1.83674 4.15485 3.07458 4.92912 4.23507 5.62597C8.2581 8.18107 12.4359 10.349 17.0005 11.7427C20.3272 12.8267 23.7313 13.7559 27.058 14.7624C30.2301 15.6915 33.3247 16.6207 36.342 17.9369C40.6745 19.7952 44.0012 22.8149 46.4769 26.9185C48.7979 30.7899 50.0358 35.0484 50.8094 39.4618C51.351 42.8686 51.5057 46.3528 51.5831 49.837C51.6604 51.6953 51.7378 53.5535 51.8152 55.4118C51.9699 58.1218 52.6662 60.5994 54.1362 62.8448C55.2966 64.6256 56.5345 66.4065 57.7724 68.1099C57.8497 68.2647 58.0818 68.3422 58.3913 68.5745C57.8497 64.7805 58.6234 61.3737 59.7065 58.0443C58.0818 54.9472 57.1534 51.6178 56.6892 48.211C56.3798 45.5785 56.5345 43.0234 57.695 40.6232C58.1592 39.6166 58.7008 38.6101 59.2423 37.6035C60.1707 35.9775 61.0991 34.2741 61.7954 32.4933C62.7238 30.1705 64.1164 28.0799 65.6637 26.1442C65.7411 25.9894 65.9732 25.9119 66.2053 25.7571C66.2826 26.0668 66.36 26.2217 66.36 26.4539C66.5147 27.5379 66.5921 28.6993 66.7468 29.7833C67.1337 33.1127 67.5205 36.4421 67.9073 39.8489C68.2168 42.8686 67.6752 45.6559 66.2053 48.3659C65.8958 48.9079 65.5863 49.4499 65.2769 50.0693C64.4258 51.6178 63.4974 53.2438 62.6464 54.7924C61.4859 56.8055 60.6349 59.0509 60.0933 61.2963C59.165 65.3999 59.3197 69.4262 60.9444 73.375C61.718 75.1558 62.337 77.014 62.8785 78.8723C63.5748 81.4274 64.1164 84.0599 64.7353 86.6925C65.9732 92.1124 67.9847 97.2226 70.6925 102.023C70.9246 102.41 71.0793 102.797 71.6209 103.262C71.6209 100.707 71.6982 98.384 72.1625 96.1386C72.6266 93.8158 73.7871 91.8027 74.8703 89.7121C74.174 88.3184 73.4777 87.0796 72.7814 85.7633C70.4604 81.2725 68.5263 76.5495 67.5979 71.5167C67.1337 68.8067 66.8242 66.0968 67.211 63.3868C67.5205 61.2189 68.062 59.1283 68.9131 57.1926C69.6867 55.4892 70.4604 53.7858 71.234 52.1598C72.3172 50.0693 73.0135 47.9788 73.4777 45.6559C73.6324 44.8042 73.7871 44.03 73.8645 43.1783C74.0966 41.7071 74.4061 40.3134 75.1023 38.9972C77.1139 34.7387 79.9764 31.0996 83.9995 28.5445C85.7015 27.4605 87.4035 26.4539 89.183 25.5248C92.8192 23.6666 95.6817 20.9566 98.08 17.6272C99.2405 15.9238 100.556 14.2204 101.716 12.517C101.948 12.2073 102.18 11.8976 102.49 11.5879C102.567 11.7427 102.567 11.7427 102.567 11.8202C102.49 12.2847 102.335 12.7493 102.18 13.2139C101.02 17.0852 100.246 20.9566 100.092 24.9828C100.014 27.3056 100.014 29.551 100.324 31.8739C100.633 33.9644 100.865 36.0549 101.097 38.1455C101.329 39.8489 101.252 41.5523 100.943 43.2557C100.556 45.5011 99.7047 47.5916 98.6216 49.5273C98.0801 50.5339 97.5385 51.463 96.9969 52.4696C95.7591 54.7149 94.9854 57.0378 94.8307 59.5929C94.676 61.4511 94.6759 63.3094 94.5986 65.1676C94.5212 68.3422 93.6702 71.207 91.8908 73.8395C91.1171 75.0009 90.3435 76.0849 89.4151 77.0915C88.0999 78.4852 86.7846 79.8014 85.392 81.1177C83.9221 82.434 82.4521 83.6728 80.9822 84.9891C79.5896 86.1505 78.4291 87.5442 77.2686 88.9379C73.4003 93.8158 72.3172 99.468 73.2456 105.507C73.4003 106.359 73.7098 107.211 74.2513 107.908C75.7986 109.998 77.346 112.166 78.8933 114.257C81.369 117.509 83.69 120.915 85.4694 124.632C85.5468 124.787 85.7015 124.864 85.8562 125.019C85.9336 124.942 86.011 124.864 86.011 124.864C86.3204 121.845 87.4035 119.212 89.5698 117.044C89.8792 116.734 89.9566 116.27 90.034 115.883C90.1114 114.489 90.1887 113.018 90.3434 111.624C90.4982 108.914 90.885 106.282 91.8134 103.727C93.0513 100.165 95.3722 97.6097 98.8537 96.1386C99.0858 96.0612 99.3179 95.9063 99.55 95.8289C100.943 95.2869 102.258 94.5126 103.418 93.5061C103.573 93.4286 103.728 93.3512 103.96 93.2738C103.96 93.5061 104.037 93.6609 103.96 93.8158C103.264 96.6806 102.722 99.5454 101.794 102.333C101.484 103.185 101.175 104.114 100.865 104.965C99.3953 108.914 96.9969 112.166 93.8249 114.876C92.355 116.115 90.885 117.431 89.7245 118.98C87.9451 121.303 87.1715 124.012 87.5583 126.955C87.6357 127.806 87.8677 128.658 88.0225 129.51C88.1772 130.207 88.4093 130.981 88.4093 131.678C88.4093 134.155 88.3319 136.556 88.1772 138.956C88.0998 140.505 87.713 142.053 87.4809 143.602C87.4036 144.144 87.4035 144.144 87.6356 144.763C87.713 144.763 87.713 144.763 87.7904 144.686C88.0225 144.453 88.1772 144.221 88.3319 143.989C89.4924 142.518 90.8076 141.201 92.4323 140.272C93.1286 139.885 93.3607 139.343 93.3607 138.569C93.3607 138.259 93.3607 137.872 93.3607 137.562C93.5155 134.93 93.5928 132.297 93.7476 129.665C94.057 125.871 95.0628 122.309 96.5327 118.825C97.8479 115.805 99.8595 113.56 102.645 111.934C104.192 111.082 105.739 110.308 107.364 109.611C109.53 108.682 111.619 107.598 113.553 106.282C114.095 105.894 114.636 105.585 115.178 105.275C117.422 103.959 119.743 103.107 122.296 102.72C123.301 102.565 124.307 102.488 125.313 102.333C127.479 102.023 129.645 101.791 131.812 101.404C133.901 101.017 135.835 100.165 137.614 99.0809C138.001 98.8486 138.388 98.6937 138.852 98.384C138.62 98.926 138.465 99.2357 138.388 99.5454ZM74.9476 152.506L75.025 152.428C74.9476 152.351 74.7929 152.351 74.7155 152.273C74.5608 152.041 74.4834 151.809 74.3287 151.732C72.0851 149.718 70.0736 147.396 68.2168 145.073C67.5205 144.144 66.7468 143.292 65.9732 142.363C65.8184 142.13 65.5863 141.976 65.2769 141.743C65.2769 141.976 65.2769 142.13 65.2769 142.285C65.6637 143.524 65.9732 144.84 66.0505 146.157C66.0505 146.621 66.2053 147.008 66.5921 147.318C68.9904 149.254 71.5435 150.957 74.3287 152.351C74.4061 152.428 74.6382 152.351 74.7929 152.351C74.7929 152.351 74.8703 152.428 74.9476 152.506ZM21.6424 86.615C23.7313 88.0087 25.356 89.867 26.6712 92.035C27.7543 93.7384 28.6054 95.6741 29.4564 97.5323C30.3074 99.3906 31.1584 101.249 32.1642 103.03C32.9379 104.423 33.8663 105.74 34.7946 107.056C35.1815 107.598 35.6457 107.985 36.0325 108.45C36.5741 108.992 37.193 109.301 37.8893 109.534C40.365 110.153 42.8407 110.85 45.3938 111.547C46.5543 111.856 47.7148 112.244 48.9526 112.708C48.9526 112.398 48.9526 112.166 48.8753 112.011C48.3337 110.618 47.4827 109.301 46.4769 108.217C45.2391 106.901 44.0786 105.507 42.7634 104.268C40.2103 101.713 37.9667 98.8486 36.4193 95.5966C36.1099 94.9772 35.723 94.5901 35.1815 94.2029C33.5568 93.1964 32.0095 92.1124 30.4622 90.951C28.6827 89.7121 26.9807 88.4733 25.0465 87.4668C23.4219 86.615 22.4161 86.2279 21.0235 86.1505C21.2556 86.3053 21.4103 86.4602 21.6424 86.615ZM48.5658 99.7777C49.6489 100.552 50.8094 101.404 51.8925 102.178C53.8267 103.572 55.6061 105.198 57.1534 107.056C59.9386 110.23 61.3312 113.947 61.6407 118.128C61.6407 118.515 61.718 118.902 61.718 119.289C61.718 119.367 61.718 119.367 61.7954 119.522C65.6637 122.464 68.8357 126.258 72.3172 129.742C72.4719 129.587 72.5493 129.51 72.5493 129.51C71.002 125.174 69.9188 120.761 68.6036 116.347C67.9847 114.411 67.3658 112.476 66.4374 110.618C65.509 108.682 64.4258 106.978 63.1106 105.275C61.0217 102.72 58.3913 100.862 55.2966 99.8551C53.2851 99.1583 51.1963 98.6937 49.03 98.3066C48.4111 98.2292 47.7921 98.0743 46.9411 97.9194C47.4053 98.926 47.9469 99.3906 48.5658 99.7777ZM52.8209 114.257C53.7493 114.644 54.6777 115.108 55.6061 115.573C56.5345 116.037 57.3855 116.579 58.2366 117.121C59.0876 117.586 59.8612 118.283 60.7896 118.747C61.1765 118.438 61.0217 118.128 61.0217 117.896C60.7123 113.947 59.3197 110.54 56.7666 107.52C55.2193 105.74 53.5172 104.114 51.6605 102.72C50.5773 101.946 49.4942 101.171 48.4884 100.397C47.7148 99.8551 46.9411 99.1583 46.3995 98.3066C46.1674 97.9194 45.858 97.6872 45.3938 97.6097C44.6975 97.5323 44.0786 97.3 43.3823 97.1452C41.5255 96.758 39.8235 96.216 38.1214 95.5192C37.8893 95.4418 37.7346 95.3643 37.2704 95.2095C37.4251 95.6741 37.5025 95.9063 37.6572 96.1386C38.8951 98.4614 40.365 100.552 42.2218 102.41C43.3823 103.649 44.6201 104.888 45.7806 106.127C48.4884 108.992 48.7979 109.534 50.1905 113.018C50.8868 113.405 51.8926 113.792 52.8209 114.257ZM35.9551 35.9001C35.8004 35.6678 35.4909 35.5904 35.1815 35.513C33.3247 35.2807 31.6227 34.429 29.998 33.5773C29.3017 33.1901 28.6054 32.7256 27.8317 32.3384C25.8202 31.0996 23.6539 30.8673 21.333 31.3319C20.6367 31.4867 19.9404 31.6416 19.1667 31.7964C17.8515 32.1062 16.6136 32.4159 15.2984 32.4159C15.1437 32.4159 14.9116 32.4933 14.6795 32.5707C14.7568 33.1127 14.8342 33.5773 14.9116 34.0418C15.1437 35.3581 15.4532 36.6744 15.7626 38.068C15.84 38.5326 16.0721 38.9972 16.5363 39.2295C18.3157 40.5457 20.2498 41.3974 22.4161 41.7071C23.5766 41.862 24.6597 41.6297 25.7428 41.3974C27.0581 41.0877 28.3733 40.7006 29.6885 40.236C31.6227 39.6166 33.5568 38.9972 35.6457 38.9198C36.342 38.9198 36.9609 38.9198 37.9667 38.9198C37.2704 37.6809 36.6514 36.8292 35.9551 35.9001ZM76.1081 73.2201C77.8102 71.1296 80.0538 69.581 82.3747 68.1873C83.69 67.4131 85.0826 66.7162 86.4751 65.9419C88.0225 65.0902 89.4924 64.1611 90.6529 62.8448C91.3492 62.0705 92.0455 61.2189 92.5871 60.2897C93.1286 59.5154 93.4381 58.6638 93.5928 57.7346C93.7476 56.8829 93.9797 56.1086 94.1344 55.3344C94.2118 55.1021 94.2118 54.7924 94.2891 54.4052C94.057 54.4827 93.9023 54.4827 93.7476 54.5601C91.8908 55.9538 89.8019 56.6506 87.6356 57.3475C86.1657 57.8121 84.7731 58.2766 83.3805 58.8186C82.3747 59.2057 81.2916 59.7477 80.3633 60.2897C79.667 60.6769 79.048 61.1414 78.4291 61.606C77.7328 62.148 77.1912 62.8448 77.0365 63.774C76.727 65.4774 76.3402 67.2582 76.1081 68.9616C75.876 70.4327 75.7213 71.8264 75.5666 73.4524C75.9534 73.2975 76.0308 73.2975 76.1081 73.2201ZM40.9839 40.4683C40.6745 38.3003 40.7518 36.1324 40.9839 33.887C41.1387 32.5707 41.216 31.2544 41.2934 29.9382C41.5255 26.6088 40.5971 23.5891 38.6629 20.8792C38.5082 20.6469 38.1988 20.3372 37.9667 20.1823C36.8835 19.4081 33.7889 18.0918 32.2416 17.7821C32.1642 18.0144 32.0095 18.2466 32.0095 18.5564C31.7774 19.6403 31.7774 20.8017 31.9321 21.8857C32.0868 22.9697 32.2416 23.9763 32.3963 25.0603C32.6284 26.3765 32.6284 27.6928 32.3189 29.0091C32.1642 29.6285 32.2416 30.093 32.7058 30.635C35.491 33.887 37.8893 37.3712 40.2103 40.9329C40.365 41.1652 40.5971 41.3974 40.7518 41.6297C40.7518 41.6297 40.8292 41.6297 40.9839 41.6297C40.9839 41.1651 41.0613 40.778 40.9839 40.4683ZM3.69352 9.6522C4.62191 11.7427 5.70504 13.6784 6.86553 15.6141C8.25812 17.8595 9.72806 20.0275 11.198 22.2729C11.5848 22.8923 12.2038 23.2794 12.8227 23.6666C14.5248 24.5957 16.4589 25.1377 18.3931 25.4474C19.6309 25.6022 20.7914 25.8345 21.9519 26.0668C23.7313 26.4539 25.4334 27.0734 26.9033 28.1573C28.0638 29.009 29.1469 30.0156 30.3074 30.9447C31.1585 31.6416 32.0095 32.3384 32.9379 33.0353C33.17 33.1901 33.4021 33.2676 33.9436 33.4998C33.6342 33.0353 33.5568 32.803 33.4021 32.6481C29.5338 27.6153 25.0465 23.3569 19.5536 20.1823C17.9289 19.2532 16.3815 18.2466 14.7569 17.3949C10.1923 14.9947 6.55605 11.6653 3.46141 7.63908C3.30667 7.4068 3.07459 7.17453 2.91986 7.01967C2.84249 7.0971 2.76511 7.09709 2.68775 7.17451C2.99721 7.94879 3.30669 8.8005 3.69352 9.6522ZM95.1401 22.66C93.9023 23.8214 92.5097 24.828 91.0398 25.9894C91.0398 26.2991 91.0398 26.6862 91.0398 27.1508C91.1171 28.6219 90.8077 30.0156 90.1887 31.2544C89.4925 32.6481 88.7188 33.9644 87.9451 35.3581C87.3262 36.4421 86.7072 37.6035 86.243 38.7649C85.3147 41.2426 85.0826 43.7977 86.1657 46.3528C86.3204 46.8174 86.4752 47.3594 87.0167 47.6691C87.1714 47.5916 87.3262 47.5142 87.4035 47.4368C90.8076 44.1074 93.2834 40.3134 94.1344 35.513C94.5212 33.5773 94.7533 31.5641 95.1401 29.6285C95.7591 26.3765 96.8422 23.3568 98.2348 20.3372C98.4669 19.8726 98.699 19.408 98.7764 18.7886C97.5385 20.1823 96.378 21.4986 95.1401 22.66ZM36.4967 42.0943C35.723 42.4814 35.0268 43.0234 34.2531 43.488C33.0152 44.3397 31.8547 45.1914 30.6943 45.9657C29.998 46.4302 29.2243 46.8948 28.3733 47.2819C26.826 48.0562 25.1239 48.3659 23.4219 48.2885C23.035 48.2885 22.6482 48.2885 22.2614 48.2885C22.1066 48.5982 22.3387 48.753 22.4935 48.9079C24.4276 50.6113 26.6712 51.7727 29.2243 52.3147C30.4622 52.547 31.7 52.547 33.0152 52.3147C36.342 51.6179 39.1272 49.9919 41.6029 47.8239C41.9123 47.5142 42.2218 47.2045 42.5312 46.8948C42.686 46.7399 42.7633 46.5076 42.9181 46.2754C42.5312 45.3462 41.835 44.6494 41.2934 43.8751C40.7519 43.1008 40.2876 42.3266 39.6687 41.5523C38.4309 41.1651 37.5025 41.6297 36.4967 42.0943ZM29.7659 106.204C28.1412 104.114 27.0581 101.713 26.1297 99.2357C24.7371 95.674 22.8029 92.4221 20.0178 89.7121C18.0836 87.8539 15.9947 86.2279 13.4416 85.1439C12.9001 84.9116 12.3585 84.7568 11.7396 84.6794C10.2696 84.4471 8.79967 84.2148 7.09762 83.9051C7.32972 84.1374 7.40709 84.2922 7.56182 84.3697C10.1149 86.0731 12.2038 88.241 14.1379 90.5638C15.6079 92.4221 17.0778 94.3578 18.5478 96.216C19.7083 97.6872 20.7914 99.1583 22.0293 100.552C23.9634 102.797 26.2844 104.578 28.8375 105.972C29.1469 106.127 29.4564 106.282 29.8432 106.436C29.7659 106.359 29.7659 106.282 29.7659 106.204ZM45.2391 126.103C47.3279 127.806 49.7263 128.89 52.2794 129.432C53.9041 129.742 55.5287 130.052 57.2308 130.052C61.718 130.207 66.2053 130.207 70.6925 129.974C70.8472 129.974 70.9246 129.897 71.1567 129.82C71.0793 129.665 71.0793 129.51 71.002 129.432C68.4489 126.49 65.2769 123.393 63.8069 122.232C63.5748 122.387 63.2654 122.464 62.9559 122.619C58.9329 124.554 54.7551 125.561 50.2678 125.561C48.6432 125.561 46.9411 125.561 45.3164 125.251C45.1617 125.251 45.007 125.251 44.5428 125.251C44.8522 125.716 45.007 125.948 45.2391 126.103ZM82.4521 48.9079C81.8332 48.211 81.2143 47.5142 80.5953 46.8948C79.9764 46.2754 79.3575 45.6559 78.7385 45.0365C77.5007 43.7202 76.8044 42.1717 76.5723 40.3135C76.5723 40.236 76.5723 40.0812 76.5723 40.0037C76.5723 39.9263 76.4949 39.8489 76.4176 39.6166C76.2628 39.8489 76.0307 39.9263 75.9534 40.0812C75.4118 41.32 75.1797 42.6363 75.025 43.8751C74.6381 46.1205 74.174 48.3659 73.3229 50.5339C72.7814 51.8501 72.8587 53.2438 73.2456 54.5601C73.4777 55.4118 73.8645 56.2635 74.2513 57.1152C74.9476 58.6637 75.6439 60.2123 76.3402 61.7608C76.4176 61.9157 76.4949 61.9931 76.6497 62.148C77.1912 60.7543 77.7328 59.438 78.3517 58.1218C78.9706 56.8055 79.7443 55.5666 80.6727 54.4052C81.6011 53.2438 82.5295 52.1599 83.5352 51.0759C83.3805 50.2242 82.9163 49.5273 82.4521 48.9079ZM36.8835 114.876C36.2646 115.031 35.6457 115.108 35.0268 115.186C34.7947 115.263 34.5626 115.341 34.3305 115.418C35.491 116.27 36.6514 117.044 37.6572 117.896C38.663 118.747 39.514 119.754 40.365 120.683C45.1617 121.148 51.8152 119.212 55.0646 116.347C55.0646 115.883 54.6777 115.805 54.3683 115.728C51.5831 114.334 48.7205 113.25 45.7806 112.321C44.8522 112.011 43.9238 111.779 42.9954 111.469C42.686 111.392 42.2992 111.314 41.835 111.237C40.8292 113.637 38.9724 114.411 36.8835 114.876ZM99.3179 132.607C100.865 131.6 102.567 130.904 104.347 130.284C105.43 129.897 106.513 129.432 107.596 128.968C109.298 128.271 110.845 127.187 112.083 125.793C112.548 125.329 112.934 124.709 113.321 124.167C113.863 123.393 114.327 122.541 114.868 121.69C115.797 120.373 116.803 119.135 117.963 117.973C118.195 117.818 118.35 117.586 118.659 117.276C118.427 117.199 118.273 117.121 118.195 117.199C115.952 117.741 113.708 118.283 111.542 118.902C108.834 119.677 106.436 121.07 104.192 122.774C103.031 123.703 102.103 124.709 101.484 126.18C100.633 128.348 99.6274 130.439 98.6216 132.839C99.0858 132.762 99.1632 132.684 99.3179 132.607ZM13.4416 103.494C15.2211 106.127 17.3099 108.372 19.9404 110.153C20.3272 110.385 20.6367 110.695 21.1782 110.54C23.8861 109.843 26.5939 110.385 29.3017 110.927C31.0037 111.237 32.7058 111.624 34.4852 111.856C36.1872 112.089 37.8893 111.856 39.514 111.392C39.7461 111.314 39.9782 111.16 40.2876 111.005C39.7461 110.85 39.4366 110.695 39.0498 110.618C37.1156 110.076 35.1041 109.534 33.17 108.914C29.998 107.908 27.0581 106.359 24.505 104.268C24.3502 104.114 24.1182 103.959 23.8861 103.881C23.4992 103.959 23.1897 104.036 22.8803 104.114C21.7972 104.423 20.7914 104.423 19.7083 104.191C18.7025 103.959 17.6194 103.649 16.6136 103.339C15.9947 103.185 15.3758 103.03 14.7569 102.952C14.2927 102.875 13.8285 102.875 13.2095 103.185C13.3643 103.262 13.3643 103.417 13.4416 103.494ZM92.4323 61.606C91.2718 63.232 89.8793 64.5482 88.1772 65.5548C86.862 66.4065 85.4694 67.1033 84.0768 67.8776C82.2974 68.8067 80.5953 69.8907 79.048 71.1296C77.9649 71.9813 76.9591 72.9104 76.1855 74.0718C75.6439 74.7686 75.3345 75.6203 75.2571 76.472C75.1024 78.3303 75.1024 80.1112 75.1797 82.1243C75.4118 81.9694 75.5666 81.892 75.5666 81.8145C76.8044 78.7949 78.9707 76.6269 81.6785 74.8461C82.7616 74.1492 83.9221 73.5298 85.0826 72.833C86.3204 72.1361 87.5583 71.3618 88.7188 70.5876C90.4982 69.3487 91.8908 67.6453 92.7418 65.6322C93.0513 64.9354 93.206 64.1611 93.206 63.3868C93.206 62.6125 93.206 61.8383 93.206 61.064C93.1286 61.064 93.0513 60.9866 92.9739 60.9866C92.8192 61.2188 92.5871 61.3737 92.4323 61.606ZM55.8382 116.734C53.8267 118.36 51.4284 119.444 48.9526 120.296C46.4769 121.148 43.8465 121.535 41.0613 121.457C41.1387 121.767 41.216 121.922 41.2934 122.077C41.835 122.774 42.4539 123.393 42.9954 124.09C43.3049 124.477 43.7691 124.709 44.2333 124.787C49.9584 125.638 55.6061 125.174 61.0217 122.928C61.4859 122.696 62.0275 122.541 62.4917 122.309C62.6464 122.232 62.8011 122.077 63.0332 121.922C61.8728 120.373 58.0045 117.586 55.8382 116.734ZM5.16347 8.56822C7.94865 11.8202 11.1207 14.6076 14.9116 16.6207C17.3099 17.9369 19.6309 19.3306 21.9519 20.8017C23.9634 22.0406 25.8202 23.4343 27.5222 25.0603C27.7543 25.2925 28.0638 25.4474 28.2959 25.6797C28.6827 25.5248 28.528 25.2151 28.528 24.9828C28.3733 22.9697 27.5222 21.2663 26.2844 19.7178C25.8202 19.0983 25.2013 18.5563 24.7371 18.0144C24.0408 17.2401 23.3445 16.4658 23.035 15.5367C22.8029 14.9947 22.4935 14.685 21.8745 14.5301C19.7083 13.9107 17.6194 13.2138 15.4531 12.517C12.1264 11.3556 8.9544 9.88448 5.93713 8.10365C5.5503 7.87137 5.0861 7.63909 4.69927 7.40681C4.6219 7.48424 4.54455 7.56166 4.46718 7.63908C4.69928 7.87137 4.93137 8.18108 5.16347 8.56822ZM83.9995 29.9382C81.369 31.719 79.3575 34.1193 77.6554 36.7518C76.8818 37.9132 76.8818 39.2295 77.1139 40.5457C77.346 41.862 77.8101 43.1008 78.7385 44.1074C79.2801 44.7268 79.8217 45.3462 80.4406 45.8882C82.6842 48.0562 82.6842 48.0562 84.1542 50.4564C84.6184 50.2242 85.0052 49.837 85.3147 49.3725C85.1599 49.0627 85.0052 48.753 84.7731 48.5207C83.0711 46.0431 82.7616 43.4105 83.3805 40.5457C83.7673 38.9972 84.2315 37.5261 84.6957 36.055C85.1599 34.5064 85.5467 32.9579 85.3147 31.3319C85.2373 30.7899 85.0826 30.1705 84.9278 29.3962C84.541 29.6285 84.2316 29.7059 83.9995 29.9382ZM78.5838 60.7543C80.9822 59.0509 83.7674 58.0443 86.5525 57.1152C87.7904 56.7281 88.9509 56.3409 90.1887 55.9538C91.7361 55.4118 93.1286 54.5601 94.3665 53.5535C94.908 53.089 95.2949 52.6244 95.6817 52.005C96.378 50.7661 97.0743 49.5273 97.7706 48.2885C98.4669 47.0496 99.0084 45.7334 99.3953 44.1074C99.0084 44.4171 98.8537 44.4945 98.7764 44.6494C98.2348 45.1914 97.7706 45.8108 97.229 46.4302C95.527 48.2111 93.5155 49.4499 91.1945 50.1467C90.034 50.5339 88.8735 50.8436 87.713 51.2307C86.6299 51.6178 85.4694 52.005 84.4636 52.4696C83.2258 53.0115 82.22 53.8633 81.369 54.9472C80.0538 56.6506 79.048 58.5089 78.2744 60.5994C78.2744 60.6769 78.2743 60.7543 78.3517 60.9091C78.2743 60.8317 78.4291 60.8317 78.5838 60.7543ZM45.3164 28.3896C46.0127 31.177 45.7033 33.887 45.007 36.6744C44.6975 37.9906 44.3107 39.3069 44.0786 40.7006C43.6917 42.7137 43.7691 44.7268 44.5428 46.5851C44.6975 47.0496 44.9296 47.5142 45.2391 47.8239C46.7864 49.6047 48.3337 51.463 49.6489 53.4761C49.7263 53.5535 49.881 53.631 50.0358 53.7858C50.1131 53.5535 50.1905 53.3987 50.1905 53.2438C50.0358 49.6047 50.1131 45.8882 49.7263 42.2491C49.2621 37.8358 48.3337 33.5773 46.3222 29.551C46.0127 29.009 45.858 28.3896 45.3164 27.8476C45.3164 28.0799 45.3164 28.2348 45.3164 28.3896ZM92.2776 67.8776C91.2718 69.4261 89.9566 70.665 88.4093 71.5941C87.4035 72.291 86.3204 72.833 85.2373 73.4524C84.3089 73.9944 83.3805 74.5364 82.4521 75.0784C80.9048 76.0075 79.5122 77.2463 78.3517 78.5626C76.8044 80.266 76.0307 82.2791 75.4892 84.4471C75.4892 84.6019 75.4118 84.7568 75.4118 84.9116C75.4118 85.2213 75.4118 85.5311 75.4892 85.7633C75.5665 86.4602 75.7213 87.157 75.7986 88.0087C76.1081 87.7764 76.2628 87.699 76.3402 87.6216C78.197 85.2988 80.518 83.3631 82.7616 81.4274C84.2315 80.1111 85.7789 78.7949 87.1715 77.4012C88.7188 75.8526 90.1114 74.1492 91.1945 72.2135C91.8908 70.8973 92.4323 69.581 92.8192 68.1099C92.8965 67.8776 92.8192 67.6453 92.8192 67.1808C92.5871 67.4905 92.355 67.6453 92.2776 67.8776ZM16.7684 40.778C17.6968 42.8685 18.7799 44.8817 20.2498 46.6625C20.7914 47.2819 21.4103 47.669 22.2614 47.7465C24.8144 48.0562 27.2128 47.5142 29.379 46.1979C30.3848 45.5785 31.3906 44.8817 32.3963 44.1848C32.7831 43.9525 33.0926 43.6428 33.4794 43.4106C35.1041 42.1717 36.8062 41.0103 38.9724 40.778C38.9724 40.0812 38.5856 39.694 37.9667 39.6166C36.6514 39.4617 35.3362 39.4618 34.021 39.7715C32.551 40.0812 31.0811 40.5457 29.6885 40.9329C28.0638 41.3974 26.5165 41.9394 24.8918 42.2491C23.035 42.5589 21.333 42.3266 19.6309 41.6297C18.8573 41.32 18.161 40.8554 17.3873 40.5457C17.1552 40.4683 17.0005 40.3134 16.6136 40.1586C16.691 40.3909 16.691 40.6231 16.7684 40.778ZM98.08 117.818C97.0743 119.599 96.378 121.457 95.8365 123.393C95.0628 125.948 94.5986 128.503 94.5212 131.136C94.4439 133.149 94.2891 135.162 94.2117 137.098C94.2117 137.407 94.2118 137.717 94.2891 138.259C94.5986 138.027 94.7533 137.949 94.8307 137.795C96.1459 136.014 97.229 134.001 98.2348 131.988C98.6216 131.136 99.0085 130.207 99.4727 129.355C100.092 128.116 100.246 126.877 100.246 125.561C100.246 123.935 100.246 122.232 100.246 120.606C100.246 118.283 100.788 116.192 102.026 114.179C102.103 114.102 102.103 114.024 102.18 113.637C100.246 114.721 99.0084 116.115 98.08 117.818ZM14.5248 31.5641C14.989 31.8739 15.4531 31.9513 15.84 31.8739C16.8457 31.719 17.8515 31.4867 18.8573 31.3319C20.0951 31.0996 21.333 30.7899 22.5708 30.635C24.4276 30.4028 26.2844 30.7899 27.9091 31.719C28.9148 32.261 29.9206 32.9578 30.9263 33.4998C31.9321 33.9644 32.9379 34.429 34.021 34.8161C34.2531 34.8935 34.5626 34.8935 34.872 34.6612C34.6399 34.5064 34.4852 34.429 34.2531 34.3515C32.7058 33.7321 31.3132 32.803 30.1527 31.6416C29.379 30.9447 28.528 30.1705 27.7544 29.4736C25.5881 27.6154 22.9576 26.6862 20.1725 26.2217C19.3214 26.0668 18.4704 25.9119 17.542 25.7571C15.84 25.4474 14.1379 24.9828 12.4359 24.2085C13.519 26.6862 14.1379 29.1639 14.5248 31.5641ZM114.017 111.392C117.112 109.921 120.516 108.992 123.766 107.985C125.39 107.52 127.015 106.901 128.562 106.282C131.115 105.275 133.282 103.726 135.293 101.946C135.448 101.791 135.525 101.636 135.68 101.404C135.37 101.481 135.216 101.481 135.138 101.481C132.276 102.72 129.259 103.185 126.164 103.572C124.307 103.804 122.528 104.036 120.671 104.346C119.897 104.501 119.046 104.81 118.273 105.043C117.035 105.43 116.106 106.282 115.333 107.288C114.482 108.527 113.785 109.843 113.399 111.469C113.863 111.469 113.94 111.469 114.017 111.392ZM15.6079 85.6859C19.863 88.241 23.1124 91.8027 25.2786 96.216C25.9749 97.5323 26.5165 98.926 27.1354 100.397C27.9864 102.488 29.0696 104.423 30.4622 106.204C31.1585 107.056 31.9321 107.753 33.0152 108.062C33.5568 108.217 34.0984 108.372 34.7173 108.527C34.7947 108.527 34.872 108.45 35.1041 108.45C34.9494 108.217 34.872 107.985 34.7173 107.83C32.8605 105.585 31.4679 103.107 30.2301 100.475C29.5338 99.0034 28.8375 97.4549 28.1412 95.9838C27.2128 94.0481 26.207 92.2673 24.9692 90.5638C23.7313 88.9379 22.1066 87.6216 20.4046 86.4602C18.8573 85.4536 17.0778 85.1439 14.9116 85.1439C15.2984 85.4536 15.4532 85.5311 15.6079 85.6859ZM65.1221 32.7256C64.6579 34.429 64.1937 36.1324 63.6522 37.7583C62.8012 40.4683 61.9501 43.1008 61.0991 45.8108C60.5575 47.5916 60.2481 49.4499 60.0933 51.2307C59.9386 52.6244 60.016 54.0181 60.4802 55.5666C60.7123 55.3344 60.867 55.2569 60.9444 55.1021C62.2596 52.7793 63.4975 50.5339 64.8127 48.211C66.1279 45.8882 66.8242 43.3331 66.6695 40.6232C66.5921 39.3843 66.5147 38.2229 66.36 36.9841C66.2053 35.1258 65.9732 33.1901 65.7411 31.3319C65.6637 31.3319 65.5863 31.3319 65.5863 31.2544C65.3542 31.7964 65.2769 32.261 65.1221 32.7256ZM68.3715 68.2647C68.3715 68.497 68.4489 68.7293 68.4489 68.9616C68.3715 70.2004 68.9904 71.207 69.8415 72.0587C70.7699 72.9104 71.6209 73.6847 72.6266 74.4589C73.1682 74.8461 73.7871 75.2332 74.4061 75.3106C74.7929 75.1558 74.7155 74.8461 74.7155 74.5364C74.8703 73.0652 75.025 71.5941 75.2571 70.2004C75.3345 69.4261 75.2571 68.7293 74.8703 68.1099C74.2513 67.1033 73.555 66.0194 72.8587 65.0128C72.3172 64.1611 71.6209 63.3868 71.0793 62.4577C70.6151 61.606 70.2283 60.7543 69.7641 59.8252C69.6867 59.6703 69.6094 59.5154 69.3773 59.0509C68.3715 62.3028 68.0621 65.2451 68.3715 68.2647ZM88.3319 48.5207C89.8793 47.9013 91.3492 47.1271 92.6644 46.1205C94.5986 44.6494 96.3007 42.8686 97.7706 40.9329C98.2348 40.3134 98.6216 39.6166 99.0084 38.9972C99.4726 38.2229 99.6274 37.4486 99.4727 36.4421C99.1632 34.7387 99.0085 32.9578 98.7764 31.0996C98.1574 31.4093 98.0027 31.9513 97.6159 32.3384C97.229 32.7256 96.9196 33.1127 96.5327 33.4998C96.1459 33.887 95.6817 34.1193 95.1401 34.5064C94.5986 37.0615 93.9023 39.694 92.5871 42.0943C91.2719 44.4171 89.4924 46.4302 87.713 48.5982C87.8678 48.5982 88.0998 48.5982 88.3319 48.5207ZM134.674 103.494C132.199 105.662 129.336 106.978 126.241 107.985C124.462 108.604 122.605 109.069 120.826 109.611C118.737 110.23 116.725 110.927 114.791 111.856C113.321 112.553 111.929 113.405 110.691 114.334C110.459 114.489 110.227 114.644 109.84 114.953C110.149 115.031 110.304 115.108 110.381 115.031C113.012 114.179 115.797 113.869 118.505 113.405C119.588 113.25 120.671 113.018 121.831 112.785C124.849 112.089 127.634 110.772 130.187 108.992C130.419 108.837 130.574 108.682 130.806 108.527C132.508 106.978 133.978 105.198 135.138 103.185C134.906 103.339 134.752 103.339 134.674 103.494ZM21.2556 101.017C19.863 99.2357 18.4704 97.3775 17.0778 95.5966C15.5305 93.5835 13.9832 91.5704 12.3585 89.6347C10.8885 87.9313 9.26386 86.3828 7.40708 85.1439C6.63342 84.6019 5.85976 84.1374 4.77664 83.7502C5.62767 85.2988 6.40132 86.5376 7.02025 87.8539C7.63918 89.2476 8.18075 90.6413 8.72231 92.1124C8.79968 92.1898 8.95441 92.2672 9.18651 92.3447C10.7338 92.9641 11.9717 93.8932 13.1322 95.0546C14.1379 96.0612 15.1437 97.0677 16.1495 98.0743C17.0005 98.8486 17.8515 99.5454 18.7799 100.242C19.4762 100.707 20.2498 101.017 20.9461 101.404C21.1782 101.481 21.4103 101.481 21.7972 101.559C21.4103 101.326 21.333 101.171 21.2556 101.017ZM40.2103 22.2729C41.7576 24.9054 42.0671 27.7702 41.835 30.7899C41.6029 33.1127 41.4481 35.4355 41.3708 37.7583C41.2934 40.0037 41.6802 42.2491 42.686 44.2622C42.8407 44.4945 42.9955 44.7268 43.2276 45.1139C43.3049 44.8817 43.4596 44.7268 43.3823 44.6494C43.0728 42.1717 43.537 39.7715 44.1559 37.4486C44.5428 35.9775 44.9296 34.429 45.0843 32.8804C45.3164 30.093 44.7749 27.3831 43.4596 24.9828C42.686 23.5891 41.5255 22.5826 40.0555 21.8083C40.0555 21.9631 40.1329 22.118 40.2103 22.2729ZM125.236 112.321C122.45 113.405 119.51 113.792 116.571 114.257C114.714 114.566 112.857 114.721 111.155 115.341C110.304 115.65 109.453 116.037 108.602 116.425C107.751 116.812 107.055 117.431 106.513 118.205C105.662 119.289 104.888 120.373 104.037 121.457C103.96 121.612 103.883 121.767 103.728 122.077C103.96 121.999 104.115 121.999 104.269 121.922C107.751 119.444 111.619 117.973 115.797 117.121C116.957 116.889 118.195 116.579 119.356 116.27C120.284 116.037 121.058 115.65 121.831 115.108C122.837 114.411 123.843 113.715 124.849 113.018C125.158 112.786 125.468 112.553 125.932 112.244C125.545 112.321 125.39 112.321 125.236 112.321ZM110.768 127.806C109.143 129.045 107.209 129.82 105.275 130.516C104.037 130.981 102.799 131.446 101.639 131.988C100.865 132.375 100.092 132.839 99.3179 133.304C98.3122 133.923 97.4611 134.697 96.9196 135.859C96.5327 136.711 95.9138 137.407 95.4496 138.182C95.6044 138.259 95.6817 138.337 95.7591 138.337C98.3895 137.485 101.02 136.556 103.496 135.317C106.9 133.691 109.298 131.136 111.155 127.729C111 127.806 110.845 127.806 110.768 127.806ZM101.407 124.787C102.567 122.386 103.96 120.064 105.739 118.051C105.971 117.741 106.126 117.431 106.203 117.044C106.59 114.721 107.441 112.631 108.834 110.772C108.911 110.695 108.989 110.54 109.066 110.308C108.911 110.308 108.757 110.23 108.602 110.308C107.364 110.85 106.126 111.392 104.888 111.934C104.269 112.166 103.805 112.631 103.418 113.095C101.871 114.953 100.943 117.044 100.865 119.522C100.788 121.303 100.788 123.161 100.788 124.942C100.788 125.096 100.865 125.174 100.943 125.484C101.175 125.174 101.329 125.019 101.407 124.787ZM31.9321 26.1442C31.7774 24.9828 31.7 23.8214 31.4679 22.66C31.2358 21.1889 31.2358 19.7178 31.5453 18.3241C31.6227 18.0918 31.5453 17.8595 31.6227 17.5498C30.3848 16.8529 28.9922 16.6207 27.677 16.1561C26.3618 15.769 25.0465 15.227 23.4992 15.1496C23.5766 15.4593 23.6539 15.6915 23.7313 15.9238C24.1955 16.5432 24.5824 17.0852 25.0465 17.6272C25.5107 18.1692 26.0523 18.7112 26.5165 19.2532C28.1412 21.1115 29.0696 23.2794 29.0696 25.7571C29.0696 26.3765 29.3017 26.8411 29.6885 27.3056C30.1527 27.7702 30.6169 28.3122 31.0811 28.7768C31.2358 28.9316 31.3906 29.0091 31.5453 29.0865C32.0095 28.0799 32.0868 27.0734 31.9321 26.1442ZM59.6291 48.753C59.8612 47.5916 60.0933 46.3528 60.4802 45.1914C61.2538 42.6363 62.0275 40.1586 62.9559 37.6809C63.7296 35.4355 64.3485 33.1901 64.8127 30.9447C64.89 30.635 64.89 30.2479 64.89 29.7059C64.5806 30.0156 64.4258 30.1705 64.2711 30.4027C63.8069 31.3319 63.2654 32.261 62.8012 33.2676C62.1049 34.8935 61.3312 36.4421 60.4802 37.9906C59.7839 39.1521 59.165 40.3909 58.6234 41.6297C57.8497 43.4105 57.5403 45.3462 57.7724 47.3593C58.0045 49.1402 58.1592 50.8436 58.7008 52.547C58.7781 52.7793 58.8555 53.0115 59.0876 53.5535C59.3197 51.6178 59.397 50.1467 59.6291 48.753ZM18.0062 103.03C18.6252 103.262 19.3215 103.417 20.0178 103.572C21.1782 103.804 21.9519 103.727 23.1897 103.262C23.035 103.107 22.9576 102.952 22.8029 102.797C22.5708 102.643 22.3387 102.565 22.1066 102.565C19.863 102.101 18.0062 100.939 16.3815 99.468C15.0663 98.3066 13.8285 97.0677 12.5906 95.8289C11.7396 94.9772 10.8112 94.1255 9.72806 93.5835C9.49596 93.5061 9.26386 93.4287 8.9544 93.2738C9.03177 93.6609 8.9544 93.8932 9.03177 94.0481C10.0375 96.9129 10.9659 99.7777 12.668 102.488C14.6795 102.023 16.3815 102.488 18.0062 103.03ZM86.3204 47.9788C86.3204 47.9013 86.2431 47.8239 86.1657 47.7465C84.6957 45.0365 84.6184 42.1717 85.4694 39.2295C85.8562 37.9132 86.4752 36.6744 87.1715 35.513C87.9451 34.1967 88.6414 32.8804 89.4151 31.5641C90.034 30.3253 90.4982 29.0865 90.5756 27.6928C90.5756 27.2282 90.6529 26.8411 90.4208 26.4539C89.2603 26.7636 86.862 28.0799 85.5468 29.0865C85.7015 29.7059 85.8562 30.4028 85.9336 31.0222C86.1657 32.6481 85.9336 34.1967 85.4694 35.7452C84.9278 37.3712 84.3863 38.9972 83.9995 40.6232C83.6126 42.3266 83.6126 44.03 84.1542 45.6559C84.541 46.7399 85.0826 47.7465 85.8562 48.753C86.243 48.6756 86.4752 48.4433 86.3204 47.9788ZM76.1855 64.3934C76.2628 64.0062 76.1855 63.5417 76.0308 63.0771C75.6439 61.9931 75.2571 60.8317 74.8703 59.7477C74.6382 59.1283 74.2513 58.5089 73.9419 57.8895C73.555 57.1152 73.1682 56.3409 72.8587 55.4892C72.5493 54.7149 72.4719 53.9407 72.2398 53.089C72.0077 53.0116 71.853 53.1664 71.7756 53.3213C71.2341 54.4827 70.6925 55.7215 70.0736 56.8829C69.8415 57.4249 69.7641 57.8895 69.9188 58.4315C70.1509 59.2057 70.3057 59.9026 70.6925 60.5994C71.002 61.2963 71.3888 61.9931 71.853 62.6125C72.9361 64.2385 74.0966 65.7871 75.4118 67.5679C75.7986 66.5613 76.0307 65.4773 76.1855 64.3934ZM34.6399 52.7018C34.9494 52.7018 35.2588 52.7793 35.5683 52.7793C37.5798 52.7793 39.5913 52.7793 41.5255 52.7793C43.9238 52.7793 46.2448 53.089 48.4884 53.9407C48.6432 54.0181 48.7979 53.9407 49.03 53.9407C47.4827 51.2307 45.3164 49.0627 43.3823 46.6625C40.9839 49.5273 38.044 51.3856 34.6399 52.7018ZM38.044 112.321C36.0325 112.708 34.0984 112.476 32.0868 112.089C29.9206 111.702 27.677 111.237 25.5107 110.85C24.1955 110.618 23.3445 110.695 21.7972 111.082C22.1066 111.314 22.2614 111.469 22.4935 111.624C24.3502 112.553 26.2844 113.095 28.2959 113.637C29.6885 114.024 31.0811 114.489 32.4737 114.876C32.9379 115.031 33.4021 115.108 33.8663 114.953C34.7947 114.721 35.8004 114.566 36.7288 114.334C37.5798 114.102 38.4309 113.869 39.2045 113.482C39.9782 113.095 40.6745 112.553 41.1387 111.547C39.9008 111.856 38.9724 112.089 38.044 112.321ZM69.2225 72.3684C69.1452 75.0009 72.704 83.9825 74.6381 86.3053C74.7155 86.3053 74.7155 86.3053 74.7929 86.3053C74.7929 86.3053 74.8703 86.2279 74.8703 86.1505C74.5608 82.8211 74.5608 79.5691 74.7155 76.0849C72.3945 75.3106 70.8472 73.917 69.2225 72.3684ZM99.0084 40.0812C97.3064 42.7137 95.2175 44.8817 92.7418 46.7399C90.9624 48.0562 89.0282 49.0628 86.862 49.6047C85.7015 49.9145 85.0052 50.6887 84.2316 51.5404C84.3089 51.6179 84.3863 51.6953 84.3863 51.6953C86.3978 51.0759 88.3319 50.379 90.3434 49.7596C93.9796 48.5982 96.6875 46.2754 98.8537 43.1783C99.6274 42.0943 99.8595 41.0103 99.7048 39.694C99.7048 39.6166 99.6274 39.5392 99.3953 39.3069C99.3179 39.6166 99.1632 39.8489 99.0084 40.0812ZM67.1337 148.634C65.5863 147.473 64.1937 146.234 62.8785 144.84C62.6464 144.531 62.337 144.298 61.9501 144.144C61.2538 143.989 60.6349 143.834 59.9386 143.679C59.3197 143.524 58.7781 143.292 58.2366 143.06C57.9271 143.292 58.0818 143.447 58.1592 143.602C59.0102 145.228 60.1707 146.621 61.4859 147.86C61.6407 148.015 61.8728 148.17 62.1049 148.325C63.8843 149.099 65.6637 149.486 67.7526 149.254C67.5205 149.022 67.3658 148.789 67.1337 148.634ZM61.4859 141.898C62.4143 143.137 63.4201 144.221 64.4258 145.305C64.6579 145.537 64.89 145.692 65.1221 145.924C65.4316 145.692 65.3542 145.46 65.3542 145.228C65.1995 144.453 65.0448 143.679 64.89 142.982C64.4258 141.047 63.4201 139.498 61.718 138.414C60.3254 137.485 58.9329 136.556 57.0761 135.627C58.7008 137.949 60.016 139.963 61.4859 141.898ZM107.519 115.96C108.911 114.644 110.381 113.482 112.006 112.476C112.393 112.244 112.702 111.934 112.78 111.469C113.166 109.921 113.785 108.527 114.636 107.133C114.172 106.978 113.94 107.288 113.708 107.366C111.696 108.45 109.84 109.843 108.602 111.856C107.828 113.173 107.209 114.489 106.822 116.27C107.287 116.115 107.441 116.115 107.519 115.96ZM95.3722 33.4224C95.6043 33.345 95.8365 33.345 95.9912 33.1901C96.9196 32.4159 97.6933 31.4093 98.3122 30.4027C98.6216 29.9382 98.6216 29.3962 98.6216 28.8542C98.5443 26.7636 98.6216 24.6731 98.9311 22.5826C99.0085 21.9631 99.1632 21.3437 99.2405 20.7243C97.4611 22.9697 95.6043 29.551 95.3722 33.4224ZM94.9081 108.062C96.6101 106.978 98.08 105.585 99.2405 103.959C99.4726 103.649 99.7047 103.339 99.7821 102.952C100.324 101.404 100.788 99.8551 101.252 98.384C101.329 98.2292 101.252 98.0743 101.252 97.9194C99.7821 98.926 94.9854 106.049 94.2891 108.295C94.5986 108.217 94.7533 108.14 94.9081 108.062ZM65.4316 150.725C66.9789 151.499 68.5262 152.196 70.0736 152.893C70.5378 153.125 71.0793 153.28 71.6209 153.435C73.6324 154.054 75.5665 154.751 77.578 155.371C77.6554 154.983 77.4233 154.906 77.1912 154.829C76.2628 154.287 75.3344 153.745 74.4061 153.203C72.8587 152.351 71.3114 151.499 69.8415 150.57C69.2999 150.26 68.8357 150.106 68.2168 150.106C67.0563 150.028 65.8958 149.873 64.7353 149.796C64.5806 149.796 64.4258 149.718 64.039 149.718C64.5032 150.26 64.9674 150.493 65.4316 150.725ZM55.993 135.936C55.9156 136.014 55.8382 136.091 55.8382 136.091C56.225 137.64 56.5345 139.111 56.9213 140.659C57.0761 141.511 57.6176 142.053 58.3913 142.363C59.1649 142.672 59.9386 142.982 60.7123 143.214C60.9444 143.292 61.1765 143.214 61.4086 143.214C59.9386 140.582 57.3855 137.098 55.993 135.936ZM97.7706 106.591C96.6875 107.598 95.527 108.45 94.2891 109.146C93.9797 109.301 93.6702 109.534 93.5155 109.766C92.8192 111.16 92.2003 112.553 91.7361 114.257C92.4324 114.102 92.7418 113.637 93.1286 113.327C95.1402 111.624 96.7648 109.534 98.0027 107.211C98.1574 106.901 98.4669 106.669 98.1574 106.204C98.0801 106.359 97.9253 106.436 97.7706 106.591ZM95.7591 102.797C95.6817 101.791 96.0686 100.784 96.378 99.7777C96.4554 99.468 96.7648 99.1583 96.5327 98.7712C95.6817 99.3906 94.9854 100.242 94.2891 101.017C93.2834 102.178 93.206 103.417 93.9797 104.81C94.1344 105.12 94.2891 105.352 94.5986 105.74C95.3722 104.733 95.8364 103.881 95.7591 102.797ZM92.8966 103.881C91.8134 106.669 91.504 109.379 91.3492 112.476C92.1229 111.392 92.4324 110.385 92.8966 109.456C93.3608 108.527 93.7476 107.598 94.2891 106.591C93.7476 105.662 93.3608 104.888 92.8966 103.881ZM100.943 96.6806C100.943 96.6032 100.943 96.5258 100.865 96.3709C100.711 96.3709 100.633 96.4483 100.478 96.4483C99.7048 96.758 99.0084 97.1452 98.2348 97.4549C98.0027 97.5323 97.8479 97.7646 97.6932 97.9194C96.9196 99.3131 96.3006 100.784 96.5327 102.488C98.08 100.629 99.55 98.6937 100.943 96.6806Z" fill="url(#paint0_linear_318_1081)"/>
<defs>
<linearGradient id="paint0_linear_318_1081" x1="-17.0726" y1="36.0539" x2="130.314" y2="115.028" gradientUnits="userSpaceOnUse">
<stop stop-color="#A5845A"/>
<stop offset="0.0919473" stop-color="#BA9D71"/>
<stop offset="0.239" stop-color="#D8BF91"/>
<stop offset="0.3187" stop-color="#E3CC9D"/>
<stop offset="0.3248" stop-color="#E1CA9B"/>
<stop offset="0.4975" stop-color="#B39864"/>
<stop offset="0.6262" stop-color="#967941"/>
<stop offset="0.6957" stop-color="#8B6D34"/>
<stop offset="0.7947" stop-color="#8E6F38"/>
<stop offset="0.893" stop-color="#967744"/>
<stop offset="0.9907" stop-color="#A38358"/>
<stop offset="1" stop-color="#A5845A"/>
</linearGradient>
</defs>
</svg>
