<svg width="185" height="68" viewBox="0 0 185 68" fill="none" xmlns="http://www.w3.org/2000/svg">
<path d="M183.857 5.90913C180.298 10.5548 176.352 14.3487 171.788 17.6007C169.002 19.6138 166.062 21.3946 162.968 22.7883C159.564 24.3369 156.237 24.4143 152.833 23.0206C151.131 22.3237 149.351 21.5495 147.804 20.6203C143.549 18.1427 139.371 15.5876 135.193 13.0325C130.784 10.3225 126.374 7.61255 121.654 5.44459C116.858 3.19919 111.906 1.65064 106.645 1.18608C103.319 0.876369 100.069 1.10865 96.8199 1.88292C92.0232 3.04433 87.7681 5.2123 83.745 8.07711C80.6504 10.2451 77.5557 12.4905 74.3837 14.6584C71.3665 16.749 67.9624 17.9878 64.3262 18.4524C62.4694 18.6847 60.6126 18.8395 58.7558 19.0718C53.9591 19.5364 49.1624 20.1558 44.3657 21.2398C35.8555 23.1755 28.5057 27.2017 22.1617 33.3185C17.0555 38.1964 13.7288 44.0809 12.2588 50.9719C11.4078 54.6884 11.0983 58.4824 11.021 62.3537C10.8662 66.9994 11.2531 71.645 11.6399 76.2907C12.3362 84.8077 11.872 93.2473 11.021 101.687C10.6341 105.326 9.86048 108.965 8.85472 112.527C7.84896 116.088 6.68846 119.573 5.60534 123.057C3.43909 130.18 2.12387 137.536 1.42758 144.969C1.11812 147.911 1.04074 150.931 0.963379 153.873C0.963379 154.492 1.04075 155.189 1.19548 155.809C1.19548 155.963 1.58231 156.196 1.81441 156.196C2.04651 156.196 2.27861 156.041 2.43334 155.886C2.58807 155.731 2.66544 155.421 2.66544 155.189C2.66544 154.647 2.58807 154.028 2.66544 153.408C2.89754 141.252 5.14114 129.483 9.08681 118.024C11.4852 110.978 14.8893 104.397 19.4539 98.3575C22.1617 94.7958 25.4111 91.6987 29.3567 89.6082C33.5345 87.3628 37.9443 86.4336 42.6637 87.2853C44.2884 87.5951 45.913 87.9822 47.5377 88.4468C49.9361 89.1436 52.025 90.3825 54.1138 91.6987C57.518 93.7118 60.8447 95.8024 64.3262 97.6606C76.0084 103.932 88.387 105.636 101.307 103.39C104.556 102.848 107.728 101.842 110.746 100.448C113.686 99.0543 116.316 97.1961 118.482 94.7184C120.958 91.6987 122.428 88.2145 122.892 84.3431C123.202 81.8654 123.202 79.4652 122.97 76.9875C122.815 74.7421 122.505 72.4967 122.351 70.2513C122.273 68.7802 122.196 67.2317 122.351 65.7605C122.737 61.3472 124.904 58.0178 128.617 55.6175C131.016 54.069 133.723 53.1399 136.586 52.6753C138.52 52.3656 140.454 52.2107 142.388 51.9784C143.936 51.7462 145.483 51.5913 146.953 51.2042C150.125 50.4299 152.523 48.5717 154.148 45.7068C154.535 45.01 154.844 44.3131 155.154 43.6163C155.463 42.9194 155.773 42.1452 156.005 41.4483C157.397 37.8867 159.796 35.3316 163.2 33.7056C164.825 32.9313 166.449 32.157 168.074 31.3053C171.71 29.4471 174.805 26.9694 177.203 23.64C180.762 18.5298 183.16 12.955 184.321 6.76084C184.011 6.45113 183.934 6.29627 183.857 5.90913Z" fill="#233B39"/>
<path d="M183.857 5.90913C183.934 6.29627 184.011 6.37371 184.011 6.52856C182.928 12.6453 180.53 18.2975 176.894 23.4077C174.573 26.7371 171.401 29.2148 167.764 31.073C166.14 31.9247 164.515 32.699 162.89 33.4733C159.486 35.0993 157.088 37.7318 155.695 41.216C155.386 41.9129 155.154 42.6872 154.844 43.384C154.535 44.0809 154.225 44.7777 153.839 45.4746C152.214 48.3394 149.893 50.1976 146.644 50.9719C145.174 51.3591 143.626 51.5139 142.079 51.7462C140.145 51.9785 138.211 52.2107 136.276 52.443C133.414 52.9076 130.783 53.7593 128.308 55.3853C124.594 57.7855 122.428 61.1149 122.041 65.5283C121.886 66.9994 121.964 68.4705 122.041 70.0191C122.196 72.2645 122.428 74.5098 122.66 76.7552C122.892 79.2329 122.892 81.6332 122.583 84.1108C122.041 87.9822 120.649 91.4665 118.173 94.4861C116.084 97.0413 113.453 98.8221 110.436 100.216C107.419 101.609 104.324 102.616 100.998 103.158C88.0001 105.326 75.6215 103.7 64.0166 97.4284C60.5351 95.5701 57.2084 93.4796 53.8043 91.4665C51.7154 90.2276 49.5491 88.9888 47.2282 88.2145C45.6035 87.75 43.9788 87.2854 42.3541 87.0531C37.6348 86.2014 33.2249 87.208 29.0471 89.3759C25.0241 91.5439 21.8521 94.5636 19.1443 98.1252C14.5797 104.087 11.1756 110.668 8.77724 117.792C4.83157 129.251 2.66532 141.02 2.35586 153.176C2.35586 153.718 2.43322 154.338 2.35586 154.957C2.35586 155.189 2.27849 155.499 2.12376 155.654C1.96903 155.809 1.65957 155.964 1.50484 155.964C1.27274 155.964 0.963275 155.731 0.885909 155.576C0.731177 154.957 0.653809 154.338 0.653809 153.641C0.808541 150.698 0.885911 147.679 1.11801 144.737C1.8143 137.303 3.20689 130.025 5.29577 122.825C6.37889 119.263 7.53938 115.779 8.54514 112.294C9.5509 108.733 10.3246 105.171 10.7114 101.455C11.6398 93.015 12.0266 84.5754 11.3303 76.0584C10.9435 71.4128 10.5567 66.7671 10.7114 62.1215C10.7888 58.3275 11.1756 54.5336 11.9493 50.7396C13.4966 43.8486 16.7459 37.9641 21.8521 33.0862C28.1187 27.0468 35.5459 22.9432 44.0562 21.0075C48.7755 19.9235 53.5722 19.3041 58.4462 18.8395C60.303 18.6847 62.1598 18.4524 64.0166 18.2201C67.6528 17.7555 71.0569 16.5167 74.0742 14.4261C77.2462 12.2582 80.3408 10.0128 83.4355 7.84482C87.4585 5.05743 91.7136 2.81203 96.5103 1.65062C99.7597 0.876346 103.009 0.644069 106.336 0.953779C111.597 1.49577 116.548 2.96689 121.345 5.21229C126.064 7.38026 130.474 10.0902 134.884 12.8002C139.062 15.3553 143.239 17.9104 147.495 20.3881C149.119 21.3172 150.821 22.0915 152.523 22.7883C155.927 24.182 159.332 24.1046 162.658 22.556C165.83 21.1623 168.693 19.3041 171.478 17.3684C176.352 14.4262 180.298 10.5548 183.857 5.90913ZM48.1565 53.8367C48.0792 53.8367 47.9245 53.8367 47.8471 53.9141C47.7697 53.9141 47.7697 54.069 47.7697 54.1464C47.8471 54.1464 47.8471 54.069 47.9245 54.069C48.0018 53.9916 48.0792 53.9142 48.1565 53.8367C49.3944 51.0494 50.4002 48.1845 51.2512 45.3197C52.0248 42.6098 52.8759 39.8998 53.6495 37.1124C53.959 35.951 54.2685 34.7121 54.6553 33.5507C56.1253 28.9825 58.0594 24.8014 61.3861 21.3172C61.6182 21.0849 61.6956 20.7752 61.8503 20.5429C61.0767 20.2332 60.6125 20.6203 60.2257 21.0075C58.2915 23.0206 56.5895 25.1886 55.2742 27.6662C53.8816 30.3762 52.7211 33.1636 52.0248 36.1058C50.6323 41.8355 49.2397 47.4877 47.9245 53.2173C47.8471 53.4496 48.0792 53.6819 48.1565 53.8367ZM145.483 49.5008C145.096 48.8814 144.4 49.1911 143.936 49.1137C138.443 48.8039 133.182 47.72 128.153 45.552C125.677 44.468 123.434 43.2292 121.422 41.4483C120.184 40.3644 119.024 39.1255 117.863 37.8867C116.471 36.4156 115.001 35.0219 113.376 33.9379C108.812 30.7633 103.783 30.3762 98.5218 31.7699C98.5218 31.7699 98.4445 31.8473 98.4445 31.9248C98.4445 32.0022 98.5218 32.0796 98.5218 32.0796C98.6766 32.157 98.9087 32.2345 99.0634 32.2345C103.473 33.241 107.496 35.0993 110.978 37.9641C113.608 40.0546 116.239 42.1452 118.792 44.3131C122.892 47.7974 127.689 49.7331 132.95 50.5073C134.265 50.7396 135.658 50.7396 136.973 50.6622C139.216 50.5074 141.46 50.1976 143.704 49.8879C144.323 49.8105 144.941 49.5782 145.483 49.5008C145.56 49.4234 145.715 49.4234 145.792 49.5008C145.792 49.4234 145.715 49.3459 145.715 49.2685C145.638 49.3459 145.56 49.4234 145.483 49.5008ZM119.333 72.8065C119.411 72.729 119.565 72.5742 119.643 72.4967C119.565 72.4967 119.488 72.4967 119.488 72.4967C119.488 72.5742 119.488 72.729 119.333 72.8065C118.946 73.4259 118.405 74.0453 118.018 74.6647C116.548 76.6778 114.846 78.4586 112.912 79.9298C110.436 81.788 107.651 83.1817 104.634 84.0334C97.9803 85.9691 91.2494 86.2014 84.5186 84.5754C80.4955 83.5689 76.6272 82.1752 72.8363 80.3943C70.5153 79.3104 68.1944 78.0715 65.9507 76.9101C62.7787 75.2841 59.5294 74.2001 56.0479 73.6581C48.5434 72.5742 41.271 73.3484 34.1533 76.2133C31.9097 77.065 30.0529 78.3812 28.7377 80.4718C28.6603 80.6266 28.6603 80.9363 28.5056 81.3235C30.8266 79.9298 33.0702 79.0006 35.4685 78.4587C38.2537 77.8392 41.1162 77.6069 43.9014 77.6069C49.0076 77.6844 53.959 78.6909 58.6783 80.3943C61.3861 81.4009 64.094 82.4849 66.8018 83.6463C69.5096 84.8077 72.2174 86.0465 75.0026 87.2079C79.103 88.9113 83.3581 89.9954 87.6906 90.6148C91.8684 91.2342 96.0461 91.2342 100.224 90.4599C109.276 88.7565 116.78 81.4783 119.411 73.5033C119.488 73.271 119.411 73.0387 119.333 72.8065ZM18.7575 95.8798C18.7575 95.9573 18.6801 95.9573 18.6801 96.0347C18.6801 96.0347 18.6027 96.0347 18.5254 96.0347C18.6027 95.9573 18.6801 95.9573 18.7575 95.8798C19.1443 95.5701 19.4538 95.183 19.7632 94.7958C22.3163 91.6988 25.4883 89.3759 29.0471 87.5951C33.0702 85.582 37.3253 84.7303 41.8125 85.3497C44.7524 85.7368 47.5376 86.4337 50.1681 87.6725C51.7154 88.3694 53.1853 89.2211 54.5779 90.0728C57.7499 91.931 60.8446 93.9442 64.094 95.6476C75.8536 102.151 88.3869 103.932 101.616 101.455C104.634 100.913 107.496 99.9061 110.204 98.5898C113.144 97.1187 115.697 95.2604 117.631 92.5505C120.416 88.6017 121.345 84.1109 121.113 79.3104C121.113 79.2329 120.958 79.1555 120.881 79.0007C120.416 79.2329 120.416 79.6975 120.262 80.0846C119.411 81.7106 118.56 83.414 117.631 85.04C115.156 89.0662 111.829 92.1633 107.728 94.3313C104.866 95.8024 101.849 96.7315 98.7539 97.2735C90.8626 98.7446 83.2034 97.8929 75.6989 95.183C71.8306 93.7893 68.117 91.931 64.4034 90.1502C61.6182 88.7565 58.8331 87.3628 56.0479 86.124C52.8759 84.6528 49.5491 83.6463 46.0677 83.1817C37.9442 82.0203 30.5171 83.8786 23.7862 88.4468C23.0126 88.9888 22.3163 89.5308 21.8521 90.3825C20.9237 91.931 19.9953 93.4796 19.0669 95.0281C18.8348 95.2604 18.8348 95.5701 18.7575 95.8798ZM120.107 67.6962C119.643 68.0834 119.411 68.2382 119.179 68.4705C116.007 71.0256 112.448 72.8064 108.425 73.6581C106.645 74.0453 104.866 74.355 103.086 74.6647C99.2955 75.2841 95.5046 75.0518 91.791 73.8904C89.1605 73.0387 86.5301 72.187 83.8997 71.1031C80.5729 69.7868 77.2462 68.3157 73.9194 66.8445C67.5754 64.1346 60.8446 62.7409 53.959 62.6635C49.5491 62.586 45.294 63.2829 41.5031 65.6057C40.6521 66.1477 39.7237 66.6897 39.0274 67.464C36.8611 69.9416 34.7722 72.4967 32.6833 75.0518C32.5286 75.2841 32.4512 75.5164 32.7607 75.7487C33.2249 75.5938 33.6891 75.439 34.1533 75.2067C38.7179 73.4259 43.4372 72.4967 48.3113 72.3419C54.9648 72.1096 61.3088 73.3484 67.1886 76.6004C68.117 77.1424 69.1227 77.607 70.1285 78.1489C74.5384 80.3943 79.0256 82.2526 83.8223 83.5689C90.3984 85.3497 96.9745 85.1948 103.551 83.4914C108.812 82.0977 113.221 79.3104 116.703 75.0518C117.941 73.5033 119.024 71.7999 119.875 70.0191C120.262 69.3997 120.571 68.7028 120.107 67.6962ZM122.273 58.9469C121.809 59.1018 121.5 59.1792 121.267 59.2567C118.869 60.1858 116.393 60.5729 113.84 60.6503C110.9 60.7278 108.038 60.4955 105.175 60.0309C101.849 59.4115 98.5992 58.4824 95.5046 57.321C91.7136 55.8498 87.9227 54.3013 84.1318 52.9076C81.5787 51.901 78.9482 50.8945 76.3178 50.0428C72.991 48.9588 69.5096 48.4168 66.0281 48.4942C63.3977 48.4942 60.7672 48.8814 58.2915 49.8879C57.8273 50.1202 57.2857 50.2751 56.8989 50.5848C54.7327 52.3656 52.489 54.2239 50.3228 56.0047C50.0907 56.1595 49.936 56.3918 50.3228 56.7015C50.7096 56.6241 51.2512 56.4693 51.7154 56.3918C54.5006 55.8498 57.3631 55.695 60.2257 55.8498C65.796 56.1595 71.0569 57.5532 76.0857 59.8761C77.8651 60.7278 79.5672 61.5795 81.2692 62.5086C86.0659 64.9088 91.0173 66.9994 96.2782 68.0834C98.3671 68.5479 100.456 68.9351 102.622 69.0125C110.049 69.3222 116.393 66.8445 121.345 61.0375C121.732 60.4181 122.118 59.8761 122.273 58.9469ZM12.4908 103.003C12.955 102.306 13.2645 101.997 13.4966 101.609C15.8949 96.9638 18.6027 92.473 21.3105 87.9822C22.0068 86.8208 22.6258 85.582 23.09 84.3431C24.4825 80.4718 25.0241 76.4455 24.5599 72.3419C24.3278 70.5611 24.0184 68.7802 23.7089 66.9994C23.3221 64.6766 22.8579 62.4312 22.5484 60.1083C21.0784 49.6556 22.9352 39.8998 28.6603 30.9956C28.815 30.6859 29.1245 30.3762 29.0471 29.9891C28.8924 29.9891 28.815 29.9891 28.7377 29.9891C24.1731 33.1636 20.3048 36.9576 17.5196 41.8355C15.0439 46.1714 13.7287 50.8945 13.1871 55.7724C12.6455 60.4181 12.6455 65.0637 12.8776 69.7094C13.1097 73.8904 13.4192 78.0715 13.6513 82.2526C13.9608 88.3694 13.3418 94.4861 12.8003 100.603C12.5682 101.3 12.5682 101.919 12.4908 103.003ZM24.2504 86.8208C24.7146 86.7434 24.7146 86.7434 24.792 86.7434C25.1015 86.5885 25.3336 86.4337 25.643 86.2788C28.815 84.498 32.1418 83.1043 35.778 82.4849C42.0446 81.4009 48.1566 82.1752 54.0364 84.4206C55.8932 85.1174 57.7499 85.9691 59.5294 86.8208C62.3145 88.1371 65.0997 89.6082 67.8849 90.9245C71.2116 92.5505 74.5384 94.0216 78.0972 95.1056C86.0659 97.5832 94.112 97.8155 102.158 95.5701C105.175 94.7184 107.96 93.4021 110.514 91.5439C115.388 87.9048 118.482 82.9494 120.494 77.2972C120.881 76.2907 121.035 75.2067 120.803 74.0453C120.726 73.813 120.726 73.5033 120.416 73.5033C120.339 73.5807 120.184 73.6581 120.184 73.7356C120.03 74.1227 119.875 74.4324 119.72 74.8196C118.637 77.7618 116.935 80.3943 114.846 82.7172C111.055 86.8208 106.568 89.7631 101.075 90.9245C97.9029 91.6213 94.7309 91.8536 91.4815 91.6213C84.9054 91.1568 78.6388 89.5308 72.6042 86.8208C68.8133 85.1174 65.0223 83.4914 61.2314 81.9429C58.6783 80.8589 56.0479 80.0072 53.3401 79.3878C47.8471 78.0715 42.3541 77.7618 36.7837 78.8458C33.6117 79.3878 30.7492 80.6266 28.1187 82.4849C26.4167 83.5689 25.1788 84.8851 24.2504 86.8208ZM132.718 51.5139C132.486 51.3591 132.486 51.2816 132.408 51.2042C132.176 51.1268 131.944 51.0493 131.634 51.0493C126.064 50.1202 121.267 47.5651 117.012 43.8486C114.691 41.9129 112.293 39.9772 109.972 38.1189C107.032 35.7961 103.783 34.1702 100.147 33.241C96.9745 32.3893 93.7252 32.3119 90.5531 33.241C87.768 34.0153 84.9828 34.867 82.1976 35.7961C80.0313 36.5704 78.0198 37.4995 75.9309 38.4287C75.7762 38.5061 75.3894 38.5061 75.6215 38.9707C75.8536 38.9707 76.0857 38.9707 76.3178 38.9707C80.7276 38.7384 85.0602 39.2804 89.3153 40.5192C93.9572 41.9129 98.4445 43.6937 102.7 46.094C104.866 47.3328 106.955 48.4942 109.121 49.5782C111.519 50.8171 114.072 51.901 116.625 52.5979C119.488 53.3722 122.428 53.8367 125.445 53.6819C126.451 53.6044 127.534 53.527 128.463 53.2173C130.01 52.7527 131.325 52.1333 132.718 51.5139ZM42.4315 63.8249C42.8183 63.9023 42.8183 63.9797 42.8957 63.9797C43.0504 63.9797 43.2825 63.9023 43.4372 63.8249C47.0734 62.3538 50.9417 61.8892 54.81 61.9666C62.0051 62.1989 68.8907 63.8249 75.4668 66.6897C78.9482 68.2382 82.5071 69.7094 85.9885 71.1031C88.4642 72.1096 91.0947 72.9613 93.7251 73.5807C95.5046 73.9679 97.284 74.2001 99.1408 74.2001C103.473 74.0453 107.728 73.271 111.829 71.7999C114.614 70.7933 117.167 69.2448 119.488 67.3091C119.798 66.9994 120.107 66.6897 120.339 66.3025C120.494 66.0703 120.494 65.838 120.494 65.5283C120.494 64.754 120.803 64.0571 120.726 63.2829C120.107 63.2054 119.952 63.5926 119.643 63.8249C118.869 64.4443 118.173 65.1411 117.399 65.6831C113.144 68.6254 108.27 69.8642 103.164 69.7868C100.998 69.7868 98.7539 69.3997 96.6651 68.9351C91.1721 67.7737 86.0659 65.6831 81.1145 63.2054C79.1803 62.1989 77.2462 61.1923 75.2347 60.2632C68.968 57.3984 62.3145 56.1595 55.429 56.7015C53.4174 56.8564 51.4833 57.1661 49.5491 57.8629C48.6981 58.1727 47.8471 58.4824 47.1508 59.1018C45.5261 60.6503 44.0562 62.1215 42.4315 63.8249ZM77.3235 35.6413C77.4783 35.6413 77.633 35.7187 77.7104 35.7187C79.5672 35.0218 81.5013 34.4024 83.3581 33.6282C87.6906 31.6925 91.4815 28.9825 94.6535 25.3434C97.3613 22.2463 100.224 19.2267 103.009 16.207C105.175 13.8842 107.806 12.1033 110.591 10.5548C113.453 9.00623 116.548 8.0771 119.72 7.45768C120.03 7.38025 120.571 7.53512 120.571 6.9157C117.709 5.52201 114.614 4.43802 111.519 3.74117C110.9 3.58632 110.281 3.58632 109.585 3.8186C104.556 5.2123 100.069 7.45769 96.0461 10.7871C93.493 12.8776 91.2494 15.3553 89.47 18.1427C87.8453 20.6978 86.298 23.3303 84.7507 25.8854C82.7392 29.2922 80.5729 32.5442 77.7104 35.3316C77.5556 35.3316 77.4783 35.4864 77.3235 35.6413ZM76.2404 15.8199C76.1631 15.7424 76.1631 15.665 76.0857 15.665C75.7762 15.8198 75.3894 15.8973 75.0799 16.1296C71.8306 18.2201 68.2717 19.6138 64.4808 20.0009C63.7845 20.0784 63.3203 20.4655 62.8561 20.9301C60.4577 23.4078 58.4462 26.1951 57.131 29.3697C56.3573 31.3828 55.5837 33.4733 54.9648 35.5639C54.2685 37.8867 53.6495 40.2869 52.9533 42.6098C51.7928 46.5586 50.6323 50.5848 48.8528 54.3013C48.7755 54.4561 48.8528 54.611 48.7755 54.9981C49.2397 54.6884 49.5491 54.4562 49.7812 54.2239C52.6438 51.5913 55.6611 49.1911 58.8331 46.9457C59.9936 46.094 60.9993 45.0874 61.773 43.926C62.8561 42.3 63.9392 40.6741 64.7129 38.9707C65.796 36.5704 66.7244 34.0927 67.6528 31.615C68.4265 29.6019 69.1227 27.5888 69.8964 25.6531C70.9022 23.0206 72.3721 20.6978 74.0742 18.4524C74.7705 17.5233 75.5441 16.6716 76.2404 15.8199ZM124.362 56.1596C123.898 56.1596 123.434 56.1595 123.047 56.237C120.958 56.3918 118.946 56.3918 116.858 56.1596C111.674 55.5401 106.723 54.3013 101.926 52.2108C99.8371 51.2816 97.8255 50.3525 95.7367 49.4234C91.5589 47.6425 87.3037 46.0166 82.8939 45.1649C77.5556 44.0809 72.2174 43.926 66.8791 44.7003C65.1771 44.9326 63.6298 45.3971 62.3145 46.5585C61.9277 46.8682 61.4635 47.178 61.0767 47.4877C60.922 47.6425 60.6125 47.72 60.7672 48.1845C61.154 48.1071 61.6182 48.1071 62.0051 48.0297C64.5582 47.6425 67.1886 47.5651 69.7417 47.8748C72.7589 48.1845 75.6989 48.8814 78.5614 49.9654C80.7277 50.7396 82.8939 51.5913 85.0602 52.443C89.5474 54.3013 94.0346 56.0821 98.6766 57.6307C101.539 58.5598 104.402 59.2567 107.342 59.6438C111.055 60.1084 114.846 60.1858 118.56 59.4115C120.184 59.1018 121.654 58.4824 123.124 57.7081C123.588 57.321 124.207 57.0113 124.362 56.1596ZM109.044 30.5311C109.044 30.6085 109.044 30.7633 109.044 30.8408C109.276 30.9182 109.508 31.0731 109.74 31.1505C112.216 32.0796 114.382 33.3959 116.239 35.2541C117.554 36.5704 118.946 37.8867 120.184 39.2029C122.351 41.5258 124.904 43.2292 127.766 44.468C133.259 46.9457 139.062 48.1845 145.019 48.2619C146.257 48.2619 147.495 48.1071 148.655 47.8748C149.274 47.7974 149.893 47.4877 150.357 47.1005C151.672 45.9391 152.601 44.468 153.142 42.7646C153.142 42.6872 153.065 42.5323 152.988 42.3775C152.446 42.5323 151.904 42.6872 151.285 42.7646C149.583 43.1517 147.881 43.3066 146.102 43.1517C141.46 42.6872 137.36 41.0612 133.801 38.0415C132.563 36.9575 131.325 35.7961 130.087 34.6347C128.772 33.3959 127.379 32.3119 125.755 31.4602C124.981 31.073 124.207 30.8408 123.356 30.7633C119.179 30.4536 115.001 30.1439 110.823 30.2988C110.281 30.3762 109.663 30.4536 109.044 30.5311ZM27.2677 79.4652C28.7377 77.5295 29.9755 75.8261 31.2908 74.2776C32.2965 73.0387 32.9928 71.645 33.3796 70.1739C34.0759 67.7737 34.5401 65.3734 34.4628 62.8957C34.3854 60.4955 34.2307 58.0952 34.0759 55.7724C33.9212 54.069 33.6891 52.443 33.5344 50.7396C33.1475 44.8552 33.7665 39.1255 35.7006 33.5507C36.7064 30.6859 37.8669 27.8985 39.4142 25.266C39.5689 24.9563 39.6463 24.6466 39.801 24.182C37.2479 24.724 35.3138 25.9628 33.7665 27.976C29.5887 33.7056 27.3451 39.9772 27.0356 47.0231C26.8809 50.1202 27.1904 53.2173 27.4998 56.3144C27.8093 58.7147 28.1187 61.1923 28.2735 63.67C28.5829 68.6254 28.5056 73.6581 27.1904 78.4587C27.1904 78.6909 27.2677 78.9232 27.2677 79.4652ZM107.961 3.12176C107.651 3.04433 107.419 2.88946 107.187 2.88946C104.17 2.50233 101.152 2.57975 98.135 3.2766C97.3613 3.43146 96.6651 3.74117 95.9688 4.05088C94.8083 4.6703 93.5704 5.36715 92.4873 6.14143C86.6075 10.1677 81.7334 15.0456 78.484 21.3946C77.4009 23.4852 76.3952 25.5757 75.4668 27.6662C73.61 31.7699 71.4437 35.6413 68.6585 39.1255C68.3491 39.5127 68.1944 39.8998 67.8849 40.2869C69.2001 39.8998 70.2832 39.2029 71.4437 38.6609C73.9194 37.4995 75.9309 35.6413 77.8651 33.7056C80.3408 31.2279 82.275 28.2857 83.977 25.266C85.2923 22.9432 86.6848 20.6978 88.0774 18.4524C90.0889 15.2779 92.4873 12.413 95.4272 10.0128C98.6766 7.30284 102.313 5.21229 106.336 3.74117C106.877 3.74117 107.419 3.66375 107.961 3.12176ZM124.826 9.16109C123.588 8.07711 122.428 7.84483 121.035 7.99968C114.691 8.85138 109.121 11.4065 104.479 15.8199C102.313 17.833 100.379 20.0784 98.3671 22.3238C95.5819 25.4209 92.8741 28.6728 89.47 31.1505C89.3153 31.2279 89.3153 31.4602 89.1605 31.5376C89.3926 31.8473 89.7021 31.6925 89.8568 31.6925C93.4157 30.7634 97.0519 30.0665 100.688 29.6019C101.307 29.5245 101.926 29.2922 102.545 29.06C104.788 27.976 106.877 26.5823 108.812 24.8789C111.287 22.7109 113.299 20.0784 115.156 17.3684C116.007 16.1296 116.935 14.8133 117.863 13.5745C119.256 11.7936 121.035 10.5548 123.124 9.7805C123.666 9.54822 124.13 9.39337 124.826 9.16109ZM59.2199 20.6978C58.7557 20.6978 58.4462 20.6203 58.1368 20.6203C57.0536 20.6978 55.9705 20.9301 54.8874 20.9301C53.8816 21.0075 53.108 21.4721 52.3343 22.0915C51.2512 23.0206 50.3228 24.1046 49.5491 25.266C46.6092 29.5245 44.8298 34.2476 44.0562 39.4352C43.5146 43.3066 43.2051 47.178 43.0504 51.0493C42.8957 54.9207 42.122 58.6372 40.5747 62.1215C40.42 62.4312 40.4199 62.6634 40.2652 63.2054C40.652 63.0506 40.8068 63.0506 40.9615 62.8957C42.8183 61.1923 44.443 59.2567 45.5261 56.9338C46.5319 54.8433 47.3829 52.6753 47.8471 50.3525C48.3886 48.0297 48.8528 45.7069 49.3944 43.384C50.1681 40.1321 50.9417 36.8801 51.9475 33.6282C53.3401 29.0599 55.429 24.8789 58.8331 21.3946C58.9878 21.3172 59.0652 21.0849 59.2199 20.6978ZM126.142 54.611C125.29 54.5336 124.826 54.5336 124.362 54.5336C121.809 54.5336 119.333 54.1464 116.935 53.4496C114.15 52.6753 111.442 51.5913 108.812 50.1976C106.413 48.9588 104.015 47.6425 101.694 46.3263C96.9745 43.6937 91.9457 41.8355 86.7622 40.5966C82.5071 39.5901 78.1746 39.3578 73.8421 40.0546C72.8363 40.2095 71.8306 40.4418 70.9022 40.9838C69.819 41.6806 68.6585 42.3 67.5754 42.9969C67.3433 43.1517 66.9565 43.2292 67.1112 43.6937C67.1886 43.7712 67.266 43.7712 67.266 43.7712C67.4207 43.7712 67.6528 43.7712 67.8075 43.7712C76.2404 42.842 84.4412 44.0809 92.3326 47.178C94.5762 48.1071 96.8198 49.1136 99.1408 50.0428C101.152 50.8945 103.164 51.8236 105.175 52.5979C110.359 54.4562 115.774 55.6176 121.267 55.5401C122.505 55.5401 123.743 55.3078 124.904 55.153C125.213 55.153 125.445 54.9207 126.142 54.611ZM51.7928 21.5495C50.787 21.6269 50.2454 21.7818 49.7039 21.7818C48.466 21.7818 47.5376 22.4786 46.764 23.4077C45.6035 24.724 44.5977 26.1177 43.6693 27.6662C39.4916 35.0219 37.4027 42.9195 37.7121 51.4365C37.7895 53.1399 37.8669 54.7659 37.9442 56.4693C38.099 59.4889 38.0216 62.5086 37.1706 65.5283C37.0932 65.7605 37.1706 66.0703 37.0932 66.6897C37.48 66.2251 37.6348 66.0703 37.7895 65.838C40.1105 62.2763 41.5031 58.3275 41.9673 54.069C42.122 52.443 42.1994 50.817 42.3541 49.2685C42.6636 45.9391 42.8957 42.5323 43.3599 39.2029C44.2882 32.5442 46.8413 26.7371 51.7928 21.5495ZM24.4052 83.1043C25.0241 82.6397 25.2562 82.1752 25.4109 81.7106C26.7262 78.0715 27.5772 74.2776 27.6545 70.3288C27.8093 66.3025 27.4998 62.3537 27.0356 58.3275C26.7262 55.6176 26.4167 52.9076 26.262 50.1976C25.9525 42.0678 28.0414 34.5573 32.9154 27.976C33.0702 27.8211 33.3023 27.5888 32.9154 27.2791C32.0644 27.5114 31.4455 28.2082 30.9813 28.9051C25.1788 36.8027 22.471 45.6294 22.9352 55.4627C23.09 58.4049 23.5542 61.2698 24.0183 64.1346C24.4825 66.5348 24.8694 68.9351 25.2562 71.4128C25.7204 74.7421 25.5657 78.1489 24.792 81.4009C24.5599 81.8654 24.5599 82.33 24.4052 83.1043ZM63.2429 43.6937C63.8619 43.3066 64.094 43.1517 64.3261 42.9969C64.6355 42.6872 65.0223 42.3775 65.2544 42.0678C69.1227 37.577 72.3721 32.699 74.6931 27.2791C75.7762 24.8789 76.9367 22.4786 78.1746 20.1558C79.8766 16.9038 82.0429 14.039 84.6733 11.5613C86.4527 9.85794 88.3869 8.30939 90.2437 6.76084C90.5531 6.52855 90.94 6.29628 91.1721 5.67686C89.3153 6.3737 87.9227 7.22542 86.5301 8.15454C82.9713 10.5548 79.7219 13.3422 76.782 16.4393C74.1515 19.1492 71.9853 22.2463 70.5927 25.7306C69.7417 27.8211 68.968 29.9891 68.1944 32.0796C66.8791 35.7961 65.5639 39.5126 63.3977 42.842C63.3977 42.9195 63.3977 43.0743 63.2429 43.6937ZM34.3854 69.8642C34.4628 69.8642 34.5401 69.9416 34.6175 69.9416C34.7722 69.6319 35.0043 69.3222 35.0817 68.9351C36.4743 65.3734 37.1706 61.7343 37.0158 57.9404C36.9385 55.7724 36.7837 53.6819 36.7064 51.5139C36.4743 45.7069 37.4027 40.0546 39.3368 34.5573C40.8068 30.6085 42.5862 26.8146 45.294 23.5626C45.5261 23.3303 45.9129 23.098 45.6808 22.4786C44.9072 22.6335 44.2109 22.7883 43.4372 22.9432C42.8183 23.098 42.1994 23.2529 41.5804 23.4852C41.271 23.5626 41.0389 23.8723 40.8841 24.1046C40.2652 25.0337 39.7237 25.9628 39.1821 26.892C35.0043 34.7896 33.3796 43.1517 34.2307 52.0559C34.3854 53.6819 34.6175 55.2304 34.7722 56.8564C35.1591 60.9601 35.3138 65.1411 34.2307 69.1674C34.3854 69.4771 34.4628 69.6319 34.3854 69.8642ZM129.159 11.4065C128.385 10.9419 127.766 10.6322 127.225 10.2451C126.606 9.85793 125.909 9.78051 125.213 9.93537C122.583 10.5548 120.262 11.871 118.637 14.039C117.477 15.5101 116.471 17.0587 115.388 18.6073C112.757 22.4012 109.74 25.808 105.717 28.2082C105.485 28.3631 105.098 28.4405 105.175 28.9825C105.562 28.9825 105.872 28.9825 106.258 28.9825C107.574 28.9051 108.812 28.7502 110.127 28.7502C111.287 28.7502 112.216 28.3631 113.144 27.6662C114.923 26.2726 116.393 24.5692 117.786 22.7883C119.101 21.0849 120.339 19.3815 121.577 17.6781C123.434 15.123 125.677 13.0325 128.695 11.8711C128.695 11.7936 128.772 11.7162 129.159 11.4065ZM116.393 28.3631C116.625 28.5954 116.703 28.6728 116.703 28.6728C116.858 28.7502 117.09 28.7502 117.244 28.7502C120.107 28.9051 122.737 28.0534 125.058 26.4274C126.915 25.1111 128.772 23.7949 130.551 22.4786C132.95 20.6978 135.658 19.6912 138.597 19.5364C139.371 19.4589 140.145 19.5364 140.918 19.4589C141.151 19.4589 141.46 19.5364 141.46 18.9944C140.299 18.2975 139.062 17.6007 137.979 16.749C136.895 15.9747 135.735 15.8973 134.497 16.1296C131.557 16.6716 129.081 18.1427 126.838 20.0784C125.523 21.1624 124.207 22.4012 123.047 23.64C121.5 25.1886 119.643 26.4274 117.709 27.5114C117.399 27.7437 116.935 28.0534 116.393 28.3631ZM135.116 15.123C133.801 14.039 132.486 13.4196 131.248 12.5679C130.629 12.1033 129.932 12.1033 129.236 12.3356C127.766 12.8776 126.451 13.6519 125.213 14.6584C123.743 15.8973 122.583 17.4458 121.422 18.9944C119.72 21.2398 117.941 23.4852 116.161 25.7306C115.542 26.5048 114.769 27.2017 113.84 28.1308C114.382 28.0534 114.614 28.0534 114.846 27.976C116.239 27.2791 117.631 26.6597 118.946 25.8854C121.345 24.4917 123.279 22.4012 125.29 20.4655C127.921 17.9878 130.861 16.0521 134.497 15.3553C134.574 15.4327 134.729 15.3553 135.116 15.123ZM122.66 28.8277C124.285 29.2922 125.909 29.4471 127.225 29.2148C129.004 28.9051 130.706 28.3631 132.331 27.5114C133.723 26.7371 135.116 25.9629 136.509 25.1112C139.216 23.4077 142.156 22.3238 145.406 22.2463C145.715 22.2463 146.025 22.1689 146.411 22.1689C145.096 20.9301 144.4 20.5429 143.162 20.3881C138.288 19.7687 133.801 20.5429 129.932 23.8723C127.844 25.6531 125.6 27.1242 123.202 28.3631C123.124 28.4405 122.892 28.6728 122.66 28.8277ZM127.611 31.3828C127.844 31.6151 127.921 31.8473 128.076 31.9248C129.081 32.7765 130.165 33.6282 131.17 34.5573C132.331 35.5638 133.414 36.7253 134.574 37.6544C138.133 40.5966 142.234 42.1452 146.798 42.4549C148.732 42.6097 150.667 42.3 152.523 41.758C153.529 41.4483 154.225 40.9063 154.457 39.8224C154.535 39.5901 154.612 39.3578 154.69 38.9707C154.148 38.9707 153.684 39.0481 153.297 39.0481C151.672 39.2029 150.048 39.4352 148.5 39.4352C143.085 39.4352 138.288 37.6544 134.188 34.0153C133.569 33.4733 132.872 32.9313 132.253 32.3893C130.938 31.3828 129.314 31.2279 127.611 31.3828ZM132.95 31.8473C134.961 33.7056 136.586 35.1767 138.597 36.2607C143.549 38.8932 148.81 39.1255 154.225 38.1964C155.773 37.8867 156.314 36.8027 157.088 35.409C156.392 35.5638 156.005 35.6413 155.541 35.7187C154.303 35.8736 153.142 36.1058 151.904 36.1833C147.495 36.2607 143.317 35.2541 139.603 32.8539C139.139 32.6216 138.675 32.3893 138.211 32.1571C137.901 32.0796 137.592 32.0796 137.282 32.0796C135.967 32.0022 134.729 31.9247 132.95 31.8473ZM140.609 32.3119C140.996 32.6216 141.228 32.9313 141.46 33.0087C147.03 35.7187 152.678 36.1833 158.481 34.0153C159.873 33.4733 161.034 32.6216 162.349 31.6925C161.807 31.3828 161.343 31.4602 160.956 31.5376C159.409 31.615 157.862 31.615 156.392 31.1505C155.386 30.8408 154.38 30.8408 153.374 31.073C149.738 31.7699 146.025 32.157 142.234 32.2345C141.769 32.157 141.305 32.2345 140.609 32.3119ZM137.901 30.4536C138.52 29.8342 139.062 29.2922 139.603 28.7502C140.222 28.2082 140.918 27.6662 141.615 27.2017C142.234 26.8145 142.93 26.4274 143.626 26.1177C144.323 25.808 145.019 25.4983 145.792 25.266C146.566 25.0337 147.417 24.8789 148.268 24.6466C148.964 24.4917 149.738 24.4917 150.589 24.182C149.583 23.2529 148.578 23.0206 147.495 23.0206C143.704 22.7883 140.222 23.7174 136.973 25.808C134.884 27.1243 132.795 28.4405 130.474 29.2922C130.319 29.3697 130.242 29.5245 130.01 29.7568C132.795 30.1439 135.348 30.3762 137.901 30.4536ZM157.629 30.4536C157.862 30.5311 158.094 30.6085 158.326 30.6859C163.973 31.1505 168.848 29.5245 172.948 25.4983C175.656 22.7883 177.59 19.5364 179.215 16.0521C179.292 15.8198 179.524 15.5101 179.137 15.2004C173.49 22.3237 166.759 27.976 157.629 30.4536ZM148.964 29.7568C150.434 29.9891 151.827 29.7568 156.314 28.8277C160.26 27.976 164.051 26.5823 167.3 24.2594C170.163 22.2463 172.948 20.2332 174.959 17.3684C174.573 17.5233 174.186 17.833 173.799 18.0652C172.02 19.3041 170.24 20.6978 168.383 21.8592C165.211 23.7949 161.807 25.4209 158.016 25.8854C155.076 26.2726 152.291 27.434 149.738 29.06C149.506 29.1374 149.274 29.4471 148.964 29.7568ZM154.767 25.5757C153.452 24.9563 153.452 24.9563 152.446 24.9563C150.048 25.0337 147.727 25.4209 145.406 26.1951C143.549 26.892 141.769 27.8211 140.222 29.1374C139.913 29.3696 139.681 29.7568 139.294 30.2988C139.913 30.3762 140.222 30.4536 140.609 30.4536C142.156 30.4536 143.704 30.3762 145.251 30.3762C146.257 30.3762 147.108 30.0665 147.881 29.3697C149.583 27.8985 151.518 26.9694 153.606 26.1951C154.071 26.1177 154.535 26.1177 154.767 25.5757Z" fill="url(#paint0_linear_318_1089)"/>
<defs>
<linearGradient id="paint0_linear_318_1089" x1="9.8046" y1="60.3133" x2="161.363" y2="97.97" gradientUnits="userSpaceOnUse">
<stop stop-color="#A5845A"/>
<stop offset="0.0919473" stop-color="#BA9D71"/>
<stop offset="0.239" stop-color="#D8BF91"/>
<stop offset="0.3187" stop-color="#E3CC9D"/>
<stop offset="0.3248" stop-color="#E1CA9B"/>
<stop offset="0.4975" stop-color="#B39864"/>
<stop offset="0.6262" stop-color="#967941"/>
<stop offset="0.6957" stop-color="#8B6D34"/>
<stop offset="0.7947" stop-color="#8E6F38"/>
<stop offset="0.893" stop-color="#967744"/>
<stop offset="0.9907" stop-color="#A38358"/>
<stop offset="1" stop-color="#A5845A"/>
</linearGradient>
</defs>
</svg>
