<svg width="800" height="225" viewBox="0 0 800 225" fill="none" xmlns="http://www.w3.org/2000/svg">
<path d="M942.523 218.945C938.762 203.899 932.83 188.852 925.017 174.384C922.413 169.465 919.23 164.402 912.72 161.219C906.209 158.036 897.963 157.746 889.861 158.036C887.401 153.985 885.086 150.079 882.627 146.028C880.601 142.7 878.431 139.372 876.55 136.045C875.537 134.309 874.669 132.572 873.657 130.836C873.078 129.534 872.354 126.641 871.197 125.773C873.657 127.653 876.405 129.245 879.444 130.113C872.644 117.671 866.857 107.109 863.529 94.0881C865.121 96.1135 867.435 97.5603 870.04 98.2837C866.712 93.0753 864.397 87.4329 863.095 81.501C863.529 83.0925 865.265 84.2499 867.001 84.3946C861.214 71.0842 855.138 54.0122 855.138 52.1314C855.716 52.7101 856.44 53.1441 857.308 53.2888C855.572 51.6973 854.125 49.6718 853.402 47.5017C854.559 48.5144 854.993 49.3825 856.151 49.3825C852.534 39.9784 851.81 36.0721 851.087 30.5743C851.81 31.2977 852.1 31.587 852.534 31.587C850.508 26.668 849.351 24.6425 847.904 17.9873C848.483 19 848.627 18.4213 849.206 19C847.325 15.3831 845.01 4.53221 845.01 0.915253C844.432 5.97899 843.274 11.6214 840.381 16.1065C841.249 15.6724 841.683 15.0937 842.406 14.081C839.223 28.2594 838.789 40.1231 830.108 50.3952C831.121 50.1059 832.279 49.8165 833.291 49.5271C832.857 52.1314 831.845 54.5909 830.542 56.7611C831.555 56.327 832.713 55.7483 833.725 55.3143C830.253 65.1524 828.228 69.6374 821.572 78.1734C823.743 77.3054 825.768 76.0033 827.215 74.4118C825.189 78.1734 823.019 81.9351 820.994 85.6967C823.743 85.6967 824.9 84.684 827.07 83.2372C823.308 93.9434 816.943 108.122 810.721 117.526C812.458 117.381 813.904 117.092 816.219 115.356C814.772 118.973 813.76 120.854 812.168 123.313C809.998 118.105 808.117 112.896 806.671 107.254C808.262 109.279 810.577 110.871 813.181 111.594C809.853 106.241 807.539 100.309 806.237 94.3774C806.671 95.9689 808.407 97.271 810.143 97.271C804.356 83.5265 798.279 65.8758 798.279 63.995C798.858 64.5737 799.581 65.0077 800.449 65.1524C798.713 63.4163 797.266 61.3908 796.543 59.2206C797.701 60.2333 798.135 61.1014 799.292 61.1014C795.675 51.2633 794.952 47.357 794.228 41.5698C794.952 42.2932 795.241 42.5826 795.675 42.5826C793.65 37.5189 792.492 35.3487 791.045 28.4041C791.624 29.4169 791.769 28.8382 792.347 29.4169C790.467 25.6552 788.152 14.515 788.152 10.7534C787.573 16.1065 786.416 21.7489 783.522 26.3786C784.39 25.7999 784.824 25.3659 785.548 24.2085C782.365 38.821 781.931 50.9739 773.25 61.6801C774.263 61.3908 775.42 61.1014 776.433 60.6674C775.999 63.2716 774.986 65.8758 773.684 68.1906C774.697 67.7566 775.854 67.1779 776.867 66.7439C773.395 76.8713 771.369 81.501 764.714 90.3264C766.884 89.4584 768.91 88.1562 770.356 86.4201C768.331 90.3264 766.161 94.0881 764.135 97.9944C766.884 97.9944 768.041 96.9816 770.212 95.3902C767.463 103.637 763.122 114.054 758.493 122.734C755.744 113.909 753.429 105.373 753.429 104.216C753.863 104.65 754.442 105.084 755.165 105.228C753.863 103.781 752.85 102.045 752.272 100.309C753.14 101.177 753.429 101.901 754.442 102.045C751.982 94.2327 751.838 91.0498 751.548 86.5648C752.127 87.1435 752.272 87.4329 752.706 87.4329C751.403 83.3819 750.535 81.6457 749.812 76.1479C750.246 77.016 750.391 76.582 750.825 77.016C749.523 73.9778 748.365 65.1524 748.51 62.2588C747.786 66.3098 746.484 70.7949 743.88 74.1225C744.604 73.8331 744.893 73.3991 745.616 72.531C742.289 83.6712 741.276 93.22 733.608 101.033C734.476 100.888 735.344 100.599 736.212 100.454C735.633 102.479 734.765 104.36 733.608 106.096C734.476 105.807 735.344 105.518 736.212 105.084C732.74 112.752 731.004 116.224 725.072 122.734C726.808 122.156 728.544 121.288 729.846 119.985C727.966 122.879 726.085 125.773 724.204 128.666C726.374 128.811 727.387 128.087 729.268 127.075C726.374 133.585 722.178 141.687 717.983 148.342C715.089 142.266 712.774 136.045 712.63 135.321C713.064 135.611 713.498 135.9 713.932 135.9C712.774 135.032 711.906 133.875 711.472 132.717C712.196 133.296 712.485 133.73 713.208 133.73C710.894 128.521 710.46 126.351 710.025 123.313C710.46 123.747 710.604 123.892 710.893 123.892C709.591 121.143 708.868 120.13 708 116.369C708.434 116.947 708.434 116.658 708.868 116.947C707.711 114.922 706.264 108.99 706.264 106.964C705.83 109.713 705.106 112.896 703.37 115.356C703.949 115.066 704.238 114.777 704.672 114.198C702.647 122.011 702.357 128.521 696.86 134.164C697.583 134.019 698.162 133.875 698.885 133.73C698.596 135.177 698.017 136.479 697.149 137.781C697.872 137.492 698.451 137.202 699.175 137.057C697.004 142.411 695.702 144.87 691.507 149.645C692.953 149.21 694.111 148.487 694.979 147.619C693.677 149.645 692.375 151.67 691.073 153.84C692.809 153.84 693.532 153.261 694.834 152.538C692.953 157.168 690.205 162.81 687.166 167.585C684.996 163.534 683.405 159.917 683.26 159.338C683.694 159.627 684.128 159.772 684.562 159.917C683.405 159.193 682.537 158.181 682.103 157.312C682.826 157.746 683.115 158.181 683.839 158.181C681.524 153.84 681.09 152.104 680.656 149.5C681.09 149.789 681.234 149.934 681.524 149.934C680.222 147.619 679.498 146.751 678.63 143.713C679.064 144.147 679.064 143.857 679.498 144.147C678.341 142.411 676.894 137.492 676.894 135.9C676.46 138.215 675.737 140.819 674.001 142.845C674.579 142.555 674.869 142.411 675.303 141.832C673.277 148.342 672.988 153.695 667.49 158.47C668.213 158.325 668.792 158.181 669.516 158.036C669.226 159.193 668.647 160.351 667.779 161.363C668.503 161.219 669.082 160.929 669.805 160.785C667.635 165.27 666.333 167.295 662.137 171.202C663.584 170.768 664.741 170.189 665.609 169.465C664.307 171.202 663.005 172.938 661.703 174.529C663.439 174.529 664.162 174.095 665.465 173.372C663.873 176.699 661.558 179.593 659.967 182.921C658.809 185.235 657.941 188.418 655.048 189.142C656.495 188.708 658.086 188.418 659.533 187.984C658.231 189.576 656.929 190.878 655.337 192.18C656.205 192.18 657.073 191.891 657.797 191.312C656.639 193.193 654.903 194.639 652.878 195.508C653.456 194.784 653.746 193.771 653.746 192.759C652.733 193.916 651.865 195.073 650.852 196.231C651.431 195.073 651.575 193.916 651.431 192.614C650.852 194.205 649.695 195.652 648.103 196.52C648.971 194.784 648.827 192.759 647.958 191.022C647.669 193.048 646.946 194.929 645.644 196.52C645.788 195.652 645.933 194.639 645.788 193.771C645.065 194.929 644.197 195.942 643.474 197.099C643.184 196.086 643.184 195.073 643.184 194.061C642.75 194.639 642.316 195.363 642.027 196.086C642.027 194.929 642.171 193.916 642.171 192.759C640.725 193.916 640.001 195.942 640.146 197.822C638.988 196.086 637.686 194.495 636.674 192.614C636.095 191.601 635.805 189.865 634.937 188.852C635.371 189.286 636.095 189.72 636.818 189.72C635.516 187.695 634.937 186.827 634.214 184.512C635.227 185.38 635.95 185.525 636.674 185.525C633.78 180.895 631.031 174.095 629.295 169.031C630.308 169.755 630.742 170.189 632.044 170.189C631.031 168.453 630.163 166.572 629.15 164.836C629.874 165.559 630.742 166.283 631.755 166.717C628.716 162.521 627.848 160.351 626.257 155.721C626.691 156.01 627.269 156.155 627.704 156.444C627.125 155.287 626.691 154.13 626.401 152.972C626.835 153.117 627.414 153.261 627.848 153.406C623.942 148.487 623.653 142.7 622.35 135.9C622.784 136.479 622.929 136.623 623.363 136.913C622.061 134.743 621.482 132.138 621.193 129.679C621.193 131.415 620.18 136.623 619.312 138.36C619.602 138.07 619.602 138.36 619.891 137.926C619.312 141.108 618.733 142.121 617.865 144.581C618.01 144.581 618.155 144.436 618.589 144.147C618.299 146.896 618.01 148.632 616.274 153.261C616.853 153.261 616.997 152.827 617.576 152.393C617.142 153.406 616.563 154.419 615.84 155.142C616.274 154.998 616.563 154.853 616.853 154.564C616.853 155.432 614.104 163.678 611.5 170.044C612.368 170.044 613.091 169.465 613.236 168.742C612.657 171.491 611.5 174.24 610.053 176.844C611.21 176.41 612.223 175.687 612.946 174.819C611.5 181.04 608.751 186.103 605.712 192.18C607.159 191.746 608.461 191.022 609.474 190.154C609.04 190.588 608.606 192.035 608.317 192.614C607.883 193.482 607.449 194.35 607.015 195.073C606.002 196.81 605.134 198.98 603.976 200.716C603.542 201.295 602.964 201.729 602.385 202.163C602.24 202.307 602.096 202.307 601.951 202.163C601.951 202.163 601.951 202.018 601.951 201.873C601.951 201.295 602.096 200.571 602.096 199.993C601.372 200.427 600.938 201.15 600.359 201.873C599.781 202.452 599.057 203.031 598.189 203.175C598.334 202.018 599.347 201.005 599.202 199.993C598.189 201.295 597.176 202.741 596.019 203.899C595.874 204.044 595.585 204.188 595.44 204.044C595.73 202.741 595.73 201.584 595.73 200.282C595.151 201.584 594.283 202.886 593.125 203.899C593.27 203.175 593.27 202.452 592.981 201.729C592.402 202.741 591.823 203.609 591.245 204.622C591.1 204.912 590.811 205.201 590.521 204.912C590.377 204.767 590.377 204.622 590.377 204.478C590.377 203.32 590.666 202.163 591.1 201.005C590.377 202.452 589.508 203.899 588.64 205.201C588.496 205.346 588.351 205.49 588.206 205.49C587.917 205.49 587.772 205.201 587.772 204.912C587.483 203.609 587.483 202.163 587.483 200.716C586.904 202.163 586.47 203.754 586.181 205.346C584.879 203.899 584.589 201.873 584.3 199.993C584.011 202.018 583.866 203.899 583.577 205.924C583.143 204.333 582.853 202.886 582.853 201.295C582.275 203.175 581.696 204.912 581.117 206.792C580.828 206.937 580.683 206.358 580.683 206.069C580.683 205.201 580.683 204.333 580.683 203.32C579.96 204.478 579.381 205.635 578.658 206.792C578.513 205.346 578.513 203.754 578.802 202.307C577.5 203.465 576.777 205.346 576.922 207.082C576.198 205.78 575.475 204.478 574.751 203.175C575.041 204.767 574.896 206.358 574.317 207.805C574.173 208.095 574.173 208.239 573.883 208.384C573.449 208.384 573.305 207.95 573.305 207.66C573.305 206.792 573.305 206.069 573.594 205.201C572.147 206.069 570.99 207.516 570.266 208.963C570.122 207.805 570.556 206.648 571.134 205.635C569.832 206.648 568.675 207.95 567.951 209.397C567.807 208.095 567.807 206.792 568.096 205.49C566.794 206.503 565.781 207.66 565.058 209.107C564.479 207.95 564.19 206.792 563.9 205.49C563.611 206.937 563.032 208.384 562.02 209.541C561.586 208.239 561.586 206.648 562.164 205.346C561.152 206.214 560.283 207.371 559.705 208.529C559.705 207.66 559.849 206.648 560.139 205.78C558.981 206.937 558.113 208.384 557.535 209.831C557.101 208.818 557.101 207.805 557.245 206.792C556.667 207.66 556.232 208.673 555.943 209.686C555.654 208.673 555.22 207.516 554.93 206.503C555.075 207.66 554.496 208.673 553.628 209.541C553.773 208.818 553.773 208.095 553.628 207.371C552.905 208.529 552.182 209.686 551.458 210.843C551.169 210.843 551.169 210.409 551.169 210.12C551.313 209.107 551.313 208.239 551.458 207.226C550.59 208.239 549.867 209.397 549.288 210.699C548.999 210.554 548.854 210.12 548.854 209.831C548.854 208.963 548.854 208.095 548.854 207.226C548.13 208.239 547.407 209.397 546.973 210.554C546.394 209.252 545.816 207.95 545.237 206.792C545.092 208.239 544.803 209.831 544.08 210.988C543.79 210.988 543.646 210.554 543.501 210.265C543.356 209.397 543.356 208.529 543.356 207.66C542.199 208.818 541.186 210.12 540.029 211.277C540.318 210.265 540.752 209.252 541.041 208.239C539.739 209.252 538.726 210.554 537.858 211.856C537.858 210.699 538.148 209.541 538.437 208.384C537.28 209.397 536.412 210.699 535.833 212.29C535.543 210.699 535.109 209.252 534.531 207.805C534.386 208.818 534.241 209.686 533.807 210.554C533.373 211.422 532.65 212.145 531.782 212.58C531.927 211.711 532.216 210.843 532.505 209.975C531.492 210.843 530.48 211.711 529.467 212.58C529.467 211.567 529.901 210.554 530.624 209.686C529.612 210.265 528.599 210.988 527.876 211.856C528.165 211.277 528.165 210.554 528.165 209.831C528.165 209.541 528.02 209.107 528.02 208.818C526.718 210.409 525.416 212.001 524.259 213.592C524.259 212.58 524.259 211.567 524.259 210.554C523.535 211.422 522.956 212.58 522.667 213.592C522.378 213.592 522.233 213.014 522.378 212.724C522.812 211.567 523.101 210.409 523.535 209.252C522.233 210.409 521.365 211.856 520.786 213.448C520.352 212.58 520.063 211.567 519.918 210.409C519.774 211.422 519.484 212.29 519.34 213.303C518.906 212.145 518.471 210.988 517.893 209.831C517.893 211.277 517.459 212.58 516.591 213.737C516.446 214.026 516.012 214.171 515.867 214.026C516.012 213.448 516.157 212.869 516.301 212.146C514.854 213.158 513.263 214.026 511.527 214.46C512.54 213.592 513.697 212.58 513.842 211.133C512.54 212.435 510.948 213.592 509.357 214.46C509.935 213.448 510.514 212.435 510.225 211.277C509.212 212.58 507.91 213.882 506.608 214.894C506.463 214.026 506.753 213.158 507.331 212.435C506.463 213.014 505.74 213.737 505.161 214.605C505.306 213.448 505.595 212.435 506.029 211.422C504.872 212.435 503.859 213.448 502.846 214.605C502.846 213.303 503.28 212.001 504.004 210.988C502.702 212.001 501.689 213.158 500.965 214.46C500.965 213.158 501.255 211.856 501.833 210.843C500.387 211.711 499.808 213.592 498.651 214.894C498.361 213.737 498.651 212.29 499.519 211.422C498.506 212.001 497.493 213.014 496.914 214.026C496.77 213.158 496.625 212.435 496.336 211.567C495.612 212.58 495.034 213.737 494.31 214.75C494.021 215.039 493.731 215.473 493.297 215.328C493.153 215.184 493.008 214.894 493.008 214.75C493.008 214.316 492.863 214.026 492.863 213.592C492.574 214.171 492.429 214.894 492.14 215.473C491.417 214.605 491.561 213.448 491.706 212.435C490.549 213.303 489.68 214.46 489.246 215.618C488.812 214.894 488.812 214.026 488.812 213.303C488.378 214.171 488.089 214.894 487.655 215.762C487.076 215.328 487.076 214.46 487.221 213.737C487.221 213.303 487.366 212.724 487.366 212.29C485.919 213.014 485.34 214.605 484.761 216.052C484.617 215.184 484.617 214.171 484.906 213.303C484.183 214.026 483.459 215.039 483.025 216.052C482.736 215.039 483.025 213.882 483.315 212.724C482.302 213.737 481.579 215.039 481.434 216.486C481.144 215.328 480.71 214.026 479.987 213.014C479.987 214.316 479.553 215.618 478.685 216.486C478.54 216.631 478.396 216.775 478.251 216.631C478.106 216.486 478.106 216.341 478.251 216.052C478.54 215.618 478.685 215.039 478.974 214.605C478.251 215.184 477.528 215.907 476.804 216.486C476.949 215.762 477.238 215.184 477.528 214.605C476.659 215.184 475.791 215.907 475.068 216.631C475.213 215.618 475.647 214.75 476.225 214.026C475.357 214.46 474.489 215.039 473.766 215.762C473.766 215.184 473.766 214.46 473.766 213.882C472.753 214.75 471.74 215.473 470.583 216.341C470.438 216.486 470.149 216.631 470.004 216.341C469.86 216.196 470.004 216.052 470.149 215.907C470.583 215.184 471.162 214.46 471.596 213.592C470.294 214.026 469.136 215.184 468.123 216.196C468.123 215.473 468.268 214.75 468.702 214.171C467.979 214.894 467.4 215.618 466.821 216.341C466.821 215.328 466.821 214.171 466.532 213.158C466.098 214.316 465.375 215.328 464.506 216.052C464.362 216.197 464.217 216.341 464.072 216.341C464.506 215.618 464.796 214.75 464.94 213.737C463.783 214.46 462.77 215.328 461.902 216.486C462.047 215.473 462.481 214.605 462.915 213.737C462.192 214.171 461.468 214.75 460.745 215.328C460.89 214.75 461.034 214.026 461.034 213.448C460.311 214.75 459.298 216.052 457.996 216.775C457.851 216.92 457.707 216.92 457.562 216.92C457.851 216.196 457.996 215.618 458.285 214.894C457.417 215.328 456.549 216.052 455.97 216.775C455.681 217.065 455.536 217.209 455.102 217.209C455.102 216.341 455.681 215.618 456.26 214.894C455.392 215.328 454.668 215.907 454.234 216.631C454.09 216.92 453.8 217.065 453.511 217.209C453.366 216.341 453.8 215.328 454.234 214.46C453.366 215.184 452.498 216.197 451.919 217.209C451.919 216.197 451.775 215.039 451.775 214.026C451.341 215.039 451.051 216.052 450.473 216.92C450.473 215.762 450.328 214.75 450.183 213.592C449.46 214.894 448.447 216.052 447.29 216.92C447.145 217.065 447 217.065 447 217.065C446.856 217.065 446.856 216.775 446.856 216.486C447.145 215.907 447.29 215.328 447.579 214.75C446.711 215.039 446.132 216.052 445.409 216.775C445.264 216.92 445.12 216.92 445.12 216.92C445.409 216.052 445.698 215.328 446.132 214.605C445.12 215.328 444.107 216.197 443.383 217.209C443.528 216.052 443.962 214.75 444.83 213.882C443.818 214.605 442.949 215.473 442.226 216.486C442.226 215.762 442.081 214.894 441.937 214.171C441.213 215.039 440.49 216.052 439.622 216.92C439.477 217.065 439.477 217.065 439.332 217.065C439.188 217.065 439.188 216.92 439.188 216.775C439.043 216.341 439.043 215.907 438.898 215.473C438.609 216.196 438.175 216.775 437.741 217.499C437.741 216.631 437.596 215.762 437.596 214.894C437.018 216.196 436.15 217.209 434.847 217.788C434.703 216.631 434.992 215.473 435.571 214.605C434.558 215.184 433.69 216.052 433.256 217.209C433.111 217.499 432.967 217.788 432.822 217.788C432.822 216.775 432.967 215.907 433.401 215.039C432.099 215.762 430.941 216.92 430.362 218.222C430.073 217.933 429.928 217.499 429.928 217.065C429.928 216.631 430.073 216.196 430.362 215.907C429.639 216.341 429.06 216.92 428.771 217.788C428.771 217.933 428.626 218.077 428.482 218.077C428.337 218.077 428.337 217.788 428.337 217.643C428.482 217.065 428.626 216.486 428.771 215.762C427.758 216.197 427.614 217.643 426.89 218.367C426.745 217.209 426.456 215.907 425.877 214.894C425.588 216.196 425.154 217.643 424.141 218.511C423.997 217.788 424.141 217.065 424.575 216.486C423.707 216.92 422.984 217.643 422.55 218.511C422.55 217.354 422.839 216.197 423.563 215.328C422.839 215.907 422.116 216.486 421.537 217.209C421.392 217.354 421.248 217.499 421.103 217.643C420.958 216.92 420.814 216.196 420.669 215.473C420.09 216.486 419.367 217.354 418.499 218.222C418.354 218.367 418.209 218.511 417.92 218.511C417.775 218.511 417.775 218.367 417.775 218.367C417.486 217.933 417.631 217.499 417.631 216.92C417.631 216.631 417.775 216.341 417.775 216.052C416.907 216.775 416.039 217.643 415.461 218.656C415.316 217.788 415.605 216.775 415.895 215.907C415.027 216.631 414.303 217.499 413.869 218.511C413.724 218.511 413.58 218.367 413.58 218.077C413.58 217.354 413.724 216.631 413.869 216.052C413.001 216.631 412.422 217.499 411.988 218.511C411.699 218.077 411.554 217.643 411.699 217.065C411.844 216.631 411.988 216.052 412.278 215.618C411.699 215.907 411.265 216.341 410.976 216.775C410.686 217.354 410.397 217.933 410.252 218.367C409.818 217.499 409.384 216.486 408.95 215.618C408.95 216.486 408.805 217.354 408.371 218.077C408.227 218.222 408.082 218.367 408.082 218.222L407.937 218.077C407.937 217.354 408.082 216.486 407.648 215.762C407.069 216.631 406.346 217.354 405.622 218.077C405.767 217.499 405.912 216.92 405.912 216.341C405.188 217.065 404.465 217.788 403.742 218.511C403.742 217.499 404.031 216.486 404.61 215.762C403.886 216.341 403.163 216.92 402.584 217.643C402.295 216.92 402.005 216.341 401.716 215.762C400.993 216.486 400.414 217.209 399.691 217.933C399.546 218.077 399.401 218.222 399.257 218.222C399.112 218.222 398.823 218.222 398.823 218.077C398.823 217.933 398.823 217.788 398.823 217.643C398.967 217.065 398.967 216.486 399.112 215.907C398.244 216.486 397.52 217.209 397.086 218.077C397.086 218.222 396.942 218.222 396.942 218.367C396.652 218.511 396.508 218.077 396.652 217.788C396.797 217.065 396.942 216.486 397.376 215.907C396.363 216.486 395.495 217.209 394.916 218.222C394.772 217.354 394.916 216.341 395.206 215.618C394.048 216.341 393.18 217.499 392.746 218.801C392.023 218.077 392.167 216.92 392.457 216.052C391.733 216.775 391.155 217.788 390.865 218.801C390.576 218.801 390.431 218.511 390.431 218.367C390.287 217.354 390.431 216.341 390.865 215.473C389.853 216.196 389.274 217.354 388.84 218.511C388.55 217.354 387.972 216.196 387.393 215.184C387.393 216.341 387.393 217.499 386.959 218.367C386.959 218.511 386.814 218.511 386.814 218.656C386.525 218.801 386.236 218.511 386.236 218.367C386.091 218.077 386.236 217.788 386.236 217.643C386.236 217.354 386.236 217.065 386.091 216.92C385.657 217.643 385.078 218.367 384.499 219.09C384.499 218.367 384.644 217.499 384.933 216.775C383.921 217.354 383.053 218.222 382.474 219.235C382.329 217.933 382.763 216.631 383.631 215.762C382.763 216.341 382.04 217.065 381.316 217.933C381.172 217.354 381.172 216.631 380.882 216.052C380.593 216.631 380.304 217.065 380.014 217.643C379.87 217.788 379.87 217.933 379.58 218.077C379.146 218.222 378.857 217.788 378.857 217.354C378.857 216.92 378.857 216.486 378.712 216.196C378.278 217.065 377.844 217.933 377.7 218.801C377.121 218.511 377.266 217.788 377.266 217.209C377.41 216.631 377.555 216.052 377.7 215.328C376.397 215.762 375.963 217.209 375.529 218.511C375.24 217.209 375.24 215.762 375.529 214.46C374.372 215.473 373.793 216.92 373.938 218.367C373.359 217.209 372.636 216.052 371.768 215.039C371.912 216.341 371.623 217.643 370.9 218.801C370.61 218.077 370.466 217.354 370.61 216.631C369.742 217.065 369.019 217.788 368.44 218.656C368.151 217.933 368.295 217.065 368.585 216.486C367.427 216.775 366.415 217.499 365.836 218.511C365.402 217.499 365.691 216.341 366.415 215.473C364.968 215.762 363.81 217.209 363.666 218.656C362.942 217.643 362.219 216.631 361.496 215.618C361.64 216.341 361.785 217.209 361.64 218.077C361.206 217.065 360.772 216.197 360.193 215.328C360.193 216.341 359.904 217.209 359.47 218.077C359.47 216.775 359.181 215.618 358.891 214.316C358.457 215.762 357.445 217.065 356.142 217.933C356.577 217.354 357.011 216.775 357.445 216.052C356.432 216.631 355.419 217.209 354.406 217.933C354.985 217.209 355.419 216.631 355.998 215.907C355.13 216.341 354.262 216.92 353.538 217.643C353.538 217.643 353.538 217.643 353.538 217.499C353.683 216.92 353.828 216.341 353.683 215.762C352.381 216.197 351.368 217.643 350.066 218.077C349.921 218.077 349.632 218.222 349.632 217.933C349.632 217.788 349.632 217.788 349.632 217.643C349.921 216.775 350.355 215.907 351.079 215.184C349.632 215.762 348.33 216.486 347.028 217.499C347.172 216.486 347.751 215.618 348.33 214.894C346.738 215.473 345.436 216.631 344.134 217.643C344.424 216.486 344.713 215.328 344.424 214.171C343.7 215.473 342.543 216.631 341.241 217.354C341.385 216.631 341.819 215.762 342.398 215.184C341.096 215.618 339.939 216.341 338.781 217.065C339.215 216.196 339.649 215.328 340.228 214.46C338.926 215.184 337.479 215.907 336.322 216.775C337.19 215.907 337.479 214.46 337.045 213.303C336.322 214.75 335.019 216.052 333.573 216.631C333.862 215.618 334.441 214.605 335.309 213.882C334.007 214.46 332.849 215.184 331.837 216.341C331.981 215.473 332.415 214.605 333.139 214.026C331.837 214.75 330.679 215.473 329.666 216.486C329.666 215.328 330.1 214.316 330.968 213.592C329.956 214.316 328.798 215.039 328.075 215.907C328.22 215.039 328.22 214.171 328.075 213.303C327.352 214.171 326.483 214.894 325.471 215.473C325.615 214.894 325.905 214.316 326.049 213.737C325.037 214.171 324.169 214.894 323.301 215.762C323.445 214.75 323.735 213.737 324.458 212.869C323.011 213.448 321.709 214.46 320.986 215.907C320.986 215.907 320.986 215.907 320.841 215.907C320.841 214.75 320.696 213.592 320.696 212.435C319.973 214.026 318.381 215.184 316.645 215.184C317.513 214.171 318.092 212.869 318.381 211.422C317.079 212.146 315.922 212.869 314.62 213.592C314.186 213.882 313.752 214.026 313.318 213.882C313.607 213.303 314.041 212.724 314.62 212.435C312.884 213.014 311.292 213.737 309.556 214.46C309.99 213.592 310.714 212.724 311.437 211.856C310.279 212.29 309.122 213.158 308.254 214.026C308.688 213.014 308.833 211.856 308.543 210.699C307.965 212.29 306.518 213.592 304.926 214.026C305.505 213.303 305.939 212.58 306.373 211.711C305.216 212.58 304.058 213.303 302.612 213.448C303.624 212.724 304.492 211.711 304.926 210.554C303.769 211.567 302.467 212.435 301.165 213.158C301.599 212.146 301.888 211.277 302.033 210.265C301.743 210.843 301.309 211.133 300.875 211.567C300.152 212.145 299.284 212.724 298.561 213.303C298.416 212.29 298.995 211.422 299.863 210.988C298.85 211.422 297.982 212.001 297.114 212.58C297.258 212.145 297.258 211.567 297.258 211.133C296.824 211.711 296.246 212.29 295.522 212.724C295.378 211.711 295.812 210.699 296.39 209.686C295.378 210.265 294.365 211.133 293.641 212.146C293.497 212.29 293.207 212.58 293.063 212.435C292.918 212.29 292.918 212.146 292.918 212.001C293.063 210.988 293.352 210.12 293.786 209.107C292.339 209.541 291.616 211.277 290.314 211.711C290.459 210.409 290.748 209.107 291.471 208.095C290.025 208.963 288.867 210.265 288.144 211.711C288.144 210.554 287.854 209.397 287.276 208.384C286.986 209.686 286.263 210.843 285.395 211.711C285.105 209.975 285.54 207.95 286.552 206.503C284.671 207.371 283.08 208.963 282.646 210.988C282.212 210.699 282.357 210.265 282.357 209.831C282.501 209.252 282.646 208.529 282.791 207.95C281.778 208.673 280.91 209.686 280.476 210.699C280.331 209.686 280.186 208.673 280.331 207.516C279.608 208.529 278.74 209.397 277.727 209.975C277.582 210.12 277.438 210.12 277.293 209.975V209.831C277.293 209.541 277.438 209.107 277.582 208.818C278.016 208.095 278.45 207.516 278.884 206.792C277.727 207.66 276.425 208.529 275.267 209.397C274.978 209.541 274.544 209.831 274.255 209.541C275.123 208.963 275.557 207.805 275.557 206.792C274.833 207.95 273.676 208.818 272.374 209.397C272.229 209.541 271.94 209.541 271.795 209.252C271.795 209.107 271.795 208.963 271.795 208.963C272.084 208.239 272.518 207.66 272.953 207.082C271.795 207.66 270.782 208.529 269.914 209.397H269.77C269.625 208.239 269.914 206.937 270.638 205.924C269.914 206.648 269.046 207.516 268.612 208.384C267.455 205.635 271.795 197.388 272.518 195.073C272.953 193.771 273.387 192.18 272.518 191.022C271.795 190.154 270.638 189.865 269.625 189.431C267.455 188.274 266.153 185.814 266.153 183.21C266.153 180.75 267.31 178.291 268.902 176.41C269.625 177.278 270.638 178.435 272.229 178.87C273.097 176.699 271.795 173.95 270.927 173.082C270.638 172.938 270.493 172.648 270.348 172.504C270.204 172.214 270.059 171.925 270.059 171.491C269.48 168.742 268.033 166.572 265.719 164.98C261.957 162.232 257.038 161.797 252.553 161.074C249.37 160.64 246.187 160.351 243.149 159.338C237.072 157.312 230.996 157.023 227.089 156.01C226.366 155.866 225.643 155.576 225.064 155.142C224.63 154.708 224.341 154.274 223.907 153.84C223.183 152.827 222.604 151.67 222.17 150.368C221.592 148.198 221.736 144.581 223.039 142.555C223.617 141.687 223.907 141.687 225.064 141.687C226.366 141.543 227.379 140.53 227.813 139.372C228.392 138.215 228.536 136.913 228.97 135.755C226.366 135.177 223.907 138.07 221.302 138.07C222.17 136.768 223.328 135.755 224.919 135.177C229.26 133.585 234.757 132.717 238.953 130.692C241.413 129.534 243.149 127.653 244.451 125.339C244.885 125.194 245.319 125.194 245.753 125.049C247.634 124.47 249.225 123.313 250.527 121.866C251.829 120.419 254.144 117.671 254 117.237C253.855 116.803 249.225 122.879 245.319 123.602C247.778 118.394 247.779 112.752 247.2 112.896C246.91 113.041 246.042 116.079 245.753 117.671C245.03 121.577 242.715 125.339 239.532 127.653C239.098 127.943 238.664 128.232 238.23 128.521C239.821 126.641 240.689 124.326 241.123 121.866C241.557 118.539 240.4 111.739 239.966 111.883C239.677 112.028 239.821 115.211 239.821 117.815C238.085 115.79 236.928 111.305 236.494 111.449C236.204 111.594 236.204 113.041 236.349 113.764C236.494 114.198 236.638 114.632 236.783 114.922C237.506 116.658 238.519 118.249 239.677 119.841C239.677 120.854 239.532 121.866 239.387 122.879C239.098 124.036 238.664 125.194 238.085 126.351C237.506 127.653 236.494 128.956 235.191 130.113C233.021 130.981 230.706 131.415 228.392 131.849C229.549 130.113 230.272 128.232 229.549 127.075C229.26 126.641 229.26 129.534 226.077 132.283C225.209 132.428 224.341 132.717 223.617 133.007C221.736 133.875 220.145 135.321 218.988 137.057C218.553 136.623 217.975 136.189 217.541 135.9C216.673 135.321 215.805 135.177 214.792 135.032C214.937 133.73 214.792 132.283 214.502 131.126C214.358 130.402 213.924 129.679 213.634 129.1C213.49 124.905 215.226 122.734 214.792 122.879C213.779 123.313 212.911 125.194 212.622 127.219C211.609 125.483 210.741 123.747 210.017 121.866C210.017 120.13 210.307 118.539 210.741 117.237C211.175 116.079 211.464 114.922 212.043 113.764C212.477 112.896 213.056 112.028 213.634 111.16C215.081 110.726 216.528 110.147 217.975 109.135C218.264 108.99 218.553 108.701 218.843 108.411C219.422 107.977 220.29 106.964 220.145 106.675C220 106.386 216.817 108.99 214.792 109.569C216.239 107.543 218.119 105.228 218.119 104.939C217.975 104.65 213.49 109.135 211.754 111.883C210.596 113.909 209.583 116.368 209.439 118.828C209.294 118.394 209.294 117.815 209.294 117.381C209.005 113.62 209.873 109.424 211.754 105.952C212.622 104.505 213.924 101.756 213.779 101.467C213.634 101.033 210.307 105.228 208.426 110.437C207.124 107.254 208.137 100.309 207.703 100.599C207.413 100.888 206.979 104.36 206.835 106.241C206.69 108.122 206.835 110.003 207.558 111.594C207.703 111.883 207.703 112.028 207.847 112.318C207.124 114.922 206.835 117.671 207.413 120.275C208.426 124.326 210.886 128.377 212.188 132.283C212.477 133.151 212.622 134.019 212.622 135.032C212.477 135.032 212.332 135.032 212.188 135.032C211.754 135.032 211.32 135.032 211.03 134.743C210.741 134.598 210.452 134.309 210.307 134.019C209.149 132.572 207.558 131.704 205.822 131.56C205.822 134.164 206.835 136.623 208.571 138.504C208.86 138.794 209.149 139.083 209.149 139.372C209.294 139.806 209.149 140.385 209.005 140.819C208.137 143.423 207.124 146.028 205.822 148.342C205.532 148.776 205.243 149.21 205.243 149.789C205.243 150.513 205.822 151.091 206.401 151.381C206.979 151.67 207.703 151.67 208.426 151.525C208.715 151.525 209.005 151.381 209.294 151.525C210.017 151.67 210.452 152.538 210.596 153.261C211.464 156.444 212.043 159.627 212.188 162.955C212.332 164.98 212.332 167.151 213.056 169.031C214.213 172.504 217.396 174.963 219.711 177.567L219.856 177.712C219.856 178.435 219.711 179.159 219.711 179.882C219.711 180.027 219.711 180.027 219.711 180.172C219.277 183.499 218.409 186.827 217.541 190.01C216.962 192.035 216.383 193.916 215.805 195.942C215.081 198.112 213.924 200.282 212.188 201.873C212.332 200.861 212.622 199.848 212.766 198.69C211.898 199.703 210.886 200.716 209.873 201.439C210.162 200.137 210.741 198.835 211.464 197.678C210.162 198.69 209.149 199.703 207.992 200.861C208.715 199.703 209.005 198.256 208.86 196.954C207.992 198.546 206.69 199.993 205.243 201.005C206.256 199.993 206.979 198.69 207.269 197.244C206.256 198.98 204.52 200.427 202.494 201.005C203.796 199.993 204.664 198.69 205.098 197.099C204.375 198.401 203.073 199.414 201.771 199.993C202.639 198.98 203.073 197.678 202.928 196.376C201.771 198.112 200.179 200.137 198.009 199.703C198.588 198.401 199.311 197.244 200.035 196.086C198.299 196.81 196.852 197.822 195.405 198.98C196.128 197.533 196.996 196.376 198.154 195.363C196.562 195.942 195.26 196.954 194.248 198.401C194.103 197.099 193.958 195.797 193.813 194.495C193.524 195.797 192.801 196.954 191.788 197.678C192.077 196.81 192.367 195.942 192.945 195.218C191.643 195.797 190.486 196.52 189.473 197.533C190.197 196.52 190.92 195.507 191.643 194.495C190.197 195.073 188.75 195.942 187.737 197.244C188.316 195.942 188.75 194.784 189.184 193.337C187.882 194.061 186.724 195.218 186.001 196.52C185.567 195.218 185.133 193.771 184.554 192.614C184.554 194.061 184.12 195.363 183.397 196.52C183.107 194.639 183.397 192.614 184.12 190.878C182.239 191.891 181.371 194.061 180.648 195.942C180.358 194.495 180.214 192.903 180.503 191.457C179.635 192.469 178.912 193.771 178.478 195.073C177.465 193.771 177.031 192.18 177.175 190.733C176.597 191.891 176.307 193.048 176.307 194.35C175.729 193.337 175.439 192.035 175.729 190.878C175.295 191.891 175.005 193.048 174.861 194.061C173.993 193.048 173.559 191.457 173.848 190.01C173.125 190.878 172.69 191.891 172.256 192.903C171.244 192.18 170.376 191.167 169.363 190.299C168.205 189.286 168.205 188.563 168.35 187.116C168.35 186.537 168.495 185.814 168.495 185.091C169.218 186.248 170.52 188.418 171.244 188.418C171.822 188.418 172.112 187.84 172.112 187.261C172.112 186.682 171.967 186.248 171.822 185.669C171.678 184.367 172.401 183.065 173.269 182.052C174.137 181.04 175.295 180.316 176.163 179.159C178.333 176.555 178.333 172.938 178.912 169.755C179.78 165.559 181.661 161.653 183.397 157.891C184.843 154.708 185.277 151.091 184.554 147.764C184.265 146.172 183.686 144.725 183.252 143.279C182.963 141.687 182.818 140.24 182.673 138.649C182.384 135.611 182.239 132.283 181.95 129.245C182.095 128.666 182.239 127.943 182.384 127.364C182.673 126.496 182.963 125.628 183.252 124.76C183.541 123.602 183.397 122.3 183.252 121.143C183.107 119.985 182.963 118.683 182.529 117.526C183.831 117.237 185.133 116.803 186.146 115.934C187.592 114.777 188.605 113.041 188.605 111.16C186.724 112.752 184.12 112.752 181.661 113.475C181.95 111.739 182.529 110.147 183.831 108.701C187.303 104.939 192.222 101.322 195.26 97.271C197.141 94.9561 197.865 92.0626 198.009 89.3137C198.443 89.0243 198.733 88.735 199.167 88.3009C200.613 86.8541 201.626 84.8286 202.205 82.9478C202.784 80.9223 203.652 77.1607 203.218 76.7267C202.928 76.4373 201.337 84.5393 197.864 87.2882C197.72 81.067 194.826 75.4246 194.392 75.8586C194.103 76.1479 194.826 79.4755 195.405 81.2117C196.707 85.4074 196.273 90.1817 194.248 94.0881C193.958 94.6668 193.669 95.1008 193.379 95.5348C193.958 92.9306 193.669 90.0371 192.801 87.5775C191.643 84.1053 187.014 78.0288 186.724 78.3181C186.435 78.6075 188.171 81.6457 189.473 84.2499C186.724 83.0925 183.397 79.3309 183.107 79.6202C182.818 79.9096 183.541 81.2117 184.12 81.9351C184.409 82.2244 184.699 82.6585 185.133 82.9478C186.724 84.2499 188.605 85.2627 190.341 86.2754C190.775 87.2882 191.354 88.3009 191.499 89.4584C191.788 90.7605 191.933 92.2072 191.933 93.5093C191.933 95.1008 191.643 96.8369 190.92 98.7178C189.184 100.599 187.158 102.19 185.133 103.781C185.422 101.467 185.133 99.2965 183.831 98.5731C183.252 98.2837 184.843 101.033 182.963 105.518C182.239 106.096 181.516 106.675 180.937 107.543C179.635 109.135 178.912 111.015 178.622 112.896C176.886 112.173 174.861 112.318 173.269 112.896H173.125C172.69 110.871 171.967 108.99 170.81 107.398C170.231 106.675 169.508 106.096 168.784 105.373C166.903 101.033 168.495 98.139 167.916 98.4284C166.614 99.1518 166.325 101.467 166.614 103.637C164.589 102.19 162.563 100.454 160.827 98.5731C160.103 96.8369 159.814 94.9561 159.814 93.3647C159.814 92.0626 159.959 90.6158 160.248 89.3137C160.538 88.1562 160.972 87.1435 161.406 86.1308C163.286 85.2627 165.023 84.1053 166.614 82.8032C166.903 82.5138 167.337 82.2244 167.627 81.7904C168.205 81.2117 168.929 79.7649 168.639 79.4756C168.35 79.1862 165.023 82.9478 162.274 84.1053C163.576 81.6457 165.312 78.4628 165.023 78.1734C164.733 77.8841 160.103 83.8159 158.946 87.4329C158.078 90.0371 157.789 92.7859 158.367 95.3902C158.078 94.9561 157.789 94.3774 157.499 93.9434C155.474 90.0371 155.04 85.2627 156.342 81.067C156.921 79.3309 157.644 76.0033 157.355 75.7139C156.921 75.2799 154.027 80.7777 153.882 87.1435C150.41 84.5393 148.963 76.2926 148.529 76.582C148.095 77.016 148.963 80.7777 149.542 82.8032C150.121 84.8286 151.133 86.7095 152.58 88.1562C153.014 88.4456 153.304 88.8796 153.738 89.169C153.882 91.9179 154.75 94.8114 156.487 97.1263C159.669 101.177 164.589 104.794 167.916 108.556C168.929 109.713 169.508 111.015 169.797 112.318C168.929 112.028 167.916 111.883 167.048 111.739C165.746 111.449 164.299 110.726 163.72 109.569C163.431 111.739 164.299 113.909 165.746 115.5C166.469 116.369 167.482 116.947 168.495 117.381C168.35 117.96 168.35 118.683 168.205 119.262C167.916 123.747 166.903 127.653 165.601 131.849C165.312 132.717 165.023 133.585 164.588 134.453C162.563 138.07 157.644 139.228 153.882 140.53C150.699 141.543 147.661 142.7 144.478 143.713C139.993 145.159 135.219 147.04 132.759 150.947C131.747 152.538 131.023 154.564 129.432 155.721C131.023 156.589 133.049 156.589 134.495 155.576C133.772 156.01 135.219 160.351 135.363 160.929C135.653 162.666 136.087 164.691 135.798 166.427C135.653 167.729 135.074 169.031 134.495 170.189C133.338 172.214 131.747 173.95 130.01 175.397C129.287 175.976 128.419 176.555 128.13 177.423C127.985 177.857 127.985 178.291 128.13 178.725C128.274 180.461 128.419 182.052 128.708 183.789C128.853 184.512 128.998 185.091 128.853 185.814C128.708 186.393 127.696 187.695 127.696 186.393C127.696 185.959 127.84 185.669 127.696 185.235C127.262 185.959 126.972 186.682 126.538 187.406C126.538 186.248 126.538 185.091 126.538 183.789C126.393 185.235 125.381 186.393 124.223 187.116C124.802 186.248 125.091 185.091 124.947 183.933C124.657 185.091 123.934 186.248 122.776 186.827C123.355 185.669 123.934 184.223 123.355 183.065C122.342 184.367 121.185 185.669 119.738 186.537C120.172 185.38 120.462 184.223 120.751 183.065C119.449 183.933 118.291 185.091 117.423 186.393C117.279 185.091 117.423 183.789 117.857 182.486C116.411 183.499 115.398 184.946 114.819 186.537C114.096 185.38 113.372 184.078 112.649 182.921C113.228 182.921 113.806 182.921 114.24 182.776C109.466 177.712 98.7599 161.653 96.445 157.023C97.1684 157.602 98.0365 158.036 99.0493 158.181C97.3131 155.721 96.445 154.708 95.2876 151.959C96.7344 152.972 97.7471 153.117 98.7599 153.261C94.8536 147.764 90.8026 139.517 88.3431 133.151C89.6452 134.019 90.5132 134.598 92.2494 134.598C90.9473 132.428 89.6452 130.258 88.1984 128.087C89.0665 129.1 90.3686 129.824 91.8153 130.258C87.6197 125.194 86.3176 122.59 84.1474 116.947C84.8708 117.237 85.4495 117.526 86.1729 117.815C85.3048 116.513 84.7261 115.066 84.4368 113.62C85.1601 113.764 85.7388 113.909 86.4622 114.198C80.9645 108.122 80.6751 101.177 78.6496 92.9306C79.2283 93.5093 79.373 93.7987 79.9517 94.0881C78.0709 91.4838 77.3475 88.1562 76.9135 85.2627C76.9135 87.4329 75.4667 93.654 74.3093 95.8242C74.7433 95.5348 74.7433 95.8242 75.1773 95.2455C74.3093 99.1518 73.5859 100.309 72.2838 103.203C72.5731 103.203 72.7178 103.058 73.1518 102.624C72.7178 105.952 72.2838 108.122 69.9689 113.62C70.6923 113.62 70.9817 113.041 71.7051 112.462C71.1263 113.764 70.2583 114.922 69.2455 115.79C69.8242 115.645 70.2583 115.5 70.6923 115.066C70.6923 116.224 66.786 126.207 63.0244 133.875C64.1818 133.875 65.3392 133.151 65.6286 132.283C64.7605 135.755 63.3137 139.083 61.1435 142.121C62.735 141.687 64.3265 140.819 65.3392 139.662C64.3265 143.568 62.735 147.04 60.9989 150.513C59.2627 147.04 57.8159 144.002 57.2372 142.266C57.9606 143.134 58.9734 143.713 59.9861 143.713C58.1053 140.385 57.2372 138.938 56.0798 135.177C57.6713 136.623 58.684 136.768 59.8414 136.913C55.6458 129.39 51.3054 117.96 48.8459 109.424C50.2927 110.581 51.1608 111.305 52.8969 111.449C51.4501 108.411 50.0033 105.518 48.7012 102.479C49.714 103.782 51.0161 104.794 52.4628 105.518C47.9778 98.5731 46.6757 95.1008 44.2162 87.1435C44.9396 87.5775 45.663 87.8669 46.3864 88.3009C45.5183 86.4201 44.7949 84.5393 44.5055 82.5138C45.2289 82.8031 45.9523 82.9478 46.6757 83.2372C40.7439 74.9905 40.4546 65.4418 38.4291 54.1569C39.0078 55.0249 39.2971 55.459 39.8758 55.7483C37.995 52.1314 37.127 47.791 36.6929 43.5953C36.6929 46.4889 35.1015 55.0249 33.944 58.0632C34.3781 57.6291 34.3781 58.0632 34.8121 57.3398C33.7994 62.6929 33.076 64.2843 31.7739 68.3353C32.0632 68.3353 32.2079 68.046 32.7866 67.6119C32.3526 72.097 31.9185 75.1352 29.3143 82.6585C30.1824 82.6585 30.4718 81.9351 31.1952 81.2117C30.6164 82.9478 29.7484 84.5393 28.4463 85.8414C29.025 85.6967 29.459 85.4074 29.893 84.9733C29.893 86.4201 25.6974 100.165 21.7911 110.726C23.0932 110.726 24.2506 109.713 24.54 108.411C23.6719 113.041 22.0804 117.671 19.7656 121.722C21.5017 121.143 23.0932 119.841 24.1059 118.394C23.0932 123.168 21.6464 127.509 20.0549 131.849C18.7528 129.1 17.7401 126.93 17.1614 125.339C18.0294 126.351 19.3315 127.075 20.6336 127.219C18.3188 123.024 17.1614 121.288 15.7146 116.513C17.7401 118.249 18.8975 118.539 20.489 118.683C15.1359 109.135 9.78276 94.9561 6.59985 84.1053C8.48066 85.6967 9.49341 86.5648 11.8083 86.5648C10.0721 82.8031 8.19131 79.0415 6.45517 75.2799C7.75727 76.8713 9.34873 78.3181 11.2295 79.0415C5.5871 70.3608 3.85096 65.8758 0.812714 56.0377C1.68079 56.4717 2.69353 57.0504 3.5616 57.4845C2.40417 55.1696 1.68078 52.7101 1.24675 50.1059C2.11481 50.3952 3.12756 50.6846 3.99564 50.9739C-3.38296 40.5571 -3.81699 28.6935 -6.4212 14.3703C-5.69781 15.5278 -5.40845 15.9618 -4.68506 16.3958C-7.14459 11.9108 -8.15734 6.26835 -8.59137 1.20461C-8.59137 4.82157 -10.4722 15.6724 -12.0637 19.4341C-11.4849 18.8554 -11.4849 19.4341 -10.9062 18.4213C-12.0636 25.2212 -13.0764 27.2467 -14.8125 32.1658C-14.3785 32.1658 -14.2338 31.8764 -13.5104 31.153C-14.0891 36.7955 -14.6679 40.5571 -17.8508 50.1059C-16.838 50.1059 -16.404 49.2378 -15.5359 48.225C-16.2593 50.3952 -17.4167 52.4207 -18.8635 54.0122C-18.1401 53.8675 -17.5614 53.4335 -16.9827 52.8548C-17.1274 54.7356 -22.1911 71.9523 -27.1102 85.2627C-25.5187 85.2627 -24.0719 83.9606 -23.7826 82.3691C-24.94 88.3009 -26.9655 93.9434 -29.7144 99.1518C-27.5442 98.4284 -25.5187 96.8369 -24.2166 94.8114C-26.9655 107.832 -32.0293 118.539 -37.8164 130.981C-35.2122 130.113 -32.7526 128.521 -30.7271 126.641C-31.7399 127.509 -32.3186 130.402 -32.7526 131.704C-33.476 133.441 -34.3441 135.177 -35.2122 136.913C-36.8036 140.385 -38.5398 143.713 -40.4206 147.04C-43.8929 153.551 -46.7864 160.061 -50.5481 166.427C-49.3906 165.559 -48.2332 164.691 -46.9311 164.112C-47.6545 166.572 -49.246 170.044 -50.4034 172.359C-57.782 172.648 -65.4499 172.938 -73.4072 173.372C-70.803 206.937 -69.0669 227.626 -66.318 261.336L-21.4677 267.991C207.703 283.472 794.952 277.106 857.887 274.502C893.188 273.055 933.843 265.821 943.536 244.264C946.14 236.307 944.694 227.481 942.523 218.945ZM167.771 167.295C168.205 165.993 168.784 164.691 169.508 163.534C169.652 163.534 169.797 163.534 170.086 163.534C170.81 163.678 170.954 164.112 171.099 164.836C171.533 166.427 171.678 168.163 171.678 169.755C171.678 171.346 171.822 173.082 171.822 174.674C171.822 175.108 171.822 175.687 171.822 176.121C171.678 176.699 171.388 177.133 171.099 177.712C170.231 179.014 169.363 180.172 168.205 181.184C167.771 181.618 167.193 182.052 166.759 182.631C166.903 180.027 166.614 171.057 167.771 167.295ZM-27.8336 169.755C-27.8336 169.899 -27.8336 169.899 -27.8336 170.044C-27.9783 169.755 -28.1229 169.465 -28.2676 169.176C-28.1229 169.031 -27.8336 169.031 -27.6889 168.887C-27.6889 169.031 -27.6889 169.321 -27.8336 169.755ZM-23.6379 170.333C-23.7826 170.189 -23.9273 170.189 -24.0719 170.044C-23.9273 170.044 -23.9273 169.899 -23.7826 169.899L-23.6379 170.044C-23.6379 170.189 -23.6379 170.333 -23.6379 170.333ZM103.679 181.618C103.679 181.474 103.534 181.474 103.679 181.618C103.679 181.474 103.679 181.474 103.679 181.618C103.679 181.474 103.679 181.474 103.679 181.618ZM109.032 183.644C108.743 183.933 108.164 184.078 107.875 183.933C107.296 183.355 107.296 182.631 107.585 181.908C108.164 182.052 108.743 182.052 109.321 182.197C109.321 182.342 109.321 182.486 109.321 182.776C109.321 183.065 109.321 183.499 109.032 183.644ZM144.189 189.286C144.189 189.431 144.189 189.576 144.044 189.72C143.61 188.708 143.321 187.55 142.887 186.537C142.453 187.116 142.019 187.84 141.729 188.563C141.874 187.116 142.019 185.525 142.163 184.078C142.163 185.525 141.295 186.827 139.993 187.55C140.717 186.537 141.295 185.525 141.585 184.367C140.283 185.669 138.836 186.971 137.244 187.84C138.112 186.827 138.691 185.525 138.546 184.223C137.968 185.525 137.1 186.537 135.942 187.406C136.376 186.393 136.521 185.38 136.376 184.223C135.942 184.946 135.508 185.669 135.074 186.393C135.074 185.814 135.074 185.235 135.074 184.512C134.64 185.091 134.206 185.525 133.772 186.103C133.627 185.525 133.627 184.946 133.483 184.367C133.338 184.946 133.193 185.525 132.904 186.103C132.904 186.248 132.759 186.393 132.615 186.393C132.47 186.393 132.47 186.393 132.325 186.248C130.155 184.657 130.444 182.052 130.444 179.593C130.444 178.291 131.457 177.567 132.47 176.989C133.627 176.265 134.64 175.397 135.653 174.384C136.666 173.372 137.534 172.214 138.691 171.346C139.559 170.623 140.572 170.044 141.585 169.465C141.585 169.465 141.729 169.465 141.729 169.321C141.151 170.912 140.427 172.359 139.414 173.661C139.125 174.095 138.691 174.529 138.691 175.108C138.691 175.687 138.98 176.121 139.414 176.555C140.572 178.146 141.44 179.882 142.163 181.763C143.61 184.223 144.768 186.682 144.189 189.286ZM156.052 190.733C155.908 189.576 156.052 188.418 156.342 187.261C155.474 188.274 154.895 189.431 154.461 190.588C154.027 190.01 154.172 189.286 154.461 188.563C154.75 187.84 155.04 187.261 155.04 186.537C153.882 187.55 153.014 188.852 152.58 190.299C152.436 189.286 151.857 188.129 150.989 187.406C151.278 188.274 151.278 189.431 150.844 190.299C150.555 189.286 149.831 188.563 148.819 187.984C146.938 186.971 146.938 185.091 146.648 183.21C146.359 181.908 145.925 180.606 145.636 179.304C145.346 178.291 145.057 176.989 145.491 176.121C145.78 175.542 146.359 175.253 146.938 174.819C150.41 172.504 153.882 170.044 156.052 166.427C156.342 165.848 156.631 165.125 156.921 164.546C157.789 164.836 158.512 165.27 159.091 165.993C159.525 166.572 159.814 167.295 159.959 167.874C161.116 171.925 161.984 175.976 162.563 180.172C162.997 183.789 163.865 186.971 162.852 190.588C162.852 190.878 162.708 191.167 162.418 191.167C162.129 191.167 162.129 190.878 161.984 190.588C161.84 189.431 161.84 188.274 161.84 187.116C160.827 188.129 160.103 189.431 159.814 190.733C159.959 189.431 160.103 188.129 160.248 186.971C159.38 188.129 158.801 189.286 158.512 190.588C158.223 188.852 157.789 187.261 157.065 185.669C157.21 187.406 156.921 189.142 156.052 190.733ZM553.194 211.422C553.194 211.422 553.194 211.277 553.194 211.422V211.422ZM230.272 186.682C230.562 184.223 231.719 181.618 234.034 180.895C235.191 180.461 236.494 180.75 237.796 181.04C243.004 182.052 245.608 183.065 249.804 184.078C250.383 186.393 251.829 188.274 253.421 190.01C254.434 191.167 255.446 192.325 256.604 193.337C256.893 193.627 257.327 194.061 257.327 194.495C257.327 194.784 257.327 195.073 257.327 195.363C256.893 197.678 255.012 199.414 253.855 201.439C252.698 203.609 250.238 204.912 249.081 207.082C249.659 206.069 249.949 205.056 250.238 203.899C249.225 204.912 248.357 206.069 247.634 207.226C247.779 206.069 248.068 204.912 248.213 203.754C247.2 204.767 246.332 205.924 245.608 207.226C245.753 205.635 246.042 204.044 246.476 202.597C245.319 203.32 244.451 204.333 243.872 205.635C244.162 204.622 244.306 203.609 244.596 202.597C243.438 203.609 242.425 204.912 241.702 206.358C242.281 205.201 242.715 203.899 242.57 202.741C241.991 204.333 240.689 205.78 239.242 206.503C240.4 205.346 241.268 203.899 241.557 202.307C240.4 204.044 238.808 205.49 236.928 206.358C237.796 204.912 238.664 203.32 239.387 201.873C238.085 202.886 236.928 203.899 235.77 205.056C236.204 204.044 236.783 203.031 237.072 202.018C236.204 203.175 235.191 204.333 234.323 205.49C234.323 204.333 234.468 203.031 234.902 202.018C234.323 203.175 233.455 204.188 232.443 204.912C232.153 203.754 232.298 202.452 233.021 201.439C232.009 202.163 231.43 203.031 230.996 204.188C230.272 201.439 230.417 198.401 230.128 195.652C230.128 192.469 229.983 189.576 230.272 186.682ZM219.132 192.18C219.711 190.878 220.434 189.431 221.158 188.129C221.447 187.695 223.473 184.512 223.328 184.223C223.617 184.801 223.907 185.525 224.196 186.248C225.787 191.022 227.09 196.376 226.945 201.439C226.945 201.873 226.945 202.452 226.655 202.886C226.366 203.32 225.932 203.754 225.353 203.754C225.787 202.741 225.932 201.584 225.643 200.427C225.209 201.584 224.485 202.597 223.762 203.609C223.907 202.163 223.762 200.571 223.617 199.124C223.328 200.571 222.749 202.018 221.736 203.031C221.736 201.584 222.026 200.282 222.46 198.835C221.447 199.848 220.579 201.15 220.145 202.597C220.29 201.439 220.434 200.282 220.579 199.269C219.566 200.137 218.988 201.439 218.988 202.597C218.409 201.729 218.119 200.861 217.975 199.848C217.685 200.716 217.541 201.729 217.541 202.597C215.081 199.558 217.685 195.218 219.132 192.18ZM267.021 198.401C266.731 200.571 266.297 202.741 265.574 204.912C265.285 205.924 265.285 206.503 264.272 207.082C264.272 206.937 264.416 206.792 264.416 206.792C263.982 207.082 263.548 207.371 263.114 207.66C262.68 207.805 262.246 207.95 261.812 208.095C261.957 207.516 262.391 206.792 262.68 206.358C261.523 207.082 260.51 208.095 259.787 209.252C260.076 207.95 259.931 206.648 259.642 205.346C259.353 207.082 257.761 208.673 256.025 208.963C256.459 208.094 257.617 207.66 257.761 206.792C256.459 207.516 255.157 208.094 253.71 208.239C254.289 207.371 255.012 206.648 255.736 206.069C254.578 206.503 253.566 206.937 252.698 207.66C254.289 205.924 255.591 204.188 256.893 202.307C258.051 200.716 259.642 199.269 261.089 197.967C261.668 197.388 262.246 196.81 262.246 196.086C262.246 195.652 262.102 195.363 261.957 194.929C261.523 193.916 261.089 193.048 260.655 192.035C261.812 192.903 263.114 193.771 264.561 194.639C265.429 195.218 266.587 195.652 266.876 196.665C267.165 196.954 267.021 197.678 267.021 198.401ZM718.706 153.84C718.706 153.695 718.561 153.406 718.561 153.261C718.706 153.117 718.851 153.117 718.996 152.972L719.14 153.117C718.996 153.261 718.851 153.551 718.706 153.84ZM759.071 130.836C758.927 130.402 758.927 129.968 758.782 129.534C758.782 129.534 758.927 129.534 758.927 129.39C759.071 129.534 759.216 129.824 759.361 129.968C759.361 130.258 759.216 130.547 759.071 130.836ZM813.76 126.062C813.615 125.773 813.47 125.339 813.326 125.049C813.904 124.76 814.338 124.47 814.772 124.036C814.483 124.615 814.194 125.339 813.76 126.062Z" fill="url(#paint0_linear_317_607)"/>
<defs>
<linearGradient id="paint0_linear_317_607" x1="435.128" y1="277.997" x2="435.128" y2="0.770568" gradientUnits="userSpaceOnUse">
<stop offset="0.0481684" stop-color="#063347"/>
<stop offset="0.3854" stop-color="#0B414E"/>
<stop offset="0.9946" stop-color="#196461"/>
</linearGradient>
</defs>
</svg>
