<svg width="657" height="179" viewBox="0 0 657 179" fill="none" xmlns="http://www.w3.org/2000/svg">
<path d="M491.022 98.259C483.972 98.3691 477.033 98.4793 469.983 98.8097C458.197 99.2503 446.191 100.021 434.515 98.5894C426.034 97.5981 417.662 95.3951 409.291 93.1921C394.641 89.3369 377.678 81.0756 373.382 81.8467C369.086 82.6177 341.329 95.1748 334.279 95.1748C327.23 95.1748 294.405 82.6177 281.407 79.3132C247.261 70.7216 212.784 62.901 180.621 48.4714C166.742 42.1929 152.863 35.2534 137.883 32.4997C128.96 30.8474 119.598 30.7373 111.557 26.5516C106.38 23.908 102.194 19.7223 97.678 16.0874C89.1965 9.25814 79.283 3.97097 68.8188 0.776629C67.1666 0.225881 65.4042 -0.214717 63.7519 0.225881C61.7693 0.666479 60.2272 2.20857 58.9054 3.64052C22.556 41.7523 -13.573 81.9568 -41.0003 127.228C-42.4322 129.541 -43.8641 132.515 -42.5423 134.939C-41.4408 136.811 -39.2379 137.472 -37.145 137.913C7.79599 148.157 54.8298 142.759 100.211 150.91C123.673 155.206 146.364 163.027 169.716 168.204C206.506 176.355 244.397 177.787 282.178 178.007C385.278 178.668 488.488 170.627 590.267 153.995C600.4 152.342 610.975 148.928 621.219 148.267C630.031 147.716 637.741 149.919 646.223 145.403C653.272 141.658 658.339 132.736 655.035 125.466C653.493 122.161 650.629 119.738 647.544 117.755C638.953 112.358 628.709 110.265 618.795 108.503C576.498 101.453 533.65 97.9285 491.022 98.259Z" fill="url(#paint0_linear_317_168)"/>
<defs>
<linearGradient id="paint0_linear_317_168" x1="294.897" y1="196.857" x2="321.619" y2="45.3091" gradientUnits="userSpaceOnUse">
<stop offset="0.371" stop-color="#F4FFF1"/>
<stop offset="0.5143" stop-color="#EBFFEE"/>
<stop offset="0.7435" stop-color="#D4FFE5"/>
<stop offset="0.8871" stop-color="#C2FFDE"/>
</linearGradient>
</defs>
</svg>
