<svg width="742" height="106" viewBox="0 0 742 106" fill="none" xmlns="http://www.w3.org/2000/svg">
<path d="M0.134277 47.0087C10.9289 38.3069 23.2657 30.9269 36.9242 28.8341C50.6929 26.6311 64.5717 29.8254 78.2303 32.5791C108.632 38.6374 139.914 41.9419 170.866 40.3998C199.725 38.9678 224.289 29.3848 251.936 22.1149C255.13 21.2337 258.435 20.3526 261.85 20.683C267.247 21.1236 271.983 24.5382 276.61 27.4021C300.512 42.7129 329.041 48.7711 356.798 54.609C367.483 56.812 378.388 59.1252 389.292 57.8034C397.994 56.812 406.256 53.5076 414.407 50.0929C434.564 41.6114 454.281 32.1386 473.557 21.7845C485.453 15.3958 504.289 2.94893 517.507 0.635789C523.565 -0.465706 529.623 1.95758 535.351 4.16057C616.751 35.3329 708.285 35.5532 787.483 72.0127C795.965 75.9781 804.887 80.8246 809.182 89.0858C797.507 93.7121 784.729 94.9238 772.172 95.5847C684.163 100.321 596.043 83.5784 508.144 89.196C457.145 92.5005 406.806 103.295 355.697 105.498C256.562 109.904 157.648 81.9261 58.7338 90.1873" fill="url(#paint0_linear_317_166)"/>
<defs>
<linearGradient id="paint0_linear_317_166" x1="404.692" y1="105.983" x2="404.692" y2="0.327809" gradientUnits="userSpaceOnUse">
<stop stop-color="#FFFFF3"/>
<stop offset="0.2592" stop-color="#FBFFF2"/>
<stop offset="0.5415" stop-color="#EDFEF0"/>
<stop offset="0.8337" stop-color="#D8FEED"/>
<stop offset="1" stop-color="#C8FDEA"/>
</linearGradient>
</defs>
</svg>
