<svg width="800" height="180" viewBox="0 0 800 180" fill="none" xmlns="http://www.w3.org/2000/svg">
<path d="M250.674 96.1748C277.197 96.1748 298.699 74.6732 298.699 48.1496C298.699 21.626 277.197 0.124397 250.674 0.124397C224.15 0.124397 202.648 21.626 202.648 48.1496C202.648 74.6732 224.15 96.1748 250.674 96.1748Z" fill="url(#paint0_linear_317_164)"/>
<path d="M58.1343 77.0087C68.9289 68.3069 81.2657 60.9269 94.9242 58.8341C108.693 56.6311 122.572 59.8254 136.23 62.5791C166.632 68.6374 197.914 71.9419 228.866 70.3998C257.725 68.9678 282.289 59.3848 309.936 52.1149C313.13 51.2337 316.435 50.3526 319.85 50.683C325.247 51.1236 329.983 54.5382 334.61 57.4021C358.512 72.7129 387.041 78.7711 414.798 84.609C425.483 86.812 436.388 89.1252 447.293 87.8034C455.994 86.812 464.256 83.5076 472.407 80.0929C492.564 71.6114 512.281 62.1386 531.557 51.7845C543.453 45.3958 562.289 32.9489 575.507 30.6358C581.565 29.5343 587.623 31.9576 593.351 34.1606C674.751 65.3329 766.286 65.5532 845.483 102.013C853.964 105.978 862.887 110.825 867.182 119.086C855.507 123.712 842.729 124.924 830.172 125.585C742.163 130.321 654.043 113.578 566.144 119.196C515.145 122.5 464.806 133.295 413.697 135.498C314.562 139.904 215.648 111.926 116.734 120.187" fill="url(#paint1_linear_317_164)"/>
<path d="M491.022 99.259C483.972 99.3691 477.033 99.4793 469.983 99.8097C458.197 100.25 446.191 101.021 434.515 99.5894C426.034 98.5981 417.662 96.3951 409.291 94.1921C394.641 90.3369 377.678 82.0756 373.382 82.8467C369.086 83.6177 341.329 96.1748 334.279 96.1748C327.23 96.1748 294.405 83.6177 281.407 80.3132C247.261 71.7216 212.784 63.901 180.621 49.4714C166.742 43.1929 152.863 36.2534 137.883 33.4997C128.96 31.8474 119.598 31.7373 111.557 27.5516C106.38 24.908 102.194 20.7223 97.678 17.0874C89.1965 10.2581 79.283 4.97097 68.8188 1.77663C67.1666 1.22588 65.4042 0.785283 63.7519 1.22588C61.7693 1.66648 60.2272 3.20857 58.9054 4.64052C22.556 42.7523 -13.573 82.9568 -41.0003 128.228C-42.4322 130.541 -43.8641 133.515 -42.5423 135.939C-41.4408 137.811 -39.2379 138.472 -37.145 138.913C7.79599 149.157 54.8298 143.759 100.211 151.91C123.673 156.206 146.364 164.027 169.716 169.204C206.506 177.355 244.397 178.787 282.178 179.007C385.278 179.668 488.488 171.627 590.267 154.995C600.4 153.342 610.975 149.928 621.219 149.267C630.031 148.716 637.741 150.919 646.223 146.403C653.272 142.658 658.339 133.736 655.035 126.466C653.493 123.161 650.629 120.738 647.544 118.755C638.953 113.358 628.709 111.265 618.795 109.503C576.498 102.453 533.65 98.9285 491.022 99.259Z" fill="url(#paint2_linear_317_164)"/>
<defs>
<linearGradient id="paint0_linear_317_164" x1="250.694" y1="96.2308" x2="250.694" y2="0.124397" gradientUnits="userSpaceOnUse">
<stop offset="0.0911791" stop-color="#FD9730" stop-opacity="0.5"/>
<stop offset="0.3913" stop-color="#FFB34E" stop-opacity="0.6651"/>
<stop offset="0.7177" stop-color="#FFE480" stop-opacity="0.8447"/>
<stop offset="1" stop-color="#F9FFB3"/>
</linearGradient>
<linearGradient id="paint1_linear_317_164" x1="462.692" y1="135.983" x2="462.692" y2="30.3278" gradientUnits="userSpaceOnUse">
<stop stop-color="#FFFFF3"/>
<stop offset="0.2592" stop-color="#FBFFF2"/>
<stop offset="0.5415" stop-color="#EDFEF0"/>
<stop offset="0.8337" stop-color="#D8FEED"/>
<stop offset="1" stop-color="#C8FDEA"/>
</linearGradient>
<linearGradient id="paint2_linear_317_164" x1="294.897" y1="197.857" x2="321.619" y2="46.3091" gradientUnits="userSpaceOnUse">
<stop offset="0.371" stop-color="#F4FFF1"/>
<stop offset="0.5143" stop-color="#EBFFEE"/>
<stop offset="0.7435" stop-color="#D4FFE5"/>
<stop offset="0.8871" stop-color="#C2FFDE"/>
</linearGradient>
</defs>
</svg>
